<svg width="26" height="27" viewBox="0 0 26 27" fill="none" xmlns="http://www.w3.org/2000/svg">
<g clip-path="url(#clip0)">
<path d="M3.85784 23.7853C4.27856 23.7853 4.61961 23.4442 4.61961 23.0235C4.61961 22.6028 4.27856 22.2617 3.85784 22.2617C3.43713 22.2617 3.09607 22.6028 3.09607 23.0235C3.09607 23.4442 3.43713 23.7853 3.85784 23.7853Z" fill="#989898"/>
<path d="M25.7767 11.0071L19.6825 4.9129C19.4671 4.69739 19.1438 4.63112 18.8609 4.74426L16.7024 5.60769L17.5658 3.44913C17.679 3.16618 17.6126 2.84306 17.3972 2.62759L15.8736 1.104C15.5761 0.806478 15.0937 0.806478 14.7963 1.104L7.75899 8.14127C6.27379 9.62647 6.27379 12.043 7.75899 13.5282L8.15641 13.9256C8.48882 14.2581 8.44505 14.8071 8.06302 15.0824C5.36613 17.0259 1.97125 19.5228 1.1131 20.3806C-0.371392 21.8657 -0.371392 24.2821 1.1133 25.7675C2.59855 27.2521 5.01498 27.2519 6.50028 25.7673C7.35812 24.909 9.85483 21.5143 11.7982 18.8176C12.0732 18.4362 12.622 18.3913 12.955 18.7242L13.3524 19.1216C14.8376 20.6068 17.2542 20.6068 18.7394 19.1216L21.4291 16.4319V19.8944C21.4291 21.1425 22.43 22.1812 23.6603 22.2099C24.9495 22.2397 25.9998 21.2051 25.9998 19.9253V11.5457C25.9998 11.3437 25.9195 11.15 25.7767 11.0071ZM14.4298 18.0444L14.0324 17.647C13.0361 16.6507 11.385 16.7854 10.5623 17.9269C7.90057 21.6203 6.0273 24.0855 5.42305 24.69C4.53184 25.5808 3.08168 25.5809 2.19073 24.6902C1.29992 23.799 1.29992 22.3489 2.19052 21.4579C2.79502 20.8536 5.2602 18.9804 8.95387 16.3184C10.0968 15.4947 10.2287 13.8433 9.23378 12.8483L8.83637 12.4509C7.94521 11.5598 7.94521 10.1098 8.83637 9.21859L8.9361 9.11886L17.7619 17.9446L17.6621 18.0444C16.7709 18.9355 15.3209 18.9355 14.4298 18.0444ZM18.8391 16.8674L10.0133 8.04159L15.3349 2.71997L15.9646 3.34965L14.6276 6.69213C14.3799 7.31145 14.9963 7.93099 15.6178 7.68236L18.9603 6.34534L20.3899 7.77493L20.0363 8.12858C18.5477 9.61718 18.5475 12.0267 20.0363 13.5155L21.1136 14.5928L18.8391 16.8674ZM24.4763 19.9253C24.4763 20.3486 24.1289 20.6971 23.6959 20.6868C23.2861 20.6773 22.9527 20.3218 22.9527 19.8944V14.5928C22.9527 14.3908 22.8725 14.197 22.7296 14.0542L21.1136 12.4382C20.2225 11.5471 20.2225 10.0971 21.1136 9.2059L21.4673 8.85231L24.4763 11.8613V19.9253Z" fill="#989898"/>
</g>
<defs>
<clipPath id="clip0">
<rect width="26" height="26" fill="white" transform="translate(0 0.880859)"/>
</clipPath>
</defs>
</svg>
