<svg width="32" height="18" viewBox="0 0 32 18" fill="none" xmlns="http://www.w3.org/2000/svg">
<path d="M4.82504 10.9557C4.54342 10.8187 4.20384 10.9361 4.06684 11.2177C3.84729 11.667 3.65291 12.1342 3.4878 12.605C3.38476 12.9006 3.54079 13.2247 3.83675 13.3283C4.12685 13.4311 4.45501 13.2794 4.55952 12.9803C4.70999 12.5502 4.8871 12.1252 5.08704 11.7147C5.22463 11.4334 5.10724 11.0936 4.82504 10.9557Z" fill="#989898"/>
<path d="M12.8773 4.22489C12.3899 4.33554 11.9034 4.47547 11.4327 4.64204C11.1367 4.74655 10.9815 5.07032 11.0861 5.36628C11.1891 5.65785 11.5091 5.81739 11.8103 5.71201C12.2392 5.56066 12.6827 5.43273 13.1276 5.33232C13.4335 5.26324 13.625 4.95996 13.5562 4.65405C13.4871 4.34843 13.183 4.15609 12.8773 4.22489Z" fill="#989898"/>
<path d="M23.8335 6.74933C23.4438 6.43669 23.0314 6.14453 22.609 5.8796C22.3434 5.71333 21.993 5.79354 21.8265 6.05905C21.6599 6.32457 21.7401 6.67498 22.0059 6.84155C23.1333 7.54676 23.1245 7.75958 23.4784 7.75958C24.0156 7.75958 24.2489 7.08247 23.8335 6.74933Z" fill="#989898"/>
<path d="M20.4935 4.81146C20.029 4.62762 19.5492 4.47013 19.0664 4.34132C18.7637 4.26111 18.4526 4.44144 18.3715 4.74413C18.2913 5.04741 18.4716 5.3586 18.7749 5.43881C19.8762 5.73067 20.0413 5.90719 20.2848 5.90719C20.5111 5.90719 20.7251 5.77107 20.8129 5.54771C20.928 5.25643 20.7851 4.92651 20.4935 4.81146Z" fill="#989898"/>
<path d="M24.741 8.33639C24.5038 8.54131 24.4781 8.90021 24.6842 9.13704C25.5855 10.1757 25.5363 10.4705 25.9904 10.4705C26.4406 10.4705 26.7184 9.96227 26.4588 9.58288C26.1771 9.171 25.8692 8.77082 25.5416 8.39319C25.3364 8.15607 24.9778 8.1306 24.741 8.33639Z" fill="#989898"/>
<path d="M26.573 12.1118C26.7577 12.5287 26.919 12.9608 27.0536 13.3961C27.1286 13.6397 27.3534 13.7963 27.5955 13.7963C27.9772 13.7963 28.2507 13.4257 28.1382 13.0615C27.9904 12.584 27.8136 12.1101 27.6113 11.6531C27.4851 11.3662 27.1497 11.236 26.8631 11.3633C26.5762 11.4898 26.4468 11.825 26.573 12.1118Z" fill="#989898"/>
<path d="M9.27786 5.63254C8.84578 5.88166 8.42277 6.15918 8.02171 6.4566C7.76966 6.64366 7.71756 6.99934 7.90432 7.25139C8.09226 7.50432 8.44882 7.55467 8.69823 7.36849C9.06445 7.09683 9.45058 6.84331 9.8449 6.61644C10.1166 6.45982 10.2097 6.11234 10.053 5.84068C9.89701 5.5696 9.54982 5.47592 9.27786 5.63254Z" fill="#989898"/>
<path d="M16.7286 3.9459C16.1952 3.90521 15.7219 3.90023 15.2271 3.9178C14.9145 3.93009 14.6701 4.19414 14.6821 4.50738C14.6944 4.82061 14.9575 5.06358 15.2716 5.05246C16.1226 5.01909 16.5843 5.07968 16.6862 5.07968C16.9807 5.07968 17.2295 4.85252 17.2514 4.55421C17.2757 4.24186 17.0413 3.96932 16.7286 3.9459Z" fill="#989898"/>
<path d="M6.25439 8.03595C5.91393 8.40071 5.59074 8.78947 5.29478 9.19081C5.1086 9.44286 5.16159 9.79854 5.41364 9.98472C5.66656 10.17 6.02166 10.1165 6.20755 9.86499C6.47862 9.49878 6.77371 9.14368 7.0846 8.80996C7.2983 8.58074 7.286 8.22214 7.05679 8.00785C6.82728 7.79444 6.46867 7.80645 6.25439 8.03595Z" fill="#989898"/>
<path fill-rule="evenodd" clip-rule="evenodd" d="M0 15.7843V17.4491H32V16.3138H31.9525C31.6521 7.75293 24.5956 0.880859 15.9627 0.880859C7.50859 0.880859 0.565962 7.47129 0 15.7843ZM13.391 13.6107C12.564 14.2629 11.9888 15.221 11.8389 16.3138H20.0866C19.6519 13.1405 15.915 11.6262 13.391 13.6107ZM28.85 15.3823C28.8858 15.6894 28.9106 16.0012 28.9244 16.3138H30.8167C30.5169 8.3791 23.9695 2.01581 15.9627 2.01581C7.95601 2.01581 1.40859 8.3791 1.10882 16.3138H3.00109C3.02159 15.8425 3.06755 15.37 3.13868 14.9063C3.1864 14.5966 3.47621 14.3841 3.78593 14.4309C4.09623 14.4786 4.30876 14.7684 4.26105 15.0779C4.19899 15.4851 4.15654 15.8999 4.1378 16.3138H10.6955C10.8544 14.829 11.6293 13.5258 12.7593 12.6654C12.4334 12.1783 12.1064 11.6898 11.7929 11.2213C11.368 10.5865 10.9677 9.98854 10.6281 9.48068C10.4531 9.22044 10.5236 8.86769 10.7839 8.6938C11.0444 8.51874 11.3969 8.58841 11.5711 8.84954L13.7318 12.0773C16.9721 10.5618 20.8418 12.6833 21.23 16.3138H27.7877C27.7748 16.0451 27.7528 15.7781 27.7227 15.5132C27.687 15.2014 27.9103 14.9198 28.2212 14.8835C28.533 14.8472 28.8146 15.0711 28.85 15.3823Z" fill="#989898"/>
</svg>
