<svg width="29" height="30" viewBox="0 0 29 30" fill="none" xmlns="http://www.w3.org/2000/svg">
<g clip-path="url(#clip0)">
<path d="M22.1281 11.6997C22.1281 7.51979 18.7275 4.11914 14.5476 4.11914C10.3674 4.11914 6.9668 7.51979 6.9668 11.6997C6.9668 15.8798 10.3674 19.2805 14.5476 19.2805C18.7275 19.2805 22.1281 15.8798 22.1281 11.6997ZM14.5476 18.4309C10.8361 18.4309 7.81641 15.4112 7.81641 11.6997C7.81641 7.9884 10.8361 4.96875 14.5476 4.96875C18.2591 4.96875 21.2785 7.9884 21.2785 11.6997C21.2785 15.4112 18.2591 18.4309 14.5476 18.4309Z" fill="#989898"/>
<path d="M19.8269 10.0368C19.7468 9.78989 19.5187 9.62417 19.2592 9.62417H16.0935L15.1153 6.61359C15.035 6.36689 14.8069 6.20117 14.5476 6.20117C14.2883 6.20117 14.0602 6.36689 13.9799 6.61359L13.0017 9.62439H9.83603C9.5765 9.62439 9.34839 9.79011 9.2683 10.0368C9.18821 10.2835 9.27538 10.5517 9.48513 10.7041L12.0461 12.5648L11.068 15.5754C10.9879 15.8221 11.0748 16.0905 11.2848 16.2429C11.4945 16.3954 11.7766 16.3954 11.9866 16.2429L14.5476 14.3822L17.1086 16.2429C17.2137 16.3193 17.3365 16.3573 17.4595 16.3573C17.5825 16.3573 17.7055 16.3193 17.8104 16.2429C18.0204 16.0905 18.1073 15.8221 18.0272 15.5754L17.0489 12.5648L19.6099 10.7041C19.8198 10.5517 19.907 10.2835 19.8269 10.0368ZM16.401 11.9854C16.1913 12.1378 16.1041 12.406 16.1842 12.6529L16.9787 15.0984L14.8985 13.587C14.7934 13.5107 14.6706 13.4726 14.5476 13.4726C14.4246 13.4726 14.3016 13.5107 14.1967 13.587L12.1165 15.0984L12.911 12.6527C12.9911 12.406 12.9039 12.1378 12.6942 11.9854L10.6137 10.4738H13.1854C13.4447 10.4738 13.6728 10.3081 13.7531 10.0614L14.5476 7.61564L15.3421 10.0614C15.4224 10.3081 15.6505 10.4738 15.9099 10.4738H18.4815L16.401 11.9854Z" fill="#989898"/>
<path d="M25.8362 25.7524L21.853 18.7595L22.5508 18.5356C23.3915 18.2661 23.9464 17.4621 23.9004 16.5804L23.8475 15.5677C23.8314 15.2613 23.9456 14.96 24.1608 14.7411L24.8722 14.0183C25.4912 13.3889 25.6089 12.4191 25.1585 11.6598L24.641 10.7878C24.4843 10.5239 24.4456 10.2039 24.5343 9.9101L24.8281 8.93947C25.0839 8.0945 24.7374 7.18117 23.9858 6.71831L23.1223 6.18642C22.861 6.02557 22.6778 5.76051 22.62 5.45894L22.4291 4.46308C22.2629 3.596 21.5317 2.94817 20.6509 2.88755L19.6391 2.81807C19.3329 2.79705 19.0477 2.64727 18.8565 2.40721L18.2244 1.61402C17.6744 0.923709 16.7257 0.690066 15.9179 1.04562L14.9897 1.45427C14.9897 1.45427 14.9897 1.45427 14.9895 1.45427C14.7087 1.57795 14.3866 1.57795 14.1056 1.45427L13.1774 1.04562C12.3694 0.690066 11.4209 0.923709 10.8706 1.61424L10.2388 2.40721C10.0476 2.64727 9.76239 2.79705 9.45618 2.81807L8.44439 2.88755C7.56359 2.94817 6.83235 3.596 6.66619 4.46308L6.47525 5.45894C6.41728 5.76029 6.2343 6.02557 5.973 6.18642L5.10945 6.71809C4.35786 7.18095 4.01138 8.0945 4.26715 8.93947L4.56075 9.9101C4.64969 10.2039 4.61097 10.5236 4.45433 10.7876L3.93682 11.6598C3.48635 12.4189 3.60405 13.3889 4.22312 14.0181L4.93444 14.7411C5.1495 14.96 5.26389 15.2611 5.24774 15.5675L5.19486 16.5804C5.14884 17.4619 5.70374 18.2659 6.54428 18.5356L7.24233 18.7593L3.25912 25.7524C3.13876 25.9637 3.14318 26.2235 3.27085 26.4306C3.39851 26.6377 3.62972 26.7589 3.87155 26.7456L7.20073 26.5733L8.75061 29.525C8.86367 29.7401 9.08492 29.8766 9.32808 29.8806C9.33184 29.8806 9.3356 29.8808 9.33936 29.8808C9.57809 29.8808 9.7989 29.7529 9.91727 29.5449L13.9708 22.4281C14.1585 22.4863 14.3529 22.5166 14.5476 22.5166C14.7423 22.5166 14.9366 22.4863 15.1244 22.4281L19.178 29.5449C19.2964 29.7529 19.517 29.8808 19.7557 29.8808C19.7595 29.8808 19.7634 29.8808 19.7672 29.8806C20.0104 29.8766 20.2316 29.7403 20.3447 29.525L21.8943 26.5733L25.2237 26.7456C25.4676 26.7585 25.6968 26.6375 25.8242 26.4306C25.9519 26.2235 25.9565 25.9637 25.8362 25.7524ZM9.346 28.8314L7.93441 26.1432L8.76786 24.6803C8.88402 24.4763 8.813 24.2169 8.609 24.1008C8.40545 23.9849 8.14592 24.0559 8.02977 24.2596L7.19631 25.7228L4.16426 25.8799L7.99237 19.1593C8.0645 19.2401 8.12557 19.3315 8.17159 19.4315L8.59551 20.353C8.81543 20.8311 9.21192 21.1856 9.68031 21.3615L9.01655 22.527C8.90039 22.7308 8.97164 22.9903 9.17541 23.1065C9.24179 23.1441 9.31414 23.162 9.38538 23.162C9.53296 23.162 9.67655 23.085 9.75487 22.9474L10.5954 21.4719C10.6299 21.4677 10.6644 21.463 10.699 21.4568L11.6981 21.2823C12.0001 21.2294 12.313 21.3066 12.5561 21.4938L13.2299 22.0126L9.346 28.8314ZM15.0999 21.5172C15.0983 21.5181 15.097 21.5186 15.0957 21.5194C15.0935 21.5208 15.0913 21.5223 15.089 21.5236C14.7538 21.7141 14.3414 21.7141 14.0062 21.5236C14.004 21.5223 14.002 21.5208 13.9996 21.5194C13.9983 21.5186 13.9969 21.5181 13.9956 21.5172C13.9553 21.4938 13.916 21.4685 13.8784 21.4396L13.0748 20.8207C12.7325 20.557 12.3123 20.4163 11.8853 20.4163C11.7742 20.4163 11.6627 20.426 11.5519 20.4453L10.5527 20.6198C10.4883 20.6311 10.4239 20.6362 10.3602 20.636C10.3549 20.6358 10.3498 20.6355 10.3447 20.6355C9.92988 20.6282 9.54579 20.3855 9.36746 19.9977L8.94354 19.0764C8.76233 18.6823 8.45369 18.3622 8.07379 18.1639C8.07291 18.1635 8.07225 18.1628 8.07136 18.1624C8.06893 18.161 8.06649 18.1599 8.06428 18.1588C8.05521 18.1542 8.04614 18.1495 8.03707 18.1451C8.03485 18.144 8.03308 18.1431 8.03087 18.1422C7.9468 18.1009 7.85962 18.0652 7.76957 18.0363L6.80381 17.7267C6.3301 17.5747 6.01725 17.1216 6.04336 16.6249L6.09624 15.612C6.12456 15.0682 5.92189 14.5336 5.54001 14.1455L4.82891 13.4225C4.47999 13.0678 4.41361 12.5213 4.66739 12.0934L5.1849 11.2212C5.46279 10.7529 5.53183 10.1853 5.37407 9.66407L5.08025 8.69343C4.93599 8.2173 5.13136 7.70244 5.55506 7.44181L6.41861 6.90992C6.88235 6.62428 7.20715 6.1539 7.30959 5.61891L7.50053 4.62305C7.59412 4.13453 8.00631 3.76946 8.50258 3.73516L9.51437 3.66569C10.0575 3.6283 10.5638 3.36257 10.9032 2.93666L11.5351 2.14369C11.8453 1.75451 12.3798 1.62287 12.8351 1.82332L13.7631 2.23175C14.2616 2.45124 14.8335 2.45124 15.3318 2.23175L16.2599 1.82332C16.7155 1.62287 17.2498 1.75451 17.5598 2.14369L18.1919 2.93689C18.5311 3.3628 19.0375 3.6283 19.5807 3.66569L20.5925 3.73539C21.0888 3.76946 21.5009 4.13453 21.5945 4.62305L21.7855 5.61913C21.8881 6.1539 22.2129 6.6245 22.6765 6.90992L23.54 7.44181C23.9637 7.70266 24.1591 8.2173 24.0148 8.69343L23.721 9.66429C23.5632 10.1853 23.6323 10.7529 23.9102 11.2215L24.4277 12.0934C24.6814 12.5213 24.6153 13.0678 24.2662 13.4225L23.5551 14.1455C23.1732 14.5336 22.9705 15.0682 22.9988 15.6122L23.0517 16.6249C23.0778 17.1216 22.765 17.5747 22.2913 17.7267L21.3255 18.0363C21.2354 18.0652 21.1483 18.1009 21.0642 18.142C21.062 18.1431 21.06 18.144 21.058 18.1449C21.0489 18.1495 21.0396 18.1542 21.0306 18.1588C21.0284 18.1602 21.0259 18.161 21.0237 18.1624C21.0228 18.1628 21.0222 18.1633 21.0215 18.1637C20.6414 18.3619 20.3327 18.6823 20.1515 19.0764L19.7276 19.9979C19.5495 20.3853 19.1658 20.628 18.7512 20.6355C18.7452 20.6355 18.7391 20.6358 18.7331 20.6362C18.6698 20.6362 18.6061 20.6311 18.5421 20.6198L17.5432 20.4453C17.0066 20.3514 16.4515 20.4884 16.0201 20.8207L15.2167 21.4396C15.1793 21.4685 15.1399 21.4938 15.0999 21.5172ZM21.899 25.7228L21.0587 24.2477C20.9425 24.0437 20.683 23.9727 20.4794 24.0888C20.2754 24.205 20.2044 24.4643 20.3206 24.6683L21.1607 26.1432L19.7493 28.8314L15.8654 22.0126L16.5389 21.4938C16.7821 21.3066 17.0949 21.2294 17.3972 21.2823L18.3961 21.4568C18.4306 21.463 18.4654 21.4677 18.4999 21.4719L19.34 22.947C19.4183 23.0844 19.5619 23.1616 19.7095 23.1616C19.7807 23.1616 19.8531 23.1437 19.9194 23.1058C20.1232 22.9897 20.1942 22.7304 20.0783 22.5264L19.4148 21.3615C19.8831 21.1853 20.2796 20.8311 20.4996 20.353L20.9235 19.4315C20.9695 19.3315 21.0306 19.2401 21.1027 19.1593L24.9308 25.8799L21.899 25.7228Z" fill="#989898"/>
</g>
<defs>
<clipPath id="clip0">
<rect width="29" height="29" fill="white" transform="translate(0 0.880859)"/>
</clipPath>
</defs>
</svg>
