<svg width="24" height="25" viewBox="0 0 24 25" fill="none" xmlns="http://www.w3.org/2000/svg">
<path fill-rule="evenodd" clip-rule="evenodd" d="M22.3125 5.38086H20.3438V4.72461C20.3438 4.2582 19.9664 3.88086 19.5 3.88086C19.0336 3.88086 18.6562 4.2582 18.6562 4.72461V5.38086H12.8438V4.72461C12.8438 4.2582 12.4664 3.88086 12 3.88086C11.5336 3.88086 11.1562 4.2582 11.1562 4.72461V5.38086H5.34375V4.72461C5.34375 4.2582 4.96641 3.88086 4.5 3.88086C4.03359 3.88086 3.65625 4.2582 3.65625 4.72461V5.38086H1.6875C0.754687 5.38086 0 6.13555 0 7.06836V20.1934C0 21.1262 0.754687 21.8809 1.6875 21.8809H22.3125C23.2453 21.8809 24 21.1262 24 20.1934V7.06836C24 6.13555 23.2453 5.38086 22.3125 5.38086ZM12.5977 16.8418C12.2672 16.5137 12.2672 15.9793 12.5977 15.6488C12.9258 15.3184 13.4602 15.3184 13.7906 15.6488L15.2648 17.123L19.8797 12.5082C20.1867 12.2012 20.6836 12.2012 20.9906 12.5082L21.0727 12.5902C21.3797 12.8973 21.3797 13.3941 21.0727 13.7012L15.8227 18.9559C15.5156 19.2629 15.0188 19.2629 14.7117 18.9559L14.6297 18.8738L14.6086 18.8527L14.5875 18.8316L12.5977 16.8418ZM12.6914 14.5684H3.80859C3.36094 14.5684 3 14.2074 3 13.7598V13.6895C3 13.2418 3.36328 12.8809 3.80859 12.8809H12.6914C13.1391 12.8809 13.5 13.2418 13.5 13.6895V13.7598C13.5 14.2074 13.1367 14.5684 12.6914 14.5684ZM1.6875 20.1934H22.3125V11.3809H1.6875V20.1934ZM22.3125 9.69336H1.6875V7.06836H3.65625V7.53711C3.65625 8.00352 4.03359 8.38086 4.5 8.38086C4.96641 8.38086 5.34375 8.00352 5.34375 7.53711V7.06836H11.1562V7.53711C11.1562 8.00352 11.5336 8.38086 12 8.38086C12.4664 8.38086 12.8438 8.00352 12.8438 7.53711V7.06836H18.6562V7.53711C18.6562 8.00352 19.0336 8.38086 19.5 8.38086C19.9664 8.38086 20.3438 8.00352 20.3438 7.53711V7.06836H22.3125V9.69336ZM9.69141 17.4746H3.80859C3.36094 17.4746 3 17.1137 3 16.666V16.5957C3 16.148 3.36328 15.7871 3.80859 15.7871H9.69141C10.1391 15.7871 10.5 16.148 10.5 16.5957V16.666C10.5 17.1137 10.1367 17.4746 9.69141 17.4746Z" fill="#989898"/>
</svg>
