<svg width="41" height="41" viewBox="0 0 41 41" fill="none" xmlns="http://www.w3.org/2000/svg">
<g clip-path="url(#clip0)">
<path d="M7.14602 35.5668C7.00078 35.4214 6.79922 35.3379 6.59375 35.3379C6.38828 35.3379 6.18672 35.4214 6.04141 35.5668C5.89609 35.7122 5.8125 35.9137 5.8125 36.1191C5.8125 36.3246 5.89602 36.5262 6.04141 36.6714C6.18672 36.8167 6.38828 36.9004 6.59375 36.9004C6.79922 36.9004 7.00078 36.8168 7.14602 36.6714C7.29133 36.5262 7.375 36.3246 7.375 36.1191C7.375 35.9137 7.29141 35.7121 7.14602 35.5668Z" fill="#5C02B5"/>
<path d="M37.1817 14.3158C37.0364 14.1704 36.8357 14.0869 36.6294 14.0869C36.4239 14.0869 36.2224 14.1704 36.0771 14.3158C35.9318 14.4611 35.8481 14.6627 35.8481 14.8682C35.8481 15.0736 35.9317 15.2752 36.0771 15.4204C36.2224 15.5657 36.4239 15.6494 36.6294 15.6494C36.8357 15.6494 37.0364 15.5658 37.1817 15.4204C37.3278 15.2752 37.4114 15.0736 37.4114 14.8682C37.4114 14.6627 37.3278 14.4611 37.1817 14.3158Z" fill="#5C02B5"/>
<path d="M40.2706 0.252266C40.1241 0.105781 39.9253 0.0234375 39.7181 0.0234375L20.4998 0.0244531C20.0684 0.0244531 19.7186 0.374297 19.7186 0.805703V3.03984L12.3132 5.02414C11.8964 5.13586 11.6491 5.56422 11.7608 5.98094L15.5988 20.3045L12.2786 23.6248C11.856 23.0077 11.1465 22.602 10.3439 22.602H2.84416C1.55182 22.602 0.500488 23.6534 0.500488 24.9456V37.6797C0.500488 38.972 1.55182 40.0234 2.84416 40.0234H10.344C11.4419 40.0234 12.3655 39.2644 12.6186 38.2438L13.5475 39.0538C14.2646 39.6791 15.1834 40.0235 16.1349 40.0235H39.7182C40.1496 40.0235 40.4995 39.6737 40.4995 39.2423V0.804688C40.4993 0.5975 40.4171 0.39875 40.2706 0.252266ZM11.1251 37.6798C11.1251 38.1105 10.7746 38.461 10.3438 38.461H2.84408C2.4133 38.461 2.06283 38.1105 2.06283 37.6798V24.9457C2.06283 24.5149 2.4133 24.1645 2.84408 24.1645H5.81275V33.1641C5.81275 33.5955 6.1626 33.9453 6.594 33.9453C7.02541 33.9453 7.37525 33.5955 7.37525 33.1641V24.1645H10.3439C10.7747 24.1645 11.1252 24.5149 11.1252 24.9457L11.1251 37.6798ZM13.4722 6.33117L19.7186 4.65742V7.55234L19.195 7.69266C18.9948 7.74633 18.8242 7.87719 18.7206 8.05664C18.6171 8.23609 18.5889 8.4493 18.6426 8.64945C18.9428 9.76984 18.2756 10.9255 17.1552 11.2258C16.9548 11.2795 16.7839 11.4106 16.6804 11.5905C16.5769 11.7702 16.549 11.9838 16.6031 12.1841L19.6484 23.4605H18.0804L17.2724 20.2993C17.2467 20.1987 17.2017 20.1059 17.1414 20.0253L13.4722 6.33117ZM19.7186 11.1351V17.7273L18.2937 12.4512C18.8889 12.1438 19.376 11.684 19.7186 11.1351ZM30.9424 38.4609H16.1347C15.5609 38.4609 15.0067 38.2533 14.5742 37.8762L12.6876 36.2308V25.4255L16.0984 22.0148L16.717 24.4351C16.8054 24.7809 17.1169 25.0228 17.4739 25.0228L32.8335 25.0238C33.4367 25.0238 33.9273 25.5144 33.9273 26.1175C33.9273 26.7206 33.4367 27.2113 32.8335 27.2113H24.9632C24.5318 27.2113 24.182 27.5611 24.182 27.9925C24.182 28.4239 24.5318 28.7738 24.9632 28.7738H35.2789C35.882 28.7738 36.3726 29.2644 36.3726 29.8675C36.3726 30.4706 35.882 30.9613 35.2789 30.9613H24.9632C24.5318 30.9613 24.182 31.3111 24.182 31.7425C24.182 32.1739 24.5318 32.5238 24.9632 32.5238H33.6072C34.2103 32.5238 34.701 33.0144 34.701 33.6175C34.701 34.2206 34.2103 34.7113 33.6072 34.7113H24.9632C24.5318 34.7113 24.182 35.0611 24.182 35.4925C24.182 35.9239 24.5318 36.2738 24.9632 36.2738H30.9424C31.5455 36.2738 32.0361 36.7644 32.0361 37.3675C32.036 37.9703 31.5454 38.4609 30.9424 38.4609ZM38.937 38.4609H33.362C33.5135 38.1271 33.5985 37.757 33.5985 37.3672C33.5985 36.9773 33.5135 36.6073 33.362 36.2734H33.6072C35.0718 36.2734 36.2634 35.0819 36.2634 33.6173C36.2634 33.1901 36.1614 32.7864 35.9814 32.4284C37.1061 32.1195 37.9349 31.0887 37.9349 29.8673C37.9349 29.2748 37.7398 28.7271 37.4106 28.2849V18.3834C37.4106 17.952 37.0608 17.6021 36.6294 17.6021C36.198 17.6021 35.8481 17.952 35.8481 18.3834V27.2734C35.6646 27.2331 35.4742 27.2113 35.2787 27.2113H35.2531C35.4046 26.8774 35.4896 26.5073 35.4896 26.1175C35.4896 24.6528 34.2981 23.4613 32.8335 23.4613H31.5776C32.9111 22.8895 33.8477 21.564 33.8477 20.0234C33.8477 17.9618 32.1705 16.2845 30.1089 16.2845C28.0473 16.2845 26.37 17.9618 26.37 20.0234C26.37 21.564 27.3067 22.8895 28.6401 23.4613H24.3696V8.60648C25.7652 8.30234 26.8664 7.20117 27.1705 5.80547H33.0471C33.3512 7.20117 34.4524 8.30234 35.8481 8.60648V19.2422C35.8481 19.6736 36.1979 20.0234 36.6293 20.0234C37.0607 20.0234 37.4106 19.6736 37.4106 19.2422V7.90898C37.4106 7.47758 37.0607 7.12773 36.6293 7.12773C35.4694 7.12773 34.5259 6.18406 34.5259 5.02422C34.5259 4.59281 34.176 4.24297 33.7446 4.24297H26.4731C26.0417 4.24297 25.6918 4.59281 25.6918 5.02422C25.6918 6.18414 24.7482 7.12773 23.5884 7.12773C23.157 7.12773 22.8071 7.47758 22.8071 7.90898V23.4613H21.2812V1.5868L38.937 1.58594V38.4609ZM30.109 22.1998C28.9089 22.1998 27.9327 21.2235 27.9327 20.0235C27.9327 18.8235 28.909 17.8471 30.109 17.8471C31.309 17.8471 32.2853 18.8234 32.2853 20.0234C32.2853 21.2234 31.3091 22.1998 30.109 22.1998Z" fill="#5C02B5"/>
</g>
<defs>
<clipPath id="clip0">
<rect width="40" height="40" fill="white" transform="translate(0.5 0.0234375)"/>
</clipPath>
</defs>
</svg>
