<svg width="24" height="25" viewBox="0 0 24 25" fill="none" xmlns="http://www.w3.org/2000/svg">
<g clip-path="url(#clip0)">
<path d="M23.0629 11.4219H6.76269C6.24491 11.4219 5.8252 11.8416 5.8252 12.3594C5.8252 12.8772 6.24491 13.2969 6.76269 13.2969H23.0629C23.5807 13.2969 24.0004 12.8772 24.0004 12.3594C24.0004 11.8416 23.5807 11.4219 23.0629 11.4219Z" fill="#979797"/>
<path d="M23.0629 4.39062H6.76269C6.24491 4.39062 5.8252 4.81034 5.8252 5.32812C5.8252 5.84591 6.24491 6.26562 6.76269 6.26562H23.0629C23.5807 6.26562 24.0004 5.84591 24.0004 5.32812C24.0004 4.81034 23.5807 4.39062 23.0629 4.39062Z" fill="#979797"/>
<path d="M23.0629 18.4531H6.76269C6.24491 18.4531 5.8252 18.8728 5.8252 19.3906C5.8252 19.9084 6.24491 20.3281 6.76269 20.3281H23.0629C23.5807 20.3281 24.0004 19.9084 24.0004 19.3906C24.0004 18.8728 23.5807 18.4531 23.0629 18.4531Z" fill="#979797"/>
<path d="M1.26562 6.59375C1.96461 6.59375 2.53125 6.02711 2.53125 5.32812C2.53125 4.62914 1.96461 4.0625 1.26562 4.0625C0.56664 4.0625 0 4.62914 0 5.32812C0 6.02711 0.56664 6.59375 1.26562 6.59375Z" fill="#979797"/>
<path d="M1.26562 13.625C1.96461 13.625 2.53125 13.0584 2.53125 12.3594C2.53125 11.6604 1.96461 11.0938 1.26562 11.0938C0.56664 11.0938 0 11.6604 0 12.3594C0 13.0584 0.56664 13.625 1.26562 13.625Z" fill="#979797"/>
<path d="M1.26562 20.6562C1.96461 20.6562 2.53125 20.0896 2.53125 19.3906C2.53125 18.6916 1.96461 18.125 1.26562 18.125C0.56664 18.125 0 18.6916 0 19.3906C0 20.0896 0.56664 20.6562 1.26562 20.6562Z" fill="#979797"/>
</g>
<defs>
<clipPath id="clip0">
<rect width="24" height="24" fill="white" transform="translate(0 0.359375)"/>
</clipPath>
</defs>
</svg>
