<?xml version="1.0" encoding="utf-8"?>
<!-- Generator: Adobe Illustrator 19.0.0, SVG Export Plug-In . SVG Version: 6.00 Build 0)  -->
<svg version="1.1" id="Layer_1" xmlns="http://www.w3.org/2000/svg" xmlns:xlink="http://www.w3.org/1999/xlink" x="0px" y="0px"
	 viewBox="0 0 2397.2 1053.7" style="enable-background:new 0 0 2397.2 1053.7;" xml:space="preserve">
<style type="text/css">
	.st0{fill:#5C02B5;}
	.st1{clip-path:url(#SVGID_2_);fill:#5C02B5;}
	.st2{clip-path:url(#SVGID_2_);fill:#FA8500;}
</style>
<g>
	<path class="st0" d="M1004.9,441.6h-57.9v60.2h-38.6V297.2c32.1,0,64.3-0.3,96.4-0.3C1104.9,296.9,1105.2,441.6,1004.9,441.6z
		 M947.1,406.2h57.9c49.4,0,49.1-72.5,0-72.5h-57.9V406.2z"/>
</g>
<g>
	<path class="st0" d="M1147.5,317.1c0,27.8-42.1,27.8-42.1,0S1147.5,289.4,1147.5,317.1z M1108.7,357.2v144.7h35.7V357.2H1108.7z"/>
</g>
<g>
	<path class="st0" d="M1323.5,429.9c0,41.5-28.3,75.1-75.1,75.1s-74.8-33.6-74.8-75.1c0-41.2,28.6-75.1,74.5-75.1
		S1323.5,388.7,1323.5,429.9z M1209.2,429.9c0,21.9,13.2,42.4,39.2,42.4c26,0,39.2-20.5,39.2-42.4c0-21.6-15.2-42.7-39.2-42.7
		C1222.6,387.3,1209.2,408.3,1209.2,429.9z"/>
</g>
<g>
	<path class="st0" d="M1459.6,501.8v-75.4c0-21.9-12-38.6-34.8-38.6c-21.9,0-36.8,18.4-36.8,40.3v73.6h-35.4V357.4h31.9l2.3,19.6
		c14.6-14.3,29.2-21.6,47.3-21.6c33.9,0,61.1,25.4,61.1,70.7v75.7H1459.6z"/>
</g>
<g>
	<path class="st0" d="M1562.2,442.5c2.3,17.8,17.8,30.7,43,30.7c13.2,0,30.4-5,38.6-13.4l22.8,22.5c-15.2,15.8-40,23.4-62,23.4
		c-49.7,0-79.2-30.7-79.2-76.9c0-43.8,29.8-75.4,76.6-75.4c48.2,0,78.3,29.8,72.8,89.1H1562.2z M1640.5,413
		c-2.3-18.7-17-28.1-37.4-28.1c-19.3,0-35.1,9.4-40.3,28.1H1640.5z"/>
</g>
<g>
	<path class="st0" d="M1739,442.5c2.3,17.8,17.8,30.7,43,30.7c13.2,0,30.4-5,38.6-13.4l22.8,22.5c-15.2,15.8-40,23.4-62,23.4
		c-49.7,0-79.2-30.7-79.2-76.9c0-43.8,29.8-75.4,76.6-75.4c48.2,0,78.3,29.8,72.8,89.1H1739z M1817.3,413
		c-2.3-18.7-17-28.1-37.4-28.1c-19.3,0-35.1,9.4-40.3,28.1H1817.3z"/>
</g>
<g>
	<path class="st0" d="M1913.8,357.7l2.6,16.7c11.1-17.8,26-20.5,40.6-20.5c14.9,0,29.2,5.8,37.1,13.7l-16.1,31
		c-7.3-6.1-14-9.4-25.7-9.4c-18.7,0-35.9,9.9-35.9,36.5v76h-35.7V357.7H1913.8z"/>
</g>
<g>
	<path class="st0" d="M1065.4,721h-107l-17.5,38.6h-41.8L990.9,555h42.1l91.8,204.6h-42.1L1065.4,721z M1011.9,598l-38,87.1h76
		L1011.9,598z"/>
	<path class="st0" d="M1172.9,615.5v75.4c0,21.9,12,38.6,34.8,38.6c21.9,0,36.8-18.4,36.8-40.3v-73.6h35.4v144.4h-31.9l-2.3-19.6
		c-14.9,14.6-28.6,21.6-48.8,21.6c-34.5,0-59.6-26-59.6-70.7v-75.7H1172.9z"/>
</g>
<g>
	<path class="st0" d="M1440.9,741.1c-16.7,16.4-34.2,22.8-55.5,22.8c-41.8,0-76.6-25.1-76.6-76.3c0-51.1,34.8-76.3,76.6-76.3
		c20.5,0,36.2,5.8,52,21.3l-22.5,23.7c-8.5-7.6-19-11.4-28.9-11.4c-24,0-41.5,17.5-41.5,42.7c0,27.5,18.7,42.1,40.9,42.1
		c11.4,0,22.8-3.2,31.6-12L1440.9,741.1z"/>
</g>
<g>
	<path class="st0" d="M1511.1,574.9v40.9h39.7v30.7h-40v62.2c0,13.7,7.6,20.5,18.7,20.5c5.6,0,12-1.8,17.2-4.4l9.9,30.4
		c-10.2,4.1-18.7,5.8-29.5,6.1c-31.3,1.2-51.7-16.7-51.7-52.6v-62.2h-26.9v-30.7h26.9v-37.1L1511.1,574.9z"/>
</g>
<g>
	<path class="st0" d="M1622.1,574.9c0,27.8-42.1,27.8-42.1,0S1622.1,547.1,1622.1,574.9z M1583.2,614.9v144.7h35.7V614.9H1583.2z"/>
</g>
<g>
	<path class="st0" d="M1798.9,687.7c0,41.5-28.3,75.1-75.1,75.1s-74.8-33.6-74.8-75.1c0-41.2,28.6-75.1,74.5-75.1
		S1798.9,646.5,1798.9,687.7z M1684.7,687.7c0,21.9,13.2,42.4,39.2,42.4s39.2-20.5,39.2-42.4c0-21.6-15.2-42.7-39.2-42.7
		C1698.1,645,1684.7,666,1684.7,687.7z"/>
	<path class="st0" d="M1935.4,759.6v-75.4c0-21.9-12-38.6-34.8-38.6c-21.9,0-36.8,18.4-36.8,40.3v73.6h-35.4V615.2h31.9l2.3,19.6
		c14.6-14.3,29.2-21.6,47.3-21.6c33.9,0,61.1,25.4,61.1,70.7v75.7H1935.4z"/>
	<path class="st0" d="M2101.4,653.8c-10.2-9.6-21.9-12.9-35.7-12.9c-17,0-26.3,5.3-26.3,14.3c0,9.4,8.5,14.6,26.9,15.8
		c27.2,1.8,61.7,7.9,61.7,46.2c0,25.4-20.7,47.3-62,47.3c-22.8,0-45.6-3.8-66.6-25.7l17.5-25.4c10.2,11.4,33.6,19.9,49.7,20.2
		c13.4,0.3,26-6.7,26-17.2c0-9.9-8.2-14-28.6-15.2c-27.2-2-59.6-12-59.6-44.7c0-33.3,34.5-45,60.8-45c22.5,0,39.5,4.4,56.1,19
		L2101.4,653.8z"/>
</g>
<g>
	<defs>
		<rect id="SVGID_1_" y="0" width="2397.2" height="1053.7"/>
	</defs>
	<clipPath id="SVGID_2_">
		<use xlink:href="#SVGID_1_"  style="overflow:visible;"/>
	</clipPath>
	<path class="st1" d="M778.7,527.4c0-140.9-114.3-255.2-255.2-255.2S268.3,386.4,268.3,527.4s114.3,255.2,255.2,255.2
		S778.7,668.3,778.7,527.4"/>
	<path class="st2" d="M412.8,430.8c-2.2,3.3-1.4,7.8,1.9,10l2,1.4l-47.4,69.2l-2-1.4c-3.3-2.2-7.8-1.4-10,1.9
		c-2.2,3.3-1.4,7.8,1.9,10l49.4,33.9c3.3,2.2,7.8,1.4,10-1.9c2.2-3.3,1.4-7.8-1.9-10l-2-1.4l7.8-11.3l206.5,141.6l31-45.3
		L453.5,485.9l8.6-12.6l2,1.4c3.3,2.2,7.8,1.4,10-1.9c2.2-3.3,1.4-7.8-1.9-10l-49.4-33.9C419.6,426.6,415,427.5,412.8,430.8"/>
	<path class="st2" d="M433.3,418l45.3,31c11.7-17.1,35.1-21.5,52.2-9.8c17.1,11.7,21.5,35.1,9.8,52.2l45.3,31
		c28.7-42.1,17.9-99.8-24.2-128.5C519.7,365,462,375.8,433.3,418"/>
</g>
</svg>
