<svg width="31" height="31" viewBox="0 0 31 31" fill="none" xmlns="http://www.w3.org/2000/svg">
<circle cx="15.5764" cy="15.5898" r="15" fill="#5C02B5"/>
<path d="M21.2098 14.6712H16.5111V9.97258C16.5111 9.46303 16.0989 9.05078 15.5893 9.05078C15.0798 9.05078 14.6675 9.46303 14.6675 9.97258V14.6712H9.94329C9.43374 14.6712 9.02148 15.0835 9.02148 15.593C9.02148 16.1026 9.43374 16.5148 9.94329 16.5148H14.6675V21.1879C14.6675 21.6974 15.0798 22.1097 15.5893 22.1097C16.0989 22.1097 16.5111 21.6974 16.5111 21.1879V16.5148H21.2098C21.7193 16.5148 22.1316 16.1026 22.1316 15.593C22.1316 15.0835 21.7193 14.6712 21.2098 14.6712Z" fill="white"/>
</svg>
