<svg width="41" height="41" viewBox="0 0 41 41" fill="none" xmlns="http://www.w3.org/2000/svg">
<g clip-path="url(#clip0)">
<path d="M31.8144 30.4156C31.8144 29.3599 31.1686 28.4521 30.2514 28.0666C30.4373 27.7132 30.5426 27.311 30.5426 26.8849C30.5426 25.4807 29.4002 24.3383 27.9959 24.3383H24.609V20.0125C28.9808 18.8796 32.2188 14.9008 32.2188 10.1797C32.2188 4.57952 27.6628 0.0234375 22.0626 0.0234375C21.0376 0.0234375 20.0356 0.173727 19.0714 0.471268C18.7192 0.579966 18.372 0.708316 18.0305 0.85617C17.6346 1.02758 17.4526 1.48758 17.624 1.88351C17.7955 2.27945 18.2557 2.46156 18.6514 2.29C19.03 2.12604 19.4171 1.99045 19.8113 1.88351C20.5404 1.68572 21.2937 1.58593 22.0626 1.58593C26.8011 1.58593 30.6563 5.44108 30.6563 10.1797C30.6563 14.9183 26.8011 18.7734 22.0626 18.7734C17.324 18.7734 13.4687 14.9183 13.4687 10.1797C13.4687 9.64278 13.5174 9.11354 13.6141 8.59487C13.7308 7.96881 13.9174 7.35817 14.173 6.76811C14.3445 6.37217 14.1626 5.91218 13.7667 5.74069C13.371 5.56921 12.9108 5.75108 12.7394 6.1471C12.4465 6.82317 12.2301 7.52192 12.0913 8.23772C11.9682 8.87292 11.9062 9.52154 11.9062 10.1797C11.9062 14.9008 15.1442 18.8796 19.5159 20.0125V23.5431H19.3864C17.0988 23.5431 14.9262 24.4932 13.3693 26.1621H9.5625C9.35523 26.1621 9.15648 26.2444 9.00992 26.391C8.86344 26.5376 8.78109 26.7364 8.78125 26.9438L8.78672 36.6236C8.78695 37.0549 9.13664 37.4044 9.56797 37.4044H13.3734C14.9344 39.0734 17.1055 40.0234 19.3864 40.0234L27.3942 40.0234C28.7984 40.0234 29.9408 38.881 29.9408 37.4768C29.9408 37.0408 29.8307 36.6302 29.6368 36.2709C30.5244 35.8727 31.1441 34.9804 31.1441 33.9462C31.1441 33.417 30.9818 32.9249 30.7045 32.5172C31.3742 32.0581 31.8144 31.2872 31.8144 30.4156ZM22.0626 20.3359C22.3945 20.3359 22.7227 20.3193 23.0466 20.2881V24.3383H21.0785V24.3243V20.2881C21.4023 20.3194 21.7305 20.3359 22.0626 20.3359ZM29.2678 31.3998H28.5977C28.1663 31.3998 27.8165 31.7495 27.8165 32.181C27.8165 32.6125 28.1663 32.9623 28.5977 32.9623C29.1402 32.9623 29.5816 33.4037 29.5816 33.9463C29.5816 34.4888 29.1403 34.9303 28.5977 34.9303H27.3942C26.9628 34.9303 26.6129 35.2801 26.6129 35.7116C26.6129 36.143 26.9627 36.4928 27.3942 36.4928C27.9368 36.4928 28.3783 36.9343 28.3783 37.477C28.3783 38.0196 27.9369 38.4611 27.3942 38.4611L19.3864 38.4609C17.4409 38.4609 15.5927 37.6058 14.3158 36.1149C14.1674 35.9416 13.9506 35.8419 13.7224 35.8419H10.3488L10.3442 27.7246H13.7189C13.9476 27.7246 14.1647 27.6244 14.3131 27.4505C15.5851 25.9603 17.4342 25.1055 19.3863 25.1055H19.5158V25.1195C19.5158 25.551 19.8657 25.9007 20.2971 25.9007H27.9958C28.5385 25.9007 28.98 26.3421 28.98 26.8848C28.98 27.4274 28.5386 27.8689 27.9958 27.8689C27.5644 27.8689 27.2146 28.2187 27.2146 28.6502C27.2146 29.0817 27.5644 29.4314 27.9958 29.4314H29.2677C29.8104 29.4314 30.2518 29.8729 30.2518 30.4155C30.2519 30.9582 29.8105 31.3998 29.2678 31.3998Z" fill="#5C02B5"/>
<path d="M19.5103 13.7408C19.9672 14.1977 20.5673 14.4261 21.1675 14.4261C21.7676 14.4261 22.3677 14.1977 22.8247 13.7408L26.6381 9.92737C27.5519 9.01362 27.5519 7.52674 26.6381 6.61299C25.7243 5.69932 24.2376 5.69932 23.3237 6.61299L21.1675 8.76924L20.8011 8.40283C19.8872 7.48916 18.4005 7.48916 17.4867 8.40283C17.044 8.84549 16.8003 9.43401 16.8003 10.06C16.8003 10.686 17.044 11.2746 17.4867 11.7172L19.5103 13.7408ZM18.5915 9.50776C18.7438 9.35549 18.9438 9.2794 19.1438 9.2794C19.3438 9.2794 19.5439 9.35557 19.6961 9.50776L20.615 10.4266C20.9201 10.7317 21.4147 10.7317 21.7199 10.4266L24.4286 7.71791C24.7331 7.41338 25.2286 7.41338 25.5332 7.71791C25.6808 7.86541 25.762 8.06158 25.762 8.27018C25.762 8.47877 25.6808 8.67494 25.5332 8.82244L21.7197 12.6359C21.4152 12.9404 20.9197 12.9404 20.6151 12.6359L18.5915 10.6123C18.444 10.4648 18.3627 10.2687 18.3627 10.06C18.3627 9.85135 18.444 9.65526 18.5915 9.50776Z" fill="#5C02B5"/>
<path d="M15.4331 4.33014C15.6332 4.33014 15.8333 4.25381 15.9859 4.10123C16.2909 3.79615 16.2909 3.30146 15.9859 2.99639C15.6807 2.69131 15.1862 2.69131 14.8809 2.99639L14.8805 2.99678C14.5755 3.30186 14.5757 3.79631 14.8808 4.10139C15.0334 4.25389 15.2333 4.33014 15.4331 4.33014Z" fill="#5C02B5"/>
<path d="M13.7137 8.23605C14.2852 4.80748 17.9994 2.52176 19.7852 1.80748V0.378906C14.3566 1.23605 12.5233 5.73605 12.2852 7.87891L13.7137 8.23605Z" fill="#5C02B5"/>
</g>
<defs>
<clipPath id="clip0">
<rect width="40" height="40" fill="white" transform="translate(0.5 0.0234375)"/>
</clipPath>
</defs>
</svg>
