<svg width="12" height="12" viewBox="0 0 12 12" fill="none" xmlns="http://www.w3.org/2000/svg">
<path d="M8.28751 4.13699L7.34818 4.10254L7.14453 9.66388L8.08386 9.69819L8.28751 4.13699Z" fill="#E11F26"/>
<path d="M6.46728 4.11963H5.52734V9.681H6.46728V4.11963Z" fill="#E11F26"/>
<path d="M4.85391 9.66366L4.65027 4.10229L3.71094 4.13677L3.91461 9.69811L4.85391 9.66366Z" fill="#E11F26"/>
<path d="M0.40625 1.80127V2.74121H1.38568L2.16268 11.5709C2.18398 11.8136 2.38719 11.9997 2.63077 11.9997H9.35124C9.59485 11.9997 9.7982 11.8134 9.81934 11.5708L10.5964 2.74121H11.5916V1.80127H0.40625ZM8.92077 11.0598H3.06113L2.32923 2.74121H9.65284L8.92077 11.0598Z" fill="#E11F26"/>
<path d="M7.53347 0H4.46297C4.03106 0 3.67969 0.351375 3.67969 0.783281V2.27154H4.61962V0.939937H7.37681V2.27154H8.31675V0.783281C8.31675 0.351375 7.96537 0 7.53347 0Z" fill="#E11F26"/>
</svg>
