<svg width="16" height="14" viewBox="0 0 16 14" fill="none" xmlns="http://www.w3.org/2000/svg">
<path d="M8.1359 2.86188V2.86188ZM8.1359 2.86188L8.40316 2.49856C8.66216 2.14646 8.95252 1.84917 9.26873 1.60869L9.26875 1.60867C9.27248 1.60583 9.27622 1.60299 9.27996 1.60017C9.27998 1.60016 9.28 1.60014 9.28002 1.60012C9.89865 1.13311 10.5923 0.899902 11.3543 0.899902C12.388 0.899902 13.3305 1.3033 14.0198 2.03274C14.0198 2.03275 14.0198 2.03275 14.0198 2.03275C14.0232 2.0363 14.0265 2.03986 14.0299 2.04343L8.1359 2.86188ZM5.92958 11.7282L5.91038 11.7511L5.68442 12.0207L5.92958 11.7282Z" stroke="white"/>
</svg>
