<svg width="16" height="16" viewBox="0 0 16 16" fill="none" xmlns="http://www.w3.org/2000/svg">
<path d="M12.2193 5.72093C11.299 5.72093 10.4784 5.28239 9.95349 4.60465L5.55814 7.0598C5.66113 7.35548 5.71761 7.67442 5.71761 8.00332C5.71761 8.33555 5.66113 8.65116 5.55482 8.95017L9.94684 11.402C10.4684 10.7209 11.2924 10.2791 12.2159 10.2791C13.7907 10.2791 15.0764 11.5615 15.0764 13.1395C15.0764 14.7176 13.794 16 12.2159 16C10.6379 16 9.35548 14.7176 9.35548 13.1395C9.35548 12.8073 9.41196 12.4884 9.51827 12.1927L5.12957 9.74086C4.60797 10.4252 3.78405 10.8638 2.86046 10.8638C1.28571 10.8638 0 9.5814 0 8.00332C0 6.42525 1.28571 5.14286 2.86379 5.14286C3.78737 5.14286 4.6113 5.58472 5.13621 6.2691L9.52824 3.81395C9.42193 3.51495 9.36213 3.19269 9.36213 2.86047C9.36213 1.28572 10.6445 9.53674e-07 12.2226 9.53674e-07C13.8007 9.53674e-07 15.0831 1.28239 15.0831 2.86047C15.0831 4.43854 13.7973 5.72093 12.2193 5.72093ZM12.2193 15.0997C13.3023 15.0997 14.1827 14.2193 14.1827 13.1362C14.1827 12.0532 13.3023 11.1728 12.2193 11.1728C11.1362 11.1728 10.2558 12.0532 10.2558 13.1362C10.2558 14.2193 11.1395 15.0997 12.2193 15.0997ZM2.86379 6.03987C1.78073 6.03987 0.900332 6.92027 0.900332 8.00332C0.900332 9.08638 1.78073 9.96678 2.86379 9.96678C3.94684 9.96678 4.82724 9.08638 4.82724 8.00332C4.82724 6.92027 3.94352 6.03987 2.86379 6.03987ZM12.2193 0.900333C11.1362 0.900333 10.2558 1.78073 10.2558 2.86379C10.2558 3.94685 11.1362 4.82724 12.2193 4.82724C13.3023 4.82724 14.1827 3.94685 14.1827 2.86379C14.1827 1.78073 13.3023 0.900333 12.2193 0.900333Z" fill="white"/>
</svg>
