<svg width="22" height="22" viewBox="0 0 22 22" fill="none" xmlns="http://www.w3.org/2000/svg">
<path fill-rule="evenodd" clip-rule="evenodd" d="M17 1.88086H19.8125C20.7453 1.88086 21.5 2.63555 21.5 3.56836V19.6934C21.5 20.6238 20.7453 21.3809 19.8125 21.3809H2.1875C1.25469 21.3809 0.5 20.6262 0.5 19.6934V3.56836C0.5 2.63555 1.25469 1.88086 2.1875 1.88086H5V1.22461C5 0.758203 5.37734 0.380859 5.84375 0.380859C6.31016 0.380859 6.6875 0.758203 6.6875 1.22461V1.88086H15.3125V1.22461C15.3125 0.758203 15.6898 0.380859 16.1562 0.380859C16.6227 0.380859 17 0.758203 17 1.22461V1.88086ZM5 3.56836H2.1875V6.19336H19.8125V3.56836H17V4.03711C17 4.50352 16.6227 4.88086 16.1562 4.88086C15.6898 4.88086 15.3125 4.50352 15.3125 4.03711V3.56836H6.6875V4.03711C6.6875 4.50352 6.31016 4.88086 5.84375 4.88086C5.37734 4.88086 5 4.50352 5 4.03711V3.56836ZM19.8125 19.6934H2.1875V7.88086H19.8125V19.6934ZM7.25 10.8809H5.75C5.33516 10.8809 5 11.216 5 11.6309C5 12.0457 5.33516 12.3809 5.75 12.3809H7.25C7.66484 12.3809 8 12.0457 8 11.6309C8 11.216 7.66484 10.8809 7.25 10.8809ZM10.25 10.8809H11.75C12.1648 10.8809 12.5 11.216 12.5 11.6309C12.5 12.0457 12.1648 12.3809 11.75 12.3809H10.25C9.83516 12.3809 9.5 12.0457 9.5 11.6309C9.5 11.216 9.83516 10.8809 10.25 10.8809ZM16.25 10.8809H14.75C14.3352 10.8809 14 11.216 14 11.6309C14 12.0457 14.3352 12.3809 14.75 12.3809H16.25C16.6648 12.3809 17 12.0457 17 11.6309C17 11.216 16.6648 10.8809 16.25 10.8809ZM5.75 15.4277H7.25C7.66484 15.4277 8 15.7629 8 16.1777C8 16.5926 7.66484 16.9277 7.25 16.9277H5.75C5.33516 16.9277 5 16.5926 5 16.1777C5 15.7629 5.33516 15.4277 5.75 15.4277ZM11.75 15.4277H10.25C9.83516 15.4277 9.5 15.7629 9.5 16.1777C9.5 16.5926 9.83516 16.9277 10.25 16.9277H11.75C12.1648 16.9277 12.5 16.5926 12.5 16.1777C12.5 15.7629 12.1648 15.4277 11.75 15.4277Z" fill="#9F9F9F"/>
</svg>
