<svg width="32" height="14" viewBox="0 0 32 14" fill="none" xmlns="http://www.w3.org/2000/svg">
<path d="M13.2783 5.29102H15.4117V6.35793H13.2783V5.29102Z" fill="#9F9F9F"/>
<path d="M31.4883 3.69576L27.8653 3.17836C27.2046 2.77252 26.519 2.40921 25.8122 2.0904C23.4778 1.03303 20.9442 0.487424 18.3813 0.490245H17.7519C14.7274 0.492416 11.7513 1.25137 9.09487 2.69786L7.2664 3.69533C5.12606 3.71942 3.02696 4.28868 1.16746 5.34865C0.411762 5.78206 -0.0548502 6.58615 -0.0561523 7.45709V10.6242C-0.0561523 10.9189 0.182579 11.1576 0.477305 11.1576H2.26823C2.85073 12.8194 4.67008 13.6945 6.33187 13.112C7.24665 12.7914 7.96567 12.0722 8.28622 11.1576H22.5363C23.1188 12.8194 24.9382 13.6945 26.6 13.112C27.5145 12.7914 28.2338 12.0722 28.5543 11.1576H28.7457C28.8137 11.1576 28.881 11.1448 28.9441 11.1197L30.6717 10.4265C31.4434 10.1209 31.9489 9.37389 31.9461 8.54419V4.22379C31.9461 3.95858 31.7509 3.73352 31.4883 3.69576ZM7.36775 10.5176C7.13184 11.672 6.00481 12.4166 4.85044 12.1807C3.69584 11.9448 2.95122 10.8178 3.18713 9.66319C3.42325 8.50881 4.55028 7.76419 5.70466 8.0001C6.698 8.20302 7.41116 9.07699 7.41094 10.091C7.41094 10.2342 7.3964 10.3772 7.36775 10.5176ZM17.0116 10.091H8.47764C8.47764 8.32347 7.04503 6.89064 5.27755 6.89064C3.51007 6.89064 2.07724 8.32347 2.07724 10.091H1.01054V7.45709C1.0112 6.96856 1.27293 6.51735 1.69701 6.27472C3.43758 5.28094 5.4069 4.7579 7.41094 4.75725H17.0116V10.091ZM17.0116 3.69055H9.50288L9.60575 3.63434C11.8861 2.39511 14.419 1.69259 17.0116 1.58038V3.69055ZM18.0783 1.55694H18.3802C20.5297 1.55455 22.6596 1.96257 24.6561 2.75928L23.7248 3.69055H18.0783V1.55694ZM27.6359 10.5176C27.4 11.672 26.2729 12.4166 25.1183 12.1807C23.9639 11.9448 23.2193 10.8178 23.4552 9.66319C23.6911 8.50881 24.8184 7.76419 25.9728 8.0001C26.9661 8.20302 27.6793 9.07699 27.6791 10.091C27.6791 10.2342 27.6645 10.3772 27.6359 10.5176ZM30.8794 5.29049H29.2792V6.3574H30.8794V8.54419C30.8807 8.93723 30.6411 9.29098 30.2756 9.43531L28.7457 10.0497C28.7457 10.0007 28.7395 9.95205 28.7362 9.903C28.7329 9.85396 28.7319 9.79644 28.7266 9.74305C28.7212 9.68967 28.7106 9.63628 28.7021 9.5831C28.6934 9.52972 28.6871 9.47633 28.6765 9.42793C28.6659 9.37931 28.6503 9.32549 28.6364 9.27471C28.6225 9.22414 28.6118 9.17292 28.5958 9.12322C28.5799 9.07374 28.5606 9.02621 28.5426 8.97759C28.5244 8.9292 28.5079 8.87906 28.4892 8.83088C28.4706 8.78292 28.4454 8.7393 28.423 8.69394C28.4007 8.64858 28.3787 8.59888 28.3538 8.55309C28.3286 8.50729 28.3004 8.46823 28.2763 8.42569C28.2524 8.38293 28.2231 8.33432 28.1928 8.2907C28.1622 8.24686 28.1339 8.21235 28.1046 8.17285C28.0753 8.13335 28.0421 8.08691 28.0081 8.04589C27.974 8.00487 27.9421 7.97275 27.9089 7.93911C27.8759 7.90569 27.839 7.86033 27.8023 7.823C27.7654 7.78567 27.7292 7.75616 27.6925 7.72317C27.6556 7.69018 27.6161 7.65111 27.5755 7.61639C27.5352 7.58188 27.4939 7.55519 27.4536 7.5248C27.413 7.49442 27.3724 7.46186 27.3298 7.43343C27.2871 7.40522 27.2391 7.38026 27.1933 7.35031C27.1473 7.32036 27.11 7.29692 27.0668 7.27413C27.0236 7.25113 26.9698 7.22704 26.9208 7.2036C26.8717 7.18016 26.8333 7.15933 26.7879 7.14023C26.7426 7.12091 26.6812 7.10073 26.628 7.08163C26.5746 7.06231 26.5399 7.04734 26.4945 7.03301C26.4337 7.01435 26.3715 7.00089 26.3094 6.98549C26.2688 6.97594 26.2299 6.96313 26.1889 6.95467C26.1234 6.94121 26.0561 6.93383 25.9895 6.92407C25.95 6.91886 25.9122 6.91018 25.8727 6.90649C25.7659 6.89585 25.6594 6.88999 25.5474 6.88999C23.7806 6.89173 22.3488 8.32347 22.3471 10.0903H18.0786V4.75703H23.9455C24.087 4.75703 24.2226 4.70082 24.3225 4.60077L25.7056 3.21765C26.2862 3.49392 26.8507 3.80276 27.3965 4.14262C27.4594 4.18191 27.5297 4.20773 27.6033 4.21837L30.8794 4.68606V5.29049Z" fill="#9F9F9F"/>
</svg>
