<svg width="16" height="12" viewBox="0 0 16 12" fill="none" xmlns="http://www.w3.org/2000/svg">
<path fill-rule="evenodd" clip-rule="evenodd" d="M14.7269 5.21836C14.9144 5.66836 15.0487 6.10117 15.0534 6.18867V6.19492V6.19805C15.0487 6.28555 14.9144 6.71836 14.7269 7.16836C14.5347 7.63242 14.2097 8.3043 13.7597 8.86523C13.1675 9.60273 12.4409 10.1918 11.6003 10.6121C10.5597 11.134 9.34873 11.398 8.00029 11.398C6.65342 11.398 5.44248 11.134 4.40029 10.6121C3.55654 10.1902 2.82998 9.60117 2.24092 8.86367C1.79248 8.3043 1.46904 7.63242 1.27529 7.16836C1.08779 6.7168 0.953418 6.28398 0.94873 6.19648V6.19336V6.19023C0.953418 6.10273 1.08623 5.66992 1.27373 5.21992C1.46592 4.75586 1.78936 4.08398 2.23936 3.52148C2.83467 2.78086 3.56123 2.19336 4.39873 1.77461C5.43467 1.2543 6.64717 0.990234 7.99873 0.990234C9.35185 0.990234 10.5644 1.25273 11.6003 1.77305C12.444 2.19492 13.1706 2.78398 13.7597 3.52148C14.2097 4.08242 14.5347 4.7543 14.7269 5.21836ZM12.8878 8.15664C13.4597 7.44414 13.805 6.46289 13.894 6.19102C13.805 5.91914 13.4581 4.93633 12.8831 4.21758C12.394 3.60508 11.794 3.11758 11.0972 2.76914C10.2206 2.32695 9.17842 2.10352 7.99873 2.10352C6.82373 2.10352 5.77998 2.32695 4.89561 2.76914C4.20029 3.11758 3.59873 3.60352 3.10811 4.21602C2.53311 4.93477 2.18623 5.91758 2.09717 6.18945C2.18623 6.46289 2.53311 7.44727 3.10811 8.16289C3.59717 8.77539 4.19717 9.26289 4.89404 9.61133C5.77686 10.0535 6.81904 10.2785 7.99404 10.2785C9.16748 10.2785 10.2112 10.0535 11.094 9.61133C11.7925 9.25977 12.394 8.77383 12.88 8.16445L12.8878 8.15664ZM7.99932 3.4707C6.50557 3.4707 5.2915 4.68633 5.2915 6.17852C5.2915 7.6707 6.50713 8.88633 7.99932 8.88633C9.4915 8.88633 10.7071 7.6707 10.7071 6.17852C10.7071 4.68633 9.49307 3.4707 7.99932 3.4707ZM9.12607 7.3082C9.42764 7.00664 9.59326 6.60664 9.59326 6.18164C9.59326 5.75664 9.42764 5.35664 9.12607 5.05508C8.82451 4.75352 8.42451 4.58789 7.99951 4.58789C7.57451 4.58789 7.17451 4.75352 6.87295 5.05508C6.57139 5.35664 6.40576 5.75664 6.40576 6.18164C6.40576 6.60664 6.57139 7.00664 6.87295 7.3082C7.17451 7.60977 7.57451 7.77539 7.99951 7.77539C8.42451 7.77539 8.82451 7.60977 9.12607 7.3082Z" fill="black"/>
</svg>
