<svg width="25" height="24" viewBox="0 0 25 24" fill="none" xmlns="http://www.w3.org/2000/svg">
<g clip-path="url(#clip0)">
<path d="M19.2905 18.1752C19.2905 17.557 18.9123 17.0254 18.3752 16.7996C18.484 16.5927 18.5457 16.3571 18.5457 16.1076C18.5457 15.2853 17.8766 14.6162 17.0543 14.6162H15.0708V12.083C17.6311 11.4195 19.5273 9.08942 19.5273 6.32465C19.5273 3.04509 16.8592 0.376953 13.5796 0.376953C12.9793 0.376953 12.3926 0.464966 11.8279 0.639212C11.6216 0.702868 11.4183 0.778032 11.2183 0.864619C10.9865 0.964998 10.8799 1.23438 10.9803 1.46625C11.0807 1.69812 11.3502 1.80477 11.5819 1.7043C11.8037 1.60828 12.0303 1.52888 12.2612 1.46625C12.6882 1.35042 13.1293 1.29198 13.5796 1.29198C16.3546 1.29198 18.6122 3.54964 18.6122 6.32465C18.6122 9.09967 16.3546 11.3573 13.5796 11.3573C10.8046 11.3573 8.54685 9.09967 8.54685 6.32465C8.54685 6.01024 8.57534 5.7003 8.63196 5.39656C8.7003 5.02993 8.80962 4.67232 8.9593 4.32677C9.05973 4.09491 8.95322 3.82552 8.72135 3.7251C8.48962 3.62467 8.22009 3.73118 8.11971 3.9631C7.94819 4.35902 7.82146 4.76822 7.74021 5.18741C7.66811 5.55939 7.63182 5.93924 7.63182 6.32465C7.63182 9.08942 9.52804 11.4195 12.0882 12.083V14.1505H12.0123C10.6727 14.1505 9.40039 14.7069 8.48861 15.6843H6.25927C6.13789 15.6843 6.0215 15.7325 5.93567 15.8184C5.84989 15.9042 5.80167 16.0206 5.80176 16.1421L5.80496 21.8108C5.8051 22.0634 6.00988 22.268 6.26248 22.268H8.49099C9.4052 23.2454 10.6766 23.8017 12.0123 23.8017L16.7019 23.8018C17.5242 23.8018 18.1932 23.1328 18.1932 22.3104C18.1932 22.0551 18.1288 21.8146 18.0152 21.6042C18.535 21.371 18.8979 20.8485 18.8979 20.2428C18.8979 19.9329 18.8029 19.6448 18.6405 19.406C19.0326 19.1371 19.2905 18.6857 19.2905 18.1752ZM13.5796 12.2724C13.774 12.2724 13.9662 12.2627 14.1559 12.2444V14.6162H13.0033V14.6081V12.2444C13.1929 12.2627 13.3851 12.2724 13.5796 12.2724ZM17.7991 18.7516H17.4067C17.154 18.7516 16.9492 18.9564 16.9492 19.2091C16.9492 19.4618 17.154 19.6666 17.4067 19.6666C17.7244 19.6666 17.9829 19.9251 17.9829 20.2429C17.9829 20.5606 17.7244 20.8192 17.4067 20.8192H16.7019C16.4492 20.8192 16.2444 21.024 16.2444 21.2767C16.2444 21.5293 16.4492 21.7342 16.7019 21.7342C17.0197 21.7342 17.2782 21.9927 17.2782 22.3105C17.2782 22.6283 17.0197 22.8868 16.7019 22.8868L12.0123 22.8867C10.873 22.8867 9.7907 22.386 9.04289 21.5129C8.95601 21.4114 8.82905 21.353 8.69541 21.353H6.71976L6.71706 16.5993H8.69335C8.82726 16.5993 8.95441 16.5407 9.04133 16.4388C9.78621 15.5661 10.8691 15.0655 12.0123 15.0655H12.0882V15.0737C12.0882 15.3264 12.293 15.5312 12.5457 15.5312H17.0542C17.372 15.5312 17.6306 15.7897 17.6306 16.1075C17.6306 16.4253 17.3721 16.6839 17.0542 16.6839C16.8016 16.6839 16.5967 16.8887 16.5967 17.1414C16.5967 17.3941 16.8016 17.5989 17.0542 17.5989H17.7991C18.1168 17.5989 18.3754 17.8574 18.3754 18.1752C18.3754 18.493 18.1169 18.7516 17.7991 18.7516Z" fill="white"/>
<path d="M12.0851 8.40948C12.3527 8.67704 12.7041 8.81082 13.0556 8.81082C13.407 8.81082 13.7584 8.67704 14.026 8.40948L16.2593 6.17625C16.7944 5.64114 16.7944 4.7704 16.2593 4.23528C15.7241 3.70022 14.8535 3.70022 14.3183 4.23528L13.0556 5.49803L12.841 5.28345C12.3058 4.74839 11.4352 4.74839 10.9 5.28345C10.6408 5.54268 10.498 5.88733 10.498 6.25394C10.498 6.62055 10.6408 6.96519 10.9 7.22442L12.0851 8.40948ZM11.547 5.93052C11.6362 5.84135 11.7533 5.79679 11.8705 5.79679C11.9876 5.79679 12.1048 5.8414 12.1939 5.93052L12.732 6.46861C12.9107 6.64727 13.2003 6.64727 13.3791 6.46861L14.9653 4.88235C15.1437 4.70401 15.4338 4.70401 15.6122 4.88235C15.6986 4.96873 15.7462 5.08361 15.7462 5.20577C15.7462 5.32792 15.6986 5.44281 15.6122 5.52919L13.379 7.76242C13.2006 7.94076 12.9105 7.94076 12.7321 7.76242L11.547 6.57736C11.4606 6.49098 11.413 6.37614 11.413 6.25394C11.413 6.13174 11.4606 6.0169 11.547 5.93052Z" fill="white"/>
<path d="M9.69727 2.89944C9.81444 2.89944 9.93161 2.85474 10.021 2.76539C10.1996 2.58673 10.1996 2.29703 10.021 2.11837C9.84226 1.93971 9.55265 1.93971 9.3739 2.11837L9.37367 2.1186C9.19501 2.29726 9.19515 2.58682 9.37381 2.76548C9.46316 2.85479 9.58024 2.89944 9.69727 2.89944Z" fill="white"/>
<path d="M8.69061 5.18529C9.02525 3.17745 11.2004 1.83889 12.2462 1.42059V0.583984C9.06708 1.08595 7.99344 3.72124 7.854 4.97614L8.69061 5.18529Z" fill="white"/>
</g>
<defs>
<clipPath id="clip0">
<rect width="23.4248" height="23.4248" fill="white" transform="translate(0.952148 0.376953)"/>
</clipPath>
</defs>
</svg>
