<svg width="25" height="24" viewBox="0 0 25 24" fill="none" xmlns="http://www.w3.org/2000/svg">
<g clip-path="url(#clip0)">
<path d="M4.84392 21.1926C4.75887 21.1075 4.64083 21.0586 4.52051 21.0586C4.40018 21.0586 4.28214 21.1075 4.19704 21.1926C4.11194 21.2778 4.06299 21.3958 4.06299 21.5161C4.06299 21.6364 4.1119 21.7545 4.19704 21.8395C4.28214 21.9246 4.40018 21.9736 4.52051 21.9736C4.64083 21.9736 4.75887 21.9247 4.84392 21.8395C4.92902 21.7545 4.97802 21.6364 4.97802 21.5161C4.97802 21.3958 4.92907 21.2777 4.84392 21.1926Z" fill="white"/>
<path d="M22.4338 8.74733C22.3487 8.66219 22.2311 8.61328 22.1104 8.61328C21.99 8.61328 21.872 8.66219 21.7869 8.74733C21.7018 8.83243 21.6528 8.95047 21.6528 9.0708C21.6528 9.19112 21.7018 9.30916 21.7869 9.39422C21.872 9.47931 21.99 9.52831 22.1104 9.52831C22.2311 9.52831 22.3487 9.47936 22.4338 9.39422C22.5193 9.30916 22.5683 9.19112 22.5683 9.0708C22.5683 8.95047 22.5193 8.83243 22.4338 8.74733Z" fill="white"/>
<path d="M24.2429 0.51096C24.157 0.425175 24.0406 0.376953 23.9193 0.376953L12.6646 0.377548C12.412 0.377548 12.2072 0.582424 12.2072 0.835064V2.14342L7.87042 3.30547C7.62634 3.37089 7.48149 3.62175 7.54691 3.86579L9.79455 12.254L7.85015 14.1984C7.60268 13.837 7.18717 13.5994 6.71716 13.5994H2.32514C1.56832 13.5994 0.952637 14.2151 0.952637 14.9719V22.4292C0.952637 23.1861 1.56832 23.8018 2.32514 23.8018H6.71721C7.36015 23.8018 7.90103 23.3573 8.04926 22.7596L8.59325 23.234C9.01321 23.6002 9.55124 23.8018 10.1085 23.8018H23.9194C24.172 23.8018 24.3769 23.597 24.3769 23.3443V0.834469C24.3768 0.713136 24.3287 0.596744 24.2429 0.51096ZM7.17463 22.4293C7.17463 22.6815 6.96939 22.8868 6.71711 22.8868H2.32509C2.07282 22.8868 1.86758 22.6816 1.86758 22.4293V14.972C1.86758 14.7197 2.07282 14.5144 2.32509 14.5144H4.06361V19.7848C4.06361 20.0374 4.26849 20.2423 4.52113 20.2423C4.77377 20.2423 4.97864 20.0374 4.97864 19.7848V14.5144H6.71716C6.96943 14.5144 7.17468 14.7197 7.17468 14.972L7.17463 22.4293ZM8.54915 4.07089L12.2072 3.09071V4.78604L11.9005 4.86821C11.7833 4.89964 11.6834 4.97627 11.6227 5.08136C11.5621 5.18646 11.5456 5.31131 11.577 5.42853C11.7529 6.08465 11.3621 6.76146 10.706 6.93728C10.5886 6.96876 10.4886 7.04553 10.4279 7.15085C10.3673 7.25612 10.351 7.38121 10.3827 7.49851L12.166 14.1022H11.2478L10.7746 12.2509C10.7595 12.192 10.7332 12.1377 10.6979 12.0905L8.54915 4.07089ZM12.2072 6.88416V10.7447L11.3727 7.65489C11.7213 7.47491 12.0066 7.20561 12.2072 6.88416ZM18.78 22.8868H10.1084C9.77232 22.8868 9.4478 22.7651 9.19452 22.5443L8.08966 21.5807V15.253L10.0871 13.2555L10.4493 14.6729C10.5011 14.8755 10.6836 15.0171 10.8926 15.0171L19.8875 15.0177C20.2407 15.0177 20.5281 15.305 20.5281 15.6582C20.5281 16.0114 20.2407 16.2987 19.8875 16.2987H15.2785C15.0259 16.2987 14.821 16.5036 14.821 16.7562C14.821 17.0089 15.0259 17.2137 15.2785 17.2137H21.3196C21.6728 17.2137 21.9601 17.5011 21.9601 17.8543C21.9601 18.2075 21.6728 18.4948 21.3196 18.4948H15.2785C15.0259 18.4948 14.821 18.6997 14.821 18.9523C14.821 19.2049 15.0259 19.4098 15.2785 19.4098H20.3406C20.6938 19.4098 20.9811 19.6971 20.9811 20.0503C20.9811 20.4035 20.6938 20.6909 20.3406 20.6909H15.2785C15.0259 20.6909 14.821 20.8957 14.821 21.1484C14.821 21.401 15.0259 21.6059 15.2785 21.6059H18.78C19.1332 21.6059 19.4206 21.8932 19.4206 22.2464C19.4205 22.5994 19.1332 22.8868 18.78 22.8868ZM23.4618 22.8868H20.197C20.2857 22.6913 20.3355 22.4745 20.3355 22.2462C20.3355 22.0179 20.2857 21.8012 20.197 21.6057H20.3406C21.1983 21.6057 21.8961 20.9079 21.8961 20.0502C21.8961 19.8 21.8364 19.5636 21.731 19.354C22.3897 19.1731 22.875 18.5694 22.875 17.8542C22.875 17.5072 22.7607 17.1864 22.568 16.9275V11.1289C22.568 10.8763 22.3631 10.6714 22.1105 10.6714C21.8578 10.6714 21.653 10.8763 21.653 11.1289V16.3351C21.5454 16.3115 21.434 16.2987 21.3195 16.2987H21.3045C21.3932 16.1032 21.443 15.8865 21.443 15.6582C21.443 14.8004 20.7452 14.1027 19.8875 14.1027H19.152C19.933 13.7678 20.4814 12.9915 20.4814 12.0894C20.4814 10.882 19.4993 9.89979 18.2919 9.89979C17.0846 9.89979 16.1024 10.882 16.1024 12.0894C16.1024 12.9915 16.6509 13.7678 17.4318 14.1027H14.9309V5.40336C15.7482 5.22525 16.3931 4.58038 16.5711 3.76303H20.0126C20.1907 4.58038 20.8356 5.22525 21.6529 5.40336V11.6319C21.6529 11.8845 21.8578 12.0894 22.1104 12.0894C22.3631 12.0894 22.568 11.8845 22.568 11.6319V4.99489C22.568 4.74225 22.3631 4.53738 22.1104 4.53738C21.4312 4.53738 20.8786 3.98474 20.8786 3.30551C20.8786 3.05287 20.6737 2.848 20.4211 2.848H16.1627C15.9101 2.848 15.7052 3.05287 15.7052 3.30551C15.7052 3.98479 15.1526 4.53738 14.4734 4.53738C14.2207 4.53738 14.0159 4.74225 14.0159 4.99489V14.1026H13.1223V1.29249L23.4618 1.29199V22.8868ZM18.292 13.3639C17.5892 13.3639 17.0175 12.7922 17.0175 12.0894C17.0175 11.3867 17.5893 10.8149 18.292 10.8149C18.9947 10.8149 19.5665 11.3866 19.5665 12.0894C19.5665 12.7921 18.9948 13.3639 18.292 13.3639Z" fill="white"/>
</g>
<defs>
<clipPath id="clip0">
<rect width="23.4248" height="23.4248" fill="white" transform="translate(0.952148 0.376953)"/>
</clipPath>
</defs>
</svg>
