<?xml version="1.0" encoding="utf-8"?>
<!-- Generator: Adobe Illustrator 21.0.0, SVG Export Plug-In . SVG Version: 6.00 Build 0)  -->
<svg version="1.1" id="Layer_1" xmlns="http://www.w3.org/2000/svg" xmlns:xlink="http://www.w3.org/1999/xlink" x="0px" y="0px"
	 viewBox="0 0 649 220.5" style="enable-background:new 0 0 649 220.5;" xml:space="preserve">
<style type="text/css">
	.st0{fill:#5C02B5;}
	.st1{fill:#FA8500;}
</style>
<path class="st0" d="M635.1,105.5c0-54.6-44.3-98.9-98.9-98.9c-54.6,0-98.9,44.3-98.9,98.9s44.3,98.9,98.9,98.9
	C590.9,204.4,635.1,160.1,635.1,105.5"/>
<path class="st1" d="M502.5,60.9c-1.1,1.1-1.1,2.9,0,4l0.7,0.7l-23,22.9l-0.7-0.7c-1.1-1.1-2.9-1.1-4,0c-1.1,1.1-1.1,2.9,0,4
	l16.4,16.4c1.1,1.1,2.9,1.1,4,0c1.1-1.1,1.1-2.9,0-4l-0.7-0.7l3.8-3.8l68.5,68.6l15.1-15l-68.5-68.6l4.2-4.2l0.7,0.7
	c1.1,1.1,2.9,1.1,4,0c1.1-1.1,1.1-2.9,0-4l-16.4-16.4C505.4,59.8,503.6,59.8,502.5,60.9"/>
<path class="st1" d="M511.2,57.4l15.1,15c5.7-5.7,14.9-5.7,20.6,0c5.7,5.7,5.7,14.9,0,20.6l15.1,15c14-14,13.9-36.7-0.1-50.7
	C547.9,43.4,525.2,43.5,511.2,57.4"/>
<path class="st0" d="M171.1,88.8c4.7,0,8.7-2.6,11.7-5.9c3.1,3.5,6.8,6,12.1,6c0,0,11.3,0,11.3,0c11.3,0,17.2-9.4,17.2-23V41.1
	h-11.6v24.6c0,5.2-2,9.5-6,11.4c-1.8,1.1-8.2,1.4-10.8,0.1c-4.1-1.9-6.2-6.3-6.2-11.5V41.1h-12.2v24.6c0,5.2-2,9.5-6,11.4
	c-0.8,0.5-2.4,0.8-4.2,0.9L96,78V40.9H84.3v44.2c0,5.2-2,7.4-6,9.4c-0.7,0.4-1.9,0.7-3.4,0.8H62.6v10.8c0,0,16.2,0,16.2,0
	c9.2-1,15.9-5.9,17-17.4C95.8,88.8,171.1,88.8,171.1,88.8"/>
<path class="st0" d="M207.8,30.9c0-9.1-13.7-9.1-13.7,0C194,40,207.8,40,207.8,30.9"/>
<path class="st0" d="M319.4,101.7c0,9.1,13.7,9.1,13.7,0C333.1,92.6,319.4,92.6,319.4,101.7"/>
<path class="st0" d="M256.5,89.2c4.9,0,9.1-1.1,12.7-3.1c-0.4,4.4-2.4,6.8-5.9,8.6c-0.7,0.4-1.9,0.7-3.4,0.8h-12.3v10.8h12.4v0
	c2.1,0,3.8,0,3.8,0c9.2-1,15.9-5.9,17.1-17.4l46,0c2.1,0,3.8,0,3.8,0c10.5,0,17.2-10.1,17.2-23.7V40.5H336v24.6c0,5.2-2,9.5-6,11.4
	c-0.7,0.4-1.9,0.7-3.4,0.8h-45.7v-9.8c0.1-0.9-0.3-7.7-0.3-7.7c-2-11.2-11-19.7-24.2-19.7c-15,0-24.3,11.1-24.3,24.5
	C232.1,78.2,241.2,89.2,256.5,89.2 M256.5,51.3c7.3,0,12.2,6,12.7,12.6v2.7c-0.5,6.6-4.8,12.4-12.7,12.4c-8.5,0-12.8-6.7-12.8-13.8
	C243.7,58.2,248.1,51.3,256.5,51.3"/>
<path class="st0" d="M301.2,101.7c0,9.1,13.7,9.1,13.7,0C314.9,92.6,301.2,92.6,301.2,101.7"/>
<path class="st0" d="M389.1,99.2c0-9.1-13.7-9.1-13.7,0C375.4,108.3,389.1,108.3,389.1,99.2"/>
<path class="st0" d="M396.1,41.1v24.6c0,5.2-2,9.5-6,11.4c-1.8,1.1-13.1,1.4-15.7,0.1c-4.1-1.9-6.2-6.3-6.2-11.5V22.1h-11.6v43.7
	c0,13.8,7.2,23,17.7,23c0,0,16.3,0,16.3,0c10.1,0,17.2-9.4,17.2-23V41.1H396.1z"/>
<path class="st0" d="M140,101.7c0,9.1,13.7,9.1,13.7,0C153.7,92.6,140,92.6,140,101.7"/>
<path class="st0" d="M158.1,101.7c0,9.1,13.7,9.1,13.7,0C171.9,92.6,158.1,92.6,158.1,101.7"/>
<path class="st0" d="M65.1,128.1c0-9.1-13.7-9.1-13.7,0C51.4,137.2,65.1,137.2,65.1,128.1"/>
<path class="st0" d="M75.9,164.3c0,5.2-2,9.5-6,11.4c-0.7,0.4-1.9,0.7-3.4,0.8h-32v0.1c-2.1-0.1-4-0.4-4.9-0.9c-3.9-2-6-6.3-6-11.4
	v-24.6H11.9v24.7c0,13.6,7.1,21.9,17.2,23c0,0,2.6,0,5.3,0v0h32.1v0c2.1,0,3.8,0,3.8,0c10.1-1.1,17.2-9.4,17.2-23v-24.7H75.9V164.3z
	"/>
<path class="st0" d="M46.9,128.1c0-9.1-13.7-9.1-13.7,0C33.2,137.2,46.9,137.2,46.9,128.1"/>
<path class="st0" d="M396.1,121.3v43.6c0,5.2-2,9.5-6,11.4c-1.8,1.1-13.1,1.4-15.7,0.1c-4-1.9-6.1-6.2-6.1-11.3c0,0,0,0,0-0.1v-43.7
	h-11.7V165c0,0,0,0.1,0,0.1c0,5.1-2.1,9.3-6,11.3c-0.7,0.4-3.7,0.7-7.3,0.9v0h-22.4c0-0.5,0.1-1.1,0.1-1.6
	c0-13.5-9.4-24.5-24.3-24.5c-12.9,0.9-18.4,7.3-20.8,11c-2.4,3.9-3.8,8.6-3.8,13.6c0,0.6,0,1.1,0.1,1.6h-48.4v-38.1h-11.6v45.2
	c0,5.2-2,9.5-6,11.4c-0.7,0.4-1.9,0.7-3.4,0.8h-12.3v10.8h12.4v0c2.1,0,3.8,0,3.8,0c9.2-1,15.9-7.9,17-19.4c1.9,0,4.6,0,8.5,0
	c0,0,29.4,0,43.3,0c4.1,7.2,11.7,12.1,21.4,12.1c14.5,0,20.6-10.8,20.6-10.8c0.3-0.4,0.5-0.8,0.7-1.3c11.7,0,33.1,0,33.1,0
	c4.6,0,8.5-1.9,11.4-5.2c3,3.3,7.1,5.2,11.8,5.2c0,0,16.3,0,16.3,0c10.2,0,17.2-9.4,17.2-23v-43.7H396.1z M298.3,189.3h-3.7
	c-7.3-0.9-10.9-7.1-10.9-13.7c0-7.1,5-13.9,12.8-13.9c8.4,0,12.8,6.9,12.8,13.9C309.3,182.2,305.6,188.4,298.3,189.3"/>
<path class="st0" d="M224.7,128.2c0-9.1-13.7-9.1-13.7,0C211,137.3,224.7,137.3,224.7,128.2"/>
<rect x="178.7" y="121.3" class="st0" width="11.4" height="66.7"/>
<rect x="99.5" y="121.3" class="st0" width="11.4" height="66.7"/>
<path class="st0" d="M166.3,156.3c-1.1-10.1-9.4-17.2-23-17.2h-9.7v11.6h9.6c5.2,0,9.5,2,11.4,6c1.1,1.8,1.4,10.4,0.1,13.1
	c-1.9,4.1-6.3,6.2-11.5,6.2h-21.3v11.6h21.4c13.8,0,22.2-7.3,23-17.7C166.3,169.9,166.3,156.3,166.3,156.3"/>
</svg>
