<?xml version="1.0" encoding="utf-8"?>
<!-- Generator: Adobe Illustrator 19.0.0, SVG Export Plug-In . SVG Version: 6.00 Build 0)  -->
<svg version="1.1" id="Layer_1" xmlns="http://www.w3.org/2000/svg" xmlns:xlink="http://www.w3.org/1999/xlink" x="0px" y="0px"
	 viewBox="0 0 1400.9 589.4" style="enable-background:new 0 0 1400.9 589.4;" xml:space="preserve">
<style type="text/css">
	.st0{fill:#5C02B5;}
	.st1{clip-path:url(#SVGID_2_);fill:#5C02B5;}
	.st2{clip-path:url(#SVGID_2_);fill:#FA8500;}
	.st3{fill:#5D04B5;}
	.st4{fill:#5E05B5;}
	.st5{fill:#5D05B5;}
	.st6{fill:#5C02B4;}
	.st7{fill:#5F07B6;}
	.st8{fill:#5F06B6;}
	.st9{fill:#5E06B5;}
	.st10{fill:#6009B6;}
	.st11{fill:#5F08B6;}
	.st12{clip-path:url(#SVGID_4_);fill:#FA8500;}
	.st13{clip-path:url(#SVGID_4_);fill:#5D05B5;}
	.st14{fill:#FA8500;}
	.st15{clip-path:url(#SVGID_6_);fill:#5D05B5;}
	.st16{clip-path:url(#SVGID_6_);fill:#FA8500;}
	.st17{clip-path:url(#SVGID_8_);fill:#FFFFFF;}
	.st18{clip-path:url(#SVGID_10_);fill:#FFFFFF;}
	.st19{fill:#FFFFFF;}
	.st20{clip-path:url(#SVGID_12_);fill:#FA8500;}
	.st21{clip-path:url(#SVGID_12_);fill:#5C02B5;}
	.st22{clip-path:url(#SVGID_14_);fill:#5C02B5;}
	.st23{clip-path:url(#SVGID_14_);fill:#FA8500;}
	.st24{clip-path:url(#SVGID_16_);fill:#FFFFFF;}
</style>
<rect x="3813.6" y="0" class="st0" width="2009.3" height="589.4"/>
<rect x="0" class="st0" width="1400.9" height="589.4"/>
<g>
	<defs>
		<rect id="SVGID_1_" x="-1921.6" y="-168.9" width="1720.9" height="927.1"/>
	</defs>
	<clipPath id="SVGID_2_">
		<use xlink:href="#SVGID_1_"  style="overflow:visible;"/>
	</clipPath>
	<path class="st1" d="M-382.5,296.6c0-151-122.4-273.5-273.5-273.5c-151,0-273.5,122.4-273.5,273.5S-807.1,570.1-656,570.1
		C-505,570.1-382.5,447.7-382.5,296.6"/>
	<path class="st2" d="M-774.6,193.1c-2.4,3.5-1.5,8.4,2,10.8l2.2,1.5l-50.8,74.1l-2.2-1.5c-3.5-2.4-8.4-1.5-10.8,2
		c-2.4,3.5-1.5,8.4,2,10.8l53,36.3c3.5,2.4,8.4,1.5,10.8-2c2.4-3.5,1.5-8.4-2-10.8l-2.2-1.5l8.3-12.1L-543,452.4l33.3-48.5
		L-731,252.2l9.2-13.5l2.2,1.5c3.5,2.4,8.4,1.5,10.8-2c2.4-3.5,1.5-8.4-2-10.8l-53-36.3C-767.4,188.7-772.2,189.6-774.6,193.1"/>
	<path class="st2" d="M-752.6,179.4l48.6,33.2c12.5-18.3,37.6-23.1,56-10.6c18.3,12.5,23.1,37.6,10.6,55.9l48.6,33.2
		c30.8-45.1,19.2-106.9-26-137.7S-721.8,134.3-752.6,179.4"/>
	<path class="st1" d="M-2195.2,296.6c0-151-122.4-273.5-273.5-273.5c-151,0-273.5,122.4-273.5,273.5s122.4,273.5,273.5,273.5
		C-2317.6,570.1-2195.2,447.7-2195.2,296.6"/>
	<path class="st2" d="M-2587.3,193.1c-2.4,3.5-1.5,8.4,2,10.8l2.2,1.5l-50.8,74.1l-2.2-1.5c-3.5-2.4-8.4-1.5-10.8,2
		c-2.4,3.5-1.5,8.4,2,10.8l53,36.3c3.5,2.4,8.4,1.5,10.8-2c2.4-3.5,1.5-8.4-2-10.8l-2.2-1.5l8.3-12.1l221.3,151.7l33.3-48.5
		l-221.3-151.7l9.2-13.5l2.2,1.5c3.5,2.4,8.4,1.5,10.8-2c2.4-3.5,1.5-8.4-2-10.8l-53-36.3C-2580,188.7-2584.9,189.6-2587.3,193.1"/>
	<path class="st2" d="M-2565.3,179.4l48.6,33.2c12.5-18.3,37.6-23.1,56-10.6c18.3,12.5,23.1,37.6,10.6,55.9l48.6,33.2
		c30.8-45.1,19.2-106.9-26-137.7S-2534.5,134.3-2565.3,179.4"/>
</g>
<g>
	<path class="st3" d="M-1347.2,248.5c-9,0-18,0.4-26.9-1.1c-21.6-3.5-36.2-17.4-40.1-39.1c-4.4-24.6,0.1-47.5,16.1-67.1
		c28-34.2,76.6-27.8,95.4,12.2c7.4,15.7,10.1,32.5,11,49.5c0.2,3.5,1.1,4.4,4.5,4.3c11.4-0.3,22.9,0.3,34.2-1.2
		c15.6-2,21.3-8.6,20.4-24.3c-1.1-17.8-4.7-35.2-7.9-52.7c-0.6-3.4-0.5-5,3.6-5.5c7.6-0.9,15.2-2.3,22.7-3.8
		c2.8-0.5,4.1,0.1,4.5,3.1c3,21.7,7.3,43.2,7.1,65.3c-0.1,7.5-0.9,15-2.9,22.2c-6.1,21.7-21.6,32.3-42.8,36.2
		c-13.5,2.5-27.2,2.2-40.9,2c-4.2-0.1-6.5,0.7-7.8,5.3c-12.2,42.1-41.4,65.7-85.1,69.5c-10.9,1-21.7,0.5-32.6,0.9
		c-3.7,0.1-4.3-1.3-4.3-4.6c0.2-10.7,0.2-21.4,0-32c-0.1-3.9,1-5.1,5-5c15.9,0.3,31.9,0.5,47.5-3.3c16.1-3.9,30.4-10.6,39.3-25.6
		c0.8-1.4,2.5-2.8,1.6-4.5c-0.8-1.4-2.7-0.6-4.2-0.6C-1335.6,248.5-1341.4,248.5-1347.2,248.5z M-1345.5,207.1
		c7.9,0,14.5-0.1,21,0.1c2.8,0.1,4-0.6,3.9-3.7c-0.2-9.5-2-18.5-7-26.8c-11.7-19.5-41.8-21.9-54.5-4.3c-11,15.2-4.5,31.1,13.8,34.1
		C-1360.3,207.8-1352.2,206.8-1345.5,207.1z"/>
	<path class="st3" d="M-1584.7,209.4c-1.3,4.1-2.4,8.1-3.7,12c-5.5,15.7-16.4,24.3-33,26.3c-7.7,0.9-15.3,0.7-23,0.6
		c-3.4,0-4.8,0.8-5.3,4.4c-2.6,15.9-7.9,30.8-18.3,43.5c-16,19.6-37.7,26.7-62,27.7c-3.7,0.2-7.5-0.2-11.2,0.1
		c-4.2,0.4-4.9-1.3-4.8-5.1c0.2-10.3,0.3-20.6,0-30.9c-0.1-4.3,0.9-5.9,5.5-5.6c8.4,0.5,16.9,0.3,25.2-1.4
		c23.1-4.5,35.3-18.9,37.1-43.5c1.3-18.5-2.1-36.6-5-54.7c-1.3-7.9-2.6-15.9-4-23.8c-0.5-3-0.3-4.7,3.5-5.2
		c7.8-0.9,15.5-2.4,23.3-3.8c2.4-0.4,3.3,0.2,3.7,2.6c2.8,16.8,6,33.5,7.7,50.5c0.2,1.8-0.3,3.9,2.7,3.8c13.8-0.4,27.8,1.1,41.5-0.8
		c11.7-1.7,17.6-8.3,17.9-20.1c0.3-14.6,0.2-29.2,0.1-43.8c0-3.8,0.7-5.3,4.9-5.1c7.3,0.3,14.6,0.3,21.9,0c3.4-0.1,4.5,0.9,4.4,4.4
		c-0.2,13.9-0.1,27.7-0.1,41.6c0.1,16.6,7.4,23.9,24.2,23.9c11.2,0,22.5,0.7,33.7-1c2.6-0.4,5.2-0.8,7.7-1.5
		c9.6-2.8,13.6-7.9,13.6-18c0-14.7-2.8-29-5.3-43.4c-0.8-4.8-1.6-9.6-2.7-14.3c-0.8-3.6,0.3-4.9,4-5.3c7.6-0.9,15.1-2.4,22.7-3.7
		c2-0.3,3.6-0.6,4,2.2c3.6,25.9,9.7,51.6,6.4,78.1c-3.1,25.2-16.4,40.2-41.2,45.5c-19.2,4.2-38.7,4.3-58.1,1.1
		c-19.3-3.2-30.7-15.1-35.7-33.7C-1583,211.8-1582.6,210.3-1584.7,209.4z"/>
	<path class="st4" d="M-1124.6,501.2c-2.5,12.1-7.7,21.9-21.5,23.7c-14.6,1.9-27.2-1.1-36.5-14.7c0,4-0.1,7.9,0,11.9
		c0.1,2.3-0.5,3.4-3.1,3.4c-9.2-0.2-18.4,0.3-27.5-0.4c-12.9-0.9-23.3-6.4-29.2-18.6c-0.7,0.4-1.2,0.6-1.3,0.8
		c-6.6,15.4-10.6,18.3-27.7,18c-4.6-0.1-6.5,1-7.6,5.9c-6.7,29.3-25.8,43.1-56.3,41.7c-3.2-0.1-3.7-1.3-3.6-4c0.2-6,0.2-12,0-18
		c-0.1-3.1,0.8-4.4,4.1-4.1c2.8,0.3,5.6,0.1,8.4,0c19.8-1.1,30-11.7,30.3-31.5c0.2-13.9-2.9-27.5-5.1-41.2c-1.2-7.3-1.3-7.3,6.1-8.7
		c11.8-2.2,11.9-2.2,13.9,10c1.2,6.8,2.2,13.7,3.1,20.5c0.3,2,0.1,3.7,3,3.6c9.2-0.3,18.4,0.4,27.5-0.8c2.3-0.3,3.1-0.9,2.9-3.5
		c-1-13.2,4.8-23.5,14.2-32.1c7.1-6.5,15.2-11.7,23.8-15.7c7.2-3.3,15.5-1,23.3-1.1c2.3,0,2.3,2.7,2.9,4.3
		c4.7,12.2,9.1,24.5,13.8,36.7c3.8,10,7.1,12.2,17.6,12c4.1-0.1,8.2,0.4,12.3-0.5c7-1.6,10.3-5.2,10.6-12.5
		c0.2-5.8,0.1-11.6,0.1-17.4c0-28.3,0.1-56.6-0.1-84.9c0-4.2,1.1-5.7,5.3-5.3c3.7,0.4,7.5,0.4,11.2,0c4-0.4,4.9,1.1,4.9,5
		c-0.2,32.6-0.1,65.2-0.1,97.8c0,14.1,3.9,17.9,18.1,17.8c3.7,0,7.5,0.1,11.2-0.1c8.6-0.5,12.1-4.1,12.3-12.7c0.1-5.1,0-10.1,0-15.2
		c0-28.9,0.1-57.7-0.1-86.6c0-4.4,0.7-6.6,5.7-6c5,0.6,11.5-2,14.6,1c3.1,3.1,0.9,9.6,0.9,14.6c0.1,30.4,0,60.7,0.1,91.1
		c0,6.4-0.6,12.7-2.4,18.9c-3.1,11-10.3,17.7-21.4,19.8c-11.1,2-22.4,1.9-33.6,0.2c-11.5-1.8-19.5-8-23.2-19.3
		C-1122.8,503.9-1122.3,502-1124.6,501.2z M-1186.3,499.6c-3.8-10.1-7.3-19.5-10.8-28.9c-0.5-1.2-1.3-2-2.5-1.4
		c-8.9,4.3-18.8,6.7-25.8,14.2c-5.4,5.9-3.1,13.3,4.8,14.9C-1209.6,500.8-1198.3,499-1186.3,499.6z"/>
	<path class="st5" d="M-1174.2,106.2c0-28.5,0.1-57-0.1-85.4c0-4.3,0.8-6,5.5-5.7c7.5,0.4,15,0.4,22.5,0c4.7-0.2,6,1.2,5.9,5.9
		c-0.2,53.2-0.1,106.4-0.1,159.6c0,3.7,0.3,7.5,0.8,11.2c1.1,8,5.6,13.2,13.6,14.2c16.4,2.1,32.9,2.3,49.2-1
		c11.8-2.4,16.2-8.2,15.8-20.2c-0.5-17.5-4.1-34.5-7.2-51.7c-1.6-9.1-1.7-9,7.4-10.3c6.1-0.9,12.2-1.9,18.3-3.1
		c2.8-0.5,3.9,0.1,4.3,3.1c2.8,18.5,6,37,7.1,55.7c0.5,7.5,0.3,15-0.9,22.4c-4,25.8-17.5,40.2-43.1,45.1c-19.1,3.6-38.4,4-57.6,0.6
		c-25.5-4.4-38.7-19.6-40.7-45.6c-1.7-22.6-0.4-45.3-0.8-68C-1174.3,124.2-1174.2,115.2-1174.2,106.2z"/>
	<path class="st5" d="M-1597.9,499.5c15.3-0.1,30.7,0.5,46-2.1c12.6-2.1,15.5-6,14.4-18.4c-0.8-9-2.6-17.8-4.4-26.6
		c-0.7-3.4-0.9-5.8,3.8-5.9c4.9-0.1,11.1-4.1,14.4-1c2.8,2.6,2.1,9.1,2.8,13.9c1.3,8.5,2.6,17,2.6,25.7c0.2,23.2-8.5,34.8-31.1,38.8
		c-30.3,5.4-60.7,5.5-91.1,0.4c-1.7-0.3-3.3-0.7-4.9-1.1c-21.9-5.9-32-20.2-30.2-42.8c0.8-10,3.2-19.5,6.5-28.9c1-3,2.2-4.3,5.6-2.9
		c3.9,1.7,9.8,1.1,11.7,4.3c1.7,2.9-2.5,7.2-3.5,11.2c-0.7,2.9-1.6,5.8-2.1,8.7c-2.3,12,2.6,20.1,14.4,23.4
		C-1628.3,500.3-1613.1,499.4-1597.9,499.5z"/>
	<path class="st5" d="M-1426.7,525.4c-4.5-0.3-10.7,0.6-16.8-0.5c-11.2-2-17.1-8.2-18.7-19.4c-0.1-0.9-0.2-1.9-0.2-2.8
		c-0.9-17.6-0.9-17.5,16.6-16.8c3.1,0.1,3.6,1.2,3.7,3.9c0.2,9.6,0.3,9.6,10.2,9.6c7.1,0,14.2,0.2,21.4,0c13-0.4,17.8-9.5,11.1-20.8
		c-3.8-6.3-9.1-11.4-14.2-16.6c-6.8-6.8-13.5-13.6-20.5-20c-2.9-2.6-2.5-4.2,0-6.7c4.3-4.2,8.3-8.7,12.4-13c1.3-1.4,2.4-2.9,4.4-0.6
		c10.9,11.9,23.1,22.5,31.7,36.3c8,12.9,10.4,26.8,7.2,41.5c-3.4,15.5-15.7,25.1-32.5,25.8C-1415.7,525.6-1420.4,525.4-1426.7,525.4
		z"/>
	<path class="st6" d="M-1500.7,451.2c0-22.7,0.1-45.3-0.1-68c0-4.2,0.9-5.6,5.2-5.2c5.2,0.5,12.2-1.7,15.2,1
		c3.5,3.1,1,10.2,1.1,15.5c0.1,41.7,0,83.5,0.2,125.2c0,4.7-1,6.3-5.8,5.8c-5-0.5-11.7,1.6-14.6-0.9c-3.3-3-1-9.8-1-15
		C-1500.8,490.2-1500.7,470.7-1500.7,451.2z"/>
	<path class="st6" d="M-1337.6,452.4c0,22.7-0.1,45.3,0.1,68c0,4.2-1,5.6-5.2,5.2c-5.2-0.5-12,1.6-15.2-1c-3.4-2.7-1-9.8-1-15
		c-0.1-41.9,0-83.9-0.2-125.8c0-4.7,1.1-6.2,5.8-5.8c5,0.5,11.7-1.6,14.6,1c3.3,3,1,9.8,1,15
		C-1337.5,413.5-1337.6,432.9-1337.6,452.4z"/>
	<path class="st7" d="M-1208.5,315c-13.4,0-19.8-6.3-19.9-19.3c0-13.5,6.5-19.8,20.6-19.7c13.2,0,19.6,6.5,19.6,19.6
		C-1188.1,308.8-1194.6,315-1208.5,315z"/>
	<path class="st8" d="M-1548,315c-13.6,0-20-6.1-20.1-19.2c-0.1-13.5,6.3-19.8,20.1-19.8c13.7,0,20.2,6.4,20.1,19.8
		C-1528,308.9-1534.4,315-1548,315z"/>
	<path class="st9" d="M-1255.4,315c-13.5,0-19.9-6.3-19.9-19.4c0-13.4,6.5-19.6,20.3-19.6c13.7,0,19.9,6.3,19.8,20
		C-1235.3,309-1241.6,315-1255.4,315z"/>
	<path class="st9" d="M-1060.9,315c-13.4,0-19.7-6.3-19.6-19.6c0.1-13.5,6.4-19.4,20.4-19.4c13.4,0,19.5,6.2,19.5,19.6
		C-1040.6,309.2-1046.7,315-1060.9,315z"/>
	<path class="st5" d="M-1474.7,90.2c-13.6,0-19.9-6.1-19.9-19.2c0-13.4,6.3-19.6,20.2-19.5c13.8,0,19.9,6.2,19.8,19.8
		C-1454.7,84.4-1460.9,90.2-1474.7,90.2z"/>
	<path class="st9" d="M-1595.3,315c-13.3,0-19.9-6.5-19.8-19.5c0.1-13.3,6.6-19.5,20.4-19.5c13.4,0,19.7,6.3,19.7,19.6
		C-1574.9,308.9-1581.3,315-1595.3,315z"/>
	<path class="st10" d="M-1583.3,453.3c-8.5,0-12.6-4-12.7-12.1c-0.1-8.3,4-12.4,12.4-12.4c8.9-0.1,13,3.9,13,12.3
		C-1570.7,449.2-1574.8,453.2-1583.3,453.3z"/>
	<path class="st11" d="M-1613,428.7c8.8,0,12.9,4,12.8,12.5c-0.1,8.2-4.3,12.1-12.8,12c-8.4,0-12.5-4.1-12.5-12.3
		C-1625.5,432.7-1621.5,428.8-1613,428.7z"/>
	<path class="st11" d="M-1295.5,420.9c8.5,0,12.4,3.8,12.4,12.2c0,8.3-4,12.2-12.5,12.3c-8.7,0-12.9-4.1-12.7-12.6
		C-1308.2,424.5-1304.2,420.8-1295.5,420.9z"/>
</g>
<g>
	<defs>
		<rect id="SVGID_3_" x="-160" y="-168.9" width="1720.9" height="927.1"/>
	</defs>
	<clipPath id="SVGID_4_">
		<use xlink:href="#SVGID_3_"  style="overflow:visible;"/>
	</clipPath>
	<path class="st12" d="M1379.1,296.6c0-151-122.4-273.5-273.5-273.5c-151,0-273.5,122.4-273.5,273.5s122.4,273.5,273.5,273.5
		C1256.7,570.1,1379.1,447.7,1379.1,296.6"/>
	<path class="st13" d="M987,193.1c-2.4,3.5-1.5,8.4,2,10.8l2.2,1.5l-50.8,74.1l-2.2-1.5c-3.5-2.4-8.4-1.5-10.8,2
		c-2.4,3.5-1.5,8.4,2,10.8l53,36.3c3.5,2.4,8.4,1.5,10.8-2c2.4-3.5,1.5-8.4-2-10.8l-2.2-1.5l8.3-12.1l221.3,151.7l33.3-48.5
		l-221.3-151.7l9.2-13.5l2.2,1.5c3.5,2.4,8.4,1.5,10.8-2c2.4-3.5,1.5-8.4-2-10.8l-53-36.3C994.3,188.7,989.4,189.6,987,193.1"/>
	<path class="st13" d="M1009,179.4l48.6,33.2c12.5-18.3,37.6-23.1,56-10.6c18.3,12.5,23.1,37.6,10.6,55.9l48.6,33.2
		c30.8-45.1,19.2-106.9-26-137.7S1039.8,134.3,1009,179.4"/>
</g>
<g>
	<path class="st14" d="M414.5,248.5c-9,0-18,0.4-26.9-1.1c-21.6-3.5-36.2-17.4-40.1-39.1c-4.4-24.6,0.1-47.5,16.1-67.1
		c28-34.2,76.6-27.8,95.4,12.2c7.4,15.7,10.1,32.5,11,49.5c0.2,3.5,1.1,4.4,4.5,4.3c11.4-0.3,22.9,0.3,34.2-1.2
		c15.6-2,21.3-8.6,20.4-24.3c-1.1-17.8-4.7-35.2-7.9-52.7c-0.6-3.4-0.5-5,3.6-5.5c7.6-0.9,15.2-2.3,22.7-3.8
		c2.8-0.5,4.1,0.1,4.5,3.1c3,21.7,7.3,43.2,7.1,65.3c-0.1,7.5-0.9,15-2.9,22.2c-6.1,21.7-21.6,32.3-42.8,36.2
		c-13.5,2.5-27.2,2.2-40.9,2c-4.2-0.1-6.5,0.7-7.8,5.3c-12.2,42.1-41.4,65.7-85.1,69.5c-10.9,1-21.7,0.5-32.6,0.9
		c-3.7,0.1-4.3-1.3-4.3-4.6c0.2-10.7,0.2-21.4,0-32c-0.1-3.9,1-5.1,5-5c15.9,0.3,31.9,0.5,47.5-3.3c16.1-3.9,30.4-10.6,39.3-25.6
		c0.8-1.4,2.5-2.8,1.6-4.5c-0.8-1.4-2.7-0.6-4.2-0.6C426.1,248.5,420.3,248.5,414.5,248.5z M416.1,207.1c7.9,0,14.5-0.1,21,0.1
		c2.8,0.1,4-0.6,3.9-3.7c-0.2-9.5-2-18.5-7-26.8c-11.7-19.5-41.8-21.9-54.5-4.3c-11,15.2-4.5,31.1,13.8,34.1
		C401.4,207.8,409.4,206.8,416.1,207.1z"/>
	<path class="st14" d="M177,209.4c-1.3,4.1-2.4,8.1-3.7,12c-5.5,15.7-16.4,24.3-33,26.3c-7.7,0.9-15.3,0.7-23,0.6
		c-3.4,0-4.8,0.8-5.3,4.4c-2.6,15.9-7.9,30.8-18.3,43.5c-16,19.6-37.7,26.7-62,27.7c-3.7,0.2-7.5-0.2-11.2,0.1
		c-4.2,0.4-4.9-1.3-4.8-5.1c0.2-10.3,0.3-20.6,0-30.9c-0.1-4.3,0.9-5.9,5.5-5.6c8.4,0.5,16.9,0.3,25.2-1.4
		c23.1-4.5,35.3-18.9,37.1-43.5c1.3-18.5-2.1-36.6-5-54.7c-1.3-7.9-2.6-15.9-4-23.8c-0.5-3-0.3-4.7,3.5-5.2
		c7.8-0.9,15.5-2.4,23.3-3.8c2.4-0.4,3.3,0.2,3.7,2.6c2.8,16.8,6,33.5,7.7,50.5c0.2,1.8-0.3,3.9,2.7,3.8c13.8-0.4,27.8,1.1,41.5-0.8
		c11.7-1.7,17.6-8.3,17.9-20.1c0.3-14.6,0.2-29.2,0.1-43.8c0-3.8,0.7-5.3,4.9-5.1c7.3,0.3,14.6,0.3,21.9,0c3.4-0.1,4.5,0.9,4.4,4.4
		c-0.2,13.9-0.1,27.7-0.1,41.6c0.1,16.6,7.4,23.9,24.2,23.9c11.2,0,22.5,0.7,33.7-1c2.6-0.4,5.2-0.8,7.7-1.5
		c9.6-2.8,13.6-7.9,13.6-18c0-14.7-2.8-29-5.3-43.4c-0.8-4.8-1.6-9.6-2.7-14.3c-0.8-3.6,0.3-4.9,4-5.3c7.6-0.9,15.1-2.4,22.7-3.7
		c2-0.3,3.6-0.6,4,2.2c3.6,25.9,9.7,51.6,6.4,78.1c-3.1,25.2-16.4,40.2-41.2,45.5c-19.2,4.2-38.7,4.3-58.1,1.1
		c-19.3-3.2-30.7-15.1-35.7-33.7C178.6,211.8,179,210.3,177,209.4z"/>
	<path class="st14" d="M637.1,501.2c-2.5,12.1-7.7,21.9-21.5,23.7c-14.6,1.9-27.2-1.1-36.5-14.7c0,4-0.1,7.9,0,11.9
		c0.1,2.3-0.5,3.4-3.1,3.4c-9.2-0.2-18.4,0.3-27.5-0.4c-12.9-0.9-23.3-6.4-29.2-18.6c-0.7,0.4-1.2,0.6-1.3,0.8
		c-6.6,15.4-10.6,18.3-27.7,18c-4.6-0.1-6.5,1-7.6,5.9c-6.7,29.3-25.8,43.1-56.3,41.7c-3.2-0.1-3.7-1.3-3.6-4c0.2-6,0.2-12,0-18
		c-0.1-3.1,0.8-4.4,4.1-4.1c2.8,0.3,5.6,0.1,8.4,0c19.8-1.1,30-11.7,30.3-31.5c0.2-13.9-2.9-27.5-5.1-41.2c-1.2-7.3-1.3-7.3,6.1-8.7
		c11.8-2.2,11.9-2.2,13.9,10c1.2,6.8,2.2,13.7,3.1,20.5c0.3,2,0.1,3.7,3,3.6c9.2-0.3,18.4,0.4,27.5-0.8c2.3-0.3,3.1-0.9,2.9-3.5
		c-1-13.2,4.8-23.5,14.2-32.1c7.1-6.5,15.2-11.7,23.8-15.7c7.2-3.3,15.5-1,23.3-1.1c2.3,0,2.3,2.7,2.9,4.3
		c4.7,12.2,9.1,24.5,13.8,36.7c3.8,10,7.1,12.2,17.6,12c4.1-0.1,8.2,0.4,12.3-0.5c7-1.6,10.3-5.2,10.6-12.5
		c0.2-5.8,0.1-11.6,0.1-17.4c0-28.3,0.1-56.6-0.1-84.9c0-4.2,1.1-5.7,5.3-5.3c3.7,0.4,7.5,0.4,11.2,0c4-0.4,4.9,1.1,4.9,5
		c-0.2,32.6-0.1,65.2-0.1,97.8c0,14.1,3.9,17.9,18.1,17.8c3.7,0,7.5,0.1,11.2-0.1c8.6-0.5,12.1-4.1,12.3-12.7c0.1-5.1,0-10.1,0-15.2
		c0-28.9,0.1-57.7-0.1-86.6c0-4.4,0.7-6.6,5.7-6c5,0.6,11.5-2,14.6,1c3.1,3.1,0.9,9.6,0.9,14.6c0.1,30.4,0,60.7,0.1,91.1
		c0,6.4-0.6,12.7-2.4,18.9c-3.1,11-10.3,17.7-21.4,19.8c-11.1,2-22.4,1.9-33.6,0.2c-11.5-1.8-19.5-8-23.2-19.3
		C638.9,503.9,639.3,502,637.1,501.2z M575.4,499.6c-3.8-10.1-7.3-19.5-10.8-28.9c-0.5-1.2-1.3-2-2.5-1.4
		c-8.9,4.3-18.8,6.7-25.8,14.2c-5.4,5.9-3.1,13.3,4.8,14.9C552.1,500.8,563.3,499,575.4,499.6z"/>
	<path class="st14" d="M587.4,106.2c0-28.5,0.1-57-0.1-85.4c0-4.3,0.8-6,5.5-5.7c7.5,0.4,15,0.4,22.5,0c4.7-0.2,6,1.2,5.9,5.9
		c-0.2,53.2-0.1,106.4-0.1,159.6c0,3.7,0.3,7.5,0.8,11.2c1.1,8,5.6,13.2,13.6,14.2c16.4,2.1,32.9,2.3,49.2-1
		c11.8-2.4,16.2-8.2,15.8-20.2c-0.5-17.5-4.1-34.5-7.2-51.7c-1.6-9.1-1.7-9,7.4-10.3c6.1-0.9,12.2-1.9,18.3-3.1
		c2.8-0.5,3.9,0.1,4.3,3.1c2.8,18.5,6,37,7.1,55.7c0.5,7.5,0.3,15-0.9,22.4c-4,25.8-17.5,40.2-43.1,45.1c-19.1,3.6-38.4,4-57.6,0.6
		c-25.5-4.4-38.7-19.6-40.7-45.6c-1.7-22.6-0.4-45.3-0.8-68C587.3,124.2,587.4,115.2,587.4,106.2z"/>
	<path class="st14" d="M163.7,499.5c15.3-0.1,30.7,0.5,46-2.1c12.6-2.1,15.5-6,14.4-18.4c-0.8-9-2.6-17.8-4.4-26.6
		c-0.7-3.4-0.9-5.8,3.8-5.9c4.9-0.1,11.1-4.1,14.4-1c2.8,2.6,2.1,9.1,2.8,13.9c1.3,8.5,2.6,17,2.6,25.7c0.2,23.2-8.5,34.8-31.1,38.8
		c-30.3,5.4-60.7,5.5-91.1,0.4c-1.7-0.3-3.3-0.7-4.9-1.1c-21.9-5.9-32-20.2-30.2-42.8c0.8-10,3.2-19.5,6.5-28.9c1-3,2.2-4.3,5.6-2.9
		c3.9,1.7,9.8,1.1,11.7,4.3c1.7,2.9-2.5,7.2-3.5,11.2c-0.7,2.9-1.6,5.8-2.1,8.7c-2.3,12,2.6,20.1,14.4,23.4
		C133.3,500.3,148.6,499.4,163.7,499.5z"/>
	<path class="st14" d="M334.9,525.4c-4.5-0.3-10.7,0.6-16.8-0.5c-11.2-2-17.1-8.2-18.7-19.4c-0.1-0.9-0.2-1.9-0.2-2.8
		c-0.9-17.6-0.9-17.5,16.6-16.8c3.1,0.1,3.6,1.2,3.7,3.9c0.2,9.6,0.3,9.6,10.2,9.6c7.1,0,14.2,0.2,21.4,0c13-0.4,17.8-9.5,11.1-20.8
		c-3.8-6.3-9.1-11.4-14.2-16.6c-6.8-6.8-13.5-13.6-20.5-20c-2.9-2.6-2.5-4.2,0-6.7c4.3-4.2,8.3-8.7,12.4-13c1.3-1.4,2.4-2.9,4.4-0.6
		c10.9,11.9,23.1,22.5,31.7,36.3c8,12.9,10.4,26.8,7.2,41.5c-3.4,15.5-15.7,25.1-32.5,25.8C346,525.6,341.3,525.4,334.9,525.4z"/>
	<path class="st14" d="M260.9,451.2c0-22.7,0.1-45.3-0.1-68c0-4.2,0.9-5.6,5.2-5.2c5.2,0.5,12.2-1.7,15.2,1c3.5,3.1,1,10.2,1.1,15.5
		c0.1,41.7,0,83.5,0.2,125.2c0,4.7-1,6.3-5.8,5.8c-5-0.5-11.7,1.6-14.6-0.9c-3.3-3-1-9.8-1-15C260.9,490.2,260.9,470.7,260.9,451.2z
		"/>
	<path class="st14" d="M424,452.4c0,22.7-0.1,45.3,0.1,68c0,4.2-1,5.6-5.2,5.2c-5.2-0.5-12,1.6-15.2-1c-3.4-2.7-1-9.8-1-15
		c-0.1-41.9,0-83.9-0.2-125.8c0-4.7,1.1-6.2,5.8-5.8c5,0.5,11.7-1.6,14.6,1c3.3,3,1,9.8,1,15C424.1,413.5,424,432.9,424,452.4z"/>
	<path class="st14" d="M553.1,315c-13.4,0-19.8-6.3-19.9-19.3c0-13.5,6.5-19.8,20.6-19.7c13.2,0,19.6,6.5,19.6,19.6
		C573.5,308.8,567,315,553.1,315z"/>
	<path class="st14" d="M213.7,315c-13.6,0-20-6.1-20.1-19.2c-0.1-13.5,6.3-19.8,20.1-19.8c13.7,0,20.2,6.4,20.1,19.8
		C233.7,308.9,227.3,315,213.7,315z"/>
	<path class="st14" d="M506.2,315c-13.5,0-19.9-6.3-19.9-19.4c0-13.4,6.5-19.6,20.3-19.6c13.7,0,19.9,6.3,19.8,20
		C526.3,309,520,315,506.2,315z"/>
	<path class="st14" d="M700.8,315c-13.4,0-19.7-6.3-19.6-19.6c0.1-13.5,6.4-19.4,20.4-19.4c13.4,0,19.5,6.2,19.5,19.6
		C721.1,309.2,714.9,315,700.8,315z"/>
	<path class="st14" d="M286.9,90.2c-13.6,0-19.9-6.1-19.9-19.2c0-13.4,6.3-19.6,20.2-19.5c13.8,0,19.9,6.2,19.8,19.8
		C307,84.4,300.8,90.2,286.9,90.2z"/>
	<path class="st14" d="M166.3,315c-13.3,0-19.9-6.5-19.8-19.5c0.1-13.3,6.6-19.5,20.4-19.5c13.4,0,19.7,6.3,19.7,19.6
		C186.7,308.9,180.3,315,166.3,315z"/>
	<path class="st14" d="M178.4,453.3c-8.5,0-12.6-4-12.7-12.1c-0.1-8.3,4-12.4,12.4-12.4c8.9-0.1,13,3.9,13,12.3
		C191,449.2,186.8,453.2,178.4,453.3z"/>
	<path class="st14" d="M148.6,428.7c8.8,0,12.9,4,12.8,12.5c-0.1,8.2-4.3,12.1-12.8,12c-8.4,0-12.5-4.1-12.5-12.3
		C136.2,432.7,140.2,428.8,148.6,428.7z"/>
	<path class="st14" d="M466.1,420.9c8.5,0,12.4,3.8,12.4,12.2c0,8.3-4,12.2-12.5,12.3c-8.7,0-12.9-4.1-12.7-12.6
		C453.5,424.5,457.4,420.8,466.1,420.9z"/>
</g>
<g>
	<defs>
		<rect id="SVGID_5_" x="-3736.9" y="-168.9" width="1720.9" height="927.1"/>
	</defs>
	<clipPath id="SVGID_6_">
		<use xlink:href="#SVGID_5_"  style="overflow:visible;"/>
	</clipPath>
	<path class="st15" d="M-2197.8,296.6c0-151-122.4-273.5-273.5-273.5c-151,0-273.5,122.4-273.5,273.5s122.4,273.5,273.5,273.5
		C-2320.3,570.1-2197.8,447.7-2197.8,296.6"/>
	<path class="st16" d="M-2589.9,193.1c-2.4,3.5-1.5,8.4,2,10.8l2.2,1.5l-50.8,74.1l-2.2-1.5c-3.5-2.4-8.4-1.5-10.8,2
		c-2.4,3.5-1.5,8.4,2,10.8l53,36.3c3.5,2.4,8.4,1.5,10.8-2c2.4-3.5,1.5-8.4-2-10.8l-2.2-1.5l8.3-12.1l221.3,151.7l33.3-48.5
		l-221.3-151.7l9.2-13.5l2.2,1.5c3.5,2.4,8.4,1.5,10.8-2c2.4-3.5,1.5-8.4-2-10.8l-53-36.3C-2582.6,188.7-2587.5,189.6-2589.9,193.1"
		/>
	<path class="st16" d="M-2567.9,179.4l48.6,33.2c12.5-18.3,37.6-23.1,56-10.6c18.3,12.5,23.1,37.6,10.6,55.9l48.6,33.2
		c30.8-45.1,19.2-106.9-26-137.7S-2537.1,134.3-2567.9,179.4"/>
</g>
<g>
	<defs>
		<rect id="SVGID_7_" x="-6023.1" y="-168.9" width="1720.9" height="927.1"/>
	</defs>
	<clipPath id="SVGID_8_">
		<use xlink:href="#SVGID_7_"  style="overflow:visible;"/>
	</clipPath>
	<path class="st17" d="M-4757.5,23.2c-151,0-273.5,122.4-273.5,273.5s122.4,273.5,273.5,273.5c151,0,273.5-122.4,273.5-273.5
		S-4606.5,23.2-4757.5,23.2z M-4716.5,153.4c45.1,30.8,56.8,92.6,26,137.7l-48.6-33.2c12.5-18.3,7.8-43.4-10.6-55.9
		c-18.3-12.5-43.4-7.8-56,10.6l-48.6-33.2C-4823.4,134.3-4761.6,122.6-4716.5,153.4z M-4644.5,452.4l-221.3-151.7l-8.3,12.1l2.2,1.5
		c3.5,2.4,4.4,7.3,2,10.8c-2.4,3.5-7.3,4.4-10.8,2l-53-36.3c-3.5-2.4-4.4-7.3-2-10.8c2.4-3.5,7.3-4.4,10.8-2l2.2,1.5l50.8-74.1
		l-2.2-1.5c-3.5-2.4-4.4-7.3-2-10.8c2.4-3.5,7.3-4.4,10.8-2l53,36.3c3.5,2.4,4.4,7.3,2,10.8c-2.4,3.5-7.3,4.4-10.8,2l-2.2-1.5
		l-9.2,13.5l221.3,151.7L-4644.5,452.4z"/>
</g>
<g>
	<defs>
		<rect id="SVGID_9_" x="1661.5" y="-168.9" width="1720.9" height="927.1"/>
	</defs>
	<clipPath id="SVGID_10_">
		<use xlink:href="#SVGID_9_"  style="overflow:visible;"/>
	</clipPath>
	<path class="st18" d="M2927.1,23.2c-151,0-273.5,122.4-273.5,273.5s122.4,273.5,273.5,273.5c151,0,273.5-122.4,273.5-273.5
		S3078.1,23.2,2927.1,23.2z M2968.2,153.4c45.1,30.8,56.8,92.6,26,137.7l-48.6-33.2c12.5-18.3,7.8-43.4-10.6-55.9
		c-18.3-12.5-43.4-7.8-56,10.6l-48.6-33.2C2861.3,134.3,2923.1,122.6,2968.2,153.4z M3040.1,452.4l-221.3-151.7l-8.3,12.1l2.2,1.5
		c3.5,2.4,4.4,7.3,2,10.8c-2.4,3.5-7.3,4.4-10.8,2l-53-36.3c-3.5-2.4-4.4-7.3-2-10.8c2.4-3.5,7.3-4.4,10.8-2l2.2,1.5l50.8-74.1
		l-2.2-1.5c-3.5-2.4-4.4-7.3-2-10.8c2.4-3.5,7.3-4.4,10.8-2l53,36.3c3.5,2.4,4.4,7.3,2,10.8c-2.4,3.5-7.3,4.4-10.8,2l-2.2-1.5
		l-9.2,13.5l221.3,151.7L3040.1,452.4z"/>
</g>
<g>
	<path class="st19" d="M2235.9,248.5c-9,0-18,0.4-26.9-1.1c-21.6-3.5-36.2-17.4-40.1-39.1c-4.4-24.6,0.1-47.5,16.1-67.1
		c28-34.2,76.6-27.8,95.4,12.2c7.4,15.7,10.1,32.5,11,49.5c0.2,3.5,1.1,4.4,4.5,4.3c11.4-0.3,22.9,0.3,34.2-1.2
		c15.6-2,21.3-8.6,20.4-24.3c-1.1-17.8-4.7-35.2-7.9-52.7c-0.6-3.4-0.5-5,3.6-5.5c7.6-0.9,15.2-2.3,22.7-3.8
		c2.8-0.5,4.1,0.1,4.5,3.1c3,21.7,7.3,43.2,7.1,65.3c-0.1,7.5-0.9,15-2.9,22.2c-6.1,21.7-21.6,32.3-42.8,36.2
		c-13.5,2.5-27.2,2.2-40.9,2c-4.2-0.1-6.5,0.7-7.8,5.3c-12.2,42.1-41.4,65.7-85.1,69.5c-10.9,1-21.7,0.5-32.6,0.9
		c-3.7,0.1-4.3-1.3-4.3-4.6c0.2-10.7,0.2-21.4,0-32c-0.1-3.9,1-5.1,5-5c15.9,0.3,31.9,0.5,47.5-3.3c16.1-3.9,30.4-10.6,39.3-25.6
		c0.8-1.4,2.5-2.8,1.6-4.5c-0.8-1.4-2.7-0.6-4.2-0.6C2247.6,248.5,2241.7,248.5,2235.9,248.5z M2237.6,207.1c7.9,0,14.5-0.1,21,0.1
		c2.8,0.1,4-0.6,3.9-3.7c-0.2-9.5-2-18.5-7-26.8c-11.7-19.5-41.8-21.9-54.5-4.3c-11,15.2-4.5,31.1,13.8,34.1
		C2222.9,207.8,2230.9,206.8,2237.6,207.1z"/>
	<path class="st19" d="M1998.5,209.4c-1.3,4.1-2.4,8.1-3.7,12c-5.5,15.7-16.4,24.3-33,26.3c-7.7,0.9-15.3,0.7-23,0.6
		c-3.4,0-4.8,0.8-5.3,4.4c-2.6,15.9-7.9,30.8-18.3,43.5c-16,19.6-37.7,26.7-62,27.7c-3.7,0.2-7.5-0.2-11.2,0.1
		c-4.2,0.4-4.9-1.3-4.8-5.1c0.2-10.3,0.3-20.6,0-30.9c-0.1-4.3,0.9-5.9,5.5-5.6c8.4,0.5,16.9,0.3,25.2-1.4
		c23.1-4.5,35.3-18.9,37.1-43.5c1.3-18.5-2.1-36.6-5-54.7c-1.3-7.9-2.6-15.9-4-23.8c-0.5-3-0.3-4.7,3.5-5.2
		c7.8-0.9,15.5-2.4,23.3-3.8c2.4-0.4,3.3,0.2,3.7,2.6c2.8,16.8,6,33.5,7.7,50.5c0.2,1.8-0.3,3.9,2.7,3.8c13.8-0.4,27.8,1.1,41.5-0.8
		c11.7-1.7,17.6-8.3,17.9-20.1c0.3-14.6,0.2-29.2,0.1-43.8c0-3.8,0.7-5.3,4.9-5.1c7.3,0.3,14.6,0.3,21.9,0c3.4-0.1,4.5,0.9,4.4,4.4
		c-0.2,13.9-0.1,27.7-0.1,41.6c0.1,16.6,7.4,23.9,24.2,23.9c11.2,0,22.5,0.7,33.7-1c2.6-0.4,5.2-0.8,7.7-1.5
		c9.6-2.8,13.6-7.9,13.6-18c0-14.7-2.8-29-5.3-43.4c-0.8-4.8-1.6-9.6-2.7-14.3c-0.8-3.6,0.3-4.9,4-5.3c7.6-0.9,15.1-2.4,22.7-3.7
		c2-0.3,3.6-0.6,4,2.2c3.6,25.9,9.7,51.6,6.4,78.1c-3.1,25.2-16.4,40.2-41.2,45.5c-19.2,4.2-38.7,4.3-58.1,1.1
		c-19.3-3.2-30.7-15.1-35.7-33.7C2000.1,211.8,2000.5,210.3,1998.5,209.4z"/>
	<path class="st19" d="M2458.6,501.2c-2.5,12.1-7.7,21.9-21.5,23.7c-14.6,1.9-27.3-1.1-36.5-14.7c0,4-0.1,7.9,0,11.9
		c0.1,2.3-0.5,3.4-3.1,3.4c-9.2-0.2-18.4,0.3-27.5-0.4c-12.9-0.9-23.3-6.4-29.2-18.6c-0.7,0.4-1.2,0.6-1.3,0.8
		c-6.6,15.4-10.6,18.3-27.7,18c-4.6-0.1-6.5,1-7.6,5.9c-6.7,29.3-25.8,43.1-56.3,41.7c-3.2-0.1-3.7-1.3-3.6-4c0.2-6,0.2-12,0-18
		c-0.1-3.1,0.8-4.4,4.1-4.1c2.8,0.3,5.6,0.1,8.4,0c19.8-1.1,30-11.7,30.3-31.5c0.2-13.9-2.9-27.5-5.1-41.2c-1.2-7.3-1.3-7.3,6.1-8.7
		c11.8-2.2,11.9-2.2,13.9,10c1.2,6.8,2.2,13.7,3.1,20.5c0.3,2,0.1,3.7,3,3.6c9.2-0.3,18.4,0.4,27.5-0.8c2.3-0.3,3.1-0.9,2.9-3.5
		c-1-13.2,4.8-23.5,14.2-32.1c7.1-6.5,15.2-11.7,23.8-15.7c7.2-3.3,15.5-1,23.3-1.1c2.3,0,2.3,2.7,2.9,4.3
		c4.7,12.2,9.1,24.5,13.8,36.7c3.8,10,7.1,12.2,17.6,12c4.1-0.1,8.2,0.4,12.3-0.5c7-1.6,10.3-5.2,10.6-12.5
		c0.2-5.8,0.1-11.6,0.1-17.4c0-28.3,0.1-56.6-0.1-84.9c0-4.2,1.1-5.7,5.3-5.3c3.7,0.4,7.5,0.4,11.2,0c4-0.4,4.9,1.1,4.9,5
		c-0.2,32.6-0.1,65.2-0.1,97.8c0,14.1,3.9,17.9,18.1,17.8c3.7,0,7.5,0.1,11.2-0.1c8.6-0.5,12.1-4.1,12.3-12.7c0.1-5.1,0-10.1,0-15.2
		c0-28.9,0.1-57.7-0.1-86.6c0-4.4,0.7-6.6,5.7-6c5,0.6,11.5-2,14.6,1c3.1,3.1,0.9,9.6,0.9,14.6c0.1,30.4,0,60.7,0.1,91.1
		c0,6.4-0.6,12.7-2.4,18.9c-3.1,11-10.3,17.7-21.4,19.8c-11.1,2-22.4,1.9-33.6,0.2c-11.5-1.8-19.5-8-23.2-19.3
		C2460.4,503.9,2460.8,502,2458.6,501.2z M2396.9,499.6c-3.8-10.1-7.3-19.5-10.8-28.9c-0.5-1.2-1.3-2-2.5-1.4
		c-8.9,4.3-18.8,6.7-25.8,14.2c-5.4,5.9-3.1,13.3,4.8,14.9C2373.5,500.8,2384.8,499,2396.9,499.6z"/>
	<path class="st19" d="M2408.9,106.2c0-28.5,0.1-57-0.1-85.4c0-4.3,0.8-6,5.5-5.7c7.5,0.4,15,0.4,22.5,0c4.7-0.2,6,1.2,5.9,5.9
		c-0.2,53.2-0.1,106.4-0.1,159.6c0,3.7,0.3,7.5,0.8,11.2c1.1,8,5.6,13.2,13.6,14.2c16.4,2.1,32.9,2.3,49.2-1
		c11.8-2.4,16.2-8.2,15.8-20.2c-0.5-17.5-4.1-34.5-7.2-51.7c-1.6-9.1-1.7-9,7.4-10.3c6.1-0.9,12.2-1.9,18.3-3.1
		c2.8-0.5,3.9,0.1,4.3,3.1c2.8,18.5,6,37,7.1,55.7c0.5,7.5,0.3,15-0.9,22.4c-4,25.8-17.5,40.2-43.1,45.1c-19.1,3.6-38.4,4-57.6,0.6
		c-25.5-4.4-38.7-19.6-40.7-45.6c-1.7-22.6-0.4-45.3-0.8-68C2408.8,124.2,2408.9,115.2,2408.9,106.2z"/>
	<path class="st19" d="M1985.2,499.5c15.3-0.1,30.7,0.5,46-2.1c12.6-2.1,15.5-6,14.4-18.4c-0.8-9-2.6-17.8-4.4-26.6
		c-0.7-3.4-0.9-5.8,3.8-5.9c4.9-0.1,11.1-4.1,14.4-1c2.8,2.6,2.1,9.1,2.8,13.9c1.3,8.5,2.6,17,2.6,25.7c0.2,23.2-8.5,34.8-31.1,38.8
		c-30.3,5.4-60.7,5.5-91.1,0.4c-1.7-0.3-3.3-0.7-4.9-1.1c-21.9-5.9-32-20.2-30.2-42.8c0.8-10,3.2-19.5,6.5-28.9c1-3,2.2-4.3,5.6-2.9
		c3.9,1.7,9.8,1.1,11.7,4.3c1.7,2.9-2.5,7.2-3.5,11.2c-0.7,2.9-1.6,5.8-2.1,8.7c-2.3,12,2.6,20.1,14.4,23.4
		C1954.8,500.3,1970.1,499.4,1985.2,499.5z"/>
	<path class="st19" d="M2156.4,525.4c-4.5-0.3-10.7,0.6-16.8-0.5c-11.2-2-17.1-8.2-18.7-19.4c-0.1-0.9-0.2-1.9-0.2-2.8
		c-0.9-17.6-0.9-17.5,16.6-16.8c3.1,0.1,3.6,1.2,3.7,3.9c0.2,9.6,0.3,9.6,10.2,9.6c7.1,0,14.2,0.2,21.4,0c13-0.4,17.8-9.5,11.1-20.8
		c-3.8-6.3-9.1-11.4-14.2-16.6c-6.8-6.8-13.5-13.6-20.5-20c-2.9-2.6-2.5-4.2,0-6.7c4.3-4.2,8.3-8.7,12.4-13c1.3-1.4,2.4-2.9,4.4-0.6
		c10.9,11.9,23.1,22.5,31.7,36.3c8,12.9,10.4,26.8,7.2,41.5c-3.4,15.5-15.7,25.1-32.5,25.8C2167.4,525.6,2162.8,525.4,2156.4,525.4z
		"/>
	<path class="st19" d="M2082.4,451.2c0-22.7,0.1-45.3-0.1-68c0-4.2,0.9-5.6,5.2-5.2c5.2,0.5,12.2-1.7,15.2,1
		c3.5,3.1,1,10.2,1.1,15.5c0.1,41.7,0,83.5,0.2,125.2c0,4.7-1,6.3-5.8,5.8c-5-0.5-11.7,1.6-14.6-0.9c-3.3-3-1-9.8-1-15
		C2082.3,490.2,2082.4,470.7,2082.4,451.2z"/>
	<path class="st19" d="M2245.5,452.4c0,22.7-0.1,45.3,0.1,68c0,4.2-1,5.6-5.2,5.2c-5.2-0.5-12,1.6-15.2-1c-3.4-2.7-1-9.8-1-15
		c-0.1-41.9,0-83.9-0.2-125.8c0-4.7,1.1-6.2,5.8-5.8c5,0.5,11.7-1.6,14.6,1c3.3,3,1,9.8,1,15
		C2245.6,413.5,2245.5,432.9,2245.5,452.4z"/>
	<path class="st19" d="M2374.6,315c-13.4,0-19.8-6.3-19.9-19.3c0-13.5,6.5-19.8,20.6-19.7c13.2,0,19.6,6.5,19.6,19.6
		C2395,308.8,2388.5,315,2374.6,315z"/>
	<path class="st19" d="M2035.1,315c-13.6,0-20-6.1-20.1-19.2c-0.1-13.5,6.3-19.8,20.1-19.8c13.7,0,20.2,6.4,20.1,19.8
		C2055.1,308.9,2048.7,315,2035.1,315z"/>
	<path class="st19" d="M2327.7,315c-13.5,0-19.9-6.3-19.9-19.4c0-13.4,6.5-19.6,20.3-19.6c13.7,0,19.9,6.3,19.8,20
		C2347.8,309,2341.5,315,2327.7,315z"/>
	<path class="st19" d="M2522.2,315c-13.4,0-19.7-6.3-19.6-19.6c0.1-13.5,6.4-19.4,20.4-19.4c13.4,0,19.5,6.2,19.5,19.6
		C2542.5,309.2,2536.4,315,2522.2,315z"/>
	<path class="st19" d="M2108.4,90.2c-13.6,0-19.9-6.1-19.9-19.2c0-13.4,6.3-19.6,20.2-19.5c13.8,0,19.9,6.2,19.8,19.8
		C2128.4,84.4,2122.2,90.2,2108.4,90.2z"/>
	<path class="st19" d="M1987.8,315c-13.3,0-19.9-6.5-19.8-19.5c0.1-13.3,6.6-19.5,20.4-19.5c13.4,0,19.7,6.3,19.7,19.6
		C2008.2,308.9,2001.8,315,1987.8,315z"/>
	<path class="st19" d="M1999.8,453.3c-8.5,0-12.6-4-12.7-12.1c-0.1-8.3,4-12.4,12.4-12.4c8.9-0.1,13,3.9,13,12.3
		C2012.5,449.2,2008.3,453.2,1999.8,453.3z"/>
	<path class="st19" d="M1970.1,428.7c8.8,0,12.9,4,12.8,12.5c-0.1,8.2-4.3,12.1-12.8,12c-8.4,0-12.5-4.1-12.5-12.3
		C1957.6,432.7,1961.7,428.8,1970.1,428.7z"/>
	<path class="st19" d="M2287.6,420.9c8.5,0,12.4,3.8,12.4,12.2c0,8.3-4,12.2-12.5,12.3c-8.7,0-12.9-4.1-12.7-12.6
		C2274.9,424.5,2278.9,420.8,2287.6,420.9z"/>
</g>
<g>
	<g>
		<path class="st14" d="M4681.4,496.6h-112.8l-18.5,40.7h-44.1l96.8-215.7h44.4l96.8,215.7h-44.4L4681.4,496.6z M4625,366.8
			l-40.1,91.8h80.1L4625,366.8z"/>
		<path class="st14" d="M4794.8,385.3v79.5c0,23.1,12.6,40.7,36.7,40.7c23.1,0,38.8-19.4,38.8-42.5v-77.7h37.3v152.2H4874l-2.5-20.6
			c-15.7,15.4-30.2,22.8-51.5,22.8c-36.4,0-62.9-27.4-62.9-74.6v-79.8H4794.8z"/>
	</g>
	<g>
		<path class="st14" d="M5077.4,517.8c-17.6,17.3-36.1,24-58.6,24c-44.1,0-80.7-26.5-80.7-80.4s36.7-80.4,80.7-80.4
			c21.6,0,38.2,6.2,54.9,22.5l-23.7,25c-8.9-8-20-12-30.5-12c-25.3,0-43.8,18.5-43.8,45c0,29,19.7,44.4,43.1,44.4
			c12,0,24-3.4,33.3-12.6L5077.4,517.8z"/>
	</g>
	<g>
		<g>
			<g>
				<path class="st14" d="M4617.6,202h-61v63.5h-40.7V49.7c33.9,0,67.8-0.3,101.7-0.3C4723,49.4,4723.3,202,4617.6,202z
					 M4556.6,164.7h61c52.1,0,51.8-76.4,0-76.4h-61V164.7z"/>
			</g>
			<g>
				<path class="st14" d="M4768,70.7c0,29.3-44.4,29.3-44.4,0S4768,41.4,4768,70.7z M4727,112.9v152.5h37.6V112.9H4727z"/>
			</g>
			<g>
				<path class="st14" d="M4953.6,189.6c0,43.8-29.9,79.2-79.2,79.2c-49.3,0-78.9-35.4-78.9-79.2c0-43.5,30.2-79.2,78.6-79.2
					S4953.6,146.2,4953.6,189.6z M4833.1,189.6c0,23.1,13.9,44.7,41.3,44.7c27.4,0,41.3-21.6,41.3-44.7c0-22.8-16-45-41.3-45
					C4847.2,144.6,4833.1,166.8,4833.1,189.6z"/>
			</g>
			<g>
				<path class="st14" d="M5097.2,265.4v-79.5c0-23.1-12.6-40.7-36.7-40.7c-23.1,0-38.8,19.4-38.8,42.5v77.7h-37.3V113.2h33.6
					l2.5,20.6c15.4-15.1,30.8-22.8,49.9-22.8c35.7,0,64.4,26.8,64.4,74.6v79.8H5097.2z"/>
			</g>
			<g>
				<path class="st14" d="M5205.3,202.9c2.5,18.8,18.8,32.4,45.3,32.4c13.9,0,32.1-5.2,40.7-14.2l24,23.7
					c-16,16.6-42.2,24.7-65.3,24.7c-52.4,0-83.5-32.4-83.5-81.1c0-46.2,31.4-79.5,80.7-79.5c50.8,0,82.6,31.4,76.7,94H5205.3z
					 M5287.9,171.8c-2.5-19.7-17.9-29.6-39.4-29.6c-20.3,0-37,9.9-42.5,29.6H5287.9z"/>
			</g>
			<g>
				<path class="st14" d="M5391.8,202.9c2.5,18.8,18.8,32.4,45.3,32.4c13.9,0,32.1-5.2,40.7-14.2l24,23.7
					c-16,16.6-42.2,24.7-65.3,24.7c-52.4,0-83.5-32.4-83.5-81.1c0-46.2,31.4-79.5,80.7-79.5c50.8,0,82.6,31.4,76.7,94H5391.8z
					 M5474.4,171.8c-2.5-19.7-17.9-29.6-39.4-29.6c-20.3,0-37,9.9-42.5,29.6H5474.4z"/>
			</g>
			<g>
				<path class="st14" d="M5576.1,113.5l2.8,17.6c11.7-18.8,27.4-21.6,42.8-21.6c15.7,0,30.8,6.2,39.1,14.5l-16.9,32.7
					c-7.7-6.5-14.8-9.9-27.1-9.9c-19.7,0-37.9,10.5-37.9,38.5v80.1h-37.6V113.5H5576.1z"/>
			</g>
			<g>
				<path class="st14" d="M5268.5,342.5c0,29.3-44.4,29.3-44.4,0S5268.5,313.2,5268.5,342.5z M5227.5,384.7v152.5h37.6V384.7H5227.5
					z"/>
			</g>
		</g>
		<g>
			<g>
				<path class="st14" d="M5151.4,342.5v43.1h41.9V418h-42.2v65.6c0,14.5,8,21.6,19.7,21.6c5.9,0,12.6-1.8,18.2-4.6l10.5,32.1
					c-10.8,4.3-19.7,6.2-31.1,6.5c-33,1.2-54.5-17.6-54.5-55.5V418h-28.4v-32.4h28.4v-39.1L5151.4,342.5z"/>
			</g>
			<g>
				<path class="st14" d="M5455,461.4c0,43.8-29.9,79.2-79.2,79.2c-49.3,0-78.9-35.4-78.9-79.2c0-43.5,30.2-79.2,78.6-79.2
					S5455,418,5455,461.4z M5334.5,461.4c0,23.1,13.9,44.7,41.3,44.7c27.4,0,41.3-21.6,41.3-44.7c0-22.8-16-45-41.3-45
					C5348.6,416.4,5334.5,438.6,5334.5,461.4z"/>
				<path class="st14" d="M5598.9,537.3v-79.5c0-23.1-12.6-40.7-36.7-40.7c-23.1,0-38.8,19.4-38.8,42.5v77.7h-37.3V385h33.6
					l2.5,20.6c15.4-15.1,30.8-22.8,49.9-22.8c35.7,0,64.4,26.8,64.4,74.6v79.8H5598.9z"/>
				<path class="st14" d="M5773.9,425.7c-10.8-10.2-23.1-13.6-37.6-13.6c-17.9,0-27.7,5.5-27.7,15.1c0,9.9,8.9,15.4,28.4,16.6
					c28.7,1.8,65,8.3,65,48.7c0,26.8-21.9,49.9-65.3,49.9c-24,0-48.1-4-70.3-27.1l18.5-26.8c10.8,12,35.4,21,52.4,21.3
					c14.2,0.3,27.4-7.1,27.4-18.2c0-10.5-8.6-14.8-30.2-16c-28.7-2.2-62.9-12.6-62.9-47.2c0-35.1,36.4-47.5,64.1-47.5
					c23.7,0,41.6,4.6,59.2,20L5773.9,425.7z"/>
			</g>
		</g>
	</g>
</g>
<g>
	<defs>
		<rect id="SVGID_11_" x="3557.9" y="-263.7" width="2528" height="1111.2"/>
	</defs>
	<clipPath id="SVGID_12_">
		<use xlink:href="#SVGID_11_"  style="overflow:visible;"/>
	</clipPath>
	<path class="st20" d="M4379.1,292.4c0-148.6-120.5-269.1-269.1-269.1c-148.6,0-269.1,120.5-269.1,269.1s120.5,269.1,269.1,269.1
		C4258.6,561.5,4379.1,441,4379.1,292.4"/>
	<path class="st21" d="M3993.2,190.5c-2.4,3.5-1.5,8.2,2,10.6l2.1,1.5l-50,72.9l-2.1-1.5c-3.5-2.4-8.2-1.5-10.6,2
		c-2.4,3.5-1.5,8.2,2,10.6l52.1,35.8c3.5,2.4,8.2,1.5,10.6-2c2.4-3.5,1.5-8.2-2-10.6l-2.1-1.5l8.2-11.9l217.8,149.3l32.7-47.7
		l-217.8-149.3l9.1-13.3l2.1,1.5c3.5,2.4,8.2,1.5,10.6-2s1.5-8.2-2-10.6l-52.1-35.8C4000.4,186.2,3995.6,187.1,3993.2,190.5"/>
	<path class="st21" d="M4014.8,177l47.8,32.6c12.3-18,37-22.7,55.1-10.4c18,12.3,22.7,37,10.4,55.1l47.8,32.6
		c30.3-44.4,18.9-105.2-25.6-135.5C4105.9,121.1,4045.2,132.6,4014.8,177"/>
</g>
<g>
	<path class="st0" d="M4611.9,1403.1h-60.7v63.2h-40.5v-214.7c33.7,0,67.5-0.3,101.2-0.3C4716.8,1251.3,4717.1,1403.1,4611.9,1403.1
		z M4551.2,1366h60.7c51.8,0,51.5-76.1,0-76.1h-60.7V1366z"/>
</g>
<g>
	<path class="st0" d="M4761.6,1272.4c0,29.1-44.2,29.1-44.2,0S4761.6,1243.3,4761.6,1272.4z M4720.8,1314.4v151.8h37.4v-151.8
		H4720.8z"/>
</g>
<g>
	<path class="st0" d="M4946.3,1390.8c0,43.6-29.8,78.8-78.8,78.8s-78.5-35.3-78.5-78.8c0-43.2,30.1-78.8,78.2-78.8
		C4915.3,1312,4946.3,1347.6,4946.3,1390.8z M4826.3,1390.8c0,23,13.8,44.5,41.1,44.5c27.3,0,41.1-21.5,41.1-44.5
		c0-22.7-16-44.8-41.1-44.8C4840.4,1346,4826.3,1368.1,4826.3,1390.8z"/>
</g>
<g>
	<path class="st0" d="M5089.2,1466.3v-79.1c0-23-12.6-40.5-36.5-40.5c-23,0-38.6,19.3-38.6,42.3v77.3h-37.1v-151.5h33.4l2.5,20.6
		c15.3-15,30.7-22.7,49.7-22.7c35.6,0,64.1,26.7,64.1,74.2v79.4H5089.2z"/>
</g>
<g>
	<path class="st0" d="M5196.9,1404c2.5,18.7,18.7,32.2,45.1,32.2c13.8,0,31.9-5.2,40.5-14.1l23.9,23.6c-16,16.6-42,24.5-65,24.5
		c-52.1,0-83.1-32.2-83.1-80.7c0-46,31.3-79.1,80.4-79.1c50.6,0,82.2,31.3,76.4,93.6H5196.9z M5279.1,1373
		c-2.5-19.6-17.8-29.4-39.3-29.4c-20.2,0-36.8,9.8-42.3,29.4H5279.1z"/>
</g>
<g>
	<path class="st0" d="M5382.4,1404c2.5,18.7,18.7,32.2,45.1,32.2c13.8,0,31.9-5.2,40.5-14.1l23.9,23.6c-16,16.6-42,24.5-65,24.5
		c-52.1,0-83.1-32.2-83.1-80.7c0-46,31.3-79.1,80.4-79.1c50.6,0,82.2,31.3,76.4,93.6H5382.4z M5464.6,1373
		c-2.5-19.6-17.8-29.4-39.3-29.4c-20.2,0-36.8,9.8-42.3,29.4H5464.6z"/>
</g>
<g>
	<path class="st0" d="M5565.9,1315.1l2.8,17.5c11.7-18.7,27.3-21.5,42.6-21.5c15.6,0,30.7,6.1,39,14.4l-16.9,32.5
		c-7.7-6.4-14.7-9.8-27-9.8c-19.6,0-37.7,10.4-37.7,38.3v79.8h-37.4v-151.2H5565.9z"/>
</g>
<g>
	<path class="st0" d="M4675.4,1696.3h-112.3l-18.4,40.5h-43.9l96.3-214.7h44.2l96.3,214.7h-44.2L4675.4,1696.3z M4619.3,1567.2
		l-39.9,91.4h79.8L4619.3,1567.2z"/>
	<path class="st0" d="M4788.3,1585.6v79.1c0,23,12.6,40.5,36.5,40.5c23,0,38.6-19.3,38.6-42.3v-77.3h37.1v151.5h-33.4l-2.5-20.6
		c-15.6,15.3-30.1,22.7-51.2,22.7c-36.2,0-62.6-27.3-62.6-74.2v-79.4H4788.3z"/>
</g>
<g>
	<path class="st0" d="M5069.6,1717.5c-17.5,17.2-35.9,23.9-58.3,23.9c-43.9,0-80.4-26.4-80.4-80.1s36.5-80.1,80.4-80.1
		c21.5,0,38,6.1,54.6,22.4l-23.6,24.8c-8.9-8-19.9-12-30.4-12c-25.2,0-43.6,18.4-43.6,44.8c0,28.8,19.6,44.2,42.9,44.2
		c12,0,23.9-3.4,33.1-12.6L5069.6,1717.5z"/>
</g>
<g>
	<path class="st0" d="M5143.2,1543v42.9h41.7v32.2h-42v65.3c0,14.4,8,21.5,19.6,21.5c5.8,0,12.6-1.8,18.1-4.6l10.4,31.9
		c-10.7,4.3-19.6,6.1-31,6.4c-32.8,1.2-54.3-17.5-54.3-55.2v-65.3h-28.2v-32.2h28.2v-39L5143.2,1543z"/>
</g>
<g>
	<path class="st0" d="M5259.7,1543c0,29.1-44.2,29.1-44.2,0S5259.7,1513.8,5259.7,1543z M5219,1585v151.8h37.4V1585H5219z"/>
</g>
<g>
	<path class="st0" d="M5445.3,1661.4c0,43.6-29.8,78.8-78.8,78.8s-78.5-35.3-78.5-78.8c0-43.2,30.1-78.8,78.2-78.8
		C5414.3,1582.5,5445.3,1618.1,5445.3,1661.4z M5325.4,1661.4c0,23,13.8,44.5,41.1,44.5c27.3,0,41.1-21.5,41.1-44.5
		c0-22.7-16-44.8-41.1-44.8C5339.5,1616.6,5325.4,1638.7,5325.4,1661.4z"/>
	<path class="st0" d="M5588.6,1736.8v-79.1c0-23-12.6-40.5-36.5-40.5c-23,0-38.6,19.3-38.6,42.3v77.3h-37.1v-151.5h33.4l2.5,20.6
		c15.3-15,30.7-22.7,49.7-22.7c35.6,0,64.1,26.7,64.1,74.2v79.4H5588.6z"/>
	<path class="st0" d="M5762.8,1625.8c-10.7-10.1-23-13.5-37.4-13.5c-17.8,0-27.6,5.5-27.6,15c0,9.8,8.9,15.3,28.2,16.6
		c28.5,1.8,64.7,8.3,64.7,48.5c0,26.7-21.8,49.7-65,49.7c-23.9,0-47.9-4-69.9-27l18.4-26.7c10.7,12,35.3,20.9,52.1,21.2
		c14.1,0.3,27.3-7.1,27.3-18.1c0-10.4-8.6-14.7-30.1-16c-28.5-2.1-62.6-12.6-62.6-46.9c0-35,36.2-47.2,63.8-47.2
		c23.6,0,41.4,4.6,58.9,19.9L5762.8,1625.8z"/>
</g>
<g>
	<defs>
		<rect id="SVGID_13_" x="3557.2" y="939.6" width="2516.2" height="1106"/>
	</defs>
	<clipPath id="SVGID_14_">
		<use xlink:href="#SVGID_13_"  style="overflow:visible;"/>
	</clipPath>
	<path class="st22" d="M4374.5,1493.1c0-147.9-119.9-267.9-267.9-267.9c-147.9,0-267.9,119.9-267.9,267.9s119.9,267.9,267.9,267.9
		C4254.5,1761,4374.5,1641.1,4374.5,1493.1"/>
	<path class="st23" d="M3990.4,1391.7c-2.4,3.4-1.5,8.2,2,10.5l2.1,1.5l-49.8,72.6l-2.1-1.5c-3.4-2.4-8.2-1.5-10.5,2
		c-2.4,3.4-1.5,8.2,2,10.5l51.9,35.6c3.4,2.4,8.2,1.5,10.5-2c2.4-3.4,1.5-8.2-2-10.5l-2.1-1.5l8.1-11.9l216.7,148.6l32.6-47.5
		l-216.7-148.6l9-13.2l2.1,1.5c3.4,2.4,8.2,1.5,10.5-2c2.4-3.4,1.5-8.2-2-10.5l-51.9-35.6
		C3997.5,1387.4,3992.8,1388.3,3990.4,1391.7"/>
	<path class="st23" d="M4012,1378.3l47.6,32.5c12.3-18,36.8-22.6,54.8-10.3c18,12.3,22.6,36.8,10.3,54.8l47.6,32.5
		c30.2-44.2,18.8-104.7-25.4-134.9C4102.6,1322.7,4042.1,1334.1,4012,1378.3"/>
</g>
<g>
	<g>
		<path class="st19" d="M2122.4,1403.1h-60.7v63.2h-40.5v-214.7c33.7,0,67.5-0.3,101.2-0.3
			C2227.3,1251.3,2227.6,1403.1,2122.4,1403.1z M2061.7,1366h60.7c51.8,0,51.5-76.1,0-76.1h-60.7V1366z"/>
	</g>
	<g>
		<path class="st19" d="M2272.1,1272.4c0,29.1-44.2,29.1-44.2,0S2272.1,1243.3,2272.1,1272.4z M2231.3,1314.4v151.8h37.4v-151.8
			H2231.3z"/>
	</g>
	<g>
		<path class="st19" d="M2456.8,1390.8c0,43.6-29.8,78.8-78.8,78.8s-78.5-35.3-78.5-78.8c0-43.2,30.1-78.8,78.2-78.8
			C2425.8,1312,2456.8,1347.6,2456.8,1390.8z M2336.8,1390.8c0,23,13.8,44.5,41.1,44.5c27.3,0,41.1-21.5,41.1-44.5
			c0-22.7-16-44.8-41.1-44.8C2350.9,1346,2336.8,1368.1,2336.8,1390.8z"/>
	</g>
	<g>
		<path class="st19" d="M2599.7,1466.3v-79.1c0-23-12.6-40.5-36.5-40.5c-23,0-38.6,19.3-38.6,42.3v77.3h-37.1v-151.5h33.4l2.5,20.6
			c15.3-15,30.7-22.7,49.7-22.7c35.6,0,64.1,26.7,64.1,74.2v79.4H2599.7z"/>
	</g>
	<g>
		<path class="st19" d="M2707.4,1404c2.5,18.7,18.7,32.2,45.1,32.2c13.8,0,31.9-5.2,40.5-14.1l23.9,23.6c-16,16.6-42,24.5-65,24.5
			c-52.1,0-83.1-32.2-83.1-80.7c0-46,31.3-79.1,80.4-79.1c50.6,0,82.2,31.3,76.4,93.6H2707.4z M2789.6,1373
			c-2.5-19.6-17.8-29.4-39.3-29.4c-20.2,0-36.8,9.8-42.3,29.4H2789.6z"/>
	</g>
	<g>
		<path class="st19" d="M2892.9,1404c2.5,18.7,18.7,32.2,45.1,32.2c13.8,0,31.9-5.2,40.5-14.1l23.9,23.6c-16,16.6-42,24.5-65,24.5
			c-52.1,0-83.1-32.2-83.1-80.7c0-46,31.3-79.1,80.4-79.1c50.6,0,82.2,31.3,76.4,93.6H2892.9z M2975.1,1373
			c-2.5-19.6-17.8-29.4-39.3-29.4c-20.2,0-36.8,9.8-42.3,29.4H2975.1z"/>
	</g>
	<g>
		<path class="st19" d="M3076.4,1315.1l2.8,17.5c11.7-18.7,27.3-21.5,42.6-21.5c15.6,0,30.7,6.1,39,14.4l-16.9,32.5
			c-7.7-6.4-14.7-9.8-27-9.8c-19.6,0-37.7,10.4-37.7,38.3v79.8h-37.4v-151.2H3076.4z"/>
	</g>
	<g>
		<path class="st19" d="M2185.9,1696.3h-112.3l-18.4,40.5h-43.9l96.3-214.7h44.2l96.3,214.7H2204L2185.9,1696.3z M2129.8,1567.2
			l-39.9,91.4h79.8L2129.8,1567.2z"/>
		<path class="st19" d="M2298.8,1585.6v79.1c0,23,12.6,40.5,36.5,40.5c23,0,38.6-19.3,38.6-42.3v-77.3h37.1v151.5h-33.4l-2.5-20.6
			c-15.6,15.3-30.1,22.7-51.2,22.7c-36.2,0-62.6-27.3-62.6-74.2v-79.4H2298.8z"/>
	</g>
	<g>
		<path class="st19" d="M2580.1,1717.5c-17.5,17.2-35.9,23.9-58.3,23.9c-43.9,0-80.4-26.4-80.4-80.1s36.5-80.1,80.4-80.1
			c21.5,0,38,6.1,54.6,22.4l-23.6,24.8c-8.9-8-19.9-12-30.4-12c-25.2,0-43.6,18.4-43.6,44.8c0,28.8,19.6,44.2,42.9,44.2
			c12,0,23.9-3.4,33.1-12.6L2580.1,1717.5z"/>
	</g>
	<g>
		<path class="st19" d="M2653.7,1543v42.9h41.7v32.2h-42v65.3c0,14.4,8,21.5,19.6,21.5c5.8,0,12.6-1.8,18.1-4.6l10.4,31.9
			c-10.7,4.3-19.6,6.1-31,6.4c-32.8,1.2-54.3-17.5-54.3-55.2v-65.3H2588v-32.2h28.2v-39L2653.7,1543z"/>
	</g>
	<g>
		<path class="st19" d="M2770.2,1543c0,29.1-44.2,29.1-44.2,0S2770.2,1513.8,2770.2,1543z M2729.5,1585v151.8h37.4V1585H2729.5z"/>
	</g>
	<g>
		<path class="st19" d="M2955.8,1661.4c0,43.6-29.8,78.8-78.8,78.8s-78.5-35.3-78.5-78.8c0-43.2,30.1-78.8,78.2-78.8
			C2924.8,1582.5,2955.8,1618.1,2955.8,1661.4z M2835.9,1661.4c0,23,13.8,44.5,41.1,44.5c27.3,0,41.1-21.5,41.1-44.5
			c0-22.7-16-44.8-41.1-44.8C2850,1616.6,2835.9,1638.7,2835.9,1661.4z"/>
		<path class="st19" d="M3099.1,1736.8v-79.1c0-23-12.6-40.5-36.5-40.5c-23,0-38.6,19.3-38.6,42.3v77.3h-37.1v-151.5h33.4l2.5,20.6
			c15.3-15,30.7-22.7,49.7-22.7c35.6,0,64.1,26.7,64.1,74.2v79.4H3099.1z"/>
		<path class="st19" d="M3273.3,1625.8c-10.7-10.1-23-13.5-37.4-13.5c-17.8,0-27.6,5.5-27.6,15c0,9.8,8.9,15.3,28.2,16.6
			c28.5,1.8,64.7,8.3,64.7,48.5c0,26.7-21.8,49.7-65,49.7c-23.9,0-47.9-4-69.9-27l18.4-26.7c10.7,12,35.3,20.9,52.1,21.2
			c14.1,0.3,27.3-7.1,27.3-18.1c0-10.4-8.6-14.7-30.1-16c-28.5-2.1-62.6-12.6-62.6-46.9c0-35,36.2-47.2,63.8-47.2
			c23.6,0,41.4,4.6,58.9,19.9L3273.3,1625.8z"/>
	</g>
</g>
<g>
	<defs>
		<rect id="SVGID_15_" x="1067.7" y="939.6" width="2516.2" height="1106"/>
	</defs>
	<clipPath id="SVGID_16_">
		<use xlink:href="#SVGID_15_"  style="overflow:visible;"/>
	</clipPath>
	<path class="st24" d="M1617.1,1225.2c-147.9,0-267.9,119.9-267.9,267.9s119.9,267.9,267.9,267.9c147.9,0,267.9-119.9,267.9-267.9
		S1765,1225.2,1617.1,1225.2z M1657.3,1352.8c44.2,30.2,55.6,90.7,25.4,134.9l-47.6-32.5c12.3-18,7.6-42.5-10.3-54.8
		c-18-12.3-42.5-7.6-54.8,10.3l-47.6-32.5C1552.6,1334.1,1613.1,1322.7,1657.3,1352.8z M1727.8,1645.7L1511,1497.1l-8.1,11.9
		l2.1,1.5c3.4,2.4,4.3,7.1,2,10.5c-2.4,3.4-7.1,4.3-10.5,2l-51.9-35.6c-3.4-2.4-4.3-7.1-2-10.5c2.4-3.4,7.1-4.3,10.5-2l2.1,1.5
		l49.8-72.6l-2.1-1.5c-3.4-2.4-4.3-7.1-2-10.5c2.4-3.4,7.1-4.3,10.5-2l51.9,35.6c3.4,2.4,4.3,7.1,2,10.5c-2.4,3.4-7.1,4.3-10.5,2
		l-2.1-1.5l-9,13.2l216.7,148.6L1727.8,1645.7z"/>
</g>
</svg>
