<?xml version="1.0" encoding="utf-8"?>
<!-- Generator: Adobe Illustrator 19.0.0, SVG Export Plug-In . SVG Version: 6.00 Build 0)  -->
<svg version="1.1" id="Layer_1" xmlns="http://www.w3.org/2000/svg" xmlns:xlink="http://www.w3.org/1999/xlink" x="0px" y="0px"
	 viewBox="0 0 2009.3 589.4" style="enable-background:new 0 0 2009.3 589.4;" xml:space="preserve">
<style type="text/css">
	.st0{fill:#5C02B5;}
	.st1{clip-path:url(#SVGID_2_);fill:#5C02B5;}
	.st2{clip-path:url(#SVGID_2_);fill:#FA8500;}
	.st3{fill:#5D04B5;}
	.st4{fill:#5E05B5;}
	.st5{fill:#5D05B5;}
	.st6{fill:#5C02B4;}
	.st7{fill:#5F07B6;}
	.st8{fill:#5F06B6;}
	.st9{fill:#5E06B5;}
	.st10{fill:#6009B6;}
	.st11{fill:#5F08B6;}
	.st12{clip-path:url(#SVGID_4_);fill:#FA8500;}
	.st13{clip-path:url(#SVGID_4_);fill:#5D05B5;}
	.st14{fill:#FA8500;}
	.st15{clip-path:url(#SVGID_6_);fill:#5D05B5;}
	.st16{clip-path:url(#SVGID_6_);fill:#FA8500;}
	.st17{clip-path:url(#SVGID_8_);fill:#FFFFFF;}
	.st18{clip-path:url(#SVGID_10_);fill:#FFFFFF;}
	.st19{fill:#FFFFFF;}
	.st20{clip-path:url(#SVGID_12_);fill:#FA8500;}
	.st21{clip-path:url(#SVGID_12_);fill:#5C02B5;}
	.st22{clip-path:url(#SVGID_14_);fill:#5C02B5;}
	.st23{clip-path:url(#SVGID_14_);fill:#FA8500;}
	.st24{clip-path:url(#SVGID_16_);fill:#FFFFFF;}
</style>
<rect x="2489.5" y="-1195.9" class="st0" width="2009.3" height="589.4"/>
<rect x="-1324.1" y="-1195.9" class="st0" width="1400.9" height="589.4"/>
<g>
	<defs>
		<rect id="SVGID_1_" x="-3245.7" y="-1364.8" width="1720.9" height="927.1"/>
	</defs>
	<clipPath id="SVGID_2_">
		<use xlink:href="#SVGID_1_"  style="overflow:visible;"/>
	</clipPath>
	<path class="st1" d="M-1706.6-899.3c0-151-122.4-273.5-273.5-273.5c-151,0-273.5,122.4-273.5,273.5s122.4,273.5,273.5,273.5
		C-1829.1-625.8-1706.6-748.2-1706.6-899.3"/>
	<path class="st2" d="M-2098.7-1002.8c-2.4,3.5-1.5,8.4,2,10.8l2.2,1.5l-50.8,74.1l-2.2-1.5c-3.5-2.4-8.4-1.5-10.8,2
		c-2.4,3.5-1.5,8.4,2,10.8l53,36.3c3.5,2.4,8.4,1.5,10.8-2c2.4-3.5,1.5-8.4-2-10.8l-2.2-1.5l8.3-12.1l221.3,151.7l33.3-48.5
		l-221.3-151.7l9.2-13.5l2.2,1.5c3.5,2.4,8.4,1.5,10.8-2c2.4-3.5,1.5-8.4-2-10.8l-53-36.3
		C-2091.4-1007.2-2096.3-1006.3-2098.7-1002.8"/>
	<path class="st2" d="M-2076.7-1016.5l48.6,33.2c12.5-18.3,37.6-23.1,56-10.6c18.3,12.5,23.1,37.6,10.6,56l48.6,33.2
		c30.8-45.1,19.2-106.9-26-137.7C-1984.2-1073.3-2045.9-1061.6-2076.7-1016.5"/>
	<path class="st1" d="M-3519.3-899.3c0-151-122.4-273.5-273.5-273.5c-151,0-273.5,122.4-273.5,273.5s122.4,273.5,273.5,273.5
		C-3641.7-625.8-3519.3-748.2-3519.3-899.3"/>
	<path class="st2" d="M-3911.4-1002.8c-2.4,3.5-1.5,8.4,2,10.8l2.2,1.5l-50.8,74.1l-2.2-1.5c-3.5-2.4-8.4-1.5-10.8,2
		c-2.4,3.5-1.5,8.4,2,10.8l53,36.3c3.5,2.4,8.4,1.5,10.8-2c2.4-3.5,1.5-8.4-2-10.8l-2.2-1.5l8.3-12.1l221.3,151.7l33.3-48.5
		l-221.3-151.7l9.2-13.5l2.2,1.5c3.5,2.4,8.4,1.5,10.8-2c2.4-3.5,1.5-8.4-2-10.8l-53-36.3C-3904.1-1007.2-3909-1006.3-3911.4-1002.8
		"/>
	<path class="st2" d="M-3889.4-1016.5l48.6,33.2c12.5-18.3,37.6-23.1,56-10.6c18.3,12.5,23.1,37.6,10.6,56l48.6,33.2
		c30.8-45.1,19.2-106.9-26-137.7C-3796.8-1073.3-3858.6-1061.6-3889.4-1016.5"/>
</g>
<g>
	<path class="st3" d="M-2671.3-947.4c-9,0-18,0.4-26.9-1.1c-21.6-3.5-36.2-17.4-40.1-39.1c-4.4-24.6,0.1-47.5,16.1-67.1
		c28-34.2,76.6-27.8,95.4,12.2c7.4,15.7,10.1,32.5,11,49.5c0.2,3.5,1.1,4.4,4.5,4.3c11.4-0.3,22.9,0.3,34.2-1.2
		c15.6-2,21.3-8.6,20.4-24.3c-1.1-17.8-4.7-35.2-7.9-52.7c-0.6-3.4-0.5-5,3.6-5.5c7.6-0.9,15.2-2.3,22.7-3.8
		c2.8-0.5,4.1,0.1,4.5,3.1c3,21.7,7.3,43.2,7.1,65.3c-0.1,7.5-0.9,15-2.9,22.2c-6.1,21.7-21.6,32.3-42.8,36.2
		c-13.5,2.5-27.2,2.2-40.9,2c-4.2-0.1-6.5,0.7-7.8,5.3c-12.2,42.1-41.4,65.7-85.1,69.5c-10.9,1-21.7,0.5-32.6,0.9
		c-3.7,0.1-4.3-1.3-4.3-4.6c0.2-10.7,0.2-21.4,0-32c-0.1-3.9,1-5.1,5-5c15.9,0.3,31.9,0.5,47.5-3.3c16.1-3.9,30.4-10.6,39.3-25.6
		c0.8-1.4,2.5-2.8,1.6-4.5c-0.8-1.4-2.7-0.6-4.2-0.6C-2659.6-947.4-2665.5-947.4-2671.3-947.4z M-2669.6-988.8
		c7.9,0,14.5-0.1,21,0.1c2.8,0.1,4-0.6,3.9-3.7c-0.2-9.5-2-18.5-6.9-26.8c-11.7-19.5-41.8-21.9-54.5-4.3
		c-11,15.2-4.5,31.1,13.8,34.1C-2684.4-988.1-2676.3-989.1-2669.6-988.8z"/>
	<path class="st3" d="M-2908.8-986.5c-1.3,4.1-2.4,8.1-3.7,12c-5.5,15.7-16.4,24.3-33,26.3c-7.7,0.9-15.3,0.7-23,0.6
		c-3.4,0-4.8,0.8-5.3,4.4c-2.6,15.9-7.9,30.8-18.3,43.5c-16,19.6-37.7,26.7-62,27.7c-3.7,0.2-7.5-0.2-11.2,0.1
		c-4.2,0.4-4.9-1.3-4.8-5.1c0.2-10.3,0.3-20.6,0-30.9c-0.1-4.3,0.9-5.9,5.5-5.6c8.4,0.5,16.9,0.3,25.2-1.4
		c23.1-4.5,35.3-18.9,37.1-43.5c1.3-18.5-2.1-36.6-5-54.7c-1.3-7.9-2.6-15.9-4-23.8c-0.5-3-0.3-4.7,3.5-5.2
		c7.8-0.9,15.5-2.4,23.3-3.8c2.4-0.4,3.3,0.2,3.7,2.6c2.8,16.8,6,33.5,7.7,50.5c0.2,1.8-0.3,3.9,2.7,3.8c13.8-0.4,27.8,1.1,41.5-0.8
		c11.7-1.7,17.6-8.3,17.9-20.1c0.3-14.6,0.2-29.2,0.1-43.8c0-3.8,0.7-5.3,4.9-5.1c7.3,0.3,14.6,0.3,21.9,0c3.4-0.1,4.5,0.9,4.4,4.4
		c-0.2,13.9-0.1,27.7-0.1,41.6c0.1,16.6,7.4,23.9,24.2,23.9c11.2,0,22.5,0.7,33.7-1c2.6-0.4,5.2-0.8,7.7-1.5
		c9.6-2.8,13.6-7.9,13.6-18c0-14.7-2.8-29-5.3-43.4c-0.8-4.8-1.6-9.6-2.7-14.3c-0.8-3.6,0.3-4.9,4-5.3c7.6-0.9,15.1-2.4,22.7-3.7
		c2-0.3,3.6-0.6,4,2.2c3.6,25.9,9.7,51.6,6.4,78.1c-3.1,25.2-16.4,40.2-41.2,45.5c-19.2,4.2-38.7,4.3-58.1,1.1
		c-19.3-3.2-30.7-15.1-35.7-33.7C-2907.1-984.1-2906.7-985.6-2908.8-986.5z"/>
	<path class="st4" d="M-2448.7-694.7c-2.5,12.1-7.7,21.9-21.5,23.7c-14.6,1.9-27.2-1.1-36.5-14.7c0,4-0.1,7.9,0,11.9
		c0.1,2.3-0.5,3.4-3.1,3.4c-9.2-0.2-18.4,0.3-27.5-0.4c-12.9-0.9-23.3-6.4-29.2-18.6c-0.7,0.4-1.2,0.6-1.3,0.8
		c-6.6,15.4-10.6,18.3-27.7,18c-4.6-0.1-6.5,1-7.6,5.9c-6.7,29.3-25.8,43.1-56.3,41.7c-3.2-0.1-3.7-1.3-3.6-4c0.2-6,0.2-12,0-18
		c-0.1-3.1,0.8-4.4,4.1-4.1c2.8,0.3,5.6,0.1,8.4,0c19.8-1.1,30-11.7,30.3-31.5c0.2-13.9-2.9-27.5-5.1-41.2c-1.2-7.3-1.3-7.3,6.1-8.7
		c11.8-2.2,11.9-2.2,13.9,10c1.2,6.8,2.2,13.7,3.1,20.5c0.3,2,0.1,3.7,3,3.6c9.2-0.3,18.4,0.4,27.5-0.8c2.3-0.3,3.1-0.9,2.9-3.5
		c-1-13.2,4.8-23.5,14.2-32.1c7.1-6.5,15.2-11.7,23.8-15.7c7.2-3.3,15.5-1,23.3-1.1c2.3,0,2.3,2.7,2.9,4.3
		c4.7,12.2,9.1,24.5,13.8,36.7c3.8,10,7.1,12.2,17.6,12c4.1-0.1,8.2,0.4,12.3-0.5c7-1.6,10.3-5.2,10.6-12.5
		c0.2-5.8,0.1-11.6,0.1-17.4c0-28.3,0.1-56.6-0.1-84.9c0-4.2,1.1-5.7,5.3-5.3c3.7,0.4,7.5,0.4,11.2,0c4-0.4,4.9,1.1,4.9,5
		c-0.2,32.6-0.1,65.2-0.1,97.8c0,14.1,3.9,17.9,18.1,17.8c3.7,0,7.5,0.1,11.2-0.1c8.6-0.5,12.1-4.1,12.3-12.7c0.1-5.1,0-10.1,0-15.2
		c0-28.9,0.1-57.7-0.1-86.6c0-4.4,0.7-6.6,5.7-6c5,0.6,11.5-2,14.6,1c3.1,3.1,0.9,9.6,0.9,14.6c0.1,30.4,0,60.7,0.1,91.1
		c0,6.4-0.6,12.7-2.4,18.9c-3.1,11-10.3,17.7-21.4,19.8c-11.1,2-22.4,1.9-33.6,0.2c-11.5-1.8-19.5-8-23.2-19.3
		C-2446.8-692-2446.4-693.9-2448.7-694.7z M-2510.3-696.3c-3.8-10.1-7.3-19.5-10.8-28.9c-0.5-1.2-1.3-2-2.5-1.4
		c-8.9,4.3-18.8,6.7-25.8,14.2c-5.4,5.9-3.1,13.3,4.8,14.9C-2533.7-695.1-2522.4-696.9-2510.3-696.3z"/>
	<path class="st5" d="M-2498.3-1089.7c0-28.5,0.1-57-0.1-85.4c0-4.3,0.8-6,5.5-5.7c7.5,0.4,15,0.4,22.5,0c4.7-0.2,6,1.2,5.9,5.9
		c-0.2,53.2-0.1,106.4-0.1,159.6c0,3.7,0.3,7.5,0.8,11.2c1.1,8,5.6,13.2,13.6,14.2c16.4,2.1,32.9,2.3,49.2-1
		c11.8-2.4,16.2-8.2,15.8-20.2c-0.5-17.5-4.1-34.5-7.2-51.7c-1.6-9.1-1.7-9,7.4-10.3c6.1-0.9,12.2-1.9,18.3-3.1
		c2.8-0.5,3.9,0.1,4.3,3.2c2.8,18.5,6,37,7.1,55.7c0.5,7.5,0.3,15-0.9,22.4c-4,25.8-17.5,40.2-43.1,45.1c-19.1,3.6-38.4,4-57.6,0.6
		c-25.5-4.4-38.7-19.6-40.7-45.6c-1.7-22.6-0.4-45.3-0.8-68C-2498.4-1071.7-2498.3-1080.7-2498.3-1089.7z"/>
	<path class="st5" d="M-2922-696.4c15.3-0.1,30.7,0.5,46-2.1c12.6-2.1,15.5-6,14.4-18.4c-0.8-9-2.6-17.8-4.4-26.6
		c-0.7-3.4-0.9-5.8,3.8-5.9c4.9-0.1,11.1-4.1,14.4-1c2.8,2.6,2.1,9.1,2.8,13.9c1.3,8.5,2.6,17,2.6,25.7c0.2,23.2-8.5,34.8-31.1,38.8
		c-30.3,5.4-60.7,5.5-91.1,0.4c-1.7-0.3-3.3-0.7-4.9-1.1c-21.9-5.9-32-20.2-30.2-42.8c0.8-10,3.2-19.5,6.5-28.9c1-3,2.2-4.3,5.6-2.9
		c3.9,1.7,9.8,1.1,11.7,4.3c1.7,2.9-2.5,7.2-3.5,11.2c-0.7,2.9-1.6,5.8-2.1,8.7c-2.3,12,2.6,20.1,14.4,23.4
		C-2952.4-695.6-2937.1-696.5-2922-696.4z"/>
	<path class="st5" d="M-2750.8-670.5c-4.5-0.3-10.7,0.6-16.8-0.5c-11.2-2-17.1-8.2-18.7-19.4c-0.1-0.9-0.2-1.9-0.2-2.8
		c-0.9-17.6-0.9-17.5,16.6-16.8c3.1,0.1,3.6,1.2,3.7,3.9c0.2,9.6,0.3,9.6,10.2,9.6c7.1,0,14.2,0.2,21.4,0c13-0.4,17.8-9.5,11.1-20.8
		c-3.8-6.3-9.1-11.4-14.2-16.6c-6.8-6.8-13.5-13.6-20.5-20c-2.9-2.6-2.5-4.2,0-6.7c4.3-4.2,8.3-8.7,12.4-13c1.3-1.4,2.4-2.9,4.4-0.6
		c10.9,11.9,23.1,22.5,31.7,36.3c8,12.9,10.4,26.8,7.2,41.5c-3.4,15.5-15.7,25.1-32.5,25.8C-2739.8-670.3-2744.4-670.5-2750.8-670.5
		z"/>
	<path class="st6" d="M-2824.8-744.7c0-22.7,0.1-45.3-0.1-68c0-4.2,0.9-5.6,5.2-5.2c5.2,0.5,12.2-1.7,15.2,1
		c3.5,3.1,1,10.2,1.1,15.5c0.1,41.7,0,83.5,0.2,125.2c0,4.7-1,6.3-5.8,5.8c-5-0.5-11.7,1.6-14.6-0.9c-3.3-3-1-9.8-1-15
		C-2824.9-705.7-2824.8-725.2-2824.8-744.7z"/>
	<path class="st6" d="M-2661.7-743.5c0,22.7-0.1,45.3,0.1,68c0,4.2-1,5.6-5.2,5.2c-5.2-0.5-12,1.6-15.2-1c-3.4-2.7-1-9.8-1-15
		c-0.1-41.9,0-83.9-0.2-125.8c0-4.7,1.1-6.2,5.8-5.8c5,0.5,11.7-1.6,14.6,1c3.3,3,1,9.8,1,15C-2661.6-782.4-2661.7-763-2661.7-743.5
		z"/>
	<path class="st7" d="M-2532.6-880.9c-13.4,0-19.8-6.3-19.9-19.3c0-13.5,6.5-19.8,20.6-19.7c13.2,0,19.6,6.5,19.6,19.6
		C-2512.2-887.1-2518.7-880.9-2532.6-880.9z"/>
	<path class="st8" d="M-2872.1-880.9c-13.6,0-20-6.1-20.1-19.2c-0.1-13.5,6.3-19.8,20.1-19.8c13.7,0,20.2,6.4,20.1,19.8
		C-2852.1-887-2858.5-880.9-2872.1-880.9z"/>
	<path class="st9" d="M-2579.5-880.9c-13.5,0-19.9-6.3-19.9-19.4c0-13.4,6.5-19.6,20.3-19.6c13.7,0,19.9,6.3,19.8,20
		C-2559.4-886.9-2565.7-880.9-2579.5-880.9z"/>
	<path class="st9" d="M-2385-880.9c-13.4,0-19.7-6.3-19.6-19.6c0.1-13.5,6.4-19.4,20.4-19.4c13.4,0,19.5,6.2,19.5,19.6
		C-2364.7-886.7-2370.8-880.9-2385-880.9z"/>
	<path class="st5" d="M-2798.8-1105.7c-13.6,0-19.9-6.1-19.9-19.2c0-13.4,6.3-19.6,20.2-19.5c13.8,0,19.9,6.2,19.8,19.8
		C-2778.8-1111.5-2785-1105.7-2798.8-1105.7z"/>
	<path class="st9" d="M-2919.4-880.9c-13.3,0-19.9-6.5-19.8-19.5c0.1-13.3,6.6-19.5,20.4-19.5c13.4,0,19.7,6.3,19.7,19.6
		C-2899-887-2905.4-880.9-2919.4-880.9z"/>
	<path class="st10" d="M-2907.4-742.6c-8.5,0-12.6-4-12.7-12.1c-0.1-8.3,4-12.4,12.4-12.4c8.9-0.1,13,3.9,13,12.3
		C-2894.7-746.7-2898.9-742.6-2907.4-742.6z"/>
	<path class="st11" d="M-2937.1-767.2c8.8,0,12.9,4,12.8,12.5c-0.1,8.2-4.3,12.1-12.8,12c-8.4,0-12.5-4.1-12.5-12.3
		C-2949.6-763.2-2945.5-767.1-2937.1-767.2z"/>
	<path class="st11" d="M-2619.6-775c8.5,0,12.4,3.8,12.4,12.2c0,8.3-4,12.2-12.5,12.3c-8.7,0-12.9-4.1-12.7-12.6
		C-2632.3-771.4-2628.3-775.1-2619.6-775z"/>
</g>
<g>
	<defs>
		<rect id="SVGID_3_" x="-1484.1" y="-1364.8" width="1720.9" height="927.1"/>
	</defs>
	<clipPath id="SVGID_4_">
		<use xlink:href="#SVGID_3_"  style="overflow:visible;"/>
	</clipPath>
	<path class="st12" d="M55-899.3c0-151-122.4-273.5-273.5-273.5c-151,0-273.5,122.4-273.5,273.5s122.4,273.5,273.5,273.5
		C-67.4-625.8,55-748.2,55-899.3"/>
	<path class="st13" d="M-337.1-1002.8c-2.4,3.5-1.5,8.4,2,10.8l2.2,1.5l-50.8,74.1l-2.2-1.5c-3.5-2.4-8.4-1.5-10.8,2
		c-2.4,3.5-1.5,8.4,2,10.8l53,36.3c3.5,2.4,8.4,1.5,10.8-2c2.4-3.5,1.5-8.4-2-10.8l-2.2-1.5l8.3-12.1l221.3,151.7l33.3-48.5
		l-221.3-151.7l9.2-13.5l2.2,1.5c3.5,2.4,8.4,1.5,10.8-2c2.4-3.5,1.5-8.4-2-10.8l-53-36.3C-329.8-1007.2-334.7-1006.3-337.1-1002.8"
		/>
	<path class="st13" d="M-315.1-1016.5l48.6,33.2c12.5-18.3,37.6-23.1,56-10.6c18.3,12.5,23.1,37.6,10.6,56l48.6,33.2
		c30.8-45.1,19.2-106.9-26-137.7C-222.5-1073.3-284.3-1061.6-315.1-1016.5"/>
</g>
<g>
	<path class="st14" d="M-909.6-947.4c-9,0-18,0.4-26.9-1.1c-21.6-3.5-36.2-17.4-40.1-39.1c-4.4-24.6,0.1-47.5,16.1-67.1
		c28-34.2,76.6-27.8,95.4,12.2c7.4,15.7,10.1,32.5,11,49.5c0.2,3.5,1.1,4.4,4.5,4.3c11.4-0.3,22.9,0.3,34.2-1.2
		c15.6-2,21.3-8.6,20.4-24.3c-1.1-17.8-4.7-35.2-7.9-52.7c-0.6-3.4-0.5-5,3.6-5.5c7.6-0.9,15.2-2.3,22.7-3.8
		c2.8-0.5,4.1,0.1,4.5,3.1c3,21.7,7.3,43.2,7.1,65.3c-0.1,7.5-0.9,15-2.9,22.2c-6.1,21.7-21.6,32.3-42.8,36.2
		c-13.5,2.5-27.2,2.2-40.9,2c-4.2-0.1-6.5,0.7-7.8,5.3c-12.2,42.1-41.4,65.7-85.1,69.5c-10.9,1-21.7,0.5-32.6,0.9
		c-3.7,0.1-4.3-1.3-4.3-4.6c0.2-10.7,0.2-21.4,0-32c-0.1-3.9,1-5.1,5-5c15.9,0.3,31.9,0.5,47.5-3.3c16.1-3.9,30.4-10.6,39.3-25.6
		c0.8-1.4,2.5-2.8,1.6-4.5c-0.8-1.4-2.7-0.6-4.2-0.6C-898-947.4-903.8-947.4-909.6-947.4z M-908-988.8c7.9,0,14.5-0.1,21,0.1
		c2.8,0.1,4-0.6,3.9-3.7c-0.2-9.5-2-18.5-7-26.8c-11.7-19.5-41.8-21.9-54.5-4.3c-11,15.2-4.5,31.1,13.8,34.1
		C-922.7-988.1-914.6-989.1-908-988.8z"/>
	<path class="st14" d="M-1147.1-986.5c-1.3,4.1-2.4,8.1-3.7,12c-5.5,15.7-16.4,24.3-33,26.3c-7.7,0.9-15.3,0.7-23,0.6
		c-3.4,0-4.8,0.8-5.3,4.4c-2.6,15.9-7.9,30.8-18.3,43.5c-16,19.6-37.7,26.7-62,27.7c-3.7,0.2-7.5-0.2-11.2,0.1
		c-4.2,0.4-4.9-1.3-4.8-5.1c0.2-10.3,0.3-20.6,0-30.9c-0.1-4.3,0.9-5.9,5.5-5.6c8.4,0.5,16.9,0.3,25.2-1.4
		c23.1-4.5,35.3-18.9,37.1-43.5c1.3-18.5-2.1-36.6-5-54.7c-1.3-7.9-2.6-15.9-4-23.8c-0.5-3-0.3-4.7,3.5-5.2
		c7.8-0.9,15.5-2.4,23.3-3.8c2.4-0.4,3.3,0.2,3.7,2.6c2.8,16.8,6,33.5,7.7,50.5c0.2,1.8-0.3,3.9,2.7,3.8c13.8-0.4,27.8,1.1,41.5-0.8
		c11.7-1.7,17.6-8.3,17.9-20.1c0.3-14.6,0.2-29.2,0.1-43.8c0-3.8,0.7-5.3,4.9-5.1c7.3,0.3,14.6,0.3,21.9,0c3.4-0.1,4.5,0.9,4.4,4.4
		c-0.2,13.9-0.1,27.7-0.1,41.6c0.1,16.6,7.4,23.9,24.2,23.9c11.2,0,22.5,0.7,33.7-1c2.6-0.4,5.2-0.8,7.7-1.5
		c9.6-2.8,13.6-7.9,13.6-18c0-14.7-2.8-29-5.3-43.4c-0.8-4.8-1.6-9.6-2.7-14.3c-0.8-3.6,0.3-4.9,4-5.3c7.6-0.9,15.1-2.4,22.7-3.7
		c2-0.3,3.6-0.6,4,2.2c3.6,25.9,9.7,51.6,6.4,78.1c-3.1,25.2-16.4,40.2-41.2,45.5c-19.2,4.2-38.7,4.3-58.1,1.1
		c-19.3-3.2-30.7-15.1-35.7-33.7C-1145.4-984.1-1145.1-985.6-1147.1-986.5z"/>
	<path class="st14" d="M-687-694.7c-2.5,12.1-7.7,21.9-21.5,23.7c-14.6,1.9-27.2-1.1-36.5-14.7c0,4-0.1,7.9,0,11.9
		c0.1,2.3-0.5,3.4-3.1,3.4c-9.2-0.2-18.4,0.3-27.5-0.4c-12.9-0.9-23.3-6.4-29.2-18.6c-0.7,0.4-1.2,0.6-1.3,0.8
		c-6.6,15.4-10.6,18.3-27.7,18c-4.6-0.1-6.5,1-7.6,5.9c-6.7,29.3-25.8,43.1-56.3,41.7c-3.2-0.1-3.7-1.3-3.6-4c0.2-6,0.2-12,0-18
		c-0.1-3.1,0.8-4.4,4.1-4.1c2.8,0.3,5.6,0.1,8.4,0c19.8-1.1,30-11.7,30.3-31.5c0.2-13.9-2.9-27.5-5.1-41.2c-1.2-7.3-1.3-7.3,6.1-8.7
		c11.8-2.2,11.9-2.2,13.9,10c1.2,6.8,2.2,13.7,3.1,20.5c0.3,2,0.1,3.7,3,3.6c9.2-0.3,18.4,0.4,27.5-0.8c2.3-0.3,3.1-0.9,2.9-3.5
		c-1-13.2,4.8-23.5,14.2-32.1c7.1-6.5,15.2-11.7,23.8-15.7c7.2-3.3,15.5-1,23.3-1.1c2.3,0,2.3,2.7,2.9,4.3
		c4.7,12.2,9.1,24.5,13.8,36.7c3.8,10,7.1,12.2,17.6,12c4.1-0.1,8.2,0.4,12.3-0.5c7-1.6,10.3-5.2,10.6-12.5
		c0.2-5.8,0.1-11.6,0.1-17.4c0-28.3,0.1-56.6-0.1-84.9c0-4.2,1.1-5.7,5.3-5.3c3.7,0.4,7.5,0.4,11.2,0c4-0.4,4.9,1.1,4.9,5
		c-0.2,32.6-0.1,65.2-0.1,97.8c0,14.1,3.9,17.9,18.1,17.8c3.7,0,7.5,0.1,11.2-0.1c8.6-0.5,12.1-4.1,12.3-12.7c0.1-5.1,0-10.1,0-15.2
		c0-28.9,0.1-57.7-0.1-86.6c0-4.4,0.7-6.6,5.7-6c5,0.6,11.5-2,14.6,1c3.1,3.1,0.9,9.6,0.9,14.6c0.1,30.4,0,60.7,0.1,91.1
		c0,6.4-0.6,12.7-2.4,18.9c-3.1,11-10.3,17.7-21.4,19.8c-11.1,2-22.4,1.9-33.6,0.2c-11.5-1.8-19.5-8-23.2-19.3
		C-685.2-692-684.8-693.9-687-694.7z M-748.7-696.3c-3.8-10.1-7.3-19.5-10.8-28.9c-0.5-1.2-1.3-2-2.5-1.4
		c-8.9,4.3-18.8,6.7-25.8,14.2c-5.4,5.9-3.1,13.3,4.8,14.9C-772-695.1-760.8-696.9-748.7-696.3z"/>
	<path class="st14" d="M-736.6-1089.7c0-28.5,0.1-57-0.1-85.4c0-4.3,0.8-6,5.5-5.7c7.5,0.4,15,0.4,22.5,0c4.7-0.2,6,1.2,5.9,5.9
		c-0.2,53.2-0.1,106.4-0.1,159.6c0,3.7,0.3,7.5,0.8,11.2c1.1,8,5.6,13.2,13.6,14.2c16.4,2.1,32.9,2.3,49.2-1
		c11.8-2.4,16.2-8.2,15.8-20.2c-0.5-17.5-4.1-34.5-7.2-51.7c-1.6-9.1-1.7-9,7.4-10.3c6.1-0.9,12.2-1.9,18.3-3.1
		c2.8-0.5,3.9,0.1,4.3,3.2c2.8,18.5,6,37,7.1,55.7c0.5,7.5,0.3,15-0.9,22.4c-4,25.8-17.5,40.2-43.1,45.1c-19.1,3.6-38.4,4-57.6,0.6
		c-25.5-4.4-38.7-19.6-40.7-45.6c-1.7-22.6-0.4-45.3-0.8-68C-736.8-1071.7-736.6-1080.7-736.6-1089.7z"/>
	<path class="st14" d="M-1160.4-696.4c15.3-0.1,30.7,0.5,46-2.1c12.6-2.1,15.5-6,14.4-18.4c-0.8-9-2.6-17.8-4.4-26.6
		c-0.7-3.4-0.9-5.8,3.8-5.9c4.9-0.1,11.1-4.1,14.4-1c2.8,2.6,2.1,9.1,2.8,13.9c1.3,8.5,2.6,17,2.6,25.7c0.2,23.2-8.5,34.8-31.1,38.8
		c-30.3,5.4-60.7,5.5-91.1,0.4c-1.7-0.3-3.3-0.7-4.9-1.1c-21.9-5.9-32-20.2-30.2-42.8c0.8-10,3.2-19.5,6.5-28.9c1-3,2.2-4.3,5.6-2.9
		c3.9,1.7,9.8,1.1,11.7,4.3c1.7,2.9-2.5,7.2-3.5,11.2c-0.7,2.9-1.6,5.8-2.1,8.7c-2.3,12,2.6,20.1,14.4,23.4
		C-1190.8-695.6-1175.5-696.5-1160.4-696.4z"/>
	<path class="st14" d="M-989.2-670.5c-4.5-0.3-10.7,0.6-16.8-0.5c-11.2-2-17.1-8.2-18.7-19.4c-0.1-0.9-0.2-1.9-0.2-2.8
		c-0.9-17.6-0.9-17.5,16.6-16.8c3.1,0.1,3.6,1.2,3.7,3.9c0.2,9.6,0.3,9.6,10.2,9.6c7.1,0,14.2,0.2,21.4,0c13-0.4,17.8-9.5,11.1-20.8
		c-3.8-6.3-9.1-11.4-14.2-16.6c-6.8-6.8-13.5-13.6-20.5-20c-2.9-2.6-2.5-4.2,0-6.7c4.3-4.2,8.3-8.7,12.4-13c1.3-1.4,2.4-2.9,4.4-0.6
		c10.9,11.9,23.1,22.5,31.7,36.3c8,12.9,10.4,26.8,7.2,41.5c-3.4,15.5-15.7,25.1-32.5,25.8C-978.1-670.3-982.8-670.5-989.2-670.5z"
		/>
	<path class="st14" d="M-1063.1-744.7c0-22.7,0.1-45.3-0.1-68c0-4.2,0.9-5.6,5.2-5.2c5.2,0.5,12.2-1.7,15.2,1
		c3.5,3.1,1,10.2,1.1,15.5c0.1,41.7,0,83.5,0.2,125.2c0,4.7-1,6.3-5.8,5.8c-5-0.5-11.7,1.6-14.6-0.9c-3.3-3-1-9.8-1-15
		C-1063.2-705.7-1063.1-725.2-1063.1-744.7z"/>
	<path class="st14" d="M-900.1-743.5c0,22.7-0.1,45.3,0.1,68c0,4.2-1,5.6-5.2,5.2c-5.2-0.5-12,1.6-15.2-1c-3.4-2.7-1-9.8-1-15
		c-0.1-41.9,0-83.9-0.2-125.8c0-4.7,1.1-6.2,5.8-5.8c5,0.5,11.7-1.6,14.6,1c3.3,3,1,9.8,1,15C-900-782.4-900.1-763-900.1-743.5z"/>
	<path class="st14" d="M-771-880.9c-13.4,0-19.8-6.3-19.9-19.3c0-13.5,6.5-19.8,20.6-19.7c13.2,0,19.6,6.5,19.6,19.6
		C-750.6-887.1-757.1-880.9-771-880.9z"/>
	<path class="st14" d="M-1110.4-880.9c-13.6,0-20-6.1-20.1-19.2c-0.1-13.5,6.3-19.8,20.1-19.8c13.7,0,20.2,6.4,20.1,19.8
		C-1090.4-887-1096.8-880.9-1110.4-880.9z"/>
	<path class="st14" d="M-817.9-880.9c-13.5,0-19.9-6.3-19.9-19.4c0-13.4,6.5-19.6,20.3-19.6c13.7,0,19.9,6.3,19.8,20
		C-797.8-886.9-804.1-880.9-817.9-880.9z"/>
	<path class="st14" d="M-623.3-880.9c-13.4,0-19.7-6.3-19.6-19.6c0.1-13.5,6.4-19.4,20.4-19.4c13.4,0,19.5,6.2,19.5,19.6
		C-603-886.7-609.2-880.9-623.3-880.9z"/>
	<path class="st14" d="M-1037.2-1105.7c-13.6,0-19.9-6.1-19.9-19.2c0-13.4,6.3-19.6,20.2-19.5c13.8,0,19.9,6.2,19.8,19.8
		C-1017.1-1111.5-1023.3-1105.7-1037.2-1105.7z"/>
	<path class="st14" d="M-1157.8-880.9c-13.3,0-19.9-6.5-19.8-19.5c0.1-13.3,6.6-19.5,20.4-19.5c13.4,0,19.7,6.3,19.7,19.6
		C-1137.4-887-1143.7-880.9-1157.8-880.9z"/>
	<path class="st14" d="M-1145.7-742.6c-8.5,0-12.6-4-12.7-12.1c-0.1-8.3,4-12.4,12.4-12.4c8.9-0.1,13,3.9,13,12.3
		C-1133.1-746.7-1137.3-742.6-1145.7-742.6z"/>
	<path class="st14" d="M-1175.4-767.2c8.8,0,12.9,4,12.8,12.5c-0.1,8.2-4.3,12.1-12.8,12c-8.4,0-12.5-4.1-12.5-12.3
		C-1187.9-763.2-1183.9-767.1-1175.4-767.2z"/>
	<path class="st14" d="M-858-775c8.5,0,12.4,3.8,12.4,12.2c0,8.3-4,12.2-12.5,12.3c-8.7,0-12.9-4.1-12.7-12.6
		C-870.6-771.4-866.6-775.1-858-775z"/>
</g>
<g>
	<defs>
		<rect id="SVGID_5_" x="-5061" y="-1364.8" width="1720.9" height="927.1"/>
	</defs>
	<clipPath id="SVGID_6_">
		<use xlink:href="#SVGID_5_"  style="overflow:visible;"/>
	</clipPath>
	<path class="st15" d="M-3521.9-899.3c0-151-122.4-273.5-273.5-273.5c-151,0-273.5,122.4-273.5,273.5s122.4,273.5,273.5,273.5
		C-3644.3-625.8-3521.9-748.2-3521.9-899.3"/>
	<path class="st16" d="M-3914-1002.8c-2.4,3.5-1.5,8.4,2,10.8l2.2,1.5l-50.8,74.1l-2.2-1.5c-3.5-2.4-8.4-1.5-10.8,2
		c-2.4,3.5-1.5,8.4,2,10.8l53,36.3c3.5,2.4,8.4,1.5,10.8-2c2.4-3.5,1.5-8.4-2-10.8l-2.2-1.5l8.3-12.1l221.3,151.7l33.3-48.5
		l-221.3-151.7l9.2-13.5l2.2,1.5c3.5,2.4,8.4,1.5,10.8-2c2.4-3.5,1.5-8.4-2-10.8l-53-36.3C-3906.7-1007.2-3911.6-1006.3-3914-1002.8
		"/>
	<path class="st16" d="M-3892-1016.5l48.6,33.2c12.5-18.3,37.6-23.1,56-10.6c18.3,12.5,23.1,37.6,10.6,56l48.6,33.2
		c30.8-45.1,19.2-106.9-26-137.7C-3799.4-1073.3-3861.2-1061.6-3892-1016.5"/>
</g>
<g>
	<defs>
		<rect id="SVGID_7_" x="-7347.2" y="-1364.8" width="1720.9" height="927.1"/>
	</defs>
	<clipPath id="SVGID_8_">
		<use xlink:href="#SVGID_7_"  style="overflow:visible;"/>
	</clipPath>
	<path class="st17" d="M-6081.6-1172.7c-151,0-273.5,122.4-273.5,273.5c0,151,122.4,273.5,273.5,273.5
		c151,0,273.5-122.4,273.5-273.5C-5808.1-1050.3-5930.6-1172.7-6081.6-1172.7z M-6040.5-1042.5c45.1,30.8,56.8,92.6,26,137.7
		l-48.6-33.2c12.5-18.3,7.8-43.4-10.6-55.9c-18.3-12.5-43.4-7.8-56,10.6l-48.6-33.2C-6147.4-1061.6-6085.7-1073.3-6040.5-1042.5z
		 M-5968.6-743.5l-221.3-151.7l-8.3,12.1l2.2,1.5c3.5,2.4,4.4,7.3,2,10.8c-2.4,3.5-7.3,4.4-10.8,2l-53-36.3c-3.5-2.4-4.4-7.3-2-10.8
		c2.4-3.5,7.3-4.4,10.8-2l2.2,1.5l50.8-74.1l-2.2-1.5c-3.5-2.4-4.4-7.3-2-10.8c2.4-3.5,7.3-4.4,10.8-2l53,36.3
		c3.5,2.4,4.4,7.3,2,10.8c-2.4,3.5-7.3,4.4-10.8,2l-2.2-1.5l-9.2,13.5l221.3,151.7L-5968.6-743.5z"/>
</g>
<g>
	<defs>
		<rect id="SVGID_9_" x="337.4" y="-1364.8" width="1720.9" height="927.1"/>
	</defs>
	<clipPath id="SVGID_10_">
		<use xlink:href="#SVGID_9_"  style="overflow:visible;"/>
	</clipPath>
	<path class="st18" d="M1603-1172.7c-151,0-273.5,122.4-273.5,273.5c0,151,122.4,273.5,273.5,273.5c151,0,273.5-122.4,273.5-273.5
		C1876.5-1050.3,1754.1-1172.7,1603-1172.7z M1644.1-1042.5c45.1,30.8,56.8,92.6,26,137.7l-48.6-33.2c12.5-18.3,7.8-43.4-10.6-55.9
		c-18.3-12.5-43.4-7.8-56,10.6l-48.6-33.2C1537.2-1061.6,1599-1073.3,1644.1-1042.5z M1716-743.5l-221.3-151.7l-8.3,12.1l2.2,1.5
		c3.5,2.4,4.4,7.3,2,10.8c-2.4,3.5-7.3,4.4-10.8,2l-53-36.3c-3.5-2.4-4.4-7.3-2-10.8c2.4-3.5,7.3-4.4,10.8-2l2.2,1.5l50.8-74.1
		l-2.2-1.5c-3.5-2.4-4.4-7.3-2-10.8c2.4-3.5,7.3-4.4,10.8-2l53,36.3c3.5,2.4,4.4,7.3,2,10.8c-2.4,3.5-7.3,4.4-10.8,2l-2.2-1.5
		l-9.2,13.5L1749.3-792L1716-743.5z"/>
</g>
<g>
	<path class="st19" d="M911.9-947.4c-9,0-18,0.4-26.9-1.1c-21.6-3.5-36.2-17.4-40.1-39.1c-4.4-24.6,0.1-47.5,16.1-67.1
		c28-34.2,76.6-27.8,95.4,12.2c7.4,15.7,10.1,32.5,11,49.5c0.2,3.5,1.1,4.4,4.5,4.3c11.4-0.3,22.9,0.3,34.2-1.2
		c15.6-2,21.3-8.6,20.4-24.3c-1.1-17.8-4.7-35.2-7.9-52.7c-0.6-3.4-0.5-5,3.6-5.5c7.6-0.9,15.2-2.3,22.7-3.8
		c2.8-0.5,4.1,0.1,4.5,3.1c3,21.7,7.3,43.2,7.1,65.3c-0.1,7.5-0.9,15-2.9,22.2c-6.1,21.7-21.6,32.3-42.8,36.2
		c-13.5,2.5-27.2,2.2-40.9,2c-4.2-0.1-6.5,0.7-7.8,5.3c-12.2,42.1-41.4,65.7-85.1,69.5c-10.9,1-21.7,0.5-32.6,0.9
		c-3.7,0.1-4.3-1.3-4.3-4.6c0.2-10.7,0.2-21.4,0-32c-0.1-3.9,1-5.1,5-5c15.9,0.3,31.9,0.5,47.5-3.3c16.1-3.9,30.4-10.6,39.3-25.6
		c0.8-1.4,2.5-2.8,1.6-4.5c-0.8-1.4-2.7-0.6-4.2-0.6C923.5-947.4,917.7-947.4,911.9-947.4z M913.5-988.8c7.9,0,14.5-0.1,21,0.1
		c2.8,0.1,4-0.6,3.9-3.7c-0.2-9.5-2-18.5-7-26.8c-11.7-19.5-41.8-21.9-54.5-4.3c-11,15.2-4.5,31.1,13.8,34.1
		C898.8-988.1,906.8-989.1,913.5-988.8z"/>
	<path class="st19" d="M674.4-986.5c-1.3,4.1-2.4,8.1-3.7,12c-5.5,15.7-16.4,24.3-33,26.3c-7.7,0.9-15.3,0.7-23,0.6
		c-3.4,0-4.8,0.8-5.3,4.4c-2.6,15.9-7.9,30.8-18.3,43.5c-16,19.6-37.7,26.7-62,27.7c-3.7,0.2-7.5-0.2-11.2,0.1
		c-4.2,0.4-4.9-1.3-4.8-5.1c0.2-10.3,0.3-20.6,0-30.9c-0.1-4.3,0.9-5.9,5.5-5.6c8.4,0.5,16.9,0.3,25.2-1.4
		c23.1-4.5,35.3-18.9,37.1-43.5c1.3-18.5-2.1-36.6-5-54.7c-1.3-7.9-2.6-15.9-4-23.8c-0.5-3-0.3-4.7,3.5-5.2
		c7.8-0.9,15.5-2.4,23.3-3.8c2.4-0.4,3.3,0.2,3.7,2.6c2.8,16.8,6,33.5,7.7,50.5c0.2,1.8-0.3,3.9,2.7,3.8c13.8-0.4,27.8,1.1,41.5-0.8
		c11.7-1.7,17.6-8.3,17.9-20.1c0.3-14.6,0.2-29.2,0.1-43.8c0-3.8,0.7-5.3,4.9-5.1c7.3,0.3,14.6,0.3,21.9,0c3.4-0.1,4.5,0.9,4.4,4.4
		c-0.2,13.9-0.1,27.7-0.1,41.6c0.1,16.6,7.4,23.9,24.2,23.9c11.2,0,22.5,0.7,33.7-1c2.6-0.4,5.2-0.8,7.7-1.5
		c9.6-2.8,13.6-7.9,13.6-18c0-14.7-2.8-29-5.3-43.4c-0.8-4.8-1.6-9.6-2.7-14.3c-0.8-3.6,0.3-4.9,4-5.3c7.6-0.9,15.1-2.4,22.7-3.7
		c2-0.3,3.6-0.6,4,2.2c3.6,25.9,9.7,51.6,6.4,78.1c-3.1,25.2-16.4,40.2-41.2,45.5c-19.2,4.2-38.7,4.3-58.1,1.1
		c-19.3-3.2-30.7-15.1-35.7-33.7C676-984.1,676.4-985.6,674.4-986.5z"/>
	<path class="st19" d="M1134.5-694.7c-2.5,12.1-7.7,21.9-21.5,23.7c-14.6,1.9-27.2-1.1-36.5-14.7c0,4-0.1,7.9,0,11.9
		c0.1,2.3-0.5,3.4-3.1,3.4c-9.2-0.2-18.4,0.3-27.5-0.4c-12.9-0.9-23.3-6.4-29.2-18.6c-0.7,0.4-1.2,0.6-1.3,0.8
		c-6.6,15.4-10.6,18.3-27.7,18c-4.6-0.1-6.5,1-7.6,5.9c-6.7,29.3-25.8,43.1-56.3,41.7c-3.2-0.1-3.7-1.3-3.6-4c0.2-6,0.2-12,0-18
		c-0.1-3.1,0.8-4.4,4.1-4.1c2.8,0.3,5.6,0.1,8.4,0c19.8-1.1,30-11.7,30.3-31.5c0.2-13.9-2.9-27.5-5.1-41.2c-1.2-7.3-1.3-7.3,6.1-8.7
		c11.8-2.2,11.9-2.2,13.9,10c1.2,6.8,2.2,13.7,3.1,20.5c0.3,2,0.1,3.7,3,3.6c9.2-0.3,18.4,0.4,27.5-0.8c2.3-0.3,3.1-0.9,2.9-3.5
		c-1-13.2,4.8-23.5,14.2-32.1c7.1-6.5,15.2-11.7,23.8-15.7c7.2-3.3,15.5-1,23.3-1.1c2.3,0,2.3,2.7,2.9,4.3
		c4.7,12.2,9.1,24.5,13.8,36.7c3.8,10,7.1,12.2,17.6,12c4.1-0.1,8.2,0.4,12.3-0.5c7-1.6,10.3-5.2,10.6-12.5
		c0.2-5.8,0.1-11.6,0.1-17.4c0-28.3,0.1-56.6-0.1-84.9c0-4.2,1.1-5.7,5.3-5.3c3.7,0.4,7.5,0.4,11.2,0c4-0.4,4.9,1.1,4.9,5
		c-0.2,32.6-0.1,65.2-0.1,97.8c0,14.1,3.9,17.9,18.1,17.8c3.7,0,7.5,0.1,11.2-0.1c8.6-0.5,12.1-4.1,12.3-12.7c0.1-5.1,0-10.1,0-15.2
		c0-28.9,0.1-57.7-0.1-86.6c0-4.4,0.7-6.6,5.7-6c5,0.6,11.5-2,14.6,1c3.1,3.1,0.9,9.6,0.9,14.6c0.1,30.4,0,60.7,0.1,91.1
		c0,6.4-0.6,12.7-2.4,18.9c-3.1,11-10.3,17.7-21.4,19.8c-11.1,2-22.4,1.9-33.6,0.2c-11.5-1.8-19.5-8-23.2-19.3
		C1136.3-692,1136.7-693.9,1134.5-694.7z M1072.8-696.3c-3.8-10.1-7.3-19.5-10.8-28.9c-0.5-1.2-1.3-2-2.5-1.4
		c-8.9,4.3-18.8,6.7-25.8,14.2c-5.4,5.9-3.1,13.3,4.8,14.9C1049.5-695.1,1060.7-696.9,1072.8-696.3z"/>
	<path class="st19" d="M1084.8-1089.7c0-28.5,0.1-57-0.1-85.4c0-4.3,0.8-6,5.5-5.7c7.5,0.4,15,0.4,22.5,0c4.7-0.2,6,1.2,5.9,5.9
		c-0.2,53.2-0.1,106.4-0.1,159.6c0,3.7,0.3,7.5,0.8,11.2c1.1,8,5.6,13.2,13.6,14.2c16.4,2.1,32.9,2.3,49.2-1
		c11.8-2.4,16.2-8.2,15.8-20.2c-0.5-17.5-4.1-34.5-7.2-51.7c-1.6-9.1-1.7-9,7.4-10.3c6.1-0.9,12.2-1.9,18.3-3.1
		c2.8-0.5,3.9,0.1,4.3,3.2c2.8,18.5,6,37,7.1,55.7c0.5,7.5,0.3,15-0.9,22.4c-4,25.8-17.5,40.2-43.1,45.1c-19.1,3.6-38.4,4-57.6,0.6
		c-25.5-4.4-38.7-19.6-40.7-45.6c-1.7-22.6-0.4-45.3-0.8-68C1084.7-1071.7,1084.8-1080.7,1084.8-1089.7z"/>
	<path class="st19" d="M661.1-696.4c15.3-0.1,30.7,0.5,46-2.1c12.6-2.1,15.5-6,14.4-18.4c-0.8-9-2.6-17.8-4.4-26.6
		c-0.7-3.4-0.9-5.8,3.8-5.9c4.9-0.1,11.1-4.1,14.4-1c2.8,2.6,2.1,9.1,2.8,13.9c1.3,8.5,2.6,17,2.6,25.7c0.2,23.2-8.5,34.8-31.1,38.8
		c-30.3,5.4-60.7,5.5-91.1,0.4c-1.7-0.3-3.3-0.7-4.9-1.1c-21.9-5.9-32-20.2-30.2-42.8c0.8-10,3.2-19.5,6.5-28.9c1-3,2.2-4.3,5.6-2.9
		c3.9,1.7,9.8,1.1,11.7,4.3c1.7,2.9-2.5,7.2-3.5,11.2c-0.7,2.9-1.6,5.8-2.1,8.7c-2.3,12,2.6,20.1,14.4,23.4
		C630.7-695.6,646-696.5,661.1-696.4z"/>
	<path class="st19" d="M832.3-670.5c-4.5-0.3-10.7,0.6-16.8-0.5c-11.2-2-17.1-8.2-18.7-19.4c-0.1-0.9-0.2-1.9-0.2-2.8
		c-0.9-17.6-0.9-17.5,16.6-16.8c3.1,0.1,3.6,1.2,3.7,3.9c0.2,9.6,0.3,9.6,10.2,9.6c7.1,0,14.2,0.2,21.4,0c13-0.4,17.8-9.5,11.1-20.8
		c-3.8-6.3-9.1-11.4-14.2-16.6c-6.8-6.8-13.5-13.6-20.5-20c-2.9-2.6-2.5-4.2,0-6.7c4.3-4.2,8.3-8.7,12.4-13c1.3-1.4,2.4-2.9,4.4-0.6
		c10.9,11.9,23.1,22.5,31.7,36.3c8,12.9,10.4,26.8,7.2,41.5c-3.4,15.5-15.7,25.1-32.5,25.8C843.4-670.3,838.7-670.5,832.3-670.5z"/>
	<path class="st19" d="M758.3-744.7c0-22.7,0.1-45.3-0.1-68c0-4.2,0.9-5.6,5.2-5.2c5.2,0.5,12.2-1.7,15.2,1c3.5,3.1,1,10.2,1.1,15.5
		c0.1,41.7,0,83.5,0.2,125.2c0,4.7-1,6.3-5.8,5.8c-5-0.5-11.7,1.6-14.6-0.9c-3.3-3-1-9.8-1-15C758.3-705.7,758.3-725.2,758.3-744.7z
		"/>
	<path class="st19" d="M921.4-743.5c0,22.7-0.1,45.3,0.1,68c0,4.2-1,5.6-5.2,5.2c-5.2-0.5-12,1.6-15.2-1c-3.4-2.7-1-9.8-1-15
		c-0.1-41.9,0-83.9-0.2-125.8c0-4.7,1.1-6.2,5.8-5.8c5,0.5,11.7-1.6,14.6,1c3.3,3,1,9.8,1,15C921.5-782.4,921.4-763,921.4-743.5z"/>
	<path class="st19" d="M1050.5-880.9c-13.4,0-19.8-6.3-19.9-19.3c0-13.5,6.5-19.8,20.6-19.7c13.2,0,19.6,6.5,19.6,19.6
		C1070.9-887.1,1064.4-880.9,1050.5-880.9z"/>
	<path class="st19" d="M711.1-880.9c-13.6,0-20-6.1-20.1-19.2c-0.1-13.5,6.3-19.8,20.1-19.8c13.7,0,20.2,6.4,20.1,19.8
		C731.1-887,724.7-880.9,711.1-880.9z"/>
	<path class="st19" d="M1003.6-880.9c-13.5,0-19.9-6.3-19.9-19.4c0-13.4,6.5-19.6,20.3-19.6c13.7,0,19.9,6.3,19.8,20
		C1023.7-886.9,1017.4-880.9,1003.6-880.9z"/>
	<path class="st19" d="M1198.2-880.9c-13.4,0-19.7-6.3-19.6-19.6c0.1-13.5,6.4-19.4,20.4-19.4c13.4,0,19.5,6.2,19.5,19.6
		C1218.5-886.7,1212.3-880.9,1198.2-880.9z"/>
	<path class="st19" d="M784.3-1105.7c-13.6,0-19.9-6.1-19.9-19.2c0-13.4,6.3-19.6,20.2-19.5c13.8,0,19.9,6.2,19.8,19.8
		C804.4-1111.5,798.1-1105.7,784.3-1105.7z"/>
	<path class="st19" d="M663.7-880.9c-13.3,0-19.9-6.5-19.8-19.5c0.1-13.3,6.6-19.5,20.4-19.5c13.4,0,19.7,6.3,19.7,19.6
		C684.1-887,677.7-880.9,663.7-880.9z"/>
	<path class="st19" d="M675.8-742.6c-8.5,0-12.6-4-12.7-12.1c-0.1-8.3,4-12.4,12.4-12.4c8.9-0.1,13,3.9,13,12.3
		C688.4-746.7,684.2-742.6,675.8-742.6z"/>
	<path class="st19" d="M646-767.2c8.8,0,12.9,4,12.8,12.5c-0.1,8.2-4.3,12.1-12.8,12c-8.4,0-12.5-4.1-12.5-12.3
		C633.6-763.2,637.6-767.1,646-767.2z"/>
	<path class="st19" d="M963.5-775c8.5,0,12.4,3.8,12.4,12.2c0,8.3-4,12.2-12.5,12.3c-8.7,0-12.9-4.1-12.7-12.6
		C950.9-771.4,954.8-775.1,963.5-775z"/>
</g>
<g>
	<g>
		<path class="st14" d="M3357.4-699.3h-112.8l-18.5,40.7H3182l96.8-215.7h44.4l96.8,215.7h-44.4L3357.4-699.3z M3301-829.1
			l-40.1,91.8h80.1L3301-829.1z"/>
		<path class="st14" d="M3470.8-810.6v79.5c0,23.1,12.6,40.7,36.7,40.7c23.1,0,38.8-19.4,38.8-42.5v-77.7h37.3v152.2H3550l-2.5-20.6
			c-15.7,15.4-30.2,22.8-51.5,22.8c-36.4,0-62.9-27.4-62.9-74.6v-79.8H3470.8z"/>
	</g>
	<g>
		<path class="st14" d="M3753.4-678.1c-17.6,17.3-36.1,24-58.6,24c-44.1,0-80.7-26.5-80.7-80.4s36.7-80.4,80.7-80.4
			c21.6,0,38.2,6.2,54.9,22.5l-23.7,25c-8.9-8-20-12-30.5-12c-25.3,0-43.8,18.5-43.8,45c0,29,19.7,44.4,43.1,44.4
			c12,0,24-3.4,33.3-12.6L3753.4-678.1z"/>
	</g>
	<g>
		<g>
			<g>
				<path class="st14" d="M3293.6-993.9h-61v63.5h-40.7v-215.7c33.9,0,67.8-0.3,101.7-0.3C3399-1146.5,3399.3-993.9,3293.6-993.9z
					 M3232.5-1031.2h61c52.1,0,51.8-76.4,0-76.4h-61V-1031.2z"/>
			</g>
			<g>
				<path class="st14" d="M3443.9-1125.2c0,29.3-44.4,29.3-44.4,0S3443.9-1154.5,3443.9-1125.2z M3403-1083v152.5h37.6V-1083H3403z"
					/>
			</g>
			<g>
				<path class="st14" d="M3629.5-1006.3c0,43.8-29.9,79.2-79.2,79.2c-49.3,0-78.9-35.4-78.9-79.2c0-43.5,30.2-79.2,78.6-79.2
					S3629.5-1049.7,3629.5-1006.3z M3509-1006.3c0,23.1,13.9,44.7,41.3,44.7c27.4,0,41.3-21.6,41.3-44.7c0-22.8-16-45-41.3-45
					C3523.2-1051.3,3509-1029.1,3509-1006.3z"/>
			</g>
			<g>
				<path class="st14" d="M3773.1-930.5v-79.5c0-23.1-12.6-40.7-36.7-40.7c-23.1,0-38.8,19.4-38.8,42.5v77.7h-37.3v-152.2h33.6
					l2.5,20.6c15.4-15.1,30.8-22.8,49.9-22.8c35.7,0,64.4,26.8,64.4,74.6v79.8H3773.1z"/>
			</g>
			<g>
				<path class="st14" d="M3881.3-993c2.5,18.8,18.8,32.4,45.3,32.4c13.9,0,32.1-5.2,40.7-14.2l24,23.7
					c-16,16.6-42.2,24.7-65.3,24.7c-52.4,0-83.5-32.4-83.5-81.1c0-46.2,31.4-79.5,80.7-79.5c50.8,0,82.6,31.4,76.7,94H3881.3z
					 M3963.8-1024.1c-2.5-19.7-17.9-29.6-39.4-29.6c-20.3,0-37,9.9-42.5,29.6H3963.8z"/>
			</g>
			<g>
				<path class="st14" d="M4067.7-993c2.5,18.8,18.8,32.4,45.3,32.4c13.9,0,32.1-5.2,40.7-14.2l24,23.7
					c-16,16.6-42.2,24.7-65.3,24.7c-52.4,0-83.5-32.4-83.5-81.1c0-46.2,31.4-79.5,80.7-79.5c50.8,0,82.6,31.4,76.7,94H4067.7z
					 M4150.3-1024.1c-2.5-19.7-17.9-29.6-39.4-29.6c-20.3,0-37,9.9-42.5,29.6H4150.3z"/>
			</g>
			<g>
				<path class="st14" d="M4252-1082.4l2.8,17.6c11.7-18.8,27.4-21.6,42.8-21.6c15.7,0,30.8,6.2,39.1,14.5l-16.9,32.7
					c-7.7-6.5-14.8-9.9-27.1-9.9c-19.7,0-37.9,10.5-37.9,38.5v80.1h-37.6v-151.9H4252z"/>
			</g>
			<g>
				<path class="st14" d="M3944.4-853.4c0,29.3-44.4,29.3-44.4,0S3944.4-882.7,3944.4-853.4z M3903.4-811.2v152.5h37.6v-152.5
					H3903.4z"/>
			</g>
		</g>
		<g>
			<g>
				<path class="st14" d="M3827.3-853.4v43.1h41.9v32.4H3827v65.6c0,14.5,8,21.6,19.7,21.6c5.9,0,12.6-1.8,18.2-4.6l10.5,32.1
					c-10.8,4.3-19.7,6.2-31.1,6.5c-33,1.2-54.5-17.6-54.5-55.5v-65.6h-28.4v-32.4h28.4v-39.1L3827.3-853.4z"/>
			</g>
			<g>
				<path class="st14" d="M4130.9-734.5c0,43.8-29.9,79.2-79.2,79.2c-49.3,0-78.9-35.4-78.9-79.2c0-43.5,30.2-79.2,78.6-79.2
					C4099.8-813.7,4130.9-777.9,4130.9-734.5z M4010.4-734.5c0,23.1,13.9,44.7,41.3,44.7c27.4,0,41.3-21.6,41.3-44.7
					c0-22.8-16-45-41.3-45C4024.6-779.5,4010.4-757.3,4010.4-734.5z"/>
				<path class="st14" d="M4274.8-658.6v-79.5c0-23.1-12.6-40.7-36.7-40.7c-23.1,0-38.8,19.4-38.8,42.5v77.7H4162v-152.2h33.6
					l2.5,20.6c15.4-15.1,30.8-22.8,49.9-22.8c35.7,0,64.4,26.8,64.4,74.6v79.8H4274.8z"/>
				<path class="st14" d="M4449.8-770.2c-10.8-10.2-23.1-13.6-37.6-13.6c-17.9,0-27.7,5.5-27.7,15.1c0,9.9,8.9,15.4,28.4,16.6
					c28.7,1.8,65,8.3,65,48.7c0,26.8-21.9,49.9-65.3,49.9c-24,0-48.1-4-70.3-27.1l18.5-26.8c10.8,12,35.4,21,52.4,21.3
					c14.2,0.3,27.4-7.1,27.4-18.2c0-10.5-8.6-14.8-30.2-16c-28.7-2.2-62.9-12.6-62.9-47.2c0-35.1,36.4-47.5,64.1-47.5
					c23.7,0,41.6,4.6,59.2,20L4449.8-770.2z"/>
			</g>
		</g>
	</g>
</g>
<g>
	<defs>
		<rect id="SVGID_11_" x="2233.8" y="-1459.6" width="2528" height="1111.2"/>
	</defs>
	<clipPath id="SVGID_12_">
		<use xlink:href="#SVGID_11_"  style="overflow:visible;"/>
	</clipPath>
	<path class="st20" d="M3055-903.5c0-148.6-120.5-269.1-269.1-269.1c-148.6,0-269.1,120.5-269.1,269.1s120.5,269.1,269.1,269.1
		C2934.5-634.4,3055-754.9,3055-903.5"/>
	<path class="st21" d="M2669.1-1005.4c-2.4,3.5-1.5,8.2,2,10.6l2.1,1.5l-50,72.9l-2.1-1.5c-3.5-2.4-8.2-1.5-10.6,2
		c-2.4,3.5-1.5,8.2,2,10.6l52.1,35.8c3.5,2.4,8.2,1.5,10.6-2c2.4-3.5,1.5-8.2-2-10.6l-2.1-1.5l8.2-11.9l217.8,149.3l32.7-47.7
		L2712-947.2l9.1-13.3l2.1,1.5c3.5,2.4,8.2,1.5,10.6-2c2.4-3.5,1.5-8.2-2-10.6l-52.1-35.8
		C2676.3-1009.7,2671.5-1008.8,2669.1-1005.4"/>
	<path class="st21" d="M2690.8-1018.9l47.8,32.6c12.3-18,37-22.7,55.1-10.4c18,12.3,22.7,37,10.4,55.1l47.8,32.6
		c30.3-44.4,18.9-105.2-25.6-135.5C2781.9-1074.8,2721.1-1063.3,2690.8-1018.9"/>
</g>
<g>
	<path class="st0" d="M3287.8,207.2h-60.7v63.2h-40.5V55.7c33.7,0,67.5-0.3,101.2-0.3C3392.7,55.4,3393.1,207.2,3287.8,207.2z
		 M3227.1,170.1h60.7c51.8,0,51.5-76.1,0-76.1h-60.7V170.1z"/>
</g>
<g>
	<path class="st0" d="M3437.5,76.5c0,29.1-44.2,29.1-44.2,0S3437.5,47.4,3437.5,76.5z M3396.7,118.5v151.8h37.4V118.5H3396.7z"/>
</g>
<g>
	<path class="st0" d="M3622.2,194.9c0,43.6-29.8,78.8-78.8,78.8s-78.5-35.3-78.5-78.8c0-43.2,30.1-78.8,78.2-78.8
		C3591.2,116.1,3622.2,151.7,3622.2,194.9z M3502.2,194.9c0,23,13.8,44.5,41.1,44.5c27.3,0,41.1-21.5,41.1-44.5
		c0-22.7-16-44.8-41.1-44.8C3516.4,150.1,3502.2,172.2,3502.2,194.9z"/>
</g>
<g>
	<path class="st0" d="M3765.1,270.4v-79.1c0-23-12.6-40.5-36.5-40.5c-23,0-38.6,19.3-38.6,42.3v77.3h-37.1V118.9h33.4l2.5,20.6
		c15.3-15,30.7-22.7,49.7-22.7c35.6,0,64.1,26.7,64.1,74.2v79.4H3765.1z"/>
</g>
<g>
	<path class="st0" d="M3872.8,208.1c2.5,18.7,18.7,32.2,45.1,32.2c13.8,0,31.9-5.2,40.5-14.1l23.9,23.6c-16,16.6-42,24.5-65,24.5
		c-52.1,0-83.1-32.2-83.1-80.7c0-46,31.3-79.1,80.4-79.1c50.6,0,82.2,31.3,76.4,93.6H3872.8z M3955,177.1
		c-2.5-19.6-17.8-29.4-39.3-29.4c-20.2,0-36.8,9.8-42.3,29.4H3955z"/>
</g>
<g>
	<path class="st0" d="M4058.4,208.1c2.5,18.7,18.7,32.2,45.1,32.2c13.8,0,31.9-5.2,40.5-14.1l23.9,23.6c-16,16.6-42,24.5-65,24.5
		c-52.1,0-83.1-32.2-83.1-80.7c0-46,31.3-79.1,80.4-79.1c50.6,0,82.2,31.3,76.4,93.6H4058.4z M4140.6,177.1
		c-2.5-19.6-17.8-29.4-39.3-29.4c-20.2,0-36.8,9.8-42.3,29.4H4140.6z"/>
</g>
<g>
	<path class="st0" d="M4241.8,119.2l2.8,17.5c11.7-18.7,27.3-21.5,42.6-21.5c15.6,0,30.7,6.1,39,14.4l-16.9,32.5
		c-7.7-6.4-14.7-9.8-27-9.8c-19.6,0-37.7,10.4-37.7,38.3v79.8h-37.4V119.2H4241.8z"/>
</g>
<g>
	<path class="st0" d="M3351.3,500.4h-112.3l-18.4,40.5h-43.9l96.3-214.7h44.2l96.3,214.7h-44.2L3351.3,500.4z M3295.2,371.3
		l-39.9,91.4h79.8L3295.2,371.3z"/>
	<path class="st0" d="M3464.2,389.7v79.1c0,23,12.6,40.5,36.5,40.5c23,0,38.6-19.3,38.6-42.3v-77.3h37.1v151.5H3543l-2.5-20.6
		c-15.6,15.3-30.1,22.7-51.2,22.7c-36.2,0-62.6-27.3-62.6-74.2v-79.4H3464.2z"/>
</g>
<g>
	<path class="st0" d="M3745.5,521.6c-17.5,17.2-35.9,23.9-58.3,23.9c-43.9,0-80.4-26.4-80.4-80.1s36.5-80.1,80.4-80.1
		c21.5,0,38,6.1,54.6,22.4l-23.6,24.8c-8.9-8-19.9-12-30.4-12c-25.2,0-43.6,18.4-43.6,44.8c0,28.8,19.6,44.2,42.9,44.2
		c12,0,23.9-3.4,33.1-12.6L3745.5,521.6z"/>
</g>
<g>
	<path class="st0" d="M3819.1,347.1V390h41.7v32.2h-42v65.3c0,14.4,8,21.5,19.6,21.5c5.8,0,12.6-1.8,18.1-4.6l10.4,31.9
		c-10.7,4.3-19.6,6.1-31,6.4c-32.8,1.2-54.3-17.5-54.3-55.2v-65.3h-28.2V390h28.2v-39L3819.1,347.1z"/>
</g>
<g>
	<path class="st0" d="M3935.7,347.1c0,29.1-44.2,29.1-44.2,0S3935.7,317.9,3935.7,347.1z M3894.9,389.1v151.8h37.4V389.1H3894.9z"/>
</g>
<g>
	<path class="st0" d="M4121.2,465.5c0,43.6-29.8,78.8-78.8,78.8s-78.5-35.3-78.5-78.8c0-43.2,30.1-78.8,78.2-78.8
		C4090.3,386.6,4121.2,422.2,4121.2,465.5z M4001.3,465.5c0,23,13.8,44.5,41.1,44.5c27.3,0,41.1-21.5,41.1-44.5
		c0-22.7-16-44.8-41.1-44.8C4015.4,420.7,4001.3,442.8,4001.3,465.5z"/>
	<path class="st0" d="M4264.5,540.9v-79.1c0-23-12.6-40.5-36.5-40.5c-23,0-38.6,19.3-38.6,42.3v77.3h-37.1V389.4h33.4l2.5,20.6
		c15.3-15,30.7-22.7,49.7-22.7c35.6,0,64.1,26.7,64.1,74.2v79.4H4264.5z"/>
	<path class="st0" d="M4438.7,429.9c-10.7-10.1-23-13.5-37.4-13.5c-17.8,0-27.6,5.5-27.6,15c0,9.8,8.9,15.3,28.2,16.6
		c28.5,1.8,64.7,8.3,64.7,48.5c0,26.7-21.8,49.7-65,49.7c-23.9,0-47.9-4-69.9-27l18.4-26.7c10.7,12,35.3,20.9,52.1,21.2
		c14.1,0.3,27.3-7.1,27.3-18.1c0-10.4-8.6-14.7-30.1-16c-28.5-2.1-62.6-12.6-62.6-46.9c0-35,36.2-47.2,63.8-47.2
		c23.6,0,41.4,4.6,58.9,19.9L4438.7,429.9z"/>
</g>
<g>
	<defs>
		<rect id="SVGID_13_" x="2233.1" y="-256.3" width="2516.2" height="1106"/>
	</defs>
	<clipPath id="SVGID_14_">
		<use xlink:href="#SVGID_13_"  style="overflow:visible;"/>
	</clipPath>
	<path class="st22" d="M3050.4,297.2c0-147.9-119.9-267.9-267.9-267.9s-267.9,119.9-267.9,267.9s119.9,267.9,267.9,267.9
		S3050.4,445.2,3050.4,297.2"/>
	<path class="st23" d="M2666.4,195.8c-2.4,3.4-1.5,8.2,2,10.5l2.1,1.5l-49.8,72.6l-2.1-1.5c-3.4-2.4-8.2-1.5-10.5,2
		c-2.4,3.4-1.5,8.2,2,10.5l51.9,35.6c3.4,2.4,8.2,1.5,10.5-2c2.4-3.4,1.5-8.2-2-10.5l-2.1-1.5l8.1-11.9l216.7,148.6l32.6-47.5
		L2709,253.7l9-13.2l2.1,1.5c3.4,2.4,8.2,1.5,10.5-2s1.5-8.2-2-10.5l-51.9-35.6C2673.5,191.5,2668.7,192.4,2666.4,195.8"/>
	<path class="st23" d="M2687.9,182.4l47.6,32.5c12.3-18,36.8-22.6,54.8-10.3c18,12.3,22.6,36.8,10.3,54.8l47.6,32.5
		c30.2-44.2,18.8-104.7-25.4-134.9C2778.5,126.8,2718,138.2,2687.9,182.4"/>
</g>
<g>
	<g>
		<path class="st19" d="M798.3,207.2h-60.7v63.2h-40.5V55.7c33.7,0,67.5-0.3,101.2-0.3C903.2,55.4,903.5,207.2,798.3,207.2z
			 M737.6,170.1h60.7c51.8,0,51.5-76.1,0-76.1h-60.7V170.1z"/>
	</g>
	<g>
		<path class="st19" d="M948,76.5c0,29.1-44.2,29.1-44.2,0S948,47.4,948,76.5z M907.2,118.5v151.8h37.4V118.5H907.2z"/>
	</g>
	<g>
		<path class="st19" d="M1132.7,194.9c0,43.6-29.8,78.8-78.8,78.8s-78.5-35.3-78.5-78.8c0-43.2,30.1-78.8,78.2-78.8
			C1101.7,116.1,1132.7,151.7,1132.7,194.9z M1012.7,194.9c0,23,13.8,44.5,41.1,44.5c27.3,0,41.1-21.5,41.1-44.5
			c0-22.7-16-44.8-41.1-44.8C1026.9,150.1,1012.7,172.2,1012.7,194.9z"/>
	</g>
	<g>
		<path class="st19" d="M1275.6,270.4v-79.1c0-23-12.6-40.5-36.5-40.5c-23,0-38.6,19.3-38.6,42.3v77.3h-37.1V118.9h33.4l2.5,20.6
			c15.3-15,30.7-22.7,49.7-22.7c35.6,0,64.1,26.7,64.1,74.2v79.4H1275.6z"/>
	</g>
	<g>
		<path class="st19" d="M1383.3,208.1c2.5,18.7,18.7,32.2,45.1,32.2c13.8,0,31.9-5.2,40.5-14.1l23.9,23.6c-16,16.6-42,24.5-65,24.5
			c-52.1,0-83.1-32.2-83.1-80.7c0-46,31.3-79.1,80.4-79.1c50.6,0,82.2,31.3,76.4,93.6H1383.3z M1465.5,177.1
			c-2.5-19.6-17.8-29.4-39.3-29.4c-20.2,0-36.8,9.8-42.3,29.4H1465.5z"/>
	</g>
	<g>
		<path class="st19" d="M1568.9,208.1c2.5,18.7,18.7,32.2,45.1,32.2c13.8,0,31.9-5.2,40.5-14.1l23.9,23.6c-16,16.6-42,24.5-65,24.5
			c-52.1,0-83.1-32.2-83.1-80.7c0-46,31.3-79.1,80.4-79.1c50.6,0,82.2,31.3,76.4,93.6H1568.9z M1651.1,177.1
			c-2.5-19.6-17.8-29.4-39.3-29.4c-20.2,0-36.8,9.8-42.3,29.4H1651.1z"/>
	</g>
	<g>
		<path class="st19" d="M1752.3,119.2l2.8,17.5c11.7-18.7,27.3-21.5,42.6-21.5c15.6,0,30.7,6.1,39,14.4l-16.9,32.5
			c-7.7-6.4-14.7-9.8-27-9.8c-19.6,0-37.7,10.4-37.7,38.3v79.8h-37.4V119.2H1752.3z"/>
	</g>
	<g>
		<path class="st19" d="M861.8,500.4H749.6l-18.4,40.5h-43.9l96.3-214.7h44.2l96.3,214.7h-44.2L861.8,500.4z M805.7,371.3
			l-39.9,91.4h79.8L805.7,371.3z"/>
		<path class="st19" d="M974.7,389.7v79.1c0,23,12.6,40.5,36.5,40.5c23,0,38.6-19.3,38.6-42.3v-77.3h37.1v151.5h-33.4l-2.5-20.6
			c-15.6,15.3-30.1,22.7-51.2,22.7c-36.2,0-62.6-27.3-62.6-74.2v-79.4H974.7z"/>
	</g>
	<g>
		<path class="st19" d="M1256,521.6c-17.5,17.2-35.9,23.9-58.3,23.9c-43.9,0-80.4-26.4-80.4-80.1s36.5-80.1,80.4-80.1
			c21.5,0,38,6.1,54.6,22.4l-23.6,24.8c-8.9-8-19.9-12-30.4-12c-25.2,0-43.6,18.4-43.6,44.8c0,28.8,19.6,44.2,42.9,44.2
			c12,0,23.9-3.4,33.1-12.6L1256,521.6z"/>
	</g>
	<g>
		<path class="st19" d="M1329.6,347.1V390h41.7v32.2h-42v65.3c0,14.4,8,21.5,19.6,21.5c5.8,0,12.6-1.8,18.1-4.6l10.4,31.9
			c-10.7,4.3-19.6,6.1-31,6.4c-32.8,1.2-54.3-17.5-54.3-55.2v-65.3H1264V390h28.2v-39L1329.6,347.1z"/>
	</g>
	<g>
		<path class="st19" d="M1446.2,347.1c0,29.1-44.2,29.1-44.2,0S1446.2,317.9,1446.2,347.1z M1405.4,389.1v151.8h37.4V389.1H1405.4z"
			/>
	</g>
	<g>
		<path class="st19" d="M1631.7,465.5c0,43.6-29.8,78.8-78.8,78.8s-78.5-35.3-78.5-78.8c0-43.2,30.1-78.8,78.2-78.8
			C1600.8,386.6,1631.7,422.2,1631.7,465.5z M1511.8,465.5c0,23,13.8,44.5,41.1,44.5c27.3,0,41.1-21.5,41.1-44.5
			c0-22.7-16-44.8-41.1-44.8C1525.9,420.7,1511.8,442.8,1511.8,465.5z"/>
		<path class="st19" d="M1775,540.9v-79.1c0-23-12.6-40.5-36.5-40.5c-23,0-38.6,19.3-38.6,42.3v77.3h-37.1V389.4h33.4l2.5,20.6
			c15.3-15,30.7-22.7,49.7-22.7c35.6,0,64.1,26.7,64.1,74.2v79.4H1775z"/>
		<path class="st19" d="M1949.2,429.9c-10.7-10.1-23-13.5-37.4-13.5c-17.8,0-27.6,5.5-27.6,15c0,9.8,8.9,15.3,28.2,16.6
			c28.5,1.8,64.7,8.3,64.7,48.5c0,26.7-21.8,49.7-65,49.7c-23.9,0-47.9-4-69.9-27l18.4-26.7c10.7,12,35.3,20.9,52.1,21.2
			c14.1,0.3,27.3-7.1,27.3-18.1c0-10.4-8.6-14.7-30.1-16c-28.5-2.1-62.6-12.6-62.6-46.9c0-35,36.2-47.2,63.8-47.2
			c23.6,0,41.4,4.6,58.9,19.9L1949.2,429.9z"/>
	</g>
</g>
<g>
	<defs>
		<rect id="SVGID_15_" x="-256.4" y="-256.3" width="2516.2" height="1106"/>
	</defs>
	<clipPath id="SVGID_16_">
		<use xlink:href="#SVGID_15_"  style="overflow:visible;"/>
	</clipPath>
	<path class="st24" d="M293,29.3c-147.9,0-267.9,119.9-267.9,267.9S145.1,565.1,293,565.1c147.9,0,267.9-119.9,267.9-267.9
		S440.9,29.3,293,29.3z M333.2,156.9c44.2,30.2,55.6,90.7,25.4,134.9l-47.6-32.5c12.3-18,7.6-42.5-10.3-54.8
		c-18-12.3-42.5-7.6-54.8,10.3l-47.6-32.5C228.5,138.2,289,126.8,333.2,156.9z M403.7,449.8L187,301.2l-8.1,11.9l2.1,1.5
		c3.4,2.4,4.3,7.1,2,10.5c-2.4,3.4-7.1,4.3-10.5,2l-51.9-35.6c-3.4-2.4-4.3-7.1-2-10.5c2.4-3.4,7.1-4.3,10.5-2l2.1,1.5l49.8-72.6
		l-2.1-1.5c-3.4-2.4-4.3-7.1-2-10.5c2.4-3.4,7.1-4.3,10.5-2l51.9,35.6c3.4,2.4,4.3,7.1,2,10.5c-2.4,3.4-7.1,4.3-10.5,2l-2.1-1.5
		l-9,13.2l216.7,148.6L403.7,449.8z"/>
</g>
</svg>
