<?xml version="1.0" encoding="utf-8"?>
<!-- Generator: Adobe Illustrator 19.0.0, SVG Export Plug-In . SVG Version: 6.00 Build 0)  -->
<svg version="1.1" id="Layer_1" xmlns="http://www.w3.org/2000/svg" xmlns:xlink="http://www.w3.org/1999/xlink" x="0px" y="0px"
	 viewBox="0 0 1400.9 589.4" style="enable-background:new 0 0 1400.9 589.4;" xml:space="preserve">
<style type="text/css">
	.st0{fill:#5C02B5;}
	.st1{clip-path:url(#SVGID_2_);fill:#5C02B5;}
	.st2{clip-path:url(#SVGID_2_);fill:#FA8500;}
	.st3{fill:#5D04B5;}
	.st4{fill:#5E05B5;}
	.st5{fill:#5D05B5;}
	.st6{fill:#5C02B4;}
	.st7{fill:#5F07B6;}
	.st8{fill:#5F06B6;}
	.st9{fill:#5E06B5;}
	.st10{fill:#6009B6;}
	.st11{fill:#5F08B6;}
	.st12{clip-path:url(#SVGID_4_);fill:#FA8500;}
	.st13{clip-path:url(#SVGID_4_);fill:#5D05B5;}
	.st14{fill:#FA8500;}
	.st15{clip-path:url(#SVGID_6_);fill:#5D05B5;}
	.st16{clip-path:url(#SVGID_6_);fill:#FA8500;}
	.st17{clip-path:url(#SVGID_8_);fill:#FFFFFF;}
	.st18{clip-path:url(#SVGID_10_);fill:#FFFFFF;}
	.st19{fill:#FFFFFF;}
	.st20{clip-path:url(#SVGID_12_);fill:#FA8500;}
	.st21{clip-path:url(#SVGID_12_);fill:#5C02B5;}
	.st22{clip-path:url(#SVGID_14_);fill:#5C02B5;}
	.st23{clip-path:url(#SVGID_14_);fill:#FA8500;}
	.st24{clip-path:url(#SVGID_16_);fill:#FFFFFF;}
</style>
<rect x="5575.2" y="0" class="st0" width="2009.3" height="589.4"/>
<rect x="1761.6" class="st0" width="1400.9" height="589.4"/>
<g>
	<defs>
		<rect id="SVGID_1_" x="-160" y="-168.9" width="1720.9" height="927.1"/>
	</defs>
	<clipPath id="SVGID_2_">
		<use xlink:href="#SVGID_1_"  style="overflow:visible;"/>
	</clipPath>
	<path class="st1" d="M1379.1,296.6c0-151-122.4-273.5-273.5-273.5c-151,0-273.5,122.4-273.5,273.5s122.4,273.5,273.5,273.5
		C1256.7,570.1,1379.1,447.7,1379.1,296.6"/>
	<path class="st2" d="M987,193.1c-2.4,3.5-1.5,8.4,2,10.8l2.2,1.5l-50.8,74.1l-2.2-1.5c-3.5-2.4-8.4-1.5-10.8,2
		c-2.4,3.5-1.5,8.4,2,10.8l53,36.3c3.5,2.4,8.4,1.5,10.8-2c2.4-3.5,1.5-8.4-2-10.8l-2.2-1.5l8.3-12.1l221.3,151.7l33.3-48.5
		l-221.3-151.7l9.2-13.5l2.2,1.5c3.5,2.4,8.4,1.5,10.8-2c2.4-3.5,1.5-8.4-2-10.8l-53-36.3C994.3,188.7,989.4,189.6,987,193.1"/>
	<path class="st2" d="M1009,179.4l48.6,33.2c12.5-18.3,37.6-23.1,56-10.6c18.3,12.5,23.1,37.6,10.6,55.9l48.6,33.2
		c30.8-45.1,19.2-106.9-26-137.7S1039.8,134.3,1009,179.4"/>
	<path class="st1" d="M-433.6,296.6c0-151-122.4-273.5-273.5-273.5c-151,0-273.5,122.4-273.5,273.5s122.4,273.5,273.5,273.5
		C-556,570.1-433.6,447.7-433.6,296.6"/>
	<path class="st2" d="M-825.6,193.1c-2.4,3.5-1.5,8.4,2,10.8l2.2,1.5l-50.8,74.1l-2.2-1.5c-3.5-2.4-8.4-1.5-10.8,2
		c-2.4,3.5-1.5,8.4,2,10.8l53,36.3c3.5,2.4,8.4,1.5,10.8-2c2.4-3.5,1.5-8.4-2-10.8l-2.2-1.5l8.3-12.1L-594,452.4l33.3-48.5
		l-221.3-151.7l9.2-13.5l2.2,1.5c3.5,2.4,8.4,1.5,10.8-2c2.4-3.5,1.5-8.4-2-10.8l-53-36.3C-818.4,188.7-823.2,189.6-825.6,193.1"/>
	<path class="st2" d="M-803.7,179.4l48.6,33.2c12.5-18.3,37.6-23.1,56-10.6c18.3,12.5,23.1,37.6,10.6,55.9l48.6,33.2
		c30.8-45.1,19.2-106.9-26-137.7S-772.9,134.3-803.7,179.4"/>
</g>
<g>
	<path class="st3" d="M414.5,248.5c-9,0-18,0.4-26.9-1.1c-21.6-3.5-36.2-17.4-40.1-39.1c-4.4-24.6,0.1-47.5,16.1-67.1
		c28-34.2,76.6-27.8,95.4,12.2c7.4,15.7,10.1,32.5,11,49.5c0.2,3.5,1.1,4.4,4.5,4.3c11.4-0.3,22.9,0.3,34.2-1.2
		c15.6-2,21.3-8.6,20.4-24.3c-1.1-17.8-4.7-35.2-7.9-52.7c-0.6-3.4-0.5-5,3.6-5.5c7.6-0.9,15.2-2.3,22.7-3.8
		c2.8-0.5,4.1,0.1,4.5,3.1c3,21.7,7.3,43.2,7.1,65.3c-0.1,7.5-0.9,15-2.9,22.2c-6.1,21.7-21.6,32.3-42.8,36.2
		c-13.5,2.5-27.2,2.2-40.9,2c-4.2-0.1-6.5,0.7-7.8,5.3c-12.2,42.1-41.4,65.7-85.1,69.5c-10.9,1-21.7,0.5-32.6,0.9
		c-3.7,0.1-4.3-1.3-4.3-4.6c0.2-10.7,0.2-21.4,0-32c-0.1-3.9,1-5.1,5-5c15.9,0.3,31.9,0.5,47.5-3.3c16.1-3.9,30.4-10.6,39.3-25.6
		c0.8-1.4,2.5-2.8,1.6-4.5c-0.8-1.4-2.7-0.6-4.2-0.6C426.1,248.5,420.3,248.5,414.5,248.5z M416.1,207.1c7.9,0,14.5-0.1,21,0.1
		c2.8,0.1,4-0.6,3.9-3.7c-0.2-9.5-2-18.5-7-26.8c-11.7-19.5-41.8-21.9-54.5-4.3c-11,15.2-4.5,31.1,13.8,34.1
		C401.4,207.8,409.4,206.8,416.1,207.1z"/>
	<path class="st3" d="M177,209.4c-1.3,4.1-2.4,8.1-3.7,12c-5.5,15.7-16.4,24.3-33,26.3c-7.7,0.9-15.3,0.7-23,0.6
		c-3.4,0-4.8,0.8-5.3,4.4c-2.6,15.9-7.9,30.8-18.3,43.5c-16,19.6-37.7,26.7-62,27.7c-3.7,0.2-7.5-0.2-11.2,0.1
		c-4.2,0.4-4.9-1.3-4.8-5.1c0.2-10.3,0.3-20.6,0-30.9c-0.1-4.3,0.9-5.9,5.5-5.6c8.4,0.5,16.9,0.3,25.2-1.4
		c23.1-4.5,35.3-18.9,37.1-43.5c1.3-18.5-2.1-36.6-5-54.7c-1.3-7.9-2.6-15.9-4-23.8c-0.5-3-0.3-4.7,3.5-5.2
		c7.8-0.9,15.5-2.4,23.3-3.8c2.4-0.4,3.3,0.2,3.7,2.6c2.8,16.8,6,33.5,7.7,50.5c0.2,1.8-0.3,3.9,2.7,3.8c13.8-0.4,27.8,1.1,41.5-0.8
		c11.7-1.7,17.6-8.3,17.9-20.1c0.3-14.6,0.2-29.2,0.1-43.8c0-3.8,0.7-5.3,4.9-5.1c7.3,0.3,14.6,0.3,21.9,0c3.4-0.1,4.5,0.9,4.4,4.4
		c-0.2,13.9-0.1,27.7-0.1,41.6c0.1,16.6,7.4,23.9,24.2,23.9c11.2,0,22.5,0.7,33.7-1c2.6-0.4,5.2-0.8,7.7-1.5
		c9.6-2.8,13.6-7.9,13.6-18c0-14.7-2.8-29-5.3-43.4c-0.8-4.8-1.6-9.6-2.7-14.3c-0.8-3.6,0.3-4.9,4-5.3c7.6-0.9,15.1-2.4,22.7-3.7
		c2-0.3,3.6-0.6,4,2.2c3.6,25.9,9.7,51.6,6.4,78.1c-3.1,25.2-16.4,40.2-41.2,45.5c-19.2,4.2-38.7,4.3-58.1,1.1
		c-19.3-3.2-30.7-15.1-35.7-33.7C178.6,211.8,179,210.3,177,209.4z"/>
	<path class="st4" d="M637.1,501.2c-2.5,12.1-7.7,21.9-21.5,23.7c-14.6,1.9-27.2-1.1-36.5-14.7c0,4-0.1,7.9,0,11.9
		c0.1,2.3-0.5,3.4-3.1,3.4c-9.2-0.2-18.4,0.3-27.5-0.4c-12.9-0.9-23.3-6.4-29.2-18.6c-0.7,0.4-1.2,0.6-1.3,0.8
		c-6.6,15.4-10.6,18.3-27.7,18c-4.6-0.1-6.5,1-7.6,5.9c-6.7,29.3-25.8,43.1-56.3,41.7c-3.2-0.1-3.7-1.3-3.6-4c0.2-6,0.2-12,0-18
		c-0.1-3.1,0.8-4.4,4.1-4.1c2.8,0.3,5.6,0.1,8.4,0c19.8-1.1,30-11.7,30.3-31.5c0.2-13.9-2.9-27.5-5.1-41.2c-1.2-7.3-1.3-7.3,6.1-8.7
		c11.8-2.2,11.9-2.2,13.9,10c1.2,6.8,2.2,13.7,3.1,20.5c0.3,2,0.1,3.7,3,3.6c9.2-0.3,18.4,0.4,27.5-0.8c2.3-0.3,3.1-0.9,2.9-3.5
		c-1-13.2,4.8-23.5,14.2-32.1c7.1-6.5,15.2-11.7,23.8-15.7c7.2-3.3,15.5-1,23.3-1.1c2.3,0,2.3,2.7,2.9,4.3
		c4.7,12.2,9.1,24.5,13.8,36.7c3.8,10,7.1,12.2,17.6,12c4.1-0.1,8.2,0.4,12.3-0.5c7-1.6,10.3-5.2,10.6-12.5
		c0.2-5.8,0.1-11.6,0.1-17.4c0-28.3,0.1-56.6-0.1-84.9c0-4.2,1.1-5.7,5.3-5.3c3.7,0.4,7.5,0.4,11.2,0c4-0.4,4.9,1.1,4.9,5
		c-0.2,32.6-0.1,65.2-0.1,97.8c0,14.1,3.9,17.9,18.1,17.8c3.7,0,7.5,0.1,11.2-0.1c8.6-0.5,12.1-4.1,12.3-12.7c0.1-5.1,0-10.1,0-15.2
		c0-28.9,0.1-57.7-0.1-86.6c0-4.4,0.7-6.6,5.7-6c5,0.6,11.5-2,14.6,1c3.1,3.1,0.9,9.6,0.9,14.6c0.1,30.4,0,60.7,0.1,91.1
		c0,6.4-0.6,12.7-2.4,18.9c-3.1,11-10.3,17.7-21.4,19.8c-11.1,2-22.4,1.9-33.6,0.2c-11.5-1.8-19.5-8-23.2-19.3
		C638.9,503.9,639.3,502,637.1,501.2z M575.4,499.6c-3.8-10.1-7.3-19.5-10.8-28.9c-0.5-1.2-1.3-2-2.5-1.4
		c-8.9,4.3-18.8,6.7-25.8,14.2c-5.4,5.9-3.1,13.3,4.8,14.9C552.1,500.8,563.3,499,575.4,499.6z"/>
	<path class="st5" d="M587.4,106.2c0-28.5,0.1-57-0.1-85.4c0-4.3,0.8-6,5.5-5.7c7.5,0.4,15,0.4,22.5,0c4.7-0.2,6,1.2,5.9,5.9
		c-0.2,53.2-0.1,106.4-0.1,159.6c0,3.7,0.3,7.5,0.8,11.2c1.1,8,5.6,13.2,13.6,14.2c16.4,2.1,32.9,2.3,49.2-1
		c11.8-2.4,16.2-8.2,15.8-20.2c-0.5-17.5-4.1-34.5-7.2-51.7c-1.6-9.1-1.7-9,7.4-10.3c6.1-0.9,12.2-1.9,18.3-3.1
		c2.8-0.5,3.9,0.1,4.3,3.1c2.8,18.5,6,37,7.1,55.7c0.5,7.5,0.3,15-0.9,22.4c-4,25.8-17.5,40.2-43.1,45.1c-19.1,3.6-38.4,4-57.6,0.6
		c-25.5-4.4-38.7-19.6-40.7-45.6c-1.7-22.6-0.4-45.3-0.8-68C587.3,124.2,587.4,115.2,587.4,106.2z"/>
	<path class="st5" d="M163.7,499.5c15.3-0.1,30.7,0.5,46-2.1c12.6-2.1,15.5-6,14.4-18.4c-0.8-9-2.6-17.8-4.4-26.6
		c-0.7-3.4-0.9-5.8,3.8-5.9c4.9-0.1,11.1-4.1,14.4-1c2.8,2.6,2.1,9.1,2.8,13.9c1.3,8.5,2.6,17,2.6,25.7c0.2,23.2-8.5,34.8-31.1,38.8
		c-30.3,5.4-60.7,5.5-91.1,0.4c-1.7-0.3-3.3-0.7-4.9-1.1c-21.9-5.9-32-20.2-30.2-42.8c0.8-10,3.2-19.5,6.5-28.9c1-3,2.2-4.3,5.6-2.9
		c3.9,1.7,9.8,1.1,11.7,4.3c1.7,2.9-2.5,7.2-3.5,11.2c-0.7,2.9-1.6,5.8-2.1,8.7c-2.3,12,2.6,20.1,14.4,23.4
		C133.3,500.3,148.6,499.4,163.7,499.5z"/>
	<path class="st5" d="M334.9,525.4c-4.5-0.3-10.7,0.6-16.8-0.5c-11.2-2-17.1-8.2-18.7-19.4c-0.1-0.9-0.2-1.9-0.2-2.8
		c-0.9-17.6-0.9-17.5,16.6-16.8c3.1,0.1,3.6,1.2,3.7,3.9c0.2,9.6,0.3,9.6,10.2,9.6c7.1,0,14.2,0.2,21.4,0c13-0.4,17.8-9.5,11.1-20.8
		c-3.8-6.3-9.1-11.4-14.2-16.6c-6.8-6.8-13.5-13.6-20.5-20c-2.9-2.6-2.5-4.2,0-6.7c4.3-4.2,8.3-8.7,12.4-13c1.3-1.4,2.4-2.9,4.4-0.6
		c10.9,11.9,23.1,22.5,31.7,36.3c8,12.9,10.4,26.8,7.2,41.5c-3.4,15.5-15.7,25.1-32.5,25.8C346,525.6,341.3,525.4,334.9,525.4z"/>
	<path class="st6" d="M260.9,451.2c0-22.7,0.1-45.3-0.1-68c0-4.2,0.9-5.6,5.2-5.2c5.2,0.5,12.2-1.7,15.2,1c3.5,3.1,1,10.2,1.1,15.5
		c0.1,41.7,0,83.5,0.2,125.2c0,4.7-1,6.3-5.8,5.8c-5-0.5-11.7,1.6-14.6-0.9c-3.3-3-1-9.8-1-15C260.9,490.2,260.9,470.7,260.9,451.2z
		"/>
	<path class="st6" d="M424,452.4c0,22.7-0.1,45.3,0.1,68c0,4.2-1,5.6-5.2,5.2c-5.2-0.5-12,1.6-15.2-1c-3.4-2.7-1-9.8-1-15
		c-0.1-41.9,0-83.9-0.2-125.8c0-4.7,1.1-6.2,5.8-5.8c5,0.5,11.7-1.6,14.6,1c3.3,3,1,9.8,1,15C424.1,413.5,424,432.9,424,452.4z"/>
	<path class="st7" d="M553.1,315c-13.4,0-19.8-6.3-19.9-19.3c0-13.5,6.5-19.8,20.6-19.7c13.2,0,19.6,6.5,19.6,19.6
		C573.5,308.8,567,315,553.1,315z"/>
	<path class="st8" d="M213.7,315c-13.6,0-20-6.1-20.1-19.2c-0.1-13.5,6.3-19.8,20.1-19.8c13.7,0,20.2,6.4,20.1,19.8
		C233.7,308.9,227.3,315,213.7,315z"/>
	<path class="st9" d="M506.2,315c-13.5,0-19.9-6.3-19.9-19.4c0-13.4,6.5-19.6,20.3-19.6c13.7,0,19.9,6.3,19.8,20
		C526.3,309,520,315,506.2,315z"/>
	<path class="st9" d="M700.8,315c-13.4,0-19.7-6.3-19.6-19.6c0.1-13.5,6.4-19.4,20.4-19.4c13.4,0,19.5,6.2,19.5,19.6
		C721.1,309.2,714.9,315,700.8,315z"/>
	<path class="st5" d="M286.9,90.2c-13.6,0-19.9-6.1-19.9-19.2c0-13.4,6.3-19.6,20.2-19.5c13.8,0,19.9,6.2,19.8,19.8
		C307,84.4,300.8,90.2,286.9,90.2z"/>
	<path class="st9" d="M166.3,315c-13.3,0-19.9-6.5-19.8-19.5c0.1-13.3,6.6-19.5,20.4-19.5c13.4,0,19.7,6.3,19.7,19.6
		C186.7,308.9,180.3,315,166.3,315z"/>
	<path class="st10" d="M178.4,453.3c-8.5,0-12.6-4-12.7-12.1c-0.1-8.3,4-12.4,12.4-12.4c8.9-0.1,13,3.9,13,12.3
		C191,449.2,186.8,453.2,178.4,453.3z"/>
	<path class="st11" d="M148.6,428.7c8.8,0,12.9,4,12.8,12.5c-0.1,8.2-4.3,12.1-12.8,12c-8.4,0-12.5-4.1-12.5-12.3
		C136.2,432.7,140.2,428.8,148.6,428.7z"/>
	<path class="st11" d="M466.1,420.9c8.5,0,12.4,3.8,12.4,12.2c0,8.3-4,12.2-12.5,12.3c-8.7,0-12.9-4.1-12.7-12.6
		C453.5,424.5,457.4,420.8,466.1,420.9z"/>
</g>
<g>
	<defs>
		<rect id="SVGID_3_" x="1601.7" y="-168.9" width="1720.9" height="927.1"/>
	</defs>
	<clipPath id="SVGID_4_">
		<use xlink:href="#SVGID_3_"  style="overflow:visible;"/>
	</clipPath>
	<path class="st12" d="M3140.7,296.6c0-151-122.4-273.5-273.5-273.5c-151,0-273.5,122.4-273.5,273.5s122.4,273.5,273.5,273.5
		C3018.3,570.1,3140.7,447.7,3140.7,296.6"/>
	<path class="st13" d="M2748.7,193.1c-2.4,3.5-1.5,8.4,2,10.8l2.2,1.5l-50.8,74.1l-2.2-1.5c-3.5-2.4-8.4-1.5-10.8,2
		c-2.4,3.5-1.5,8.4,2,10.8l53,36.3c3.5,2.4,8.4,1.5,10.8-2c2.4-3.5,1.5-8.4-2-10.8l-2.2-1.5l8.3-12.1l221.3,151.7l33.3-48.5
		l-221.3-151.7l9.2-13.5l2.2,1.5c3.5,2.4,8.4,1.5,10.8-2c2.4-3.5,1.5-8.4-2-10.8l-53-36.3C2755.9,188.7,2751.1,189.6,2748.7,193.1"
		/>
	<path class="st13" d="M2770.6,179.4l48.6,33.2c12.5-18.3,37.6-23.1,56-10.6c18.3,12.5,23.1,37.6,10.6,55.9l48.6,33.2
		c30.8-45.1,19.2-106.9-26-137.7S2801.4,134.3,2770.6,179.4"/>
</g>
<g>
	<path class="st14" d="M2176.1,248.5c-9,0-18,0.4-26.9-1.1c-21.6-3.5-36.2-17.4-40.1-39.1c-4.4-24.6,0.1-47.5,16.1-67.1
		c28-34.2,76.6-27.8,95.4,12.2c7.4,15.7,10.1,32.5,11,49.5c0.2,3.5,1.1,4.4,4.5,4.3c11.4-0.3,22.9,0.3,34.2-1.2
		c15.6-2,21.3-8.6,20.4-24.3c-1.1-17.8-4.7-35.2-7.9-52.7c-0.6-3.4-0.5-5,3.6-5.5c7.6-0.9,15.2-2.3,22.7-3.8
		c2.8-0.5,4.1,0.1,4.5,3.1c3,21.7,7.3,43.2,7.1,65.3c-0.1,7.5-0.9,15-2.9,22.2c-6.1,21.7-21.6,32.3-42.8,36.2
		c-13.5,2.5-27.2,2.2-40.9,2c-4.2-0.1-6.5,0.7-7.8,5.3c-12.2,42.1-41.4,65.7-85.1,69.5c-10.9,1-21.7,0.5-32.6,0.9
		c-3.7,0.1-4.3-1.3-4.3-4.6c0.2-10.7,0.2-21.4,0-32c-0.1-3.9,1-5.1,5-5c15.9,0.3,31.9,0.5,47.5-3.3c16.1-3.9,30.4-10.6,39.3-25.6
		c0.8-1.4,2.5-2.8,1.6-4.5c-0.8-1.4-2.7-0.6-4.2-0.6C2187.7,248.5,2181.9,248.5,2176.1,248.5z M2177.8,207.1c7.9,0,14.5-0.1,21,0.1
		c2.8,0.1,4-0.6,3.9-3.7c-0.2-9.5-2-18.5-7-26.8c-11.7-19.5-41.8-21.9-54.5-4.3c-11,15.2-4.5,31.1,13.8,34.1
		C2163,207.8,2171.1,206.8,2177.8,207.1z"/>
	<path class="st14" d="M1938.6,209.4c-1.3,4.1-2.4,8.1-3.7,12c-5.5,15.7-16.4,24.3-33,26.3c-7.7,0.9-15.3,0.7-23,0.6
		c-3.4,0-4.8,0.8-5.3,4.4c-2.6,15.9-7.9,30.8-18.3,43.5c-16,19.6-37.7,26.7-62,27.7c-3.7,0.2-7.5-0.2-11.2,0.1
		c-4.2,0.4-4.9-1.3-4.8-5.1c0.2-10.3,0.3-20.6,0-30.9c-0.1-4.3,0.9-5.9,5.5-5.6c8.4,0.5,16.9,0.3,25.2-1.4
		c23.1-4.5,35.3-18.9,37.1-43.5c1.3-18.5-2.1-36.6-5-54.7c-1.3-7.9-2.6-15.9-4-23.8c-0.5-3-0.3-4.7,3.5-5.2
		c7.8-0.9,15.5-2.4,23.3-3.8c2.4-0.4,3.3,0.2,3.7,2.6c2.8,16.8,6,33.5,7.7,50.5c0.2,1.8-0.3,3.9,2.7,3.8c13.8-0.4,27.8,1.1,41.5-0.8
		c11.7-1.7,17.6-8.3,17.9-20.1c0.3-14.6,0.2-29.2,0.1-43.8c0-3.8,0.7-5.3,4.9-5.1c7.3,0.3,14.6,0.3,21.9,0c3.4-0.1,4.5,0.9,4.4,4.4
		c-0.2,13.9-0.1,27.7-0.1,41.6c0.1,16.6,7.4,23.9,24.2,23.9c11.2,0,22.5,0.7,33.7-1c2.6-0.4,5.2-0.8,7.7-1.5
		c9.6-2.8,13.6-7.9,13.6-18c0-14.7-2.8-29-5.3-43.4c-0.8-4.8-1.6-9.6-2.7-14.3c-0.8-3.6,0.3-4.9,4-5.3c7.6-0.9,15.1-2.4,22.7-3.7
		c2-0.3,3.6-0.6,4,2.2c3.6,25.9,9.7,51.6,6.4,78.1c-3.1,25.2-16.4,40.2-41.2,45.5c-19.2,4.2-38.7,4.3-58.1,1.1
		c-19.3-3.2-30.7-15.1-35.7-33.7C1940.3,211.8,1940.6,210.3,1938.6,209.4z"/>
	<path class="st14" d="M2398.7,501.2c-2.5,12.1-7.7,21.9-21.5,23.7c-14.6,1.9-27.3-1.1-36.5-14.7c0,4-0.1,7.9,0,11.9
		c0.1,2.3-0.5,3.4-3.1,3.4c-9.2-0.2-18.4,0.3-27.5-0.4c-12.9-0.9-23.3-6.4-29.2-18.6c-0.7,0.4-1.2,0.6-1.3,0.8
		c-6.6,15.4-10.6,18.3-27.7,18c-4.6-0.1-6.5,1-7.6,5.9c-6.7,29.3-25.8,43.1-56.3,41.7c-3.2-0.1-3.7-1.3-3.6-4c0.2-6,0.2-12,0-18
		c-0.1-3.1,0.8-4.4,4.1-4.1c2.8,0.3,5.6,0.1,8.4,0c19.8-1.1,30-11.7,30.3-31.5c0.2-13.9-2.9-27.5-5.1-41.2c-1.2-7.3-1.3-7.3,6.1-8.7
		c11.8-2.2,11.9-2.2,13.9,10c1.2,6.8,2.2,13.7,3.1,20.5c0.3,2,0.1,3.7,3,3.6c9.2-0.3,18.4,0.4,27.5-0.8c2.3-0.3,3.1-0.9,2.9-3.5
		c-1-13.2,4.8-23.5,14.2-32.1c7.1-6.5,15.2-11.7,23.8-15.7c7.2-3.3,15.5-1,23.3-1.1c2.3,0,2.3,2.7,2.9,4.3
		c4.7,12.2,9.1,24.5,13.8,36.7c3.8,10,7.1,12.2,17.6,12c4.1-0.1,8.2,0.4,12.3-0.5c7-1.6,10.3-5.2,10.6-12.5
		c0.2-5.8,0.1-11.6,0.1-17.4c0-28.3,0.1-56.6-0.1-84.9c0-4.2,1.1-5.7,5.3-5.3c3.7,0.4,7.5,0.4,11.2,0c4-0.4,4.9,1.1,4.9,5
		c-0.2,32.6-0.1,65.2-0.1,97.8c0,14.1,3.9,17.9,18.1,17.8c3.7,0,7.5,0.1,11.2-0.1c8.6-0.5,12.1-4.1,12.3-12.7c0.1-5.1,0-10.1,0-15.2
		c0-28.9,0.1-57.7-0.1-86.6c0-4.4,0.7-6.6,5.7-6c5,0.6,11.5-2,14.6,1c3.1,3.1,0.9,9.6,0.9,14.6c0.1,30.4,0,60.7,0.1,91.1
		c0,6.4-0.6,12.7-2.4,18.9c-3.1,11-10.3,17.7-21.4,19.8c-11.1,2-22.4,1.9-33.6,0.2c-11.5-1.8-19.5-8-23.2-19.3
		C2400.5,503.9,2400.9,502,2398.7,501.2z M2337,499.6c-3.8-10.1-7.3-19.5-10.8-28.9c-0.5-1.2-1.3-2-2.5-1.4
		c-8.9,4.3-18.8,6.7-25.8,14.2c-5.4,5.9-3.1,13.3,4.8,14.9C2313.7,500.8,2324.9,499,2337,499.6z"/>
	<path class="st14" d="M2349.1,106.2c0-28.5,0.1-57-0.1-85.4c0-4.3,0.8-6,5.5-5.7c7.5,0.4,15,0.4,22.5,0c4.7-0.2,6,1.2,5.9,5.9
		c-0.2,53.2-0.1,106.4-0.1,159.6c0,3.7,0.3,7.5,0.8,11.2c1.1,8,5.6,13.2,13.6,14.2c16.4,2.1,32.9,2.3,49.2-1
		c11.8-2.4,16.2-8.2,15.8-20.2c-0.5-17.5-4.1-34.5-7.2-51.7c-1.6-9.1-1.7-9,7.4-10.3c6.1-0.9,12.2-1.9,18.3-3.1
		c2.8-0.5,3.9,0.1,4.3,3.1c2.8,18.5,6,37,7.1,55.7c0.5,7.5,0.3,15-0.9,22.4c-4,25.8-17.5,40.2-43.1,45.1c-19.1,3.6-38.4,4-57.6,0.6
		c-25.5-4.4-38.7-19.6-40.7-45.6c-1.7-22.6-0.4-45.3-0.8-68C2349,124.2,2349.1,115.2,2349.1,106.2z"/>
	<path class="st14" d="M1925.4,499.5c15.3-0.1,30.7,0.5,46-2.1c12.6-2.1,15.5-6,14.4-18.4c-0.8-9-2.6-17.8-4.4-26.6
		c-0.7-3.4-0.9-5.8,3.8-5.9c4.9-0.1,11.1-4.1,14.4-1c2.8,2.6,2.1,9.1,2.8,13.9c1.3,8.5,2.6,17,2.6,25.7c0.2,23.2-8.5,34.8-31.1,38.8
		c-30.3,5.4-60.7,5.5-91.1,0.4c-1.7-0.3-3.3-0.7-4.9-1.1c-21.9-5.9-32-20.2-30.2-42.8c0.8-10,3.2-19.5,6.5-28.9c1-3,2.2-4.3,5.6-2.9
		c3.9,1.7,9.8,1.1,11.7,4.3c1.7,2.9-2.5,7.2-3.5,11.2c-0.7,2.9-1.6,5.8-2.1,8.7c-2.3,12,2.6,20.1,14.4,23.4
		C1895,500.3,1910.2,499.4,1925.4,499.5z"/>
	<path class="st14" d="M2096.5,525.4c-4.5-0.3-10.7,0.6-16.8-0.5c-11.2-2-17.1-8.2-18.7-19.4c-0.1-0.9-0.2-1.9-0.2-2.8
		c-0.9-17.6-0.9-17.5,16.6-16.8c3.1,0.1,3.6,1.2,3.7,3.9c0.2,9.6,0.3,9.6,10.2,9.6c7.1,0,14.2,0.2,21.4,0c13-0.4,17.8-9.5,11.1-20.8
		c-3.8-6.3-9.1-11.4-14.2-16.6c-6.8-6.8-13.5-13.6-20.5-20c-2.9-2.6-2.5-4.2,0-6.7c4.3-4.2,8.3-8.7,12.4-13c1.3-1.4,2.4-2.9,4.4-0.6
		c10.9,11.9,23.1,22.5,31.7,36.3c8,12.9,10.4,26.8,7.2,41.5c-3.4,15.5-15.7,25.1-32.5,25.8C2107.6,525.6,2102.9,525.4,2096.5,525.4z
		"/>
	<path class="st14" d="M2022.6,451.2c0-22.7,0.1-45.3-0.1-68c0-4.2,0.9-5.6,5.2-5.2c5.2,0.5,12.2-1.7,15.2,1
		c3.5,3.1,1,10.2,1.1,15.5c0.1,41.7,0,83.5,0.2,125.2c0,4.7-1,6.3-5.8,5.8c-5-0.5-11.7,1.6-14.6-0.9c-3.3-3-1-9.8-1-15
		C2022.5,490.2,2022.6,470.7,2022.6,451.2z"/>
	<path class="st14" d="M2185.7,452.4c0,22.7-0.1,45.3,0.1,68c0,4.2-1,5.6-5.2,5.2c-5.2-0.5-12,1.6-15.2-1c-3.4-2.7-1-9.8-1-15
		c-0.1-41.9,0-83.9-0.2-125.8c0-4.7,1.1-6.2,5.8-5.8c5,0.5,11.7-1.6,14.6,1c3.3,3,1,9.8,1,15
		C2185.7,413.5,2185.7,432.9,2185.7,452.4z"/>
	<path class="st14" d="M2314.8,315c-13.4,0-19.8-6.3-19.9-19.3c0-13.5,6.5-19.8,20.6-19.7c13.2,0,19.6,6.5,19.6,19.6
		C2335.1,308.8,2328.6,315,2314.8,315z"/>
	<path class="st14" d="M1975.3,315c-13.6,0-20-6.1-20.1-19.2c-0.1-13.5,6.3-19.8,20.1-19.8c13.7,0,20.2,6.4,20.1,19.8
		C1995.3,308.9,1988.9,315,1975.3,315z"/>
	<path class="st14" d="M2267.9,315c-13.5,0-19.9-6.3-19.9-19.4c0-13.4,6.5-19.6,20.3-19.6c13.7,0,19.9,6.3,19.8,20
		C2287.9,309,2281.6,315,2267.9,315z"/>
	<path class="st14" d="M2462.4,315c-13.4,0-19.7-6.3-19.6-19.6c0.1-13.5,6.4-19.4,20.4-19.4c13.4,0,19.5,6.2,19.5,19.6
		C2482.7,309.2,2476.6,315,2462.4,315z"/>
	<path class="st14" d="M2048.5,90.2c-13.6,0-19.9-6.1-19.9-19.2c0-13.4,6.3-19.6,20.2-19.5c13.8,0,19.9,6.2,19.8,19.8
		C2068.6,84.4,2062.4,90.2,2048.5,90.2z"/>
	<path class="st14" d="M1928,315c-13.3,0-19.9-6.5-19.8-19.5c0.1-13.3,6.6-19.5,20.4-19.5c13.4,0,19.7,6.3,19.7,19.6
		C1948.3,308.9,1942,315,1928,315z"/>
	<path class="st14" d="M1940,453.3c-8.5,0-12.6-4-12.7-12.1c-0.1-8.3,4-12.4,12.4-12.4c8.9-0.1,13,3.9,13,12.3
		C1952.6,449.2,1948.4,453.2,1940,453.3z"/>
	<path class="st14" d="M1910.3,428.7c8.8,0,12.9,4,12.8,12.5c-0.1,8.2-4.3,12.1-12.8,12c-8.4,0-12.5-4.1-12.5-12.3
		C1897.8,432.7,1901.8,428.8,1910.3,428.7z"/>
	<path class="st14" d="M2227.7,420.9c8.5,0,12.4,3.8,12.4,12.2c0,8.3-4,12.2-12.5,12.3c-8.7,0-12.9-4.1-12.7-12.6
		C2215.1,424.5,2219.1,420.8,2227.7,420.9z"/>
</g>
<g>
	<defs>
		<rect id="SVGID_5_" x="-1975.3" y="-168.9" width="1720.9" height="927.1"/>
	</defs>
	<clipPath id="SVGID_6_">
		<use xlink:href="#SVGID_5_"  style="overflow:visible;"/>
	</clipPath>
	<path class="st15" d="M-436.2,296.6c0-151-122.4-273.5-273.5-273.5c-151,0-273.5,122.4-273.5,273.5s122.4,273.5,273.5,273.5
		C-558.6,570.1-436.2,447.7-436.2,296.6"/>
	<path class="st16" d="M-828.3,193.1c-2.4,3.5-1.5,8.4,2,10.8l2.2,1.5l-50.8,74.1l-2.2-1.5c-3.5-2.4-8.4-1.5-10.8,2
		c-2.4,3.5-1.5,8.4,2,10.8l53,36.3c3.5,2.4,8.4,1.5,10.8-2c2.4-3.5,1.5-8.4-2-10.8l-2.2-1.5l8.3-12.1l221.3,151.7l33.3-48.5
		l-221.3-151.7l9.2-13.5l2.2,1.5c3.5,2.4,8.4,1.5,10.8-2c2.4-3.5,1.5-8.4-2-10.8l-53-36.3C-821,188.7-825.8,189.6-828.3,193.1"/>
	<path class="st16" d="M-806.3,179.4l48.6,33.2c12.5-18.3,37.6-23.1,56-10.6c18.3,12.5,23.1,37.6,10.6,55.9l48.6,33.2
		c30.8-45.1,19.2-106.9-26-137.7S-775.5,134.3-806.3,179.4"/>
</g>
<g>
	<defs>
		<rect id="SVGID_7_" x="-4261.5" y="-168.9" width="1720.9" height="927.1"/>
	</defs>
	<clipPath id="SVGID_8_">
		<use xlink:href="#SVGID_7_"  style="overflow:visible;"/>
	</clipPath>
	<path class="st17" d="M-2995.9,23.2c-151,0-273.5,122.4-273.5,273.5s122.4,273.5,273.5,273.5c151,0,273.5-122.4,273.5-273.5
		S-2844.9,23.2-2995.9,23.2z M-2954.8,153.4c45.1,30.8,56.8,92.6,26,137.7l-48.6-33.2c12.5-18.3,7.8-43.4-10.6-55.9
		c-18.3-12.5-43.4-7.8-56,10.6l-48.6-33.2C-3061.7,134.3-2999.9,122.6-2954.8,153.4z M-2882.9,452.4l-221.3-151.7l-8.3,12.1l2.2,1.5
		c3.5,2.4,4.4,7.3,2,10.8c-2.4,3.5-7.3,4.4-10.8,2l-53-36.3c-3.5-2.4-4.4-7.3-2-10.8c2.4-3.5,7.3-4.4,10.8-2l2.2,1.5l50.8-74.1
		l-2.2-1.5c-3.5-2.4-4.4-7.3-2-10.8c2.4-3.5,7.3-4.4,10.8-2l53,36.3c3.5,2.4,4.4,7.3,2,10.8c-2.4,3.5-7.3,4.4-10.8,2l-2.2-1.5
		l-9.2,13.5l221.3,151.7L-2882.9,452.4z"/>
</g>
<g>
	<defs>
		<rect id="SVGID_9_" x="3423.1" y="-168.9" width="1720.9" height="927.1"/>
	</defs>
	<clipPath id="SVGID_10_">
		<use xlink:href="#SVGID_9_"  style="overflow:visible;"/>
	</clipPath>
	<path class="st18" d="M4688.7,23.2c-151,0-273.5,122.4-273.5,273.5s122.4,273.5,273.5,273.5c151,0,273.5-122.4,273.5-273.5
		S4839.8,23.2,4688.7,23.2z M4729.8,153.4c45.1,30.8,56.8,92.6,26,137.7l-48.6-33.2c12.5-18.3,7.8-43.4-10.6-55.9
		c-18.3-12.5-43.4-7.8-56,10.6l-48.6-33.2C4622.9,134.3,4684.7,122.6,4729.8,153.4z M4801.7,452.4l-221.3-151.7l-8.3,12.1l2.2,1.5
		c3.5,2.4,4.4,7.3,2,10.8c-2.4,3.5-7.3,4.4-10.8,2l-53-36.3c-3.5-2.4-4.4-7.3-2-10.8c2.4-3.5,7.3-4.4,10.8-2l2.2,1.5l50.8-74.1
		l-2.2-1.5c-3.5-2.4-4.4-7.3-2-10.8c2.4-3.5,7.3-4.4,10.8-2l53,36.3c3.5,2.4,4.4,7.3,2,10.8c-2.4,3.5-7.3,4.4-10.8,2l-2.2-1.5
		l-9.2,13.5L4835,403.9L4801.7,452.4z"/>
</g>
<g>
	<path class="st19" d="M3997.6,248.5c-9,0-18,0.4-26.9-1.1c-21.6-3.5-36.2-17.4-40.1-39.1c-4.4-24.6,0.1-47.5,16.1-67.1
		c28-34.2,76.6-27.8,95.4,12.2c7.4,15.7,10.1,32.5,11,49.5c0.2,3.5,1.1,4.4,4.5,4.3c11.4-0.3,22.9,0.3,34.2-1.2
		c15.6-2,21.3-8.6,20.4-24.3c-1.1-17.8-4.6-35.2-7.9-52.7c-0.6-3.4-0.5-5,3.6-5.5c7.6-0.9,15.2-2.3,22.7-3.8
		c2.8-0.5,4.1,0.1,4.5,3.1c3,21.7,7.3,43.2,7.1,65.3c-0.1,7.5-0.9,15-2.9,22.2c-6.1,21.7-21.6,32.3-42.8,36.2
		c-13.5,2.5-27.2,2.2-40.9,2c-4.2-0.1-6.5,0.7-7.8,5.3c-12.2,42.1-41.4,65.7-85.1,69.5c-10.9,1-21.7,0.5-32.6,0.9
		c-3.7,0.1-4.3-1.3-4.3-4.6c0.2-10.7,0.2-21.4,0-32c-0.1-3.9,1-5.1,5-5c15.9,0.3,31.9,0.5,47.5-3.3c16.1-3.9,30.4-10.6,39.3-25.6
		c0.8-1.4,2.5-2.8,1.6-4.5c-0.8-1.4-2.7-0.6-4.2-0.6C4009.2,248.5,4003.4,248.5,3997.6,248.5z M3999.3,207.1c7.9,0,14.5-0.1,21,0.1
		c2.8,0.1,4-0.6,3.9-3.7c-0.2-9.5-2-18.5-7-26.8c-11.7-19.5-41.8-21.9-54.5-4.3c-11,15.2-4.5,31.1,13.8,34.1
		C3984.5,207.8,3992.6,206.8,3999.3,207.1z"/>
	<path class="st19" d="M3760.1,209.4c-1.3,4.1-2.4,8.1-3.7,12c-5.5,15.7-16.4,24.3-33,26.3c-7.7,0.9-15.3,0.7-23,0.6
		c-3.4,0-4.8,0.8-5.3,4.4c-2.6,15.9-7.9,30.8-18.3,43.5c-16,19.6-37.7,26.7-62,27.7c-3.7,0.2-7.5-0.2-11.2,0.1
		c-4.2,0.4-4.9-1.3-4.8-5.1c0.2-10.3,0.3-20.6,0-30.9c-0.1-4.3,0.9-5.9,5.5-5.6c8.4,0.5,16.9,0.3,25.2-1.4
		c23.1-4.5,35.3-18.9,37.1-43.5c1.3-18.5-2.1-36.6-5-54.7c-1.3-7.9-2.6-15.9-4-23.8c-0.5-3-0.3-4.7,3.5-5.2
		c7.8-0.9,15.5-2.4,23.3-3.8c2.4-0.4,3.3,0.2,3.7,2.6c2.8,16.8,6,33.5,7.7,50.5c0.2,1.8-0.3,3.9,2.7,3.8c13.8-0.4,27.8,1.1,41.5-0.8
		c11.7-1.7,17.6-8.3,17.9-20.1c0.3-14.6,0.2-29.2,0.1-43.8c0-3.8,0.7-5.3,4.9-5.1c7.3,0.3,14.6,0.3,21.9,0c3.4-0.1,4.5,0.9,4.4,4.4
		c-0.2,13.9-0.1,27.7-0.1,41.6c0.1,16.6,7.4,23.9,24.2,23.9c11.2,0,22.5,0.7,33.7-1c2.6-0.4,5.2-0.8,7.7-1.5
		c9.6-2.8,13.6-7.9,13.6-18c0-14.7-2.8-29-5.3-43.4c-0.8-4.8-1.6-9.6-2.7-14.3c-0.8-3.6,0.3-4.9,4-5.3c7.6-0.9,15.1-2.4,22.7-3.7
		c2-0.3,3.6-0.6,4,2.2c3.6,25.9,9.7,51.6,6.4,78.1c-3.1,25.2-16.4,40.2-41.2,45.5c-19.2,4.2-38.7,4.3-58.1,1.1
		c-19.3-3.2-30.7-15.1-35.7-33.7C3761.8,211.8,3762.1,210.3,3760.1,209.4z"/>
	<path class="st19" d="M4220.2,501.2c-2.5,12.1-7.7,21.9-21.5,23.7c-14.6,1.9-27.2-1.1-36.5-14.7c0,4-0.1,7.9,0,11.9
		c0.1,2.3-0.5,3.4-3.1,3.4c-9.2-0.2-18.4,0.3-27.5-0.4c-12.9-0.9-23.3-6.4-29.2-18.6c-0.7,0.4-1.2,0.6-1.3,0.8
		c-6.6,15.4-10.6,18.3-27.7,18c-4.6-0.1-6.5,1-7.6,5.9c-6.7,29.3-25.8,43.1-56.3,41.7c-3.2-0.1-3.7-1.3-3.6-4c0.2-6,0.2-12,0-18
		c-0.1-3.1,0.8-4.4,4.1-4.1c2.8,0.3,5.6,0.1,8.4,0c19.8-1.1,30-11.7,30.3-31.5c0.2-13.9-2.9-27.5-5.1-41.2c-1.2-7.3-1.3-7.3,6.1-8.7
		c11.8-2.2,11.9-2.2,13.9,10c1.2,6.8,2.2,13.7,3.1,20.5c0.3,2,0.1,3.7,3,3.6c9.2-0.3,18.4,0.4,27.5-0.8c2.3-0.3,3.1-0.9,2.9-3.5
		c-1-13.2,4.8-23.5,14.2-32.1c7.1-6.5,15.2-11.7,23.8-15.7c7.2-3.3,15.5-1,23.3-1.1c2.3,0,2.3,2.7,2.9,4.3
		c4.7,12.2,9.1,24.5,13.8,36.7c3.8,10,7.1,12.2,17.6,12c4.1-0.1,8.2,0.4,12.3-0.5c7-1.6,10.3-5.2,10.6-12.5
		c0.2-5.8,0.1-11.6,0.1-17.4c0-28.3,0.1-56.6-0.1-84.9c0-4.2,1.1-5.7,5.3-5.3c3.7,0.4,7.5,0.4,11.2,0c4-0.4,4.9,1.1,4.9,5
		c-0.2,32.6-0.1,65.2-0.1,97.8c0,14.1,3.9,17.9,18.1,17.8c3.7,0,7.5,0.1,11.2-0.1c8.6-0.5,12.1-4.1,12.3-12.7c0.1-5.1,0-10.1,0-15.2
		c0-28.9,0.1-57.7-0.1-86.6c0-4.4,0.7-6.6,5.7-6c5,0.6,11.5-2,14.6,1c3.1,3.1,0.9,9.6,0.9,14.6c0.1,30.4,0,60.7,0.1,91.1
		c0,6.4-0.6,12.7-2.4,18.9c-3.1,11-10.3,17.7-21.4,19.8c-11.1,2-22.4,1.9-33.6,0.2c-11.5-1.8-19.5-8-23.2-19.3
		C4222,503.9,4222.4,502,4220.2,501.2z M4158.5,499.6c-3.8-10.1-7.3-19.5-10.8-28.9c-0.5-1.2-1.3-2-2.5-1.4
		c-8.9,4.3-18.8,6.7-25.8,14.2c-5.4,5.9-3.1,13.3,4.8,14.9C4135.2,500.8,4146.4,499,4158.5,499.6z"/>
	<path class="st19" d="M4170.6,106.2c0-28.5,0.1-57-0.1-85.4c0-4.3,0.8-6,5.5-5.7c7.5,0.4,15,0.4,22.5,0c4.7-0.2,6,1.2,5.9,5.9
		c-0.2,53.2-0.1,106.4-0.1,159.6c0,3.7,0.3,7.5,0.8,11.2c1.1,8,5.6,13.2,13.6,14.2c16.4,2.1,32.9,2.3,49.2-1
		c11.8-2.4,16.2-8.2,15.8-20.2c-0.5-17.5-4.1-34.5-7.2-51.7c-1.6-9.1-1.7-9,7.4-10.3c6.1-0.9,12.2-1.9,18.3-3.1
		c2.8-0.5,3.9,0.1,4.3,3.1c2.8,18.5,6,37,7.1,55.7c0.5,7.5,0.3,15-0.9,22.4c-4,25.8-17.5,40.2-43.1,45.1c-19.1,3.6-38.4,4-57.6,0.6
		c-25.5-4.4-38.7-19.6-40.7-45.6c-1.7-22.6-0.4-45.3-0.8-68C4170.5,124.2,4170.6,115.2,4170.6,106.2z"/>
	<path class="st19" d="M3746.8,499.5c15.3-0.1,30.7,0.5,46-2.1c12.6-2.1,15.5-6,14.4-18.4c-0.8-9-2.6-17.8-4.4-26.6
		c-0.7-3.4-0.9-5.8,3.8-5.9c4.9-0.1,11.1-4.1,14.4-1c2.8,2.6,2.1,9.1,2.8,13.9c1.3,8.5,2.6,17,2.6,25.7c0.2,23.2-8.5,34.8-31.1,38.8
		c-30.3,5.4-60.7,5.5-91.1,0.4c-1.7-0.3-3.3-0.7-4.9-1.1c-21.9-5.9-32-20.2-30.2-42.8c0.8-10,3.2-19.5,6.5-28.9c1-3,2.2-4.3,5.6-2.9
		c3.9,1.7,9.8,1.1,11.7,4.3c1.7,2.9-2.5,7.2-3.5,11.2c-0.7,2.9-1.6,5.8-2.1,8.7c-2.3,12,2.6,20.1,14.4,23.4
		C3716.4,500.3,3731.7,499.4,3746.8,499.5z"/>
	<path class="st19" d="M3918,525.4c-4.5-0.3-10.7,0.6-16.8-0.5c-11.2-2-17.1-8.2-18.7-19.4c-0.1-0.9-0.2-1.9-0.2-2.8
		c-0.9-17.6-0.9-17.5,16.6-16.8c3.1,0.1,3.6,1.2,3.7,3.9c0.2,9.6,0.3,9.6,10.2,9.6c7.1,0,14.2,0.2,21.4,0c13-0.4,17.8-9.5,11.1-20.8
		c-3.8-6.3-9.1-11.4-14.2-16.6c-6.8-6.8-13.5-13.6-20.5-20c-2.9-2.6-2.5-4.2,0-6.7c4.3-4.2,8.3-8.7,12.4-13c1.3-1.4,2.4-2.9,4.4-0.6
		c10.9,11.9,23.1,22.5,31.7,36.3c8,12.9,10.4,26.8,7.2,41.5c-3.4,15.5-15.7,25.1-32.5,25.8C3929.1,525.6,3924.4,525.4,3918,525.4z"
		/>
	<path class="st19" d="M3844.1,451.2c0-22.7,0.1-45.3-0.1-68c0-4.2,0.9-5.6,5.2-5.2c5.2,0.5,12.2-1.7,15.2,1
		c3.5,3.1,1,10.2,1.1,15.5c0.1,41.7,0,83.5,0.2,125.2c0,4.7-1,6.3-5.8,5.8c-5-0.5-11.7,1.6-14.6-0.9c-3.3-3-1-9.8-1-15
		C3844,490.2,3844.1,470.7,3844.1,451.2z"/>
	<path class="st19" d="M4007.2,452.4c0,22.7-0.1,45.3,0.1,68c0,4.2-1,5.6-5.2,5.2c-5.2-0.5-12,1.6-15.2-1c-3.4-2.7-1-9.8-1-15
		c-0.1-41.9,0-83.9-0.2-125.8c0-4.7,1.1-6.2,5.8-5.8c5,0.5,11.7-1.6,14.6,1c3.3,3,1,9.8,1,15
		C4007.2,413.5,4007.2,432.9,4007.2,452.4z"/>
	<path class="st19" d="M4136.2,315c-13.4,0-19.8-6.3-19.9-19.3c0-13.5,6.5-19.8,20.6-19.7c13.2,0,19.6,6.5,19.6,19.6
		C4156.6,308.8,4150.1,315,4136.2,315z"/>
	<path class="st19" d="M3796.8,315c-13.6,0-20-6.1-20.1-19.2c-0.1-13.5,6.3-19.8,20.1-19.8c13.7,0,20.2,6.4,20.1,19.8
		C3816.8,308.9,3810.4,315,3796.8,315z"/>
	<path class="st19" d="M4089.3,315c-13.5,0-19.9-6.3-19.9-19.4c0-13.4,6.5-19.6,20.3-19.6c13.7,0,19.9,6.3,19.8,20
		C4109.4,309,4103.1,315,4089.3,315z"/>
	<path class="st19" d="M4283.9,315c-13.4,0-19.7-6.3-19.6-19.6c0.1-13.5,6.4-19.4,20.4-19.4c13.4,0,19.5,6.2,19.5,19.6
		C4304.2,309.2,4298,315,4283.9,315z"/>
	<path class="st19" d="M3870,90.2c-13.6,0-19.9-6.1-19.9-19.2c0-13.4,6.3-19.6,20.2-19.5c13.8,0,19.9,6.2,19.8,19.8
		C3890.1,84.4,3883.9,90.2,3870,90.2z"/>
	<path class="st19" d="M3749.4,315c-13.3,0-19.9-6.5-19.8-19.5c0.1-13.3,6.6-19.5,20.4-19.5c13.4,0,19.7,6.3,19.7,19.6
		C3769.8,308.9,3763.5,315,3749.4,315z"/>
	<path class="st19" d="M3761.5,453.3c-8.5,0-12.6-4-12.7-12.1c-0.1-8.3,4-12.4,12.4-12.4c8.9-0.1,13,3.9,13,12.3
		C3774.1,449.2,3769.9,453.2,3761.5,453.3z"/>
	<path class="st19" d="M3731.8,428.7c8.8,0,12.9,4,12.8,12.5c-0.1,8.2-4.3,12.1-12.8,12c-8.4,0-12.5-4.1-12.5-12.3
		C3719.3,432.7,3723.3,428.8,3731.8,428.7z"/>
	<path class="st19" d="M4049.2,420.9c8.5,0,12.4,3.8,12.4,12.2c0,8.3-4,12.2-12.5,12.3c-8.7,0-12.9-4.1-12.7-12.6
		C4036.6,424.5,4040.6,420.8,4049.2,420.9z"/>
</g>
<g>
	<g>
		<path class="st14" d="M6443.1,496.6h-112.8l-18.5,40.7h-44.1l96.8-215.7h44.4l96.8,215.7h-44.4L6443.1,496.6z M6386.7,366.8
			l-40.1,91.8h80.1L6386.7,366.8z"/>
		<path class="st14" d="M6556.5,385.3v79.5c0,23.1,12.6,40.7,36.7,40.7c23.1,0,38.8-19.4,38.8-42.5v-77.7h37.3v152.2h-33.6
			l-2.5-20.6c-15.7,15.4-30.2,22.8-51.5,22.8c-36.4,0-62.9-27.4-62.9-74.6v-79.8H6556.5z"/>
	</g>
	<g>
		<path class="st14" d="M6839.1,517.8c-17.6,17.3-36.1,24-58.6,24c-44.1,0-80.7-26.5-80.7-80.4s36.7-80.4,80.7-80.4
			c21.6,0,38.2,6.2,54.9,22.5l-23.7,25c-8.9-8-20-12-30.5-12c-25.3,0-43.8,18.5-43.8,45c0,29,19.7,44.4,43.1,44.4
			c12,0,24-3.4,33.3-12.6L6839.1,517.8z"/>
	</g>
	<g>
		<g>
			<g>
				<path class="st14" d="M6379.3,202h-61v63.5h-40.7V49.7c33.9,0,67.8-0.3,101.7-0.3C6484.7,49.4,6485,202,6379.3,202z
					 M6318.3,164.7h61c52.1,0,51.8-76.4,0-76.4h-61V164.7z"/>
			</g>
			<g>
				<path class="st14" d="M6529.7,70.7c0,29.3-44.4,29.3-44.4,0S6529.7,41.4,6529.7,70.7z M6488.7,112.9v152.5h37.6V112.9H6488.7z"
					/>
			</g>
			<g>
				<path class="st14" d="M6715.2,189.6c0,43.8-29.9,79.2-79.2,79.2c-49.3,0-78.9-35.4-78.9-79.2c0-43.5,30.2-79.2,78.6-79.2
					S6715.2,146.2,6715.2,189.6z M6594.7,189.6c0,23.1,13.9,44.7,41.3,44.7c27.4,0,41.3-21.6,41.3-44.7c0-22.8-16-45-41.3-45
					C6608.9,144.6,6594.7,166.8,6594.7,189.6z"/>
			</g>
			<g>
				<path class="st14" d="M6858.8,265.4v-79.5c0-23.1-12.6-40.7-36.7-40.7c-23.1,0-38.8,19.4-38.8,42.5v77.7H6746V113.2h33.6
					l2.5,20.6c15.4-15.1,30.8-22.8,49.9-22.8c35.7,0,64.4,26.8,64.4,74.6v79.8H6858.8z"/>
			</g>
			<g>
				<path class="st14" d="M6967,202.9c2.5,18.8,18.8,32.4,45.3,32.4c13.9,0,32.1-5.2,40.7-14.2l24,23.7
					c-16,16.6-42.2,24.7-65.3,24.7c-52.4,0-83.5-32.4-83.5-81.1c0-46.2,31.4-79.5,80.7-79.5c50.8,0,82.6,31.4,76.7,94H6967z
					 M7049.6,171.8c-2.5-19.7-17.9-29.6-39.4-29.6c-20.3,0-37,9.9-42.5,29.6H7049.6z"/>
			</g>
			<g>
				<path class="st14" d="M7153.4,202.9c2.5,18.8,18.8,32.4,45.3,32.4c13.9,0,32.1-5.2,40.7-14.2l24,23.7
					c-16,16.6-42.2,24.7-65.3,24.7c-52.4,0-83.5-32.4-83.5-81.1c0-46.2,31.4-79.5,80.7-79.5c50.8,0,82.6,31.4,76.7,94H7153.4z
					 M7236,171.8c-2.5-19.7-17.9-29.6-39.4-29.6c-20.3,0-37,9.9-42.5,29.6H7236z"/>
			</g>
			<g>
				<path class="st14" d="M7337.7,113.5l2.8,17.6c11.7-18.8,27.4-21.6,42.8-21.6c15.7,0,30.8,6.2,39.1,14.5l-16.9,32.7
					c-7.7-6.5-14.8-9.9-27.1-9.9c-19.7,0-37.9,10.5-37.9,38.5v80.1h-37.6V113.5H7337.7z"/>
			</g>
			<g>
				<path class="st14" d="M7030.2,342.5c0,29.3-44.4,29.3-44.4,0S7030.2,313.2,7030.2,342.5z M6989.2,384.7v152.5h37.6V384.7H6989.2
					z"/>
			</g>
		</g>
		<g>
			<g>
				<path class="st14" d="M6913,342.5v43.1h41.9V418h-42.2v65.6c0,14.5,8,21.6,19.7,21.6c5.9,0,12.6-1.8,18.2-4.6l10.5,32.1
					c-10.8,4.3-19.7,6.2-31.1,6.5c-33,1.2-54.5-17.6-54.5-55.5V418h-28.4v-32.4h28.4v-39.1L6913,342.5z"/>
			</g>
			<g>
				<path class="st14" d="M7216.6,461.4c0,43.8-29.9,79.2-79.2,79.2c-49.3,0-78.9-35.4-78.9-79.2c0-43.5,30.2-79.2,78.6-79.2
					S7216.6,418,7216.6,461.4z M7096.1,461.4c0,23.1,13.9,44.7,41.3,44.7c27.4,0,41.3-21.6,41.3-44.7c0-22.8-16-45-41.3-45
					C7110.3,416.4,7096.1,438.6,7096.1,461.4z"/>
				<path class="st14" d="M7360.5,537.3v-79.5c0-23.1-12.6-40.7-36.7-40.7c-23.1,0-38.8,19.4-38.8,42.5v77.7h-37.3V385h33.6
					l2.5,20.6c15.4-15.1,30.8-22.8,49.9-22.8c35.7,0,64.4,26.8,64.4,74.6v79.8H7360.5z"/>
				<path class="st14" d="M7535.6,425.7c-10.8-10.2-23.1-13.6-37.6-13.6c-17.9,0-27.7,5.5-27.7,15.1c0,9.9,8.9,15.4,28.4,16.6
					c28.7,1.8,65,8.3,65,48.7c0,26.8-21.9,49.9-65.3,49.9c-24,0-48.1-4-70.3-27.1l18.5-26.8c10.8,12,35.4,21,52.4,21.3
					c14.2,0.3,27.4-7.1,27.4-18.2c0-10.5-8.6-14.8-30.2-16c-28.7-2.2-62.9-12.6-62.9-47.2c0-35.1,36.4-47.5,64.1-47.5
					c23.7,0,41.6,4.6,59.2,20L7535.6,425.7z"/>
			</g>
		</g>
	</g>
</g>
<g>
	<defs>
		<rect id="SVGID_11_" x="5319.5" y="-263.7" width="2528" height="1111.2"/>
	</defs>
	<clipPath id="SVGID_12_">
		<use xlink:href="#SVGID_11_"  style="overflow:visible;"/>
	</clipPath>
	<path class="st20" d="M6140.7,292.4c0-148.6-120.5-269.1-269.1-269.1s-269.1,120.5-269.1,269.1s120.5,269.1,269.1,269.1
		S6140.7,441,6140.7,292.4"/>
	<path class="st21" d="M5754.9,190.5c-2.4,3.5-1.5,8.2,2,10.6l2.1,1.5l-50,72.9l-2.1-1.5c-3.5-2.4-8.2-1.5-10.6,2
		c-2.4,3.5-1.5,8.2,2,10.6l52.1,35.8c3.5,2.4,8.2,1.5,10.6-2c2.4-3.5,1.5-8.2-2-10.6l-2.1-1.5l8.2-11.9l217.8,149.3l32.7-47.7
		l-217.8-149.3l9.1-13.3l2.1,1.5c3.5,2.4,8.2,1.5,10.6-2c2.4-3.5,1.5-8.2-2-10.6l-52.1-35.8C5762,186.2,5757.2,187.1,5754.9,190.5"
		/>
	<path class="st21" d="M5776.5,177l47.8,32.6c12.3-18,37-22.7,55.1-10.4c18,12.3,22.7,37,10.4,55.1l47.8,32.6
		c30.3-44.4,18.9-105.2-25.6-135.5C5867.6,121.1,5806.8,132.6,5776.5,177"/>
</g>
<g>
	<path class="st0" d="M6373.6,1403.1h-60.7v63.2h-40.5v-214.7c33.7,0,67.5-0.3,101.2-0.3C6478.5,1251.3,6478.8,1403.1,6373.6,1403.1
		z M6312.8,1366h60.7c51.8,0,51.5-76.1,0-76.1h-60.7V1366z"/>
</g>
<g>
	<path class="st0" d="M6523.3,1272.4c0,29.1-44.2,29.1-44.2,0S6523.3,1243.3,6523.3,1272.4z M6482.5,1314.4v151.8h37.4v-151.8
		H6482.5z"/>
</g>
<g>
	<path class="st0" d="M6707.9,1390.8c0,43.6-29.8,78.8-78.8,78.8s-78.5-35.3-78.5-78.8c0-43.2,30.1-78.8,78.2-78.8
		C6676.9,1312,6707.9,1347.6,6707.9,1390.8z M6588,1390.8c0,23,13.8,44.5,41.1,44.5c27.3,0,41.1-21.5,41.1-44.5
		c0-22.7-16-44.8-41.1-44.8C6602.1,1346,6588,1368.1,6588,1390.8z"/>
</g>
<g>
	<path class="st0" d="M6850.8,1466.3v-79.1c0-23-12.6-40.5-36.5-40.5c-23,0-38.6,19.3-38.6,42.3v77.3h-37.1v-151.5h33.4l2.5,20.6
		c15.3-15,30.7-22.7,49.7-22.7c35.6,0,64.1,26.7,64.1,74.2v79.4H6850.8z"/>
</g>
<g>
	<path class="st0" d="M6958.5,1404c2.5,18.7,18.7,32.2,45.1,32.2c13.8,0,31.9-5.2,40.5-14.1l23.9,23.6c-16,16.6-42,24.5-65,24.5
		c-52.1,0-83.1-32.2-83.1-80.7c0-46,31.3-79.1,80.4-79.1c50.6,0,82.2,31.3,76.4,93.6H6958.5z M7040.7,1373
		c-2.5-19.6-17.8-29.4-39.3-29.4c-20.2,0-36.8,9.8-42.3,29.4H7040.7z"/>
</g>
<g>
	<path class="st0" d="M7144.1,1404c2.5,18.7,18.7,32.2,45.1,32.2c13.8,0,31.9-5.2,40.5-14.1l23.9,23.6c-16,16.6-42,24.5-65,24.5
		c-52.1,0-83.1-32.2-83.1-80.7c0-46,31.3-79.1,80.4-79.1c50.6,0,82.2,31.3,76.4,93.6H7144.1z M7226.3,1373
		c-2.5-19.6-17.8-29.4-39.3-29.4c-20.2,0-36.8,9.8-42.3,29.4H7226.3z"/>
</g>
<g>
	<path class="st0" d="M7327.5,1315.1l2.8,17.5c11.7-18.7,27.3-21.5,42.6-21.5c15.6,0,30.7,6.1,39,14.4L7395,1358
		c-7.7-6.4-14.7-9.8-27-9.8c-19.6,0-37.7,10.4-37.7,38.3v79.8h-37.4v-151.2H7327.5z"/>
</g>
<g>
	<path class="st0" d="M6437.1,1696.3h-112.3l-18.4,40.5h-43.9l96.3-214.7h44.2l96.3,214.7h-44.2L6437.1,1696.3z M6380.9,1567.2
		l-39.9,91.4h79.8L6380.9,1567.2z"/>
	<path class="st0" d="M6549.9,1585.6v79.1c0,23,12.6,40.5,36.5,40.5c23,0,38.6-19.3,38.6-42.3v-77.3h37.1v151.5h-33.4l-2.5-20.6
		c-15.6,15.3-30.1,22.7-51.2,22.7c-36.2,0-62.6-27.3-62.6-74.2v-79.4H6549.9z"/>
</g>
<g>
	<path class="st0" d="M6831.2,1717.5c-17.5,17.2-35.9,23.9-58.3,23.9c-43.9,0-80.4-26.4-80.4-80.1s36.5-80.1,80.4-80.1
		c21.5,0,38,6.1,54.6,22.4l-23.6,24.8c-8.9-8-19.9-12-30.4-12c-25.2,0-43.6,18.4-43.6,44.8c0,28.8,19.6,44.2,42.9,44.2
		c12,0,23.9-3.4,33.1-12.6L6831.2,1717.5z"/>
</g>
<g>
	<path class="st0" d="M6904.8,1543v42.9h41.7v32.2h-42v65.3c0,14.4,8,21.5,19.6,21.5c5.8,0,12.6-1.8,18.1-4.6l10.4,31.9
		c-10.7,4.3-19.6,6.1-31,6.4c-32.8,1.2-54.3-17.5-54.3-55.2v-65.3h-28.2v-32.2h28.2v-39L6904.8,1543z"/>
</g>
<g>
	<path class="st0" d="M7021.4,1543c0,29.1-44.2,29.1-44.2,0S7021.4,1513.8,7021.4,1543z M6980.6,1585v151.8h37.4V1585H6980.6z"/>
</g>
<g>
	<path class="st0" d="M7207,1661.4c0,43.6-29.8,78.8-78.8,78.8s-78.5-35.3-78.5-78.8c0-43.2,30.1-78.8,78.2-78.8
		C7176,1582.5,7207,1618.1,7207,1661.4z M7087,1661.4c0,23,13.8,44.5,41.1,44.5c27.3,0,41.1-21.5,41.1-44.5
		c0-22.7-16-44.8-41.1-44.8C7101.1,1616.6,7087,1638.7,7087,1661.4z"/>
	<path class="st0" d="M7350.2,1736.8v-79.1c0-23-12.6-40.5-36.5-40.5c-23,0-38.6,19.3-38.6,42.3v77.3h-37.1v-151.5h33.4l2.5,20.6
		c15.3-15,30.7-22.7,49.7-22.7c35.6,0,64.1,26.7,64.1,74.2v79.4H7350.2z"/>
	<path class="st0" d="M7524.4,1625.8c-10.7-10.1-23-13.5-37.4-13.5c-17.8,0-27.6,5.5-27.6,15c0,9.8,8.9,15.3,28.2,16.6
		c28.5,1.8,64.7,8.3,64.7,48.5c0,26.7-21.8,49.7-65,49.7c-23.9,0-47.9-4-69.9-27l18.4-26.7c10.7,12,35.3,20.9,52.1,21.2
		c14.1,0.3,27.3-7.1,27.3-18.1c0-10.4-8.6-14.7-30.1-16c-28.5-2.1-62.6-12.6-62.6-46.9c0-35,36.2-47.2,63.8-47.2
		c23.6,0,41.4,4.6,58.9,19.9L7524.4,1625.8z"/>
</g>
<g>
	<defs>
		<rect id="SVGID_13_" x="5318.8" y="939.6" width="2516.2" height="1106"/>
	</defs>
	<clipPath id="SVGID_14_">
		<use xlink:href="#SVGID_13_"  style="overflow:visible;"/>
	</clipPath>
	<path class="st22" d="M6136.1,1493.1c0-147.9-119.9-267.9-267.9-267.9c-147.9,0-267.9,119.9-267.9,267.9s119.9,267.9,267.9,267.9
		C6016.2,1761,6136.1,1641.1,6136.1,1493.1"/>
	<path class="st23" d="M5752.1,1391.7c-2.4,3.4-1.5,8.2,2,10.5l2.1,1.5l-49.8,72.6l-2.1-1.5c-3.4-2.4-8.2-1.5-10.5,2
		c-2.4,3.4-1.5,8.2,2,10.5l51.9,35.6c3.4,2.4,8.2,1.5,10.5-2c2.4-3.4,1.5-8.2-2-10.5l-2.1-1.5l8.1-11.9l216.7,148.6l32.6-47.5
		l-216.7-148.6l9-13.2l2.1,1.5c3.4,2.4,8.2,1.5,10.5-2c2.4-3.4,1.5-8.2-2-10.5l-51.9-35.6
		C5759.2,1387.4,5754.4,1388.3,5752.1,1391.7"/>
	<path class="st23" d="M5773.6,1378.3l47.6,32.5c12.3-18,36.8-22.6,54.8-10.3c18,12.3,22.6,36.8,10.3,54.8l47.6,32.5
		c30.2-44.2,18.8-104.7-25.4-134.9C5864.3,1322.7,5803.8,1334.1,5773.6,1378.3"/>
</g>
<g>
	<g>
		<path class="st19" d="M3884.1,1403.1h-60.7v63.2h-40.5v-214.7c33.7,0,67.5-0.3,101.2-0.3C3989,1251.3,3989.3,1403.1,3884.1,1403.1
			z M3823.3,1366h60.7c51.8,0,51.5-76.1,0-76.1h-60.7V1366z"/>
	</g>
	<g>
		<path class="st19" d="M4033.7,1272.4c0,29.1-44.2,29.1-44.2,0S4033.7,1243.3,4033.7,1272.4z M3993,1314.4v151.8h37.4v-151.8H3993z
			"/>
	</g>
	<g>
		<path class="st19" d="M4218.4,1390.8c0,43.6-29.8,78.8-78.8,78.8c-49.1,0-78.5-35.3-78.5-78.8c0-43.2,30.1-78.8,78.2-78.8
			C4187.4,1312,4218.4,1347.6,4218.4,1390.8z M4098.5,1390.8c0,23,13.8,44.5,41.1,44.5c27.3,0,41.1-21.5,41.1-44.5
			c0-22.7-16-44.8-41.1-44.8C4112.6,1346,4098.5,1368.1,4098.5,1390.8z"/>
	</g>
	<g>
		<path class="st19" d="M4361.3,1466.3v-79.1c0-23-12.6-40.5-36.5-40.5c-23,0-38.6,19.3-38.6,42.3v77.3h-37.1v-151.5h33.4l2.5,20.6
			c15.3-15,30.7-22.7,49.7-22.7c35.6,0,64.1,26.7,64.1,74.2v79.4H4361.3z"/>
	</g>
	<g>
		<path class="st19" d="M4469,1404c2.5,18.7,18.7,32.2,45.1,32.2c13.8,0,31.9-5.2,40.5-14.1l23.9,23.6c-16,16.6-42,24.5-65,24.5
			c-52.1,0-83.1-32.2-83.1-80.7c0-46,31.3-79.1,80.4-79.1c50.6,0,82.2,31.3,76.4,93.6H4469z M4551.2,1373
			c-2.5-19.6-17.8-29.4-39.3-29.4c-20.2,0-36.8,9.8-42.3,29.4H4551.2z"/>
	</g>
	<g>
		<path class="st19" d="M4654.6,1404c2.5,18.7,18.7,32.2,45.1,32.2c13.8,0,31.9-5.2,40.5-14.1l23.9,23.6c-16,16.6-42,24.5-65,24.5
			c-52.1,0-83.1-32.2-83.1-80.7c0-46,31.3-79.1,80.4-79.1c50.6,0,82.2,31.3,76.4,93.6H4654.6z M4736.8,1373
			c-2.5-19.6-17.8-29.4-39.3-29.4c-20.2,0-36.8,9.8-42.3,29.4H4736.8z"/>
	</g>
	<g>
		<path class="st19" d="M4838,1315.1l2.8,17.5c11.7-18.7,27.3-21.5,42.6-21.5c15.6,0,30.7,6.1,39,14.4l-16.9,32.5
			c-7.7-6.4-14.7-9.8-27-9.8c-19.6,0-37.7,10.4-37.7,38.3v79.8h-37.4v-151.2H4838z"/>
	</g>
	<g>
		<path class="st19" d="M3947.6,1696.3h-112.3l-18.4,40.5H3773l96.3-214.7h44.2l96.3,214.7h-44.2L3947.6,1696.3z M3891.4,1567.2
			l-39.9,91.4h79.8L3891.4,1567.2z"/>
		<path class="st19" d="M4060.4,1585.6v79.1c0,23,12.6,40.5,36.5,40.5c23,0,38.6-19.3,38.6-42.3v-77.3h37.1v151.5h-33.4l-2.5-20.6
			c-15.6,15.3-30.1,22.7-51.2,22.7c-36.2,0-62.6-27.3-62.6-74.2v-79.4H4060.4z"/>
	</g>
	<g>
		<path class="st19" d="M4341.7,1717.5c-17.5,17.2-35.9,23.9-58.3,23.9c-43.9,0-80.4-26.4-80.4-80.1s36.5-80.1,80.4-80.1
			c21.5,0,38,6.1,54.6,22.4l-23.6,24.8c-8.9-8-19.9-12-30.4-12c-25.2,0-43.6,18.4-43.6,44.8c0,28.8,19.6,44.2,42.9,44.2
			c12,0,23.9-3.4,33.1-12.6L4341.7,1717.5z"/>
	</g>
	<g>
		<path class="st19" d="M4415.3,1543v42.9h41.7v32.2h-42v65.3c0,14.4,8,21.5,19.6,21.5c5.8,0,12.6-1.8,18.1-4.6l10.4,31.9
			c-10.7,4.3-19.6,6.1-31,6.4c-32.8,1.2-54.3-17.5-54.3-55.2v-65.3h-28.2v-32.2h28.2v-39L4415.3,1543z"/>
	</g>
	<g>
		<path class="st19" d="M4531.9,1543c0,29.1-44.2,29.1-44.2,0S4531.9,1513.8,4531.9,1543z M4491.1,1585v151.8h37.4V1585H4491.1z"/>
	</g>
	<g>
		<path class="st19" d="M4717.5,1661.4c0,43.6-29.8,78.8-78.8,78.8s-78.5-35.3-78.5-78.8c0-43.2,30.1-78.8,78.2-78.8
			C4686.5,1582.5,4717.5,1618.1,4717.5,1661.4z M4597.5,1661.4c0,23,13.8,44.5,41.1,44.5c27.3,0,41.1-21.5,41.1-44.5
			c0-22.7-16-44.8-41.1-44.8C4611.6,1616.6,4597.5,1638.7,4597.5,1661.4z"/>
		<path class="st19" d="M4860.7,1736.8v-79.1c0-23-12.6-40.5-36.5-40.5c-23,0-38.6,19.3-38.6,42.3v77.3h-37.1v-151.5h33.4l2.5,20.6
			c15.3-15,30.7-22.7,49.7-22.7c35.6,0,64.1,26.7,64.1,74.2v79.4H4860.7z"/>
		<path class="st19" d="M5034.9,1625.8c-10.7-10.1-23-13.5-37.4-13.5c-17.8,0-27.6,5.5-27.6,15c0,9.8,8.9,15.3,28.2,16.6
			c28.5,1.8,64.7,8.3,64.7,48.5c0,26.7-21.8,49.7-65,49.7c-23.9,0-47.9-4-69.9-27l18.4-26.7c10.7,12,35.3,20.9,52.1,21.2
			c14.1,0.3,27.3-7.1,27.3-18.1c0-10.4-8.6-14.7-30.1-16c-28.5-2.1-62.6-12.6-62.6-46.9c0-35,36.2-47.2,63.8-47.2
			c23.6,0,41.4,4.6,58.9,19.9L5034.9,1625.8z"/>
	</g>
</g>
<g>
	<defs>
		<rect id="SVGID_15_" x="2829.3" y="939.6" width="2516.2" height="1106"/>
	</defs>
	<clipPath id="SVGID_16_">
		<use xlink:href="#SVGID_15_"  style="overflow:visible;"/>
	</clipPath>
	<path class="st24" d="M3378.7,1225.2c-147.9,0-267.9,119.9-267.9,267.9s119.9,267.9,267.9,267.9c147.9,0,267.9-119.9,267.9-267.9
		S3526.7,1225.2,3378.7,1225.2z M3419,1352.8c44.2,30.2,55.6,90.7,25.4,134.9l-47.6-32.5c12.3-18,7.6-42.5-10.3-54.8
		c-18-12.3-42.5-7.6-54.8,10.3l-47.6-32.5C3314.3,1334.1,3374.8,1322.7,3419,1352.8z M3489.4,1645.7l-216.7-148.6l-8.1,11.9l2.1,1.5
		c3.4,2.4,4.3,7.1,2,10.5c-2.4,3.4-7.1,4.3-10.5,2l-51.9-35.6c-3.4-2.4-4.3-7.1-2-10.5c2.4-3.4,7.1-4.3,10.5-2l2.1,1.5l49.8-72.6
		l-2.1-1.5c-3.4-2.4-4.3-7.1-2-10.5c2.4-3.4,7.1-4.3,10.5-2l51.9,35.6c3.4,2.4,4.3,7.1,2,10.5c-2.4,3.4-7.1,4.3-10.5,2l-2.1-1.5
		l-9,13.2l216.7,148.6L3489.4,1645.7z"/>
</g>
</svg>
