<?xml version="1.0" encoding="utf-8"?>
<!-- Generator: Adobe Illustrator 19.0.0, SVG Export Plug-In . SVG Version: 6.00 Build 0)  -->
<svg version="1.1" id="Layer_1" xmlns="http://www.w3.org/2000/svg" xmlns:xlink="http://www.w3.org/1999/xlink" x="0px" y="0px"
	 viewBox="0 0 2009.3 589.4" style="enable-background:new 0 0 2009.3 589.4;" xml:space="preserve">
<style type="text/css">
	.st0{fill:#5C02B5;}
	.st1{clip-path:url(#SVGID_2_);fill:#5C02B5;}
	.st2{clip-path:url(#SVGID_2_);fill:#FA8500;}
	.st3{fill:#5D04B5;}
	.st4{fill:#5E05B5;}
	.st5{fill:#5D05B5;}
	.st6{fill:#5C02B4;}
	.st7{fill:#5F07B6;}
	.st8{fill:#5F06B6;}
	.st9{fill:#5E06B5;}
	.st10{fill:#6009B6;}
	.st11{fill:#5F08B6;}
	.st12{clip-path:url(#SVGID_4_);fill:#FA8500;}
	.st13{clip-path:url(#SVGID_4_);fill:#5D05B5;}
	.st14{fill:#FA8500;}
	.st15{clip-path:url(#SVGID_6_);fill:#5D05B5;}
	.st16{clip-path:url(#SVGID_6_);fill:#FA8500;}
	.st17{clip-path:url(#SVGID_8_);fill:#FFFFFF;}
	.st18{clip-path:url(#SVGID_10_);fill:#FFFFFF;}
	.st19{fill:#FFFFFF;}
	.st20{clip-path:url(#SVGID_12_);fill:#FA8500;}
	.st21{clip-path:url(#SVGID_12_);fill:#5C02B5;}
	.st22{clip-path:url(#SVGID_14_);fill:#5C02B5;}
	.st23{clip-path:url(#SVGID_14_);fill:#FA8500;}
	.st24{clip-path:url(#SVGID_16_);fill:#FFFFFF;}
</style>
<rect y="0" class="st0" width="2009.3" height="589.4"/>
<rect x="-3813.6" class="st0" width="1400.9" height="589.4"/>
<g>
	<defs>
		<rect id="SVGID_1_" x="-5735.2" y="-168.9" width="1720.9" height="927.1"/>
	</defs>
	<clipPath id="SVGID_2_">
		<use xlink:href="#SVGID_1_"  style="overflow:visible;"/>
	</clipPath>
	<path class="st1" d="M-4196.1,296.6c0-151-122.4-273.5-273.5-273.5c-151,0-273.5,122.4-273.5,273.5s122.4,273.5,273.5,273.5
		C-4318.6,570.1-4196.1,447.7-4196.1,296.6"/>
	<path class="st2" d="M-4588.2,193.1c-2.4,3.5-1.5,8.4,2,10.8l2.2,1.5l-50.8,74.1l-2.2-1.5c-3.5-2.4-8.4-1.5-10.8,2
		c-2.4,3.5-1.5,8.4,2,10.8l53,36.3c3.5,2.4,8.4,1.5,10.8-2c2.4-3.5,1.5-8.4-2-10.8l-2.2-1.5l8.3-12.1l221.3,151.7l33.3-48.5
		l-221.3-151.7l9.2-13.5l2.2,1.5c3.5,2.4,8.4,1.5,10.8-2c2.4-3.5,1.5-8.4-2-10.8l-53-36.3C-4580.9,188.7-4585.8,189.6-4588.2,193.1"
		/>
	<path class="st2" d="M-4566.2,179.4l48.6,33.2c12.5-18.3,37.6-23.1,56-10.6c18.3,12.5,23.1,37.6,10.6,55.9l48.6,33.2
		c30.8-45.1,19.2-106.9-26-137.7S-4535.4,134.3-4566.2,179.4"/>
	<path class="st1" d="M-6008.8,296.6c0-151-122.4-273.5-273.5-273.5c-151,0-273.5,122.4-273.5,273.5s122.4,273.5,273.5,273.5
		C-6131.2,570.1-6008.8,447.7-6008.8,296.6"/>
	<path class="st2" d="M-6400.9,193.1c-2.4,3.5-1.5,8.4,2,10.8l2.2,1.5l-50.8,74.1l-2.2-1.5c-3.5-2.4-8.4-1.5-10.8,2
		c-2.4,3.5-1.5,8.4,2,10.8l53,36.3c3.5,2.4,8.4,1.5,10.8-2c2.4-3.5,1.5-8.4-2-10.8l-2.2-1.5l8.3-12.1l221.3,151.7l33.3-48.5
		l-221.3-151.7l9.2-13.5l2.2,1.5c3.5,2.4,8.4,1.5,10.8-2c2.4-3.5,1.5-8.4-2-10.8l-53-36.3C-6393.6,188.7-6398.5,189.6-6400.9,193.1"
		/>
	<path class="st2" d="M-6378.9,179.4l48.6,33.2c12.5-18.3,37.6-23.1,56-10.6c18.3,12.5,23.1,37.6,10.6,55.9l48.6,33.2
		c30.8-45.1,19.2-106.9-26-137.7S-6348.1,134.3-6378.9,179.4"/>
</g>
<g>
	<path class="st3" d="M-5160.8,248.5c-9,0-18,0.4-26.9-1.1c-21.6-3.5-36.2-17.4-40.1-39.1c-4.4-24.6,0.1-47.5,16.1-67.1
		c28-34.2,76.6-27.8,95.4,12.2c7.4,15.7,10.1,32.5,11,49.5c0.2,3.5,1.1,4.4,4.5,4.3c11.4-0.3,22.9,0.3,34.2-1.2
		c15.6-2,21.3-8.6,20.4-24.3c-1.1-17.8-4.7-35.2-7.9-52.7c-0.6-3.4-0.5-5,3.6-5.5c7.6-0.9,15.2-2.3,22.7-3.8
		c2.8-0.5,4.1,0.1,4.5,3.1c3,21.7,7.3,43.2,7.1,65.3c-0.1,7.5-0.9,15-2.9,22.2c-6.1,21.7-21.6,32.3-42.8,36.2
		c-13.5,2.5-27.2,2.2-40.9,2c-4.2-0.1-6.5,0.7-7.8,5.3c-12.2,42.1-41.4,65.7-85.1,69.5c-10.9,1-21.7,0.5-32.6,0.9
		c-3.7,0.1-4.3-1.3-4.3-4.6c0.2-10.7,0.2-21.4,0-32c-0.1-3.9,1-5.1,5-5c15.9,0.3,31.9,0.5,47.5-3.3c16.1-3.9,30.4-10.6,39.3-25.6
		c0.8-1.4,2.5-2.8,1.6-4.5c-0.8-1.4-2.7-0.6-4.2-0.6C-5149.1,248.5-5155,248.5-5160.8,248.5z M-5159.1,207.1c7.9,0,14.5-0.1,21,0.1
		c2.8,0.1,4-0.6,3.9-3.7c-0.2-9.5-2-18.5-7-26.8c-11.7-19.5-41.8-21.9-54.5-4.3c-11,15.2-4.5,31.1,13.8,34.1
		C-5173.9,207.8-5165.8,206.8-5159.1,207.1z"/>
	<path class="st3" d="M-5398.3,209.4c-1.3,4.1-2.4,8.1-3.7,12c-5.5,15.7-16.4,24.3-33,26.3c-7.7,0.9-15.3,0.7-23,0.6
		c-3.4,0-4.8,0.8-5.3,4.4c-2.6,15.9-7.9,30.8-18.3,43.5c-16,19.6-37.7,26.7-62,27.7c-3.7,0.2-7.5-0.2-11.2,0.1
		c-4.2,0.4-4.9-1.3-4.8-5.1c0.2-10.3,0.3-20.6,0-30.9c-0.1-4.3,0.9-5.9,5.5-5.6c8.4,0.5,16.9,0.3,25.2-1.4
		c23.1-4.5,35.3-18.9,37.1-43.5c1.3-18.5-2.1-36.6-5-54.7c-1.3-7.9-2.6-15.9-4-23.8c-0.5-3-0.3-4.7,3.5-5.2
		c7.8-0.9,15.5-2.4,23.3-3.8c2.4-0.4,3.3,0.2,3.7,2.6c2.8,16.8,6,33.5,7.7,50.5c0.2,1.8-0.3,3.9,2.7,3.8c13.8-0.4,27.8,1.1,41.5-0.8
		c11.7-1.7,17.6-8.3,17.9-20.1c0.3-14.6,0.2-29.2,0.1-43.8c0-3.8,0.7-5.3,4.9-5.1c7.3,0.3,14.6,0.3,21.9,0c3.4-0.1,4.5,0.9,4.4,4.4
		c-0.2,13.9-0.1,27.7-0.1,41.6c0.1,16.6,7.4,23.9,24.2,23.9c11.2,0,22.5,0.7,33.7-1c2.6-0.4,5.2-0.8,7.7-1.5
		c9.6-2.8,13.6-7.9,13.6-18c0-14.7-2.8-29-5.3-43.4c-0.8-4.8-1.6-9.6-2.7-14.3c-0.8-3.6,0.3-4.9,4-5.3c7.6-0.9,15.1-2.4,22.7-3.7
		c2-0.3,3.6-0.6,4,2.2c3.6,25.9,9.7,51.6,6.4,78.1c-3.1,25.2-16.4,40.2-41.2,45.5c-19.2,4.2-38.7,4.3-58.1,1.1
		c-19.3-3.2-30.7-15.1-35.7-33.7C-5396.6,211.8-5396.2,210.3-5398.3,209.4z"/>
	<path class="st4" d="M-4938.2,501.2c-2.5,12.1-7.7,21.9-21.5,23.7c-14.6,1.9-27.3-1.1-36.5-14.7c0,4-0.1,7.9,0,11.9
		c0.1,2.3-0.5,3.4-3.1,3.4c-9.2-0.2-18.4,0.3-27.5-0.4c-12.9-0.9-23.3-6.4-29.2-18.6c-0.7,0.4-1.2,0.6-1.3,0.8
		c-6.6,15.4-10.6,18.3-27.7,18c-4.6-0.1-6.5,1-7.6,5.9c-6.7,29.3-25.8,43.1-56.3,41.7c-3.2-0.1-3.7-1.3-3.6-4c0.2-6,0.2-12,0-18
		c-0.1-3.1,0.8-4.4,4.1-4.1c2.8,0.3,5.6,0.1,8.4,0c19.8-1.1,30-11.7,30.3-31.5c0.2-13.9-2.9-27.5-5.1-41.2c-1.2-7.3-1.3-7.3,6.1-8.7
		c11.8-2.2,11.9-2.2,13.9,10c1.2,6.8,2.2,13.7,3.1,20.5c0.3,2,0.1,3.7,3,3.6c9.2-0.3,18.4,0.4,27.5-0.8c2.3-0.3,3.1-0.9,2.9-3.5
		c-1-13.2,4.8-23.5,14.2-32.1c7.1-6.5,15.2-11.7,23.8-15.7c7.2-3.3,15.5-1,23.3-1.1c2.3,0,2.3,2.7,2.9,4.3
		c4.7,12.2,9.1,24.5,13.8,36.7c3.8,10,7.1,12.2,17.6,12c4.1-0.1,8.2,0.4,12.3-0.5c7-1.6,10.3-5.2,10.6-12.5
		c0.2-5.8,0.1-11.6,0.1-17.4c0-28.3,0.1-56.6-0.1-84.9c0-4.2,1.1-5.7,5.3-5.3c3.7,0.4,7.5,0.4,11.2,0c4-0.4,4.9,1.1,4.9,5
		c-0.2,32.6-0.1,65.2-0.1,97.8c0,14.1,3.9,17.9,18.1,17.8c3.7,0,7.5,0.1,11.2-0.1c8.6-0.5,12.1-4.1,12.3-12.7c0.1-5.1,0-10.1,0-15.2
		c0-28.9,0.1-57.7-0.1-86.6c0-4.4,0.7-6.6,5.7-6c5,0.6,11.5-2,14.6,1c3.1,3.1,0.9,9.6,0.9,14.6c0.1,30.4,0,60.7,0.1,91.1
		c0,6.4-0.6,12.7-2.4,18.9c-3.1,11-10.3,17.7-21.4,19.8c-11.1,2-22.4,1.9-33.6,0.2c-11.5-1.8-19.5-8-23.2-19.3
		C-4936.4,503.9-4935.9,502-4938.2,501.2z M-4999.8,499.6c-3.8-10.1-7.3-19.5-10.8-28.9c-0.5-1.2-1.3-2-2.5-1.4
		c-8.9,4.3-18.8,6.7-25.8,14.2c-5.4,5.9-3.1,13.3,4.8,14.9C-5023.2,500.8-5011.9,499-4999.8,499.6z"/>
	<path class="st5" d="M-4987.8,106.2c0-28.5,0.1-57-0.1-85.4c0-4.3,0.8-6,5.5-5.7c7.5,0.4,15,0.4,22.5,0c4.7-0.2,6,1.2,5.9,5.9
		c-0.2,53.2-0.1,106.4-0.1,159.6c0,3.7,0.3,7.5,0.8,11.2c1.1,8,5.6,13.2,13.6,14.2c16.4,2.1,32.9,2.3,49.2-1
		c11.8-2.4,16.2-8.2,15.8-20.2c-0.5-17.5-4.1-34.5-7.2-51.7c-1.6-9.1-1.7-9,7.4-10.3c6.1-0.9,12.2-1.9,18.3-3.1
		c2.8-0.5,3.9,0.1,4.3,3.1c2.8,18.5,6,37,7.1,55.7c0.5,7.5,0.3,15-0.9,22.4c-4,25.8-17.5,40.2-43.1,45.1c-19.1,3.6-38.4,4-57.6,0.6
		c-25.5-4.4-38.7-19.6-40.7-45.6c-1.7-22.6-0.4-45.3-0.8-68C-4987.9,124.2-4987.8,115.2-4987.8,106.2z"/>
	<path class="st5" d="M-5411.5,499.5c15.3-0.1,30.7,0.5,46-2.1c12.6-2.1,15.5-6,14.4-18.4c-0.8-9-2.6-17.8-4.4-26.6
		c-0.7-3.4-0.9-5.8,3.8-5.9c4.9-0.1,11.1-4.1,14.4-1c2.8,2.6,2.1,9.1,2.8,13.9c1.3,8.5,2.6,17,2.6,25.7c0.2,23.2-8.5,34.8-31.1,38.8
		c-30.3,5.4-60.7,5.5-91.1,0.4c-1.7-0.3-3.3-0.7-4.9-1.1c-21.9-5.9-32-20.2-30.2-42.8c0.8-10,3.2-19.5,6.5-28.9c1-3,2.2-4.3,5.6-2.9
		c3.9,1.7,9.8,1.1,11.7,4.3c1.7,2.9-2.5,7.2-3.5,11.2c-0.7,2.9-1.6,5.8-2.1,8.7c-2.3,12,2.6,20.1,14.4,23.4
		C-5441.9,500.3-5426.7,499.4-5411.5,499.5z"/>
	<path class="st5" d="M-5240.3,525.4c-4.5-0.3-10.7,0.6-16.8-0.5c-11.2-2-17.1-8.2-18.7-19.4c-0.1-0.9-0.2-1.9-0.2-2.8
		c-0.9-17.6-0.9-17.5,16.6-16.8c3.1,0.1,3.6,1.2,3.7,3.9c0.2,9.6,0.3,9.6,10.2,9.6c7.1,0,14.2,0.2,21.4,0c13-0.4,17.8-9.5,11.1-20.8
		c-3.8-6.3-9.1-11.4-14.2-16.6c-6.8-6.8-13.5-13.6-20.5-20c-2.9-2.6-2.5-4.2,0-6.7c4.3-4.2,8.3-8.7,12.4-13c1.3-1.4,2.4-2.9,4.4-0.6
		c10.9,11.9,23.1,22.5,31.7,36.3c8,12.9,10.4,26.8,7.2,41.5c-3.4,15.5-15.7,25.1-32.5,25.8C-5229.3,525.6-5233.9,525.4-5240.3,525.4
		z"/>
	<path class="st6" d="M-5314.3,451.2c0-22.7,0.1-45.3-0.1-68c0-4.2,0.9-5.6,5.2-5.2c5.2,0.5,12.2-1.7,15.2,1
		c3.5,3.1,1,10.2,1.1,15.5c0.1,41.7,0,83.5,0.2,125.2c0,4.7-1,6.3-5.8,5.8c-5-0.5-11.7,1.6-14.6-0.9c-3.3-3-1-9.8-1-15
		C-5314.4,490.2-5314.3,470.7-5314.3,451.2z"/>
	<path class="st6" d="M-5151.2,452.4c0,22.7-0.1,45.3,0.1,68c0,4.2-1,5.6-5.2,5.2c-5.2-0.5-12,1.6-15.2-1c-3.4-2.7-1-9.8-1-15
		c-0.1-41.9,0-83.9-0.2-125.8c0-4.7,1.1-6.2,5.8-5.8c5,0.5,11.7-1.6,14.6,1c3.3,3,1,9.8,1,15
		C-5151.1,413.5-5151.2,432.9-5151.2,452.4z"/>
	<path class="st7" d="M-5022.1,315c-13.4,0-19.8-6.3-19.9-19.3c0-13.5,6.5-19.8,20.6-19.7c13.2,0,19.6,6.5,19.6,19.6
		C-5001.7,308.8-5008.2,315-5022.1,315z"/>
	<path class="st8" d="M-5361.6,315c-13.6,0-20-6.1-20.1-19.2c-0.1-13.5,6.3-19.8,20.1-19.8c13.7,0,20.2,6.4,20.1,19.8
		C-5341.6,308.9-5348,315-5361.6,315z"/>
	<path class="st9" d="M-5069,315c-13.5,0-19.9-6.3-19.9-19.4c0-13.4,6.5-19.6,20.3-19.6c13.7,0,19.9,6.3,19.8,20
		C-5048.9,309-5055.2,315-5069,315z"/>
	<path class="st9" d="M-4874.5,315c-13.4,0-19.7-6.3-19.6-19.6c0.1-13.5,6.4-19.4,20.4-19.4c13.4,0,19.5,6.2,19.5,19.6
		C-4854.2,309.2-4860.3,315-4874.5,315z"/>
	<path class="st5" d="M-5288.3,90.2c-13.6,0-19.9-6.1-19.9-19.2c0-13.4,6.3-19.6,20.2-19.5c13.8,0,19.9,6.2,19.8,19.8
		C-5268.3,84.4-5274.5,90.2-5288.3,90.2z"/>
	<path class="st9" d="M-5408.9,315c-13.3,0-19.9-6.5-19.8-19.5c0.1-13.3,6.6-19.5,20.4-19.5c13.4,0,19.7,6.3,19.7,19.6
		C-5388.5,308.9-5394.9,315-5408.9,315z"/>
	<path class="st10" d="M-5396.9,453.3c-8.5,0-12.6-4-12.7-12.1c-0.1-8.3,4-12.4,12.4-12.4c8.9-0.1,13,3.9,13,12.3
		C-5384.2,449.2-5388.4,453.2-5396.9,453.3z"/>
	<path class="st11" d="M-5426.6,428.7c8.8,0,12.9,4,12.8,12.5c-0.1,8.2-4.3,12.1-12.8,12c-8.4,0-12.5-4.1-12.5-12.3
		C-5439.1,432.7-5435,428.8-5426.6,428.7z"/>
	<path class="st11" d="M-5109.1,420.9c8.5,0,12.4,3.8,12.4,12.2c0,8.3-4,12.2-12.5,12.3c-8.7,0-12.9-4.1-12.7-12.6
		C-5121.8,424.5-5117.8,420.8-5109.1,420.9z"/>
</g>
<g>
	<defs>
		<rect id="SVGID_3_" x="-3973.6" y="-168.9" width="1720.9" height="927.1"/>
	</defs>
	<clipPath id="SVGID_4_">
		<use xlink:href="#SVGID_3_"  style="overflow:visible;"/>
	</clipPath>
	<path class="st12" d="M-2434.5,296.6c0-151-122.4-273.5-273.5-273.5c-151,0-273.5,122.4-273.5,273.5S-2859,570.1-2708,570.1
		C-2556.9,570.1-2434.5,447.7-2434.5,296.6"/>
	<path class="st13" d="M-2826.6,193.1c-2.4,3.5-1.5,8.4,2,10.8l2.2,1.5l-50.8,74.1l-2.2-1.5c-3.5-2.4-8.4-1.5-10.8,2
		c-2.4,3.5-1.5,8.4,2,10.8l53,36.3c3.5,2.4,8.4,1.5,10.8-2c2.4-3.5,1.5-8.4-2-10.8l-2.2-1.5l8.3-12.1l221.3,151.7l33.3-48.5
		L-2783,252.2l9.2-13.5l2.2,1.5c3.5,2.4,8.4,1.5,10.8-2c2.4-3.5,1.5-8.4-2-10.8l-53-36.3C-2819.3,188.7-2824.2,189.6-2826.6,193.1"
		/>
	<path class="st13" d="M-2804.6,179.4l48.6,33.2c12.5-18.3,37.6-23.1,56-10.6c18.3,12.5,23.1,37.6,10.6,55.9l48.6,33.2
		c30.8-45.1,19.2-106.9-26-137.7S-2773.8,134.3-2804.6,179.4"/>
</g>
<g>
	<path class="st14" d="M-3399.1,248.5c-9,0-18,0.4-26.9-1.1c-21.6-3.5-36.2-17.4-40.1-39.1c-4.4-24.6,0.1-47.5,16.1-67.1
		c28-34.2,76.6-27.8,95.4,12.2c7.4,15.7,10.1,32.5,11,49.5c0.2,3.5,1.1,4.4,4.5,4.3c11.4-0.3,22.9,0.3,34.2-1.2
		c15.6-2,21.3-8.6,20.4-24.3c-1.1-17.8-4.7-35.2-7.9-52.7c-0.6-3.4-0.5-5,3.6-5.5c7.6-0.9,15.2-2.3,22.7-3.8
		c2.8-0.5,4.1,0.1,4.5,3.1c3,21.7,7.3,43.2,7.1,65.3c-0.1,7.5-0.9,15-2.9,22.2c-6.1,21.7-21.6,32.3-42.8,36.2
		c-13.5,2.5-27.2,2.2-40.9,2c-4.2-0.1-6.5,0.7-7.8,5.3c-12.2,42.1-41.4,65.7-85.1,69.5c-10.9,1-21.7,0.5-32.6,0.9
		c-3.7,0.1-4.3-1.3-4.3-4.6c0.2-10.7,0.2-21.4,0-32c-0.1-3.9,1-5.1,5-5c15.9,0.3,31.9,0.5,47.5-3.3c16.1-3.9,30.4-10.6,39.3-25.6
		c0.8-1.4,2.5-2.8,1.6-4.5c-0.8-1.4-2.7-0.6-4.2-0.6C-3387.5,248.5-3393.3,248.5-3399.1,248.5z M-3397.5,207.1
		c7.9,0,14.5-0.1,21,0.1c2.8,0.1,4-0.6,3.9-3.7c-0.2-9.5-2-18.5-7-26.8c-11.7-19.5-41.8-21.9-54.5-4.3c-11,15.2-4.5,31.1,13.8,34.1
		C-3412.2,207.8-3404.1,206.8-3397.5,207.1z"/>
	<path class="st14" d="M-3636.6,209.4c-1.3,4.1-2.4,8.1-3.7,12c-5.5,15.7-16.4,24.3-33,26.3c-7.7,0.9-15.3,0.7-23,0.6
		c-3.4,0-4.8,0.8-5.3,4.4c-2.6,15.9-7.9,30.8-18.3,43.5c-16,19.6-37.7,26.7-62,27.7c-3.7,0.2-7.5-0.2-11.2,0.1
		c-4.2,0.4-4.9-1.3-4.8-5.1c0.2-10.3,0.3-20.6,0-30.9c-0.1-4.3,0.9-5.9,5.5-5.6c8.4,0.5,16.9,0.3,25.2-1.4
		c23.1-4.5,35.3-18.9,37.1-43.5c1.3-18.5-2.1-36.6-5-54.7c-1.3-7.9-2.6-15.9-4-23.8c-0.5-3-0.3-4.7,3.5-5.2
		c7.8-0.9,15.5-2.4,23.3-3.8c2.4-0.4,3.3,0.2,3.7,2.6c2.8,16.8,6,33.5,7.7,50.5c0.2,1.8-0.3,3.9,2.7,3.8c13.8-0.4,27.8,1.1,41.5-0.8
		c11.7-1.7,17.6-8.3,17.9-20.1c0.3-14.6,0.2-29.2,0.1-43.8c0-3.8,0.7-5.3,4.9-5.1c7.3,0.3,14.6,0.3,21.9,0c3.4-0.1,4.5,0.9,4.4,4.4
		c-0.2,13.9-0.1,27.7-0.1,41.6c0.1,16.6,7.4,23.9,24.2,23.9c11.2,0,22.5,0.7,33.7-1c2.6-0.4,5.2-0.8,7.7-1.5
		c9.6-2.8,13.6-7.9,13.6-18c0-14.7-2.8-29-5.3-43.4c-0.8-4.8-1.6-9.6-2.7-14.3c-0.8-3.6,0.3-4.9,4-5.3c7.6-0.9,15.1-2.4,22.7-3.7
		c2-0.3,3.6-0.6,4,2.2c3.6,25.9,9.7,51.6,6.4,78.1c-3.1,25.2-16.4,40.2-41.2,45.5c-19.2,4.2-38.7,4.3-58.1,1.1
		c-19.3-3.2-30.7-15.1-35.7-33.7C-3634.9,211.8-3634.6,210.3-3636.6,209.4z"/>
	<path class="st14" d="M-3176.5,501.2c-2.5,12.1-7.7,21.9-21.5,23.7c-14.6,1.9-27.3-1.1-36.5-14.7c0,4-0.1,7.9,0,11.9
		c0.1,2.3-0.5,3.4-3.1,3.4c-9.2-0.2-18.4,0.3-27.5-0.4c-12.9-0.9-23.3-6.4-29.2-18.6c-0.7,0.4-1.2,0.6-1.3,0.8
		c-6.6,15.4-10.6,18.3-27.7,18c-4.6-0.1-6.5,1-7.6,5.9c-6.7,29.3-25.8,43.1-56.3,41.7c-3.2-0.1-3.7-1.3-3.6-4c0.2-6,0.2-12,0-18
		c-0.1-3.1,0.8-4.4,4.1-4.1c2.8,0.3,5.6,0.1,8.4,0c19.8-1.1,30-11.7,30.3-31.5c0.2-13.9-2.9-27.5-5.1-41.2c-1.2-7.3-1.3-7.3,6.1-8.7
		c11.8-2.2,11.9-2.2,13.9,10c1.2,6.8,2.2,13.7,3.1,20.5c0.3,2,0.1,3.7,3,3.6c9.2-0.3,18.4,0.4,27.5-0.8c2.3-0.3,3.1-0.9,2.9-3.5
		c-1-13.2,4.8-23.5,14.2-32.1c7.1-6.5,15.2-11.7,23.8-15.7c7.2-3.3,15.5-1,23.3-1.1c2.3,0,2.3,2.7,2.9,4.3
		c4.7,12.2,9.1,24.5,13.8,36.7c3.8,10,7.1,12.2,17.6,12c4.1-0.1,8.2,0.4,12.3-0.5c7-1.6,10.3-5.2,10.6-12.5
		c0.2-5.8,0.1-11.6,0.1-17.4c0-28.3,0.1-56.6-0.1-84.9c0-4.2,1.1-5.7,5.3-5.3c3.7,0.4,7.5,0.4,11.2,0c4-0.4,4.9,1.1,4.9,5
		c-0.2,32.6-0.1,65.2-0.1,97.8c0,14.1,3.9,17.9,18.1,17.8c3.7,0,7.5,0.1,11.2-0.1c8.6-0.5,12.1-4.1,12.3-12.7c0.1-5.1,0-10.1,0-15.2
		c0-28.9,0.1-57.7-0.1-86.6c0-4.4,0.7-6.6,5.7-6c5,0.6,11.5-2,14.6,1c3.1,3.1,0.9,9.6,0.9,14.6c0.1,30.4,0,60.7,0.1,91.1
		c0,6.4-0.6,12.7-2.4,18.9c-3.1,11-10.3,17.7-21.4,19.8c-11.1,2-22.4,1.9-33.6,0.2c-11.5-1.8-19.5-8-23.2-19.3
		C-3174.7,503.9-3174.3,502-3176.5,501.2z M-3238.2,499.6c-3.8-10.1-7.3-19.5-10.8-28.9c-0.5-1.2-1.3-2-2.5-1.4
		c-8.9,4.3-18.8,6.7-25.8,14.2c-5.4,5.9-3.1,13.3,4.8,14.9C-3261.5,500.8-3250.3,499-3238.2,499.6z"/>
	<path class="st14" d="M-3226.1,106.2c0-28.5,0.1-57-0.1-85.4c0-4.3,0.8-6,5.5-5.7c7.5,0.4,15,0.4,22.5,0c4.7-0.2,6,1.2,5.9,5.9
		c-0.2,53.2-0.1,106.4-0.1,159.6c0,3.7,0.3,7.5,0.8,11.2c1.1,8,5.6,13.2,13.6,14.2c16.4,2.1,32.9,2.3,49.2-1
		c11.8-2.4,16.2-8.2,15.8-20.2c-0.5-17.5-4.1-34.5-7.2-51.7c-1.6-9.1-1.7-9,7.4-10.3c6.1-0.9,12.2-1.9,18.3-3.1
		c2.8-0.5,3.9,0.1,4.3,3.1c2.8,18.5,6,37,7.1,55.7c0.5,7.5,0.3,15-0.9,22.4c-4,25.8-17.5,40.2-43.1,45.1c-19.1,3.6-38.4,4-57.6,0.6
		c-25.5-4.4-38.7-19.6-40.7-45.6c-1.7-22.6-0.4-45.3-0.8-68C-3226.3,124.2-3226.1,115.2-3226.1,106.2z"/>
	<path class="st14" d="M-3649.9,499.5c15.3-0.1,30.7,0.5,46-2.1c12.6-2.1,15.5-6,14.4-18.4c-0.8-9-2.6-17.8-4.4-26.6
		c-0.7-3.4-0.9-5.8,3.8-5.9c4.9-0.1,11.1-4.1,14.4-1c2.8,2.6,2.1,9.1,2.8,13.9c1.3,8.5,2.6,17,2.6,25.7c0.2,23.2-8.5,34.8-31.1,38.8
		c-30.3,5.4-60.7,5.5-91.1,0.4c-1.7-0.3-3.3-0.7-4.9-1.1c-21.9-5.9-32-20.2-30.2-42.8c0.8-10,3.2-19.5,6.5-28.9c1-3,2.2-4.3,5.6-2.9
		c3.9,1.7,9.8,1.1,11.7,4.3c1.7,2.9-2.5,7.2-3.5,11.2c-0.7,2.9-1.6,5.8-2.1,8.7c-2.3,12,2.6,20.1,14.4,23.4
		C-3680.3,500.3-3665,499.4-3649.9,499.5z"/>
	<path class="st14" d="M-3478.7,525.4c-4.5-0.3-10.7,0.6-16.8-0.5c-11.2-2-17.1-8.2-18.7-19.4c-0.1-0.9-0.2-1.9-0.2-2.8
		c-0.9-17.6-0.9-17.5,16.6-16.8c3.1,0.1,3.6,1.2,3.7,3.9c0.2,9.6,0.3,9.6,10.2,9.6c7.1,0,14.2,0.2,21.4,0c13-0.4,17.8-9.5,11.1-20.8
		c-3.8-6.3-9.1-11.4-14.2-16.6c-6.8-6.8-13.5-13.6-20.5-20c-2.9-2.6-2.5-4.2,0-6.7c4.3-4.2,8.3-8.7,12.4-13c1.3-1.4,2.4-2.9,4.4-0.6
		c10.9,11.9,23.1,22.5,31.7,36.3c8,12.9,10.4,26.8,7.2,41.5c-3.4,15.5-15.7,25.1-32.5,25.8C-3467.6,525.6-3472.3,525.4-3478.7,525.4
		z"/>
	<path class="st14" d="M-3552.6,451.2c0-22.7,0.1-45.3-0.1-68c0-4.2,0.9-5.6,5.2-5.2c5.2,0.5,12.2-1.7,15.2,1
		c3.5,3.1,1,10.2,1.1,15.5c0.1,41.7,0,83.5,0.2,125.2c0,4.7-1,6.3-5.8,5.8c-5-0.5-11.7,1.6-14.6-0.9c-3.3-3-1-9.8-1-15
		C-3552.7,490.2-3552.6,470.7-3552.6,451.2z"/>
	<path class="st14" d="M-3389.6,452.4c0,22.7-0.1,45.3,0.1,68c0,4.2-1,5.6-5.2,5.2c-5.2-0.5-12,1.6-15.2-1c-3.4-2.7-1-9.8-1-15
		c-0.1-41.9,0-83.9-0.2-125.8c0-4.7,1.1-6.2,5.8-5.8c5,0.5,11.7-1.6,14.6,1c3.3,3,1,9.8,1,15
		C-3389.5,413.5-3389.6,432.9-3389.6,452.4z"/>
	<path class="st14" d="M-3260.5,315c-13.4,0-19.8-6.3-19.9-19.3c0-13.5,6.5-19.8,20.6-19.7c13.2,0,19.6,6.5,19.6,19.6
		C-3240.1,308.8-3246.6,315-3260.5,315z"/>
	<path class="st14" d="M-3599.9,315c-13.6,0-20-6.1-20.1-19.2c-0.1-13.5,6.3-19.8,20.1-19.8c13.7,0,20.2,6.4,20.1,19.8
		C-3579.9,308.9-3586.3,315-3599.9,315z"/>
	<path class="st14" d="M-3307.4,315c-13.5,0-19.9-6.3-19.9-19.4c0-13.4,6.5-19.6,20.3-19.6c13.7,0,19.9,6.3,19.8,20
		C-3287.3,309-3293.6,315-3307.4,315z"/>
	<path class="st14" d="M-3112.8,315c-13.4,0-19.7-6.3-19.6-19.6c0.1-13.5,6.4-19.4,20.4-19.4c13.4,0,19.5,6.2,19.5,19.6
		C-3092.5,309.2-3098.7,315-3112.8,315z"/>
	<path class="st14" d="M-3526.7,90.2c-13.6,0-19.9-6.1-19.9-19.2c0-13.4,6.3-19.6,20.2-19.5c13.8,0,19.9,6.2,19.8,19.8
		C-3506.6,84.4-3512.8,90.2-3526.7,90.2z"/>
	<path class="st14" d="M-3647.3,315c-13.3,0-19.9-6.5-19.8-19.5c0.1-13.3,6.6-19.5,20.4-19.5c13.4,0,19.7,6.3,19.7,19.6
		C-3626.9,308.9-3633.3,315-3647.3,315z"/>
	<path class="st14" d="M-3635.2,453.3c-8.5,0-12.6-4-12.7-12.1c-0.1-8.3,4-12.4,12.4-12.4c8.9-0.1,13,3.9,13,12.3
		C-3622.6,449.2-3626.8,453.2-3635.2,453.3z"/>
	<path class="st14" d="M-3664.9,428.7c8.8,0,12.9,4,12.8,12.5c-0.1,8.2-4.3,12.1-12.8,12c-8.4,0-12.5-4.1-12.5-12.3
		C-3677.4,432.7-3673.4,428.8-3664.9,428.7z"/>
	<path class="st14" d="M-3347.5,420.9c8.5,0,12.4,3.8,12.4,12.2c0,8.3-4,12.2-12.5,12.3c-8.7,0-12.9-4.1-12.7-12.6
		C-3360.1,424.5-3356.1,420.8-3347.5,420.9z"/>
</g>
<g>
	<defs>
		<rect id="SVGID_5_" x="-7550.5" y="-168.9" width="1720.9" height="927.1"/>
	</defs>
	<clipPath id="SVGID_6_">
		<use xlink:href="#SVGID_5_"  style="overflow:visible;"/>
	</clipPath>
	<path class="st15" d="M-6011.4,296.6c0-151-122.4-273.5-273.5-273.5c-151,0-273.5,122.4-273.5,273.5s122.4,273.5,273.5,273.5
		C-6133.9,570.1-6011.4,447.7-6011.4,296.6"/>
	<path class="st16" d="M-6403.5,193.1c-2.4,3.5-1.5,8.4,2,10.8l2.2,1.5l-50.8,74.1l-2.2-1.5c-3.5-2.4-8.4-1.5-10.8,2
		c-2.4,3.5-1.5,8.4,2,10.8l53,36.3c3.5,2.4,8.4,1.5,10.8-2c2.4-3.5,1.5-8.4-2-10.8l-2.2-1.5l8.3-12.1l221.3,151.7l33.3-48.5
		l-221.3-151.7l9.2-13.5l2.2,1.5c3.5,2.4,8.4,1.5,10.8-2c2.4-3.5,1.5-8.4-2-10.8l-53-36.3C-6396.2,188.7-6401.1,189.6-6403.5,193.1"
		/>
	<path class="st16" d="M-6381.5,179.4l48.6,33.2c12.5-18.3,37.6-23.1,56-10.6c18.3,12.5,23.1,37.6,10.6,55.9l48.6,33.2
		c30.8-45.1,19.2-106.9-26-137.7S-6350.7,134.3-6381.5,179.4"/>
</g>
<g>
	<defs>
		<rect id="SVGID_7_" x="-9836.7" y="-168.9" width="1720.9" height="927.1"/>
	</defs>
	<clipPath id="SVGID_8_">
		<use xlink:href="#SVGID_7_"  style="overflow:visible;"/>
	</clipPath>
	<path class="st17" d="M-8571.1,23.2c-151,0-273.5,122.4-273.5,273.5s122.4,273.5,273.5,273.5c151,0,273.5-122.4,273.5-273.5
		S-8420.1,23.2-8571.1,23.2z M-8530,153.4c45.1,30.8,56.8,92.6,26,137.7l-48.6-33.2c12.5-18.3,7.8-43.4-10.6-55.9
		c-18.3-12.5-43.4-7.8-56,10.6l-48.6-33.2C-8636.9,134.3-8575.2,122.6-8530,153.4z M-8458.1,452.4l-221.3-151.7l-8.3,12.1l2.2,1.5
		c3.5,2.4,4.4,7.3,2,10.8c-2.4,3.5-7.3,4.4-10.8,2l-53-36.3c-3.5-2.4-4.4-7.3-2-10.8c2.4-3.5,7.3-4.4,10.8-2l2.2,1.5l50.8-74.1
		l-2.2-1.5c-3.5-2.4-4.4-7.3-2-10.8c2.4-3.5,7.3-4.4,10.8-2l53,36.3c3.5,2.4,4.4,7.3,2,10.8c-2.4,3.5-7.3,4.4-10.8,2l-2.2-1.5
		l-9.2,13.5l221.3,151.7L-8458.1,452.4z"/>
</g>
<g>
	<defs>
		<rect id="SVGID_9_" x="-2152.1" y="-168.9" width="1720.9" height="927.1"/>
	</defs>
	<clipPath id="SVGID_10_">
		<use xlink:href="#SVGID_9_"  style="overflow:visible;"/>
	</clipPath>
	<path class="st18" d="M-886.5,23.2c-151,0-273.5,122.4-273.5,273.5s122.4,273.5,273.5,273.5c151,0,273.5-122.4,273.5-273.5
		S-735.5,23.2-886.5,23.2z M-845.4,153.4c45.1,30.8,56.8,92.6,26,137.7l-48.6-33.2c12.5-18.3,7.8-43.4-10.6-55.9
		c-18.3-12.5-43.4-7.8-56,10.6l-48.6-33.2C-952.3,134.3-890.5,122.6-845.4,153.4z M-773.5,452.4l-221.3-151.7l-8.3,12.1l2.2,1.5
		c3.5,2.4,4.4,7.3,2,10.8c-2.4,3.5-7.3,4.4-10.8,2l-53-36.3c-3.5-2.4-4.4-7.3-2-10.8c2.4-3.5,7.3-4.4,10.8-2l2.2,1.5l50.8-74.1
		l-2.2-1.5c-3.5-2.4-4.4-7.3-2-10.8c2.4-3.5,7.3-4.4,10.8-2l53,36.3c3.5,2.4,4.4,7.3,2,10.8c-2.4,3.5-7.3,4.4-10.8,2l-2.2-1.5
		l-9.2,13.5l221.3,151.7L-773.5,452.4z"/>
</g>
<g>
	<path class="st19" d="M-1577.7,248.5c-9,0-18,0.4-26.9-1.1c-21.6-3.5-36.2-17.4-40.1-39.1c-4.4-24.6,0.1-47.5,16.1-67.1
		c28-34.2,76.6-27.8,95.4,12.2c7.4,15.7,10.1,32.5,11,49.5c0.2,3.5,1.1,4.4,4.5,4.3c11.4-0.3,22.9,0.3,34.2-1.2
		c15.6-2,21.3-8.6,20.4-24.3c-1.1-17.8-4.7-35.2-7.9-52.7c-0.6-3.4-0.5-5,3.6-5.5c7.6-0.9,15.2-2.3,22.7-3.8
		c2.8-0.5,4.1,0.1,4.5,3.1c3,21.7,7.3,43.2,7.1,65.3c-0.1,7.5-0.9,15-2.9,22.2c-6.1,21.7-21.6,32.3-42.8,36.2
		c-13.5,2.5-27.2,2.2-40.9,2c-4.2-0.1-6.5,0.7-7.8,5.3c-12.2,42.1-41.4,65.7-85.1,69.5c-10.9,1-21.7,0.5-32.6,0.9
		c-3.7,0.1-4.3-1.3-4.3-4.6c0.2-10.7,0.2-21.4,0-32c-0.1-3.9,1-5.1,5-5c15.9,0.3,31.9,0.5,47.5-3.3c16.1-3.9,30.4-10.6,39.3-25.6
		c0.8-1.4,2.5-2.8,1.6-4.5c-0.8-1.4-2.7-0.6-4.2-0.6C-1566,248.5-1571.8,248.5-1577.7,248.5z M-1576,207.1c7.9,0,14.5-0.1,21,0.1
		c2.8,0.1,4-0.6,3.9-3.7c-0.2-9.5-2-18.5-7-26.8c-11.7-19.5-41.8-21.9-54.5-4.3c-11,15.2-4.5,31.1,13.8,34.1
		C-1590.7,207.8-1582.7,206.8-1576,207.1z"/>
	<path class="st19" d="M-1815.1,209.4c-1.3,4.1-2.4,8.1-3.7,12c-5.5,15.7-16.4,24.3-33,26.3c-7.7,0.9-15.3,0.7-23,0.6
		c-3.4,0-4.8,0.8-5.3,4.4c-2.6,15.9-7.9,30.8-18.3,43.5c-16,19.6-37.7,26.7-62,27.7c-3.7,0.2-7.5-0.2-11.2,0.1
		c-4.2,0.4-4.9-1.3-4.8-5.1c0.2-10.3,0.3-20.6,0-30.9c-0.1-4.3,0.9-5.9,5.5-5.6c8.4,0.5,16.9,0.3,25.2-1.4
		c23.1-4.5,35.3-18.9,37.1-43.5c1.3-18.5-2.1-36.6-5-54.7c-1.3-7.9-2.6-15.9-4-23.8c-0.5-3-0.3-4.7,3.5-5.2
		c7.8-0.9,15.5-2.4,23.3-3.8c2.4-0.4,3.3,0.2,3.7,2.6c2.8,16.8,6,33.5,7.7,50.5c0.2,1.8-0.3,3.9,2.7,3.8c13.8-0.4,27.8,1.1,41.5-0.8
		c11.7-1.7,17.6-8.3,17.9-20.1c0.3-14.6,0.2-29.2,0.1-43.8c0-3.8,0.7-5.3,4.9-5.1c7.3,0.3,14.6,0.3,21.9,0c3.4-0.1,4.5,0.9,4.4,4.4
		c-0.2,13.9-0.1,27.7-0.1,41.6c0.1,16.6,7.4,23.9,24.2,23.9c11.2,0,22.5,0.7,33.7-1c2.6-0.4,5.2-0.8,7.7-1.5
		c9.6-2.8,13.6-7.9,13.6-18c0-14.7-2.8-29-5.3-43.4c-0.8-4.8-1.6-9.6-2.7-14.3c-0.8-3.6,0.3-4.9,4-5.3c7.6-0.9,15.1-2.4,22.7-3.7
		c2-0.3,3.6-0.6,4,2.2c3.6,25.9,9.7,51.6,6.4,78.1c-3.1,25.2-16.4,40.2-41.2,45.5c-19.2,4.2-38.7,4.3-58.1,1.1
		c-19.3-3.2-30.7-15.1-35.7-33.7C-1813.5,211.8-1813.1,210.3-1815.1,209.4z"/>
	<path class="st19" d="M-1355,501.2c-2.5,12.1-7.7,21.9-21.5,23.7c-14.6,1.9-27.2-1.1-36.5-14.7c0,4-0.1,7.9,0,11.9
		c0.1,2.3-0.5,3.4-3.1,3.4c-9.2-0.2-18.4,0.3-27.5-0.4c-12.9-0.9-23.3-6.4-29.2-18.6c-0.7,0.4-1.2,0.6-1.3,0.8
		c-6.6,15.4-10.6,18.3-27.7,18c-4.6-0.1-6.5,1-7.6,5.9c-6.7,29.3-25.8,43.1-56.3,41.7c-3.2-0.1-3.7-1.3-3.6-4c0.2-6,0.2-12,0-18
		c-0.1-3.1,0.8-4.4,4.1-4.1c2.8,0.3,5.6,0.1,8.4,0c19.8-1.1,30-11.7,30.3-31.5c0.2-13.9-2.9-27.5-5.1-41.2c-1.2-7.3-1.3-7.3,6.1-8.7
		c11.8-2.2,11.9-2.2,13.9,10c1.2,6.8,2.2,13.7,3.1,20.5c0.3,2,0.1,3.7,3,3.6c9.2-0.3,18.4,0.4,27.5-0.8c2.3-0.3,3.1-0.9,2.9-3.5
		c-1-13.2,4.8-23.5,14.2-32.1c7.1-6.5,15.2-11.7,23.8-15.7c7.2-3.3,15.5-1,23.3-1.1c2.3,0,2.3,2.7,2.9,4.3
		c4.7,12.2,9.1,24.5,13.8,36.7c3.8,10,7.1,12.2,17.6,12c4.1-0.1,8.2,0.4,12.3-0.5c7-1.6,10.3-5.2,10.6-12.5
		c0.2-5.8,0.1-11.6,0.1-17.4c0-28.3,0.1-56.6-0.1-84.9c0-4.2,1.1-5.7,5.3-5.3c3.7,0.4,7.5,0.4,11.2,0c4-0.4,4.9,1.1,4.9,5
		c-0.2,32.6-0.1,65.2-0.1,97.8c0,14.1,3.9,17.9,18.1,17.8c3.7,0,7.5,0.1,11.2-0.1c8.6-0.5,12.1-4.1,12.3-12.7c0.1-5.1,0-10.1,0-15.2
		c0-28.9,0.1-57.7-0.1-86.6c0-4.4,0.7-6.6,5.7-6c5,0.6,11.5-2,14.6,1c3.1,3.1,0.9,9.6,0.9,14.6c0.1,30.4,0,60.7,0.1,91.1
		c0,6.4-0.6,12.7-2.4,18.9c-3.1,11-10.3,17.7-21.4,19.8c-11.1,2-22.4,1.9-33.6,0.2c-11.5-1.8-19.5-8-23.2-19.3
		C-1353.2,503.9-1352.8,502-1355,501.2z M-1416.7,499.6c-3.8-10.1-7.3-19.5-10.8-28.9c-0.5-1.2-1.3-2-2.5-1.4
		c-8.9,4.3-18.8,6.7-25.8,14.2c-5.4,5.9-3.1,13.3,4.8,14.9C-1440,500.8-1428.8,499-1416.7,499.6z"/>
	<path class="st19" d="M-1404.7,106.2c0-28.5,0.1-57-0.1-85.4c0-4.3,0.8-6,5.5-5.7c7.5,0.4,15,0.4,22.5,0c4.7-0.2,6,1.2,5.9,5.9
		c-0.2,53.2-0.1,106.4-0.1,159.6c0,3.7,0.3,7.5,0.8,11.2c1.1,8,5.6,13.2,13.6,14.2c16.4,2.1,32.9,2.3,49.2-1
		c11.8-2.4,16.2-8.2,15.8-20.2c-0.5-17.5-4.1-34.5-7.2-51.7c-1.6-9.1-1.7-9,7.4-10.3c6.1-0.9,12.2-1.9,18.3-3.1
		c2.8-0.5,3.9,0.1,4.3,3.1c2.8,18.5,6,37,7.1,55.7c0.5,7.5,0.3,15-0.9,22.4c-4,25.8-17.5,40.2-43.1,45.1c-19.1,3.6-38.4,4-57.6,0.6
		c-25.5-4.4-38.7-19.6-40.7-45.6c-1.7-22.6-0.4-45.3-0.8-68C-1404.8,124.2-1404.7,115.2-1404.7,106.2z"/>
	<path class="st19" d="M-1828.4,499.5c15.3-0.1,30.7,0.5,46-2.1c12.6-2.1,15.5-6,14.4-18.4c-0.8-9-2.6-17.8-4.4-26.6
		c-0.7-3.4-0.9-5.8,3.8-5.9c4.9-0.1,11.1-4.1,14.4-1c2.8,2.6,2.1,9.1,2.8,13.9c1.3,8.5,2.6,17,2.6,25.7c0.2,23.2-8.5,34.8-31.1,38.8
		c-30.3,5.4-60.7,5.5-91.1,0.4c-1.7-0.3-3.3-0.7-4.9-1.1c-21.9-5.9-32-20.2-30.2-42.8c0.8-10,3.2-19.5,6.5-28.9c1-3,2.2-4.3,5.6-2.9
		c3.9,1.7,9.8,1.1,11.7,4.3c1.7,2.9-2.5,7.2-3.5,11.2c-0.7,2.9-1.6,5.8-2.1,8.7c-2.3,12,2.6,20.1,14.4,23.4
		C-1858.8,500.3-1843.5,499.4-1828.4,499.5z"/>
	<path class="st19" d="M-1657.2,525.4c-4.5-0.3-10.7,0.6-16.8-0.5c-11.2-2-17.1-8.2-18.7-19.4c-0.1-0.9-0.2-1.9-0.2-2.8
		c-0.9-17.6-0.9-17.5,16.6-16.8c3.1,0.1,3.6,1.2,3.7,3.9c0.2,9.6,0.3,9.6,10.2,9.6c7.1,0,14.2,0.2,21.4,0c13-0.4,17.8-9.5,11.1-20.8
		c-3.8-6.3-9.1-11.4-14.2-16.6c-6.8-6.8-13.5-13.6-20.5-20c-2.9-2.6-2.5-4.2,0-6.7c4.3-4.2,8.3-8.7,12.4-13c1.3-1.4,2.4-2.9,4.4-0.6
		c10.9,11.9,23.1,22.5,31.7,36.3c8,12.9,10.4,26.8,7.2,41.5c-3.4,15.5-15.7,25.1-32.5,25.8C-1646.1,525.6-1650.8,525.4-1657.2,525.4
		z"/>
	<path class="st19" d="M-1731.2,451.2c0-22.7,0.1-45.3-0.1-68c0-4.2,0.9-5.6,5.2-5.2c5.2,0.5,12.2-1.7,15.2,1
		c3.5,3.1,1,10.2,1.1,15.5c0.1,41.7,0,83.5,0.2,125.2c0,4.7-1,6.3-5.8,5.8c-5-0.5-11.7,1.6-14.6-0.9c-3.3-3-1-9.8-1-15
		C-1731.2,490.2-1731.2,470.7-1731.2,451.2z"/>
	<path class="st19" d="M-1568.1,452.4c0,22.7-0.1,45.3,0.1,68c0,4.2-1,5.6-5.2,5.2c-5.2-0.5-12,1.6-15.2-1c-3.4-2.7-1-9.8-1-15
		c-0.1-41.9,0-83.9-0.2-125.8c0-4.7,1.1-6.2,5.8-5.8c5,0.5,11.7-1.6,14.6,1c3.3,3,1,9.8,1,15C-1568,413.5-1568.1,432.9-1568.1,452.4
		z"/>
	<path class="st19" d="M-1439,315c-13.4,0-19.8-6.3-19.9-19.3c0-13.5,6.5-19.8,20.6-19.7c13.2,0,19.6,6.5,19.6,19.6
		C-1418.6,308.8-1425.1,315-1439,315z"/>
	<path class="st19" d="M-1778.4,315c-13.6,0-20-6.1-20.1-19.2c-0.1-13.5,6.3-19.8,20.1-19.8c13.7,0,20.2,6.4,20.1,19.8
		C-1758.4,308.9-1764.8,315-1778.4,315z"/>
	<path class="st19" d="M-1485.9,315c-13.5,0-19.9-6.3-19.9-19.4c0-13.4,6.5-19.6,20.3-19.6c13.7,0,19.9,6.3,19.8,20
		C-1465.8,309-1472.1,315-1485.9,315z"/>
	<path class="st19" d="M-1291.4,315c-13.4,0-19.7-6.3-19.6-19.6c0.1-13.5,6.4-19.4,20.4-19.4c13.4,0,19.5,6.2,19.5,19.6
		C-1271,309.2-1277.2,315-1291.4,315z"/>
	<path class="st19" d="M-1705.2,90.2c-13.6,0-19.9-6.1-19.9-19.2c0-13.4,6.3-19.6,20.2-19.5c13.8,0,19.9,6.2,19.8,19.8
		C-1685.1,84.4-1691.4,90.2-1705.2,90.2z"/>
	<path class="st19" d="M-1825.8,315c-13.3,0-19.9-6.5-19.8-19.5c0.1-13.3,6.6-19.5,20.4-19.5c13.4,0,19.7,6.3,19.7,19.6
		C-1805.4,308.9-1811.8,315-1825.8,315z"/>
	<path class="st19" d="M-1813.7,453.3c-8.5,0-12.6-4-12.7-12.1c-0.1-8.3,4-12.4,12.4-12.4c8.9-0.1,13,3.9,13,12.3
		C-1801.1,449.2-1805.3,453.2-1813.7,453.3z"/>
	<path class="st19" d="M-1843.5,428.7c8.8,0,12.9,4,12.8,12.5c-0.1,8.2-4.3,12.1-12.8,12c-8.4,0-12.5-4.1-12.5-12.3
		C-1855.9,432.7-1851.9,428.8-1843.5,428.7z"/>
	<path class="st19" d="M-1526,420.9c8.5,0,12.4,3.8,12.4,12.2c0,8.3-4,12.2-12.5,12.3c-8.7,0-12.9-4.1-12.7-12.6
		C-1538.6,424.5-1534.7,420.8-1526,420.9z"/>
</g>
<g>
	<g>
		<path class="st14" d="M867.8,496.6H755.1l-18.5,40.7h-44.1l96.8-215.7h44.4l96.8,215.7H886L867.8,496.6z M811.5,366.8l-40.1,91.8
			h80.1L811.5,366.8z"/>
		<path class="st14" d="M981.3,385.3v79.5c0,23.1,12.6,40.7,36.7,40.7c23.1,0,38.8-19.4,38.8-42.5v-77.7h37.3v152.2h-33.6l-2.5-20.6
			c-15.7,15.4-30.2,22.8-51.5,22.8c-36.4,0-62.9-27.4-62.9-74.6v-79.8H981.3z"/>
	</g>
	<g>
		<path class="st14" d="M1263.9,517.8c-17.6,17.3-36.1,24-58.6,24c-44.1,0-80.7-26.5-80.7-80.4s36.7-80.4,80.7-80.4
			c21.6,0,38.2,6.2,54.9,22.5l-23.7,25c-8.9-8-20-12-30.5-12c-25.3,0-43.8,18.5-43.8,45c0,29,19.7,44.4,43.1,44.4
			c12,0,24-3.4,33.3-12.6L1263.9,517.8z"/>
	</g>
	<g>
		<g>
			<g>
				<path class="st14" d="M804.1,202h-61v63.5h-40.7V49.7c33.9,0,67.8-0.3,101.7-0.3C909.5,49.4,909.8,202,804.1,202z M743,164.7h61
					c52.1,0,51.8-76.4,0-76.4h-61V164.7z"/>
			</g>
			<g>
				<path class="st14" d="M954.4,70.7c0,29.3-44.4,29.3-44.4,0S954.4,41.4,954.4,70.7z M913.5,112.9v152.5h37.6V112.9H913.5z"/>
			</g>
			<g>
				<path class="st14" d="M1140,189.6c0,43.8-29.9,79.2-79.2,79.2c-49.3,0-78.9-35.4-78.9-79.2c0-43.5,30.2-79.2,78.6-79.2
					C1108.8,110.4,1140,146.2,1140,189.6z M1019.5,189.6c0,23.1,13.9,44.7,41.3,44.7c27.4,0,41.3-21.6,41.3-44.7
					c0-22.8-16-45-41.3-45C1033.6,144.6,1019.5,166.8,1019.5,189.6z"/>
			</g>
			<g>
				<path class="st14" d="M1283.6,265.4v-79.5c0-23.1-12.6-40.7-36.7-40.7c-23.1,0-38.8,19.4-38.8,42.5v77.7h-37.3V113.2h33.6
					l2.5,20.6c15.4-15.1,30.8-22.8,49.9-22.8c35.7,0,64.4,26.8,64.4,74.6v79.8H1283.6z"/>
			</g>
			<g>
				<path class="st14" d="M1391.8,202.9c2.5,18.8,18.8,32.4,45.3,32.4c13.9,0,32.1-5.2,40.7-14.2l24,23.7
					c-16,16.6-42.2,24.7-65.3,24.7c-52.4,0-83.5-32.4-83.5-81.1c0-46.2,31.4-79.5,80.7-79.5c50.8,0,82.6,31.4,76.7,94H1391.8z
					 M1474.3,171.8c-2.5-19.7-17.9-29.6-39.4-29.6c-20.3,0-37,9.9-42.5,29.6H1474.3z"/>
			</g>
			<g>
				<path class="st14" d="M1578.2,202.9c2.5,18.8,18.8,32.4,45.3,32.4c13.9,0,32.1-5.2,40.7-14.2l24,23.7
					c-16,16.6-42.2,24.7-65.3,24.7c-52.4,0-83.5-32.4-83.5-81.1c0-46.2,31.4-79.5,80.7-79.5c50.8,0,82.6,31.4,76.7,94H1578.2z
					 M1660.8,171.8c-2.5-19.7-17.9-29.6-39.4-29.6c-20.3,0-37,9.9-42.5,29.6H1660.8z"/>
			</g>
			<g>
				<path class="st14" d="M1762.5,113.5l2.8,17.6c11.7-18.8,27.4-21.6,42.8-21.6c15.7,0,30.8,6.2,39.1,14.5l-16.9,32.7
					c-7.7-6.5-14.8-9.9-27.1-9.9c-19.7,0-37.9,10.5-37.9,38.5v80.1h-37.6V113.5H1762.5z"/>
			</g>
			<g>
				<path class="st14" d="M1454.9,342.5c0,29.3-44.4,29.3-44.4,0S1454.9,313.2,1454.9,342.5z M1413.9,384.7v152.5h37.6V384.7H1413.9
					z"/>
			</g>
		</g>
		<g>
			<g>
				<path class="st14" d="M1337.8,342.5v43.1h41.9V418h-42.2v65.6c0,14.5,8,21.6,19.7,21.6c5.9,0,12.6-1.8,18.2-4.6l10.5,32.1
					c-10.8,4.3-19.7,6.2-31.1,6.5c-33,1.2-54.5-17.6-54.5-55.5V418h-28.4v-32.4h28.4v-39.1L1337.8,342.5z"/>
			</g>
			<g>
				<path class="st14" d="M1641.4,461.4c0,43.8-29.9,79.2-79.2,79.2c-49.3,0-78.9-35.4-78.9-79.2c0-43.5,30.2-79.2,78.6-79.2
					S1641.4,418,1641.4,461.4z M1520.9,461.4c0,23.1,13.9,44.7,41.3,44.7c27.4,0,41.3-21.6,41.3-44.7c0-22.8-16-45-41.3-45
					C1535.1,416.4,1520.9,438.6,1520.9,461.4z"/>
				<path class="st14" d="M1785.3,537.3v-79.5c0-23.1-12.6-40.7-36.7-40.7c-23.1,0-38.8,19.4-38.8,42.5v77.7h-37.3V385h33.6
					l2.5,20.6c15.4-15.1,30.8-22.8,49.9-22.8c35.7,0,64.4,26.8,64.4,74.6v79.8H1785.3z"/>
				<path class="st14" d="M1960.3,425.7c-10.8-10.2-23.1-13.6-37.6-13.6c-17.9,0-27.7,5.5-27.7,15.1c0,9.9,8.9,15.4,28.4,16.6
					c28.7,1.8,65,8.3,65,48.7c0,26.8-21.9,49.9-65.3,49.9c-24,0-48.1-4-70.3-27.1l18.5-26.8c10.8,12,35.4,21,52.4,21.3
					c14.2,0.3,27.4-7.1,27.4-18.2c0-10.5-8.6-14.8-30.2-16c-28.7-2.2-62.9-12.6-62.9-47.2c0-35.1,36.4-47.5,64.1-47.5
					c23.7,0,41.6,4.6,59.2,20L1960.3,425.7z"/>
			</g>
		</g>
	</g>
</g>
<g>
	<defs>
		<rect id="SVGID_11_" x="-255.7" y="-263.7" width="2528" height="1111.2"/>
	</defs>
	<clipPath id="SVGID_12_">
		<use xlink:href="#SVGID_11_"  style="overflow:visible;"/>
	</clipPath>
	<path class="st20" d="M565.5,292.4c0-148.6-120.5-269.1-269.1-269.1S27.2,143.8,27.2,292.4s120.5,269.1,269.1,269.1
		S565.5,441,565.5,292.4"/>
	<path class="st21" d="M179.6,190.5c-2.4,3.5-1.5,8.2,2,10.6l2.1,1.5l-50,72.9l-2.1-1.5c-3.5-2.4-8.2-1.5-10.6,2
		c-2.4,3.5-1.5,8.2,2,10.6l52.1,35.8c3.5,2.4,8.2,1.5,10.6-2c2.4-3.5,1.5-8.2-2-10.6l-2.1-1.5l8.2-11.9l217.8,149.3l32.7-47.7
		L222.5,248.7l9.1-13.3l2.1,1.5c3.5,2.4,8.2,1.5,10.6-2c2.4-3.5,1.5-8.2-2-10.6l-52.1-35.8C186.8,186.2,182,187.1,179.6,190.5"/>
	<path class="st21" d="M201.3,177l47.8,32.6c12.3-18,37-22.7,55.1-10.4c18,12.3,22.7,37,10.4,55.1l47.8,32.6
		c30.3-44.4,18.9-105.2-25.6-135.5C292.4,121.1,231.6,132.6,201.3,177"/>
</g>
<g>
	<path class="st0" d="M798.3,1403.1h-60.7v63.2h-40.5v-214.7c33.7,0,67.5-0.3,101.2-0.3C903.2,1251.3,903.5,1403.1,798.3,1403.1z
		 M737.6,1366h60.7c51.8,0,51.5-76.1,0-76.1h-60.7V1366z"/>
</g>
<g>
	<path class="st0" d="M948,1272.4c0,29.1-44.2,29.1-44.2,0S948,1243.3,948,1272.4z M907.2,1314.4v151.8h37.4v-151.8H907.2z"/>
</g>
<g>
	<path class="st0" d="M1132.7,1390.8c0,43.6-29.8,78.8-78.8,78.8c-49.1,0-78.5-35.3-78.5-78.8c0-43.2,30.1-78.8,78.2-78.8
		C1101.7,1312,1132.7,1347.6,1132.7,1390.8z M1012.7,1390.8c0,23,13.8,44.5,41.1,44.5c27.3,0,41.1-21.5,41.1-44.5
		c0-22.7-16-44.8-41.1-44.8C1026.9,1346,1012.7,1368.1,1012.7,1390.8z"/>
</g>
<g>
	<path class="st0" d="M1275.6,1466.3v-79.1c0-23-12.6-40.5-36.5-40.5c-23,0-38.6,19.3-38.6,42.3v77.3h-37.1v-151.5h33.4l2.5,20.6
		c15.3-15,30.7-22.7,49.7-22.7c35.6,0,64.1,26.7,64.1,74.2v79.4H1275.6z"/>
</g>
<g>
	<path class="st0" d="M1383.3,1404c2.5,18.7,18.7,32.2,45.1,32.2c13.8,0,31.9-5.2,40.5-14.1l23.9,23.6c-16,16.6-42,24.5-65,24.5
		c-52.1,0-83.1-32.2-83.1-80.7c0-46,31.3-79.1,80.4-79.1c50.6,0,82.2,31.3,76.4,93.6H1383.3z M1465.5,1373
		c-2.5-19.6-17.8-29.4-39.3-29.4c-20.2,0-36.8,9.8-42.3,29.4H1465.5z"/>
</g>
<g>
	<path class="st0" d="M1568.9,1404c2.5,18.7,18.7,32.2,45.1,32.2c13.8,0,31.9-5.2,40.5-14.1l23.9,23.6c-16,16.6-42,24.5-65,24.5
		c-52.1,0-83.1-32.2-83.1-80.7c0-46,31.3-79.1,80.4-79.1c50.6,0,82.2,31.3,76.4,93.6H1568.9z M1651.1,1373
		c-2.5-19.6-17.8-29.4-39.3-29.4c-20.2,0-36.8,9.8-42.3,29.4H1651.1z"/>
</g>
<g>
	<path class="st0" d="M1752.3,1315.1l2.8,17.5c11.7-18.7,27.3-21.5,42.6-21.5c15.6,0,30.7,6.1,39,14.4l-16.9,32.5
		c-7.7-6.4-14.7-9.8-27-9.8c-19.6,0-37.7,10.4-37.7,38.3v79.8h-37.4v-151.2H1752.3z"/>
</g>
<g>
	<path class="st0" d="M861.8,1696.3H749.6l-18.4,40.5h-43.9l96.3-214.7h44.2l96.3,214.7h-44.2L861.8,1696.3z M805.7,1567.2
		l-39.9,91.4h79.8L805.7,1567.2z"/>
	<path class="st0" d="M974.7,1585.6v79.1c0,23,12.6,40.5,36.5,40.5c23,0,38.6-19.3,38.6-42.3v-77.3h37.1v151.5h-33.4l-2.5-20.6
		c-15.6,15.3-30.1,22.7-51.2,22.7c-36.2,0-62.6-27.3-62.6-74.2v-79.4H974.7z"/>
</g>
<g>
	<path class="st0" d="M1256,1717.5c-17.5,17.2-35.9,23.9-58.3,23.9c-43.9,0-80.4-26.4-80.4-80.1s36.5-80.1,80.4-80.1
		c21.5,0,38,6.1,54.6,22.4l-23.6,24.8c-8.9-8-19.9-12-30.4-12c-25.2,0-43.6,18.4-43.6,44.8c0,28.8,19.6,44.2,42.9,44.2
		c12,0,23.9-3.4,33.1-12.6L1256,1717.5z"/>
</g>
<g>
	<path class="st0" d="M1329.6,1543v42.9h41.7v32.2h-42v65.3c0,14.4,8,21.5,19.6,21.5c5.8,0,12.6-1.8,18.1-4.6l10.4,31.9
		c-10.7,4.3-19.6,6.1-31,6.4c-32.8,1.2-54.3-17.5-54.3-55.2v-65.3H1264v-32.2h28.2v-39L1329.6,1543z"/>
</g>
<g>
	<path class="st0" d="M1446.2,1543c0,29.1-44.2,29.1-44.2,0S1446.2,1513.8,1446.2,1543z M1405.4,1585v151.8h37.4V1585H1405.4z"/>
</g>
<g>
	<path class="st0" d="M1631.7,1661.4c0,43.6-29.8,78.8-78.8,78.8s-78.5-35.3-78.5-78.8c0-43.2,30.1-78.8,78.2-78.8
		C1600.8,1582.5,1631.7,1618.1,1631.7,1661.4z M1511.8,1661.4c0,23,13.8,44.5,41.1,44.5c27.3,0,41.1-21.5,41.1-44.5
		c0-22.7-16-44.8-41.1-44.8C1525.9,1616.6,1511.8,1638.7,1511.8,1661.4z"/>
	<path class="st0" d="M1775,1736.8v-79.1c0-23-12.6-40.5-36.5-40.5c-23,0-38.6,19.3-38.6,42.3v77.3h-37.1v-151.5h33.4l2.5,20.6
		c15.3-15,30.7-22.7,49.7-22.7c35.6,0,64.1,26.7,64.1,74.2v79.4H1775z"/>
	<path class="st0" d="M1949.2,1625.8c-10.7-10.1-23-13.5-37.4-13.5c-17.8,0-27.6,5.5-27.6,15c0,9.8,8.9,15.3,28.2,16.6
		c28.5,1.8,64.7,8.3,64.7,48.5c0,26.7-21.8,49.7-65,49.7c-23.9,0-47.9-4-69.9-27l18.4-26.7c10.7,12,35.3,20.9,52.1,21.2
		c14.1,0.3,27.3-7.1,27.3-18.1c0-10.4-8.6-14.7-30.1-16c-28.5-2.1-62.6-12.6-62.6-46.9c0-35,36.2-47.2,63.8-47.2
		c23.6,0,41.4,4.6,58.9,19.9L1949.2,1625.8z"/>
</g>
<g>
	<defs>
		<rect id="SVGID_13_" x="-256.4" y="939.6" width="2516.2" height="1106"/>
	</defs>
	<clipPath id="SVGID_14_">
		<use xlink:href="#SVGID_13_"  style="overflow:visible;"/>
	</clipPath>
	<path class="st22" d="M560.9,1493.1c0-147.9-119.9-267.9-267.9-267.9S25.1,1345.2,25.1,1493.1S145.1,1761,293,1761
		S560.9,1641.1,560.9,1493.1"/>
	<path class="st23" d="M176.8,1391.7c-2.4,3.4-1.5,8.2,2,10.5l2.1,1.5l-49.8,72.6l-2.1-1.5c-3.4-2.4-8.2-1.5-10.5,2
		c-2.4,3.4-1.5,8.2,2,10.5l51.9,35.6c3.4,2.4,8.2,1.5,10.5-2c2.4-3.4,1.5-8.2-2-10.5l-2.1-1.5l8.1-11.9l216.7,148.6l32.6-47.5
		l-216.7-148.6l9-13.2l2.1,1.5c3.4,2.4,8.2,1.5,10.5-2c2.4-3.4,1.5-8.2-2-10.5l-51.9-35.6C184,1387.4,179.2,1388.3,176.8,1391.7"/>
	<path class="st23" d="M198.4,1378.3l47.6,32.5c12.3-18,36.8-22.6,54.8-10.3c18,12.3,22.6,36.8,10.3,54.8l47.6,32.5
		c30.2-44.2,18.8-104.7-25.4-134.9C289,1322.7,228.5,1334.1,198.4,1378.3"/>
</g>
<g>
	<g>
		<path class="st19" d="M-1691.2,1403.1h-60.7v63.2h-40.5v-214.7c33.7,0,67.5-0.3,101.2-0.3
			C-1586.3,1251.3-1586,1403.1-1691.2,1403.1z M-1751.9,1366h60.7c51.8,0,51.5-76.1,0-76.1h-60.7V1366z"/>
	</g>
	<g>
		<path class="st19" d="M-1541.5,1272.4c0,29.1-44.2,29.1-44.2,0S-1541.5,1243.3-1541.5,1272.4z M-1582.3,1314.4v151.8h37.4v-151.8
			H-1582.3z"/>
	</g>
	<g>
		<path class="st19" d="M-1356.8,1390.8c0,43.6-29.8,78.8-78.8,78.8s-78.5-35.3-78.5-78.8c0-43.2,30.1-78.8,78.2-78.8
			C-1387.8,1312-1356.8,1347.6-1356.8,1390.8z M-1476.8,1390.8c0,23,13.8,44.5,41.1,44.5c27.3,0,41.1-21.5,41.1-44.5
			c0-22.7-16-44.8-41.1-44.8C-1462.6,1346-1476.8,1368.1-1476.8,1390.8z"/>
	</g>
	<g>
		<path class="st19" d="M-1213.9,1466.3v-79.1c0-23-12.6-40.5-36.5-40.5c-23,0-38.6,19.3-38.6,42.3v77.3h-37.1v-151.5h33.4l2.5,20.6
			c15.3-15,30.7-22.7,49.7-22.7c35.6,0,64.1,26.7,64.1,74.2v79.4H-1213.9z"/>
	</g>
	<g>
		<path class="st19" d="M-1106.2,1404c2.5,18.7,18.7,32.2,45.1,32.2c13.8,0,31.9-5.2,40.5-14.1l23.9,23.6c-16,16.6-42,24.5-65,24.5
			c-52.1,0-83.1-32.2-83.1-80.7c0-46,31.3-79.1,80.4-79.1c50.6,0,82.2,31.3,76.4,93.6H-1106.2z M-1024,1373
			c-2.5-19.6-17.8-29.4-39.3-29.4c-20.2,0-36.8,9.8-42.3,29.4H-1024z"/>
	</g>
	<g>
		<path class="st19" d="M-920.6,1404c2.5,18.7,18.7,32.2,45.1,32.2c13.8,0,31.9-5.2,40.5-14.1l23.9,23.6c-16,16.6-42,24.5-65,24.5
			c-52.1,0-83.1-32.2-83.1-80.7c0-46,31.3-79.1,80.4-79.1c50.6,0,82.2,31.3,76.4,93.6H-920.6z M-838.4,1373
			c-2.5-19.6-17.8-29.4-39.3-29.4c-20.2,0-36.8,9.8-42.3,29.4H-838.4z"/>
	</g>
	<g>
		<path class="st19" d="M-737.2,1315.1l2.8,17.5c11.7-18.7,27.3-21.5,42.6-21.5c15.6,0,30.7,6.1,39,14.4l-16.9,32.5
			c-7.7-6.4-14.7-9.8-27-9.8c-19.6,0-37.7,10.4-37.7,38.3v79.8h-37.4v-151.2H-737.2z"/>
	</g>
	<g>
		<path class="st19" d="M-1627.7,1696.3h-112.3l-18.4,40.5h-43.9l96.3-214.7h44.2l96.3,214.7h-44.2L-1627.7,1696.3z M-1683.8,1567.2
			l-39.9,91.4h79.8L-1683.8,1567.2z"/>
		<path class="st19" d="M-1514.8,1585.6v79.1c0,23,12.6,40.5,36.5,40.5c23,0,38.6-19.3,38.6-42.3v-77.3h37.1v151.5h-33.4l-2.5-20.6
			c-15.6,15.3-30.1,22.7-51.2,22.7c-36.2,0-62.6-27.3-62.6-74.2v-79.4H-1514.8z"/>
	</g>
	<g>
		<path class="st19" d="M-1233.5,1717.5c-17.5,17.2-35.9,23.9-58.3,23.9c-43.9,0-80.4-26.4-80.4-80.1s36.5-80.1,80.4-80.1
			c21.5,0,38,6.1,54.6,22.4l-23.6,24.8c-8.9-8-19.9-12-30.4-12c-25.2,0-43.6,18.4-43.6,44.8c0,28.8,19.6,44.2,42.9,44.2
			c12,0,23.9-3.4,33.1-12.6L-1233.5,1717.5z"/>
	</g>
	<g>
		<path class="st19" d="M-1159.9,1543v42.9h41.7v32.2h-42v65.3c0,14.4,8,21.5,19.6,21.5c5.8,0,12.6-1.8,18.1-4.6l10.4,31.9
			c-10.7,4.3-19.6,6.1-31,6.4c-32.8,1.2-54.3-17.5-54.3-55.2v-65.3h-28.2v-32.2h28.2v-39L-1159.9,1543z"/>
	</g>
	<g>
		<path class="st19" d="M-1043.3,1543c0,29.1-44.2,29.1-44.2,0S-1043.3,1513.8-1043.3,1543z M-1084.1,1585v151.8h37.4V1585H-1084.1z
			"/>
	</g>
	<g>
		<path class="st19" d="M-857.8,1661.4c0,43.6-29.8,78.8-78.8,78.8s-78.5-35.3-78.5-78.8c0-43.2,30.1-78.8,78.2-78.8
			C-888.7,1582.5-857.8,1618.1-857.8,1661.4z M-977.7,1661.4c0,23,13.8,44.5,41.1,44.5c27.3,0,41.1-21.5,41.1-44.5
			c0-22.7-16-44.8-41.1-44.8C-963.6,1616.6-977.7,1638.7-977.7,1661.4z"/>
		<path class="st19" d="M-714.5,1736.8v-79.1c0-23-12.6-40.5-36.5-40.5c-23,0-38.6,19.3-38.6,42.3v77.3h-37.1v-151.5h33.4l2.5,20.6
			c15.3-15,30.7-22.7,49.7-22.7c35.6,0,64.1,26.7,64.1,74.2v79.4H-714.5z"/>
		<path class="st19" d="M-540.3,1625.8c-10.7-10.1-23-13.5-37.4-13.5c-17.8,0-27.6,5.5-27.6,15c0,9.8,8.9,15.3,28.2,16.6
			c28.5,1.8,64.7,8.3,64.7,48.5c0,26.7-21.8,49.7-65,49.7c-23.9,0-47.9-4-69.9-27l18.4-26.7c10.7,12,35.3,20.9,52.1,21.2
			c14.1,0.3,27.3-7.1,27.3-18.1c0-10.4-8.6-14.7-30.1-16c-28.5-2.1-62.6-12.6-62.6-46.9c0-35,36.2-47.2,63.8-47.2
			c23.6,0,41.4,4.6,58.9,19.9L-540.3,1625.8z"/>
	</g>
</g>
<g>
	<defs>
		<rect id="SVGID_15_" x="-2745.9" y="939.6" width="2516.2" height="1106"/>
	</defs>
	<clipPath id="SVGID_16_">
		<use xlink:href="#SVGID_15_"  style="overflow:visible;"/>
	</clipPath>
	<path class="st24" d="M-2196.5,1225.2c-147.9,0-267.9,119.9-267.9,267.9s119.9,267.9,267.9,267.9c147.9,0,267.9-119.9,267.9-267.9
		S-2048.6,1225.2-2196.5,1225.2z M-2156.3,1352.8c44.2,30.2,55.6,90.7,25.4,134.9l-47.6-32.5c12.3-18,7.6-42.5-10.3-54.8
		c-18-12.3-42.5-7.6-54.8,10.3l-47.6-32.5C-2261,1334.1-2200.5,1322.7-2156.3,1352.8z M-2085.8,1645.7l-216.7-148.6l-8.1,11.9
		l2.1,1.5c3.4,2.4,4.3,7.1,2,10.5c-2.4,3.4-7.1,4.3-10.5,2l-51.9-35.6c-3.4-2.4-4.3-7.1-2-10.5c2.4-3.4,7.1-4.3,10.5-2l2.1,1.5
		l49.8-72.6l-2.1-1.5c-3.4-2.4-4.3-7.1-2-10.5c2.4-3.4,7.1-4.3,10.5-2l51.9,35.6c3.4,2.4,4.3,7.1,2,10.5c-2.4,3.4-7.1,4.3-10.5,2
		l-2.1-1.5l-9,13.2l216.7,148.6L-2085.8,1645.7z"/>
</g>
</svg>
