<svg width="24" height="25" viewBox="0 0 24 25" fill="none" xmlns="http://www.w3.org/2000/svg">
<path fill-rule="evenodd" clip-rule="evenodd" d="M18 3.88086H20.8125C21.7453 3.88086 22.5 4.63555 22.5 5.56836V21.6934C22.5 22.6238 21.7453 23.3809 20.8125 23.3809H3.1875C2.25469 23.3809 1.5 22.6262 1.5 21.6934V5.56836C1.5 4.63555 2.25469 3.88086 3.1875 3.88086H6V3.22461C6 2.7582 6.37734 2.38086 6.84375 2.38086C7.31016 2.38086 7.6875 2.7582 7.6875 3.22461V3.88086H16.3125V3.22461C16.3125 2.7582 16.6898 2.38086 17.1562 2.38086C17.6227 2.38086 18 2.7582 18 3.22461V3.88086ZM6 5.56836H3.1875V8.19336H20.8125V5.56836H18V6.03711C18 6.50352 17.6227 6.88086 17.1562 6.88086C16.6898 6.88086 16.3125 6.50352 16.3125 6.03711V5.56836H7.6875V6.03711C7.6875 6.50352 7.31016 6.88086 6.84375 6.88086C6.37734 6.88086 6 6.50352 6 6.03711V5.56836ZM20.8125 21.6934H3.1875V9.88086H20.8125V21.6934ZM8.25 12.8809H6.75C6.33516 12.8809 6 13.216 6 13.6309C6 14.0457 6.33516 14.3809 6.75 14.3809H8.25C8.66484 14.3809 9 14.0457 9 13.6309C9 13.216 8.66484 12.8809 8.25 12.8809ZM11.25 12.8809H12.75C13.1648 12.8809 13.5 13.216 13.5 13.6309C13.5 14.0457 13.1648 14.3809 12.75 14.3809H11.25C10.8352 14.3809 10.5 14.0457 10.5 13.6309C10.5 13.216 10.8352 12.8809 11.25 12.8809ZM17.25 12.8809H15.75C15.3352 12.8809 15 13.216 15 13.6309C15 14.0457 15.3352 14.3809 15.75 14.3809H17.25C17.6648 14.3809 18 14.0457 18 13.6309C18 13.216 17.6648 12.8809 17.25 12.8809ZM6.75 17.4277H8.25C8.66484 17.4277 9 17.7629 9 18.1777C9 18.5926 8.66484 18.9277 8.25 18.9277H6.75C6.33516 18.9277 6 18.5926 6 18.1777C6 17.7629 6.33516 17.4277 6.75 17.4277ZM12.75 17.4277H11.25C10.8352 17.4277 10.5 17.7629 10.5 18.1777C10.5 18.5926 10.8352 18.9277 11.25 18.9277H12.75C13.1648 18.9277 13.5 18.5926 13.5 18.1777C13.5 17.7629 13.1648 17.4277 12.75 17.4277Z" fill="#989898"/>
</svg>
