<svg width="56" height="56" viewBox="0 0 56 56" fill="none" xmlns="http://www.w3.org/2000/svg">
<g clip-path="url(#clip0)">
<path d="M37.227 17.9515C47.4523 17.7953 55.798 25.8432 55.996 36.0676C56.0251 37.5688 55.875 39.0299 55.5659 40.4315C55.0424 42.8046 54.7313 45.2195 54.7313 47.6497V52.3471C54.7313 53.0668 54.1479 53.6502 53.4282 53.6502H48.7307C46.3005 53.6502 43.8857 53.9614 41.5125 54.4848C40.1111 54.7939 38.65 54.944 37.1488 54.9149C26.9244 54.717 18.8765 46.3715 19.0325 36.1465C19.1846 26.166 27.2467 18.1039 37.227 17.9515Z" fill="url(#paint0_linear)"/>
<path d="M37.227 17.9515C47.4523 17.7953 55.798 25.8432 55.996 36.0676C56.0251 37.5688 55.875 39.0299 55.5659 40.4315C55.0424 42.8046 54.7313 45.2195 54.7313 47.6497V52.3471C54.7313 53.0668 54.1479 53.6502 53.4282 53.6502H48.7307C46.3005 53.6502 43.8857 53.9614 41.5125 54.4848C40.1111 54.7939 38.65 54.944 37.1488 54.9149C26.9244 54.717 18.8765 46.3715 19.0325 36.1465C19.1846 26.166 27.2467 18.1039 37.227 17.9515Z" fill="url(#paint1_linear)"/>
<path d="M22.8696 1.08476C10.4125 0.894443 0.245097 10.6989 0.00381664 23.1552C-0.0315114 24.9838 0.151254 26.7641 0.527941 28.4714C1.1656 31.3624 1.54469 34.3045 1.54469 37.2652V42.9879C1.54469 43.8646 2.25541 44.5755 3.13226 44.5755H8.85497C11.8155 44.5755 14.7576 44.9545 17.6487 45.5922C19.356 45.9688 21.1362 46.1517 22.9649 46.1162C35.4209 45.875 45.2254 35.708 45.0355 23.2511C44.85 11.0922 35.0284 1.27036 22.8696 1.08476Z" fill="url(#paint2_linear)"/>
<path d="M14.4588 22.3934C13.8227 21.7175 12.9223 21.293 11.9207 21.293C9.99427 21.293 8.43262 22.8546 8.43262 24.781C8.43262 25.7826 8.85699 26.683 9.53304 27.3192L17.0574 34.8435C17.6936 35.5194 18.594 35.9439 19.5955 35.9439C21.5219 35.9439 23.0836 34.3823 23.0836 32.4559C23.0836 31.4543 22.6591 30.5539 21.9832 29.9177L14.4588 22.3934Z" fill="url(#paint3_linear)"/>
<path d="M11.9207 28.2691C13.8471 28.2691 15.4088 26.7075 15.4088 24.7811C15.4088 22.8546 13.8471 21.293 11.9207 21.293C9.99428 21.293 8.43262 22.8546 8.43262 24.7811C8.43262 26.7075 9.99428 28.2691 11.9207 28.2691Z" fill="white"/>
<path d="M24.3226 22.3934C23.6865 21.7175 22.7861 21.293 21.7845 21.293C19.858 21.293 18.2964 22.8546 18.2964 24.781C18.2964 25.7826 18.7208 26.683 19.3968 27.3192L26.9211 34.8435C27.5574 35.5194 28.4577 35.9439 29.4593 35.9439C31.3857 35.9439 32.9473 34.3823 32.9473 32.4559C32.9473 31.4543 32.5229 30.5539 31.8469 29.9177L24.3226 22.3934Z" fill="url(#paint4_linear)"/>
<path d="M21.7849 28.2691C23.7114 28.2691 25.273 26.7075 25.273 24.7811C25.273 22.8546 23.7114 21.293 21.7849 21.293C19.8585 21.293 18.2969 22.8546 18.2969 24.7811C18.2969 26.7075 19.8585 28.2691 21.7849 28.2691Z" fill="white"/>
<path d="M34.1878 22.3934C33.5517 21.7175 32.6513 21.293 31.6497 21.293C29.7233 21.293 28.1616 22.8546 28.1616 24.781C28.1616 25.7826 28.5861 26.683 29.262 27.3192L36.7864 34.8435C37.4226 35.5194 38.323 35.9439 39.3245 35.9439C41.2509 35.9439 42.8126 34.3823 42.8126 32.4559C42.8126 31.4543 42.3881 30.5539 41.7122 29.9177L34.1878 22.3934Z" fill="url(#paint5_linear)"/>
<path d="M31.6497 28.2691C33.5761 28.2691 35.1378 26.7075 35.1378 24.7811C35.1378 22.8546 33.5761 21.293 31.6497 21.293C29.7233 21.293 28.1616 22.8546 28.1616 24.7811C28.1616 26.7075 29.7233 28.2691 31.6497 28.2691Z" fill="white"/>
</g>
<defs>
<linearGradient id="paint0_linear" x1="33.7835" y1="32.7036" x2="60.922" y2="59.8422" gradientUnits="userSpaceOnUse">
<stop stop-color="#F3BA79"/>
<stop offset="1" stop-color="#FA8500"/>
</linearGradient>
<linearGradient id="paint1_linear" x1="42.6673" y1="41.5869" x2="31.1403" y2="30.061" gradientUnits="userSpaceOnUse">
<stop stop-color="#FA8500" stop-opacity="0"/>
<stop offset="1" stop-color="#FA8500"/>
</linearGradient>
<linearGradient id="paint2_linear" x1="14.2915" y1="19.9606" x2="42.9441" y2="48.6133" gradientUnits="userSpaceOnUse">
<stop stop-color="#A361E4"/>
<stop offset="1" stop-color="#5C02B5"/>
</linearGradient>
<linearGradient id="paint3_linear" x1="19.6799" y1="32.541" x2="4.59391" y2="17.4554" gradientUnits="userSpaceOnUse">
<stop stop-color="#5C02B5" stop-opacity="0"/>
<stop offset="1" stop-color="#5C02B5"/>
</linearGradient>
<linearGradient id="paint4_linear" x1="29.543" y1="32.5406" x2="14.4574" y2="17.455" gradientUnits="userSpaceOnUse">
<stop stop-color="#5C02B5" stop-opacity="0"/>
<stop offset="1" stop-color="#5C02B5"/>
</linearGradient>
<linearGradient id="paint5_linear" x1="39.4083" y1="32.5408" x2="24.3227" y2="17.4552" gradientUnits="userSpaceOnUse">
<stop stop-color="#5C02B5" stop-opacity="0"/>
<stop offset="1" stop-color="#5C02B5"/>
</linearGradient>
<clipPath id="clip0">
<rect width="56" height="56" fill="white"/>
</clipPath>
</defs>
</svg>
