<svg width="21" height="17" viewBox="0 0 21 17" fill="none" xmlns="http://www.w3.org/2000/svg">
<path d="M12.4768 15.3418H8.52295C8.18318 15.3418 7.90771 15.6173 7.90771 15.957C7.90771 16.2968 8.18318 16.5723 8.52295 16.5723H12.4768C12.8166 16.5723 13.0921 16.2968 13.0921 15.957C13.0921 15.6173 12.8166 15.3418 12.4768 15.3418Z" fill="#9F9F9F"/>
<path d="M12.2308 11.5461C12.36 11.2869 12.433 10.9948 12.433 10.6855C12.433 9.61813 11.5677 8.75287 10.5004 8.75287C10.191 8.75287 9.89885 8.82596 9.63959 8.9552L6.74167 6.05716C6.50144 5.81689 6.11188 5.81689 5.87161 6.05716C5.63134 6.29738 5.63134 6.68691 5.87161 6.92722L8.76973 9.82547C8.64074 10.0845 8.56781 10.3764 8.56781 10.6855C8.56781 11.7528 9.43308 12.6181 10.5004 12.6181C10.8096 12.6181 11.1015 12.5451 11.3606 12.4161L12.0423 13.0979C12.2826 13.3382 12.6721 13.3382 12.9124 13.098C13.1527 12.8577 13.1527 12.4682 12.9124 12.2279L12.2308 11.5461ZM10.5004 11.3876C10.1132 11.3876 9.79824 11.0727 9.79824 10.6855C9.79824 10.2984 10.1132 9.98338 10.5004 9.98338C10.8876 9.98338 11.2025 10.2984 11.2025 10.6855C11.2025 11.0727 10.8875 11.3876 10.5004 11.3876Z" fill="#9F9F9F"/>
<path d="M10.5 0.185547C4.71028 0.185547 0 4.89582 0 10.6855C0 12.5308 0.486527 14.3465 1.40704 15.9362C1.57709 16.2299 1.95288 16.3304 2.24679 16.1608C2.24692 16.1608 3.95924 15.1723 3.95924 15.1723C4.25348 15.0024 4.3543 14.6262 4.18441 14.3319C4.01453 14.0376 3.63833 13.9367 3.344 14.1067L2.18195 14.7776C1.64817 13.6939 1.33215 12.5109 1.25171 11.3008H2.59219C2.93196 11.3008 3.20742 11.0254 3.20742 10.6856C3.20742 10.3458 2.93196 10.0704 2.59219 10.0704H1.25139C1.33309 8.82979 1.65978 7.65523 2.18371 6.59457L3.34404 7.26447C3.63837 7.43448 4.01465 7.33354 4.18446 7.0393C4.35434 6.74501 4.25353 6.36873 3.95928 6.19889L2.80038 5.52976C3.47488 4.52578 4.34027 3.66039 5.34425 2.98589L6.0133 4.14466C6.18319 4.43895 6.55946 4.53985 6.85371 4.36984C7.14796 4.19991 7.24877 3.82367 7.07889 3.52943L6.40902 2.36922C7.46968 1.84533 8.64429 1.51884 9.88477 1.43702V2.77778C9.88477 3.11755 10.1602 3.39301 10.5 3.39301C10.8398 3.39301 11.1152 3.11755 11.1152 2.77778V1.43702C12.3557 1.51884 13.5303 1.84537 14.591 2.36922L13.9211 3.52943C13.7512 3.82367 13.852 4.19995 14.1463 4.36984C14.4405 4.53985 14.8168 4.43895 14.9867 4.14466L15.6557 2.98589C16.6597 3.66035 17.5252 4.52574 18.1996 5.52976L17.0408 6.19881C16.7465 6.36869 16.6457 6.74493 16.8156 7.03922C16.9854 7.33346 17.3617 7.4344 17.656 7.26439L18.8163 6.59448C19.3402 7.65515 19.667 8.82971 19.7487 10.0703H18.4078C18.068 10.0703 17.7926 10.3457 17.7926 10.6855C17.7926 11.0253 18.068 11.3007 18.4078 11.3007H19.7483C19.6679 12.5108 19.3518 13.6938 18.8181 14.7775L17.656 14.1066C17.3617 13.9366 16.9855 14.0375 16.8156 14.3318C16.6457 14.6261 16.7465 15.0024 17.0408 15.1722C17.0408 15.1722 18.7531 16.1607 18.7532 16.1608C19.0472 16.3303 19.4229 16.2299 19.593 15.9362C20.5135 14.3465 21 12.5309 21 10.6855C21 4.89582 16.2897 0.185547 10.5 0.185547Z" fill="#9F9F9F"/>
</svg>
