<svg width="24" height="24" viewBox="0 0 24 24" fill="none" xmlns="http://www.w3.org/2000/svg">
<path fill-rule="evenodd" clip-rule="evenodd" d="M18.025 3.30194H20.7701C21.6805 3.30194 22.4171 4.03854 22.4171 4.949V20.6876C22.4171 21.5957 21.6805 22.3346 20.7701 22.3346H3.56747C2.65701 22.3346 1.92041 21.598 1.92041 20.6876V4.949C1.92041 4.03854 2.65701 3.30194 3.56747 3.30194H6.31257V2.66142C6.31257 2.20619 6.68087 1.83789 7.1361 1.83789C7.59132 1.83789 7.95963 2.20619 7.95963 2.66142V3.30194H16.3779V2.66142C16.3779 2.20619 16.7462 1.83789 17.2015 1.83789C17.6567 1.83789 18.025 2.20619 18.025 2.66142V3.30194ZM6.30951 4.92894H3.56442V7.49103H20.767V4.92894H18.0219V5.38645C18.0219 5.84168 17.6536 6.20998 17.1984 6.20998C16.7432 6.20998 16.3749 5.84168 16.3749 5.38645V4.92894H7.95657V5.38645C7.95657 5.84168 7.58827 6.20998 7.13304 6.20998C6.67781 6.20998 6.30951 5.84168 6.30951 5.38645V4.92894ZM20.767 20.6699H3.56442V9.14047H20.767V20.6699ZM8.50569 12.0828H7.04163C6.63673 12.0828 6.30961 12.4099 6.30961 12.8148C6.30961 13.2197 6.63673 13.5468 7.04163 13.5468H8.50569C8.91059 13.5468 9.23771 13.2197 9.23771 12.8148C9.23771 12.4099 8.91059 12.0828 8.50569 12.0828ZM11.4335 12.0828H12.8975C13.3024 12.0828 13.6295 12.4099 13.6295 12.8148C13.6295 13.2197 13.3024 13.5468 12.8975 13.5468H11.4335C11.0286 13.5468 10.7014 13.2197 10.7014 12.8148C10.7014 12.4099 11.0286 12.0828 11.4335 12.0828ZM17.2954 12.0828H15.8313C15.4264 12.0828 15.0993 12.4099 15.0993 12.8148C15.0993 13.2197 15.4264 13.5468 15.8313 13.5468H17.2954C17.7003 13.5468 18.0274 13.2197 18.0274 12.8148C18.0274 12.4099 17.7003 12.0828 17.2954 12.0828ZM7.04163 16.5299H8.50569C8.91059 16.5299 9.23771 16.857 9.23771 17.2619C9.23771 17.6668 8.91059 17.9939 8.50569 17.9939H7.04163C6.63673 17.9939 6.30961 17.6668 6.30961 17.2619C6.30961 16.857 6.63673 16.5299 7.04163 16.5299ZM12.8975 16.5299H11.4335C11.0286 16.5299 10.7014 16.857 10.7014 17.2619C10.7014 17.6668 11.0286 17.9939 11.4335 17.9939H12.8975C13.3024 17.9939 13.6295 17.6668 13.6295 17.2619C13.6295 16.857 13.3024 16.5299 12.8975 16.5299Z" fill="white"/>
</svg>
